#N canvas 1280 18 636 1009 12;
#X obj 396 309 vline~;
#X obj 396 375 *~;
#X obj 42 284 *~;
#X obj 42 354 outlet~;
#X obj 43 245 inlet~;
#X obj 105 175 vsl 15 60 5 2000 0 0 empty empty atk 0 -9 0 10 #fcfcfc
#000000 #000000 0 1;
#X obj 125 175 vsl 15 60 5 2000 0 0 empty empty rls 0 -9 0 10 #fcfcfc
#000000 #000000 0 1;
#X obj 103 119 bng 40 250 50 0 empty empty empty 17 7 0 10 #fcfcfc
#000000 #000000;
#X obj 387 60 inlet;
#X obj 540 58 inlet;
#X text 434 49 attack time, f 7;
#X text 582 48 release time, f 7;
#X obj 230 61 inlet;
#X text 271 61 gate;
#X obj 388 182 pack f f;
#X obj 390 231 list;
#X obj 435 230 print lo;
#X obj 539 148 t b f;
#X obj 388 118 f 5;
#X obj 454 102 loadbang;
#X obj 540 121 f 100;
#X obj 504 333 print vla;
#X msg 396 269 0 1 0 \, 1 \$1 5 \, 0 \$2 \$1;
#X connect 0 0 1 0;
#X connect 0 0 1 1;
#X connect 1 0 2 1;
#X connect 2 0 3 0;
#X connect 4 0 2 0;
#X connect 8 0 5 0;
#X connect 8 0 18 0;
#X connect 9 0 6 0;
#X connect 9 0 20 0;
#X connect 12 0 7 0;
#X connect 12 0 15 0;
#X connect 14 0 15 1;
#X connect 15 0 16 0;
#X connect 15 0 22 0;
#X connect 17 0 18 0;
#X connect 17 1 14 1;
#X connect 18 0 14 0;
#X connect 19 0 18 0;
#X connect 19 0 20 0;
#X connect 20 0 17 0;
#X connect 22 0 0 0;
#X connect 22 0 21 0;
#X coords 0 -1 1 1 45 145 1 100 100;
