#N canvas 960 18 476 1009 12;
#X obj 396 309 vline~;
#X obj 76 510 outlet~;
#X obj 43 284 inlet~;
#X obj 105 175 vsl 15 60 5 2000 0 0 empty empty atk 0 -9 0 10 #fcfcfc
#000000 #000000 0 1;
#X obj 125 175 vsl 15 60 5 2000 0 0 empty empty rls 0 -9 0 10 #fcfcfc
#000000 #000000 0 1;
#X obj 103 119 bng 40 250 50 0 empty empty empty 17 7 0 10 #fcfcfc
#000000 #000000;
#X obj 387 60 inlet;
#X obj 540 58 inlet;
#X text 434 49 attack time, f 7;
#X text 582 48 release time, f 7;
#X obj 230 61 inlet;
#X text 271 61 gate;
#X obj 388 182 pack f f;
#X obj 390 231 list;
#X obj 539 148 t b f;
#X obj 454 102 loadbang;
#X obj 540 121 f 100;
#X obj 76 441 vcf~ 1, f 8;
#X obj 388 118 f 10;
#X obj 331 68 bng 15 250 50 0 empty empty empty 17 7 0 10 #fcfcfc #000000
#000000;
#X msg 396 269 0 1 0 \, 1 \$1 5 \, 0 \$2 \$1;
#X obj 214 443 *~;
#X obj 145 175 vsl 15 60 5 20000 0 0 empty empty f 0 -9 0 10 #fcfcfc
#000000 #000000 0 1;
#X obj 689 361 inlet;
#X obj 689 421 f 5000;
#X obj 701 391 loadbang;
#X obj 767 391 bng 15 250 50 0 empty empty empty 17 7 0 10 #fcfcfc
#000000 #000000;
#X floatatom 689 455 5 0 0 0 - - - 0;
#X obj 302 383 *~;
#X connect 0 0 28 0;
#X connect 0 0 28 1;
#X connect 2 0 17 0;
#X connect 6 0 3 0;
#X connect 6 0 18 0;
#X connect 7 0 4 0;
#X connect 7 0 16 0;
#X connect 10 0 5 0;
#X connect 10 0 13 0;
#X connect 12 0 13 1;
#X connect 13 0 20 0;
#X connect 14 0 18 0;
#X connect 14 1 12 1;
#X connect 15 0 16 0;
#X connect 15 0 18 0;
#X connect 16 0 14 0;
#X connect 17 1 1 0;
#X connect 18 0 12 0;
#X connect 19 0 18 0;
#X connect 20 0 0 0;
#X connect 21 0 17 1;
#X connect 23 0 24 0;
#X connect 24 0 21 1;
#X connect 24 0 22 0;
#X connect 24 0 27 0;
#X connect 25 0 24 0;
#X connect 26 0 24 0;
#X connect 28 0 21 0;
#X coords 0 -1 1 1 65 145 1 100 100;
