#N canvas 549 805 661 482 12;
#X obj 38 41 inlet;
#X obj 78 177 f;
#X obj 115 177 + 1;
#X obj 79 285 bng 15 250 50 0 empty empty empty 17 7 0 10 #fcfcfc #000000
#000000;
#X obj 105 285 bng 15 250 50 0 empty empty empty 17 7 0 10 #fcfcfc
#000000 #000000;
#X obj 75 356 outlet;
#X obj 133 356 outlet;
#X obj 153 178 % 4;
#X obj 131 285 bng 15 250 50 0 empty empty empty 17 7 0 10 #fcfcfc
#000000 #000000;
#X obj 79 222 sel 0 1 2 3;
#X obj 192 356 outlet;
#X connect 0 0 1 0;
#X connect 1 0 2 0;
#X connect 1 0 9 0;
#X connect 2 0 1 1;
#X connect 2 0 7 0;
#X connect 3 0 5 0;
#X connect 4 0 6 0;
#X connect 7 0 1 1;
#X connect 8 0 10 0;
#X connect 9 0 3 0;
#X connect 9 0 4 0;
#X connect 9 0 8 0;
#X connect 9 1 3 0;
#X connect 9 2 3 0;
#X connect 9 2 4 0;
#X connect 9 3 3 0;
