#N canvas 1422 375 652 863 12;
#X obj 108 68 inlet;
#X obj 110 161 osc~;
#X obj 110 307 *~;
#X obj 225 70 inlet;
#X obj 109 117 mtof;
#X obj 225 112 bng 15 250 50 0 empty empty empty 17 7 0 10 #fcfcfc
#000000 #000000;
#X obj 111 372 outlet~;
#X msg 371 178 0 100;
#X msg 222 178 1 100;
#X obj 223 271 vline~;
#X obj 295 178 del 150;
#X connect 0 0 4 0;
#X connect 1 0 2 0;
#X connect 2 0 6 0;
#X connect 3 0 5 0;
#X connect 4 0 1 0;
#X connect 5 0 8 0;
#X connect 5 0 10 0;
#X connect 7 0 9 0;
#X connect 8 0 9 0;
#X connect 9 0 2 1;
#X connect 10 0 7 0;
