#N canvas 0 18 956 933 12;
#X obj 89 320 comport;
#X msg 142 181 devices;
#X floatatom 488 228 5 0 0 0 - - - 0;
#X msg 240 216 close;
#X obj 472 39 r BN;
#X obj 394 26 bng 15 250 50 0 empty empty empty 17 7 0 10 #fcfcfc #000000
#000000;
#X obj 794 245 Counter 16;
#X obj 731 179 tgl 15 0 empty empty empty 17 7 0 10 #fcfcfc #000000
#000000 0 1;
#X obj 753 297 s BN;
#X obj 720 49 ctlin 8 1;
#X obj 732 81 / 4;
#X obj 765 200 metro 400;
#X text 607 208 BUG: if metro < 200ms LED board freezes up and goes
into "wait" mode same if lots of parameter updates are sent seems like
the esp32 is receiving commands but theyre not making sense. possible
the weirdness is happening within PureData, f 19;
#X obj 134 261 r cmds;
#X obj 421 338 s cmds;
#X obj 159 109 s cmds;
#X obj 907 174 s cmds;
#X obj 829 83 int;
#X floatatom 513 75 5 0 0 0 - - - 0;
#X msg 21 134 open 4;
#X msg 332 126 250 1 0 \$1 255;
#X msg 390 278 250 2 \$1 0 255;
#X msg 866 133 250 1 2 \$1 255;
#X obj 160 295 print;
#X obj 154 405 print o;
#X obj 601 610 Counter 16;
#X obj 660 702 s cmds;
#X msg 619 661 250 1 2 \$1 255;
#X obj 566 475 tgl 15 0 empty empty empty 17 7 0 10 #fcfcfc #000000
#000000 0 1;
#X obj 574 514 metro 50;
#X connect 0 0 24 0;
#X connect 1 0 0 0;
#X connect 2 0 21 0;
#X connect 3 0 0 0;
#X connect 4 0 2 0;
#X connect 4 0 5 0;
#X connect 4 0 18 0;
#X connect 4 0 20 0;
#X connect 6 0 8 0;
#X connect 7 0 11 0;
#X connect 9 0 10 0;
#X connect 10 0 17 0;
#X connect 11 0 6 0;
#X connect 13 0 0 0;
#X connect 17 0 22 0;
#X connect 19 0 0 0;
#X connect 20 0 15 0;
#X connect 21 0 14 0;
#X connect 22 0 16 0;
#X connect 25 0 27 0;
#X connect 27 0 26 0;
#X connect 28 0 29 0;
#X connect 29 0 25 0;
