#N canvas 0 25 1680 902 12;
#X obj 211 406 == 0;
#X obj 211 433 sel 1;
#X text 77 369 “you give me the one \, you can do all those other
things.” - James Brown >>>>>, f 18;
#X msg 211 460 0;
#X obj 244 463 bng 15 250 50 0 empty empty empty 17 7 0 10 #fcfcfc
#000000 #000000;
#X obj 363 64 bng 50 250 50 0 empty empty reshuffle 55 7 0 50 #ff0400
#000000 #000000;
#X obj 602 126 hsl 128 15 0 100 0 0 empty empty prob% -2 -8 0 10 #fcfcfc
#000000 #000000 0 1;
#X floatatom 552 122 5 0 0 0 - - - 0;
#X obj 272 291 r \$0-n;
#X obj 269 230 s \$0-n;
#X obj 323 312 r \$0-r;
#X obj 337 336 r \$0-p;
#X obj 392 292 r \$0-n;
#X obj 443 313 r \$0-r;
#X obj 457 337 r \$0-p;
#X obj 512 294 r \$0-n;
#X obj 563 315 r \$0-r;
#X obj 577 339 r \$0-p;
#X obj 632 295 r \$0-n;
#X obj 683 316 r \$0-r;
#X obj 697 340 r \$0-p;
#X obj 753 296 r \$0-n;
#X obj 804 317 r \$0-r;
#X obj 818 341 r \$0-p;
#X obj 875 295 r \$0-n;
#X obj 926 316 r \$0-r;
#X obj 940 340 r \$0-p;
#X obj 995 295 r \$0-n;
#X obj 1046 316 r \$0-r;
#X obj 1060 340 r \$0-p;
#X obj 364 128 s \$0-r;
#X obj 597 152 s \$0-p;
#X obj 211 370 r \$0-n;
#X floatatom 350 220 5 0 0 2 beat - - 36;
#X obj 269 193 % 16;
#X obj 271 530 r \$0-n;
#X obj 322 551 r \$0-r;
#X obj 336 575 r \$0-p;
#X obj 391 531 r \$0-n;
#X obj 442 552 r \$0-r;
#X obj 456 576 r \$0-p;
#X obj 511 533 r \$0-n;
#X obj 562 554 r \$0-r;
#X obj 576 578 r \$0-p;
#X obj 631 534 r \$0-n;
#X obj 682 555 r \$0-r;
#X obj 696 579 r \$0-p;
#X obj 752 535 r \$0-n;
#X obj 803 556 r \$0-r;
#X obj 817 580 r \$0-p;
#X obj 874 534 r \$0-n;
#X obj 925 555 r \$0-r;
#X obj 939 579 r \$0-p;
#X obj 994 534 r \$0-n;
#X obj 1045 555 r \$0-r;
#X obj 1059 579 r \$0-p;
#X obj 212 671 sel 1;
#X msg 212 698 0;
#X obj 245 701 bng 15 250 50 0 empty empty empty 17 7 0 10 #fcfcfc
#000000 #000000;
#X obj 212 608 r \$0-n;
#X obj 212 644 == 8;
#X obj 31 7 inlet;
#X obj 85 856 outlet;
#X obj 359 9 inlet;
#X msg 714 101 50;
#X obj 744 74 loadbang;
#X obj 725 30 inlet;
#X floatatom 151 835 5 0 0 0 - - - 0;
#X obj 211 494 s \$0-no;
#X obj 271 494 s \$0-no;
#X obj 392 493 s \$0-no;
#X obj 514 492 s \$0-no;
#X obj 632 494 s \$0-no;
#X obj 753 496 s \$0-no;
#X obj 875 496 s \$0-no;
#X obj 995 499 s \$0-no;
#X obj 84 829 r \$0-no;
#X obj 213 741 s \$0-no;
#X obj 273 741 s \$0-no;
#X obj 394 740 s \$0-no;
#X obj 516 739 s \$0-no;
#X obj 634 741 s \$0-no;
#X obj 755 743 s \$0-no;
#X obj 877 743 s \$0-no;
#X obj 997 746 s \$0-no;
#X obj 272 370 BS_Step 1 4;
#X obj 392 371 BS_Step 2 4;
#X obj 512 373 BS_Step 3 4;
#X obj 632 374 BS_Step 4 4;
#X obj 753 375 BS_Step 5 4;
#X obj 875 371 BS_Step 6 4;
#X obj 995 374 BS_Step 7 4;
#X obj 271 609 BS_Step 9 4;
#X obj 391 610 BS_Step 10 4;
#X obj 511 612 BS_Step 11 4;
#X obj 631 613 BS_Step 12 4;
#X obj 752 614 BS_Step 13 4;
#X obj 874 613 BS_Step 14 4;
#X obj 994 613 BS_Step 15 4;
#X connect 0 0 1 0;
#X connect 1 0 3 0;
#X connect 1 0 4 0;
#X connect 3 0 68 0;
#X connect 5 0 30 0;
#X connect 6 0 7 0;
#X connect 6 0 31 0;
#X connect 8 0 85 0;
#X connect 10 0 85 1;
#X connect 11 0 85 2;
#X connect 12 0 86 0;
#X connect 13 0 86 1;
#X connect 14 0 86 2;
#X connect 15 0 87 0;
#X connect 16 0 87 1;
#X connect 17 0 87 2;
#X connect 18 0 88 0;
#X connect 19 0 88 1;
#X connect 20 0 88 2;
#X connect 21 0 89 0;
#X connect 22 0 89 1;
#X connect 23 0 89 2;
#X connect 24 0 90 0;
#X connect 25 0 90 1;
#X connect 26 0 90 2;
#X connect 27 0 91 0;
#X connect 28 0 91 1;
#X connect 29 0 91 2;
#X connect 32 0 0 0;
#X connect 34 0 9 0;
#X connect 34 0 33 0;
#X connect 35 0 92 0;
#X connect 36 0 92 1;
#X connect 37 0 92 2;
#X connect 38 0 93 0;
#X connect 39 0 93 1;
#X connect 40 0 93 2;
#X connect 41 0 94 0;
#X connect 42 0 94 1;
#X connect 43 0 94 2;
#X connect 44 0 95 0;
#X connect 45 0 95 1;
#X connect 46 0 95 2;
#X connect 47 0 96 0;
#X connect 48 0 96 1;
#X connect 49 0 96 2;
#X connect 50 0 97 0;
#X connect 51 0 97 1;
#X connect 52 0 97 2;
#X connect 53 0 98 0;
#X connect 54 0 98 1;
#X connect 55 0 98 2;
#X connect 56 0 57 0;
#X connect 56 0 58 0;
#X connect 57 0 77 0;
#X connect 59 0 60 0;
#X connect 60 0 56 0;
#X connect 61 0 34 0;
#X connect 63 0 5 0;
#X connect 64 0 6 0;
#X connect 65 0 64 0;
#X connect 66 0 6 0;
#X connect 76 0 62 0;
#X connect 76 0 67 0;
#X connect 85 0 69 0;
#X connect 86 0 70 0;
#X connect 87 0 71 0;
#X connect 88 0 72 0;
#X connect 89 0 73 0;
#X connect 90 0 74 0;
#X connect 91 0 75 0;
#X connect 92 0 78 0;
#X connect 93 0 79 0;
#X connect 94 0 80 0;
#X connect 95 0 81 0;
#X connect 96 0 82 0;
#X connect 97 0 83 0;
#X connect 98 0 84 0;
