#N canvas 2312 1049 1425 882 12;
#X obj 76 49 Multi_Clock;
#X floatatom 269 23 5 0 0 0 - - - 0;
#X floatatom 269 159 5 0 0 0 - - - 0;
#X obj 269 182 % 8;
#X floatatom 269 206 5 0 0 0 - - - 0;
#X obj 1278 172 r no;
#X obj 1275 321 Basic_Voice;
#X floatatom 1232 246 5 0 0 0 - - - 0;
#X obj 1232 221 + 50;
#X obj 1340 362 Tapeish;
#X obj 1339 416 dac~;
#X obj 1380 320 tgl 15 0 empty empty empty 17 7 0 10 #fcfcfc #000000
#000000 0 1;
#X obj 269 243 BS_Step 1;
#X obj 390 243 BS_Step 2;
#X obj 208 245 == 0;
#X obj 208 272 sel 1;
#X obj 513 243 BS_Step 3;
#X obj 635 243 BS_Step 4;
#X obj 754 243 BS_Step 5;
#X obj 876 243 BS_Step 6;
#X obj 998 243 BS_Step 7;
#X text 74 242 “you give me the one \, you can do all those other
things.” - James Brown >>>>>, f 18;
#X msg 208 299 0;
#X obj 241 302 bng 15 250 50 0 empty empty empty 17 7 0 10 #fcfcfc
#000000 #000000;
#X obj 494 93 bng 50 250 50 0 empty empty RESHUFFLE 17 7 0 50 #ff0400
#000000 #000000;
#X floatatom 567 395 5 0 0 0 - - - 0;
#X obj 567 423 bng 50 250 50 0 empty empty empty 17 7 0 50 #ff0400
#000000 #000000;
#X obj 600 124 hsl 128 15 0 100 0 0 empty empty empty -2 -8 0 10 #fcfcfc
#000000 #000000 0 1;
#X connect 0 5 24 0;
#X connect 0 9 2 0;
#X connect 1 0 0 1;
#X connect 2 0 3 0;
#X connect 3 0 4 0;
#X connect 4 0 14 0;
#X connect 4 0 20 0;
#X connect 4 0 13 0;
#X connect 4 0 12 0;
#X connect 4 0 16 0;
#X connect 4 0 17 0;
#X connect 4 0 18 0;
#X connect 4 0 19 0;
#X connect 5 0 6 1;
#X connect 5 0 8 0;
#X connect 6 0 9 0;
#X connect 7 0 6 0;
#X connect 8 0 7 0;
#X connect 9 0 10 0;
#X connect 9 0 10 1;
#X connect 11 0 9 1;
#X connect 12 0 25 0;
#X connect 13 0 25 0;
#X connect 14 0 15 0;
#X connect 15 0 22 0;
#X connect 15 0 23 0;
#X connect 16 0 25 0;
#X connect 17 0 25 0;
#X connect 18 0 25 0;
#X connect 19 0 25 0;
#X connect 20 0 25 0;
#X connect 22 0 25 0;
#X connect 24 0 20 1;
#X connect 24 0 13 1;
#X connect 24 0 12 1;
#X connect 24 0 16 1;
#X connect 24 0 17 1;
#X connect 24 0 18 1;
#X connect 24 0 19 1;
#X connect 25 0 26 0;
#X connect 27 0 20 2;
#X connect 27 0 19 2;
#X connect 27 0 18 2;
#X connect 27 0 17 2;
#X connect 27 0 16 2;
#X connect 27 0 13 2;
#X connect 27 0 12 2;
