#N canvas 1280 18 636 1009 12;
#X obj 108 68 inlet;
#X obj 110 307 *~;
#X obj 385 86 inlet;
#X obj 109 117 mtof;
#X obj 385 128 bng 15 250 50 0 empty empty empty 17 7 0 10 #fcfcfc
#000000 #000000;
#X obj 110 498 outlet~;
#X obj 383 287 vline~;
#X msg 382 194 0 30 \, 1 20 30 \, 0 50 300;
#X obj 110 161 phasor~;
#X obj 70 220 expr~ -1+($v1 * 2);
#X obj 247 161 phasor~;
#X obj 207 220 expr~ -1+($v1 * 2);
#X obj 208 256 *~ 0.3;
#X obj 192 121 * 0.1;
#X obj 110 437 lop~ 200;
#X obj 489 338 inlet;
#X connect 0 0 3 0;
#X connect 1 0 14 0;
#X connect 2 0 4 0;
#X connect 3 0 8 0;
#X connect 3 0 13 0;
#X connect 4 0 7 0;
#X connect 6 0 1 1;
#X connect 7 0 6 0;
#X connect 8 0 9 0;
#X connect 9 0 1 0;
#X connect 10 0 11 0;
#X connect 11 0 12 0;
#X connect 12 0 1 0;
#X connect 13 0 10 0;
#X connect 14 0 5 0;
#X connect 15 0 14 1;
