#N canvas 255 25 1425 933 12;
#X obj 76 49 Multi_Clock;
#X floatatom 270 14 5 0 0 0 - - - 0;
#X obj 1206 767 Basic_Voice;
#X obj 1268 839 Tapeish;
#X obj 1267 893 dac~;
#X obj 1308 797 tgl 15 0 empty empty empty 17 7 0 10 #fcfcfc #000000
#000000 0 1;
#X obj 272 370 BS_Step 1;
#X obj 211 406 == 0;
#X obj 211 433 sel 1;
#X text 77 369 “you give me the one \, you can do all those other
things.” - James Brown >>>>>, f 18;
#X msg 211 460 0;
#X obj 244 463 bng 15 250 50 0 empty empty empty 17 7 0 10 #fcfcfc
#000000 #000000;
#X obj 440 86 bng 50 250 50 0 empty empty reshuffle 55 7 0 50 #ff0400
#000000 #000000;
#X obj 604 126 hsl 128 15 0 100 0 0 empty empty prob% -2 -8 0 10 #fcfcfc
#000000 #000000 0 1;
#X floatatom 552 122 5 0 0 0 - - - 0;
#X obj 272 291 r \$0-n;
#X obj 269 230 s \$0-n;
#X obj 211 494 s no;
#X obj 272 495 s no;
#X obj 323 312 r \$0-r;
#X obj 337 336 r \$0-p;
#X obj 392 292 r \$0-n;
#X obj 392 496 s no;
#X obj 443 313 r \$0-r;
#X obj 457 337 r \$0-p;
#X obj 512 294 r \$0-n;
#X obj 512 498 s no;
#X obj 563 315 r \$0-r;
#X obj 577 339 r \$0-p;
#X obj 632 295 r \$0-n;
#X obj 632 499 s no;
#X obj 683 316 r \$0-r;
#X obj 697 340 r \$0-p;
#X obj 753 296 r \$0-n;
#X obj 753 500 s no;
#X obj 804 317 r \$0-r;
#X obj 818 341 r \$0-p;
#X obj 875 295 r \$0-n;
#X obj 875 499 s no;
#X obj 926 316 r \$0-r;
#X obj 940 340 r \$0-p;
#X obj 995 295 r \$0-n;
#X obj 995 499 s no;
#X obj 1046 316 r \$0-r;
#X obj 1060 340 r \$0-p;
#X obj 392 371 BS_Step 2;
#X obj 512 373 BS_Step 3;
#X obj 632 374 BS_Step 4;
#X obj 753 375 BS_Step 5;
#X obj 875 374 BS_Step 6;
#X obj 995 374 BS_Step 7;
#X obj 441 150 s \$0-r;
#X obj 597 152 s \$0-p;
#X obj 211 370 r \$0-n;
#X floatatom 350 220 5 0 0 2 beat - - 36;
#X obj 1210 452 Scaler;
#X msg 1231 304 0 1;
#X floatatom 1299 391 5 0 0 0 - - - 0;
#X obj 1206 369 r no;
#X floatatom 1216 547 5 0 0 0 - - - 0;
#X floatatom 1164 408 5 0 0 0 - - - 0;
#X obj 1206 648 r sno;
#X obj 1217 594 s sno;
#X msg 1273 306 3 0;
#X obj 1237 217 sel 0 1;
#X obj 1225 172 Counter 2;
#X obj 1212 258 bng 15 250 50 0 empty empty empty 17 7 0 10 #fcfcfc
#000000 #000000;
#X obj 1278 258 bng 15 250 50 0 empty empty empty 17 7 0 10 #fcfcfc
#000000 #000000;
#X obj 1206 823 *~ 0.8;
#X obj 269 193 % 16;
#X obj 271 530 r \$0-n;
#X obj 271 734 s no;
#X obj 322 551 r \$0-r;
#X obj 336 575 r \$0-p;
#X obj 391 531 r \$0-n;
#X obj 391 735 s no;
#X obj 442 552 r \$0-r;
#X obj 456 576 r \$0-p;
#X obj 511 533 r \$0-n;
#X obj 511 737 s no;
#X obj 562 554 r \$0-r;
#X obj 576 578 r \$0-p;
#X obj 631 534 r \$0-n;
#X obj 631 738 s no;
#X obj 682 555 r \$0-r;
#X obj 696 579 r \$0-p;
#X obj 752 535 r \$0-n;
#X obj 752 739 s no;
#X obj 803 556 r \$0-r;
#X obj 817 580 r \$0-p;
#X obj 874 534 r \$0-n;
#X obj 874 738 s no;
#X obj 925 555 r \$0-r;
#X obj 939 579 r \$0-p;
#X obj 994 534 r \$0-n;
#X obj 994 738 s no;
#X obj 1045 555 r \$0-r;
#X obj 1059 579 r \$0-p;
#X obj 212 671 sel 1;
#X msg 212 698 0;
#X obj 245 701 bng 15 250 50 0 empty empty empty 17 7 0 10 #fcfcfc
#000000 #000000;
#X obj 212 732 s no;
#X obj 212 608 r \$0-n;
#X obj 212 644 == 8;
#X obj 271 609 BS_Step 9;
#X obj 391 610 BS_Step 10;
#X obj 511 612 BS_Step 11;
#X obj 631 613 BS_Step 12;
#X obj 752 614 BS_Step 13;
#X obj 874 613 BS_Step 14;
#X obj 994 613 BS_Step 15;
#X obj 138 193 s \$0-chord-change;
#X obj 1224 126 r \$0-chord-change;
#X connect 0 6 111 0;
#X connect 0 8 69 0;
#X connect 1 0 0 1;
#X connect 2 0 68 0;
#X connect 3 0 4 0;
#X connect 3 0 4 1;
#X connect 5 0 3 1;
#X connect 6 0 18 0;
#X connect 7 0 8 0;
#X connect 8 0 10 0;
#X connect 8 0 11 0;
#X connect 10 0 17 0;
#X connect 12 0 51 0;
#X connect 13 0 14 0;
#X connect 13 0 52 0;
#X connect 15 0 6 0;
#X connect 19 0 6 1;
#X connect 20 0 6 2;
#X connect 21 0 45 0;
#X connect 23 0 45 1;
#X connect 24 0 45 2;
#X connect 25 0 46 0;
#X connect 27 0 46 1;
#X connect 28 0 46 2;
#X connect 29 0 47 0;
#X connect 31 0 47 1;
#X connect 32 0 47 2;
#X connect 33 0 48 0;
#X connect 35 0 48 1;
#X connect 36 0 48 2;
#X connect 37 0 49 0;
#X connect 39 0 49 1;
#X connect 40 0 49 2;
#X connect 41 0 50 0;
#X connect 43 0 50 1;
#X connect 44 0 50 2;
#X connect 45 0 22 0;
#X connect 46 0 26 0;
#X connect 47 0 30 0;
#X connect 48 0 34 0;
#X connect 49 0 38 0;
#X connect 50 0 42 0;
#X connect 53 0 7 0;
#X connect 55 0 59 0;
#X connect 56 0 55 1;
#X connect 57 0 55 2;
#X connect 58 0 55 0;
#X connect 58 0 60 0;
#X connect 59 0 62 0;
#X connect 61 0 2 1;
#X connect 61 0 2 0;
#X connect 63 0 55 1;
#X connect 64 0 56 0;
#X connect 64 0 66 0;
#X connect 64 1 63 0;
#X connect 64 1 67 0;
#X connect 65 0 64 0;
#X connect 68 0 3 0;
#X connect 69 0 16 0;
#X connect 69 0 54 0;
#X connect 70 0 104 0;
#X connect 72 0 104 1;
#X connect 73 0 104 2;
#X connect 74 0 105 0;
#X connect 76 0 105 1;
#X connect 77 0 105 2;
#X connect 78 0 106 0;
#X connect 80 0 106 1;
#X connect 81 0 106 2;
#X connect 82 0 107 0;
#X connect 84 0 107 1;
#X connect 85 0 107 2;
#X connect 86 0 108 0;
#X connect 88 0 108 1;
#X connect 89 0 108 2;
#X connect 90 0 109 0;
#X connect 92 0 109 1;
#X connect 93 0 109 2;
#X connect 94 0 110 0;
#X connect 96 0 110 1;
#X connect 97 0 110 2;
#X connect 98 0 99 0;
#X connect 98 0 100 0;
#X connect 99 0 101 0;
#X connect 102 0 103 0;
#X connect 103 0 98 0;
#X connect 104 0 71 0;
#X connect 105 0 75 0;
#X connect 106 0 79 0;
#X connect 107 0 83 0;
#X connect 108 0 87 0;
#X connect 109 0 91 0;
#X connect 110 0 95 0;
#X connect 112 0 65 0;
