#N canvas 63 88 871 728 12;
#X obj 108 68 inlet;
#X obj 109 117 mtof;
#X obj 110 498 outlet~;
#X obj 110 161 osc~;
#X obj 234 137 * 2;
#X obj 234 207 osc~;
#X floatatom 155 170 5 0 0 0 - - - 0;
#X obj 215 244 *~ 0.8;
#X floatatom 264 173 5 0 0 0 - - - 0;
#X connect 0 0 1 0;
#X connect 1 0 3 0;
#X connect 1 0 4 0;
#X connect 1 0 6 0;
#X connect 3 0 2 0;
#X connect 4 0 5 0;
#X connect 4 0 8 0;
#X connect 5 0 7 0;
