#N canvas 1412 275 1425 933 12;
#X obj 76 49 Multi_Clock;
#X floatatom 270 14 5 0 0 0 - - - 0;
#X obj 1206 767 Basic_Voice;
#X obj 1268 839 Tapeish;
#X obj 1267 893 dac~;
#X obj 1308 797 tgl 15 0 empty empty empty 17 7 0 10 #fcfcfc #000000
#000000 0 1;
#X obj 440 86 bng 50 250 50 0 empty empty reshuffle 55 7 0 50 #ff0400
#000000 #000000;
#X obj 604 126 hsl 128 15 0 100 0 0 empty empty prob% -2 -8 0 10 #fcfcfc
#000000 #000000 0 1;
#X floatatom 552 122 5 0 0 0 - - - 0;
#X obj 269 230 s \$0-n;
#X obj 441 150 s \$0-r;
#X obj 597 152 s \$0-p;
#X floatatom 350 220 5 0 0 2 beat - - 36;
#X obj 1210 452 Scaler;
#X msg 1231 304 0 1;
#X floatatom 1289 392 5 0 0 0 - - - 0;
#X obj 1206 369 r no;
#X floatatom 1216 547 5 0 0 0 - - - 0;
#X floatatom 1164 408 5 0 0 0 - - - 0;
#X obj 1206 648 r sno;
#X obj 1217 594 s sno;
#X msg 1273 306 3 0;
#X obj 1237 217 sel 0 1;
#X obj 1225 172 Counter 2;
#X obj 1212 258 bng 15 250 50 0 empty empty empty 17 7 0 10 #fcfcfc
#000000 #000000;
#X obj 1278 258 bng 15 250 50 0 empty empty empty 17 7 0 10 #fcfcfc
#000000 #000000;
#X obj 1206 823 *~ 0.8;
#X obj 269 193 % 16;
#X obj 138 193 s \$0-chord-change;
#X obj 1224 126 r \$0-chord-change;
#N canvas 1224 949 1542 966 Sequencer 0;
#X obj 733 840 outlet;
#X obj 391 276 == 0;
#X obj 391 303 sel 1;
#X text 257 239 “you give me the one \, you can do all those other
things.” - James Brown >>>>>, f 18;
#X msg 391 330 0;
#X obj 424 333 bng 15 250 50 0 empty empty empty 17 7 0 10 #fcfcfc
#000000 #000000;
#X obj 391 240 r \$0-n;
#X obj 392 541 sel 1;
#X msg 392 568 0;
#X obj 425 571 bng 15 250 50 0 empty empty empty 17 7 0 10 #fcfcfc
#000000 #000000;
#X obj 392 478 r \$0-n;
#X obj 392 514 == 8;
#X obj 452 240 BS_Step 1 5;
#N canvas 837 736 364 163 Receiver 0;
#X obj 47 24 r \$0-n;
#X obj 100 24 r \$0-r;
#X obj 151 24 r \$0-p;
#X obj 47 48 outlet;
#X obj 100 48 outlet;
#X obj 151 48 outlet;
#X connect 0 0 3 0;
#X connect 1 0 4 0;
#X connect 2 0 5 0;
#X restore 453 214 pd Receiver;
#X f 15;
#X obj 391 363 s \$0-no;
#X obj 452 365 s \$0-no;
#X obj 392 602 s \$0-no;
#N canvas 837 736 364 163 Receiver 0;
#X obj 47 24 r \$0-n;
#X obj 100 24 r \$0-r;
#X obj 151 24 r \$0-p;
#X obj 47 48 outlet;
#X obj 100 48 outlet;
#X obj 151 48 outlet;
#X connect 0 0 3 0;
#X connect 1 0 4 0;
#X connect 2 0 5 0;
#X restore 572 215 pd Receiver;
#X f 15;
#X obj 571 366 s \$0-no;
#N canvas 837 736 364 163 Receiver 0;
#X obj 47 24 r \$0-n;
#X obj 100 24 r \$0-r;
#X obj 151 24 r \$0-p;
#X obj 47 48 outlet;
#X obj 100 48 outlet;
#X obj 151 48 outlet;
#X connect 0 0 3 0;
#X connect 1 0 4 0;
#X connect 2 0 5 0;
#X restore 690 216 pd Receiver;
#X f 15;
#X obj 689 367 s \$0-no;
#N canvas 837 736 364 163 Receiver 0;
#X obj 47 24 r \$0-n;
#X obj 100 24 r \$0-r;
#X obj 151 24 r \$0-p;
#X obj 47 48 outlet;
#X obj 100 48 outlet;
#X obj 151 48 outlet;
#X connect 0 0 3 0;
#X connect 1 0 4 0;
#X connect 2 0 5 0;
#X restore 809 217 pd Receiver;
#X f 15;
#X obj 808 368 s \$0-no;
#N canvas 837 736 364 163 Receiver 0;
#X obj 47 24 r \$0-n;
#X obj 100 24 r \$0-r;
#X obj 151 24 r \$0-p;
#X obj 47 48 outlet;
#X obj 100 48 outlet;
#X obj 151 48 outlet;
#X connect 0 0 3 0;
#X connect 1 0 4 0;
#X connect 2 0 5 0;
#X restore 927 218 pd Receiver;
#X f 15;
#X obj 926 369 s \$0-no;
#N canvas 837 736 364 163 Receiver 0;
#X obj 47 24 r \$0-n;
#X obj 100 24 r \$0-r;
#X obj 151 24 r \$0-p;
#X obj 47 48 outlet;
#X obj 100 48 outlet;
#X obj 151 48 outlet;
#X connect 0 0 3 0;
#X connect 1 0 4 0;
#X connect 2 0 5 0;
#X restore 1045 219 pd Receiver;
#X f 15;
#X obj 1044 370 s \$0-no;
#N canvas 837 736 364 163 Receiver 0;
#X obj 47 24 r \$0-n;
#X obj 100 24 r \$0-r;
#X obj 151 24 r \$0-p;
#X obj 47 48 outlet;
#X obj 100 48 outlet;
#X obj 151 48 outlet;
#X connect 0 0 3 0;
#X connect 1 0 4 0;
#X connect 2 0 5 0;
#X restore 1164 220 pd Receiver;
#X f 15;
#X obj 1163 371 s \$0-no;
#N canvas 837 736 364 163 Receiver 0;
#X obj 47 24 r \$0-n;
#X obj 100 24 r \$0-r;
#X obj 151 24 r \$0-p;
#X obj 47 48 outlet;
#X obj 100 48 outlet;
#X obj 151 48 outlet;
#X connect 0 0 3 0;
#X connect 1 0 4 0;
#X connect 2 0 5 0;
#X restore 452 480 pd Receiver;
#X f 15;
#X obj 451 631 s \$0-no;
#N canvas 837 736 364 163 Receiver 0;
#X obj 47 24 r \$0-n;
#X obj 100 24 r \$0-r;
#X obj 151 24 r \$0-p;
#X obj 47 48 outlet;
#X obj 100 48 outlet;
#X obj 151 48 outlet;
#X connect 0 0 3 0;
#X connect 1 0 4 0;
#X connect 2 0 5 0;
#X restore 571 481 pd Receiver;
#X f 15;
#X obj 570 632 s \$0-no;
#N canvas 837 736 364 163 Receiver 0;
#X obj 47 24 r \$0-n;
#X obj 100 24 r \$0-r;
#X obj 151 24 r \$0-p;
#X obj 47 48 outlet;
#X obj 100 48 outlet;
#X obj 151 48 outlet;
#X connect 0 0 3 0;
#X connect 1 0 4 0;
#X connect 2 0 5 0;
#X restore 689 482 pd Receiver;
#X f 15;
#X obj 688 633 s \$0-no;
#N canvas 837 736 364 163 Receiver 0;
#X obj 47 24 r \$0-n;
#X obj 100 24 r \$0-r;
#X obj 151 24 r \$0-p;
#X obj 47 48 outlet;
#X obj 100 48 outlet;
#X obj 151 48 outlet;
#X connect 0 0 3 0;
#X connect 1 0 4 0;
#X connect 2 0 5 0;
#X restore 808 483 pd Receiver;
#X f 15;
#X obj 807 634 s \$0-no;
#N canvas 837 736 364 163 Receiver 0;
#X obj 47 24 r \$0-n;
#X obj 100 24 r \$0-r;
#X obj 151 24 r \$0-p;
#X obj 47 48 outlet;
#X obj 100 48 outlet;
#X obj 151 48 outlet;
#X connect 0 0 3 0;
#X connect 1 0 4 0;
#X connect 2 0 5 0;
#X restore 926 484 pd Receiver;
#X f 15;
#X obj 925 635 s \$0-no;
#N canvas 837 736 364 163 Receiver 0;
#X obj 47 24 r \$0-n;
#X obj 100 24 r \$0-r;
#X obj 151 24 r \$0-p;
#X obj 47 48 outlet;
#X obj 100 48 outlet;
#X obj 151 48 outlet;
#X connect 0 0 3 0;
#X connect 1 0 4 0;
#X connect 2 0 5 0;
#X restore 1044 485 pd Receiver;
#X f 15;
#X obj 1043 636 s \$0-no;
#N canvas 837 736 364 163 Receiver 0;
#X obj 47 24 r \$0-n;
#X obj 100 24 r \$0-r;
#X obj 151 24 r \$0-p;
#X obj 47 48 outlet;
#X obj 100 48 outlet;
#X obj 151 48 outlet;
#X connect 0 0 3 0;
#X connect 1 0 4 0;
#X connect 2 0 5 0;
#X restore 1163 486 pd Receiver;
#X f 15;
#X obj 1162 637 s \$0-no;
#X obj 747 795 r \$0-no;
#X obj 571 241 BS_Step 2 5;
#X obj 689 242 BS_Step 3 5;
#X obj 808 243 BS_Step 4 5;
#X obj 926 244 BS_Step 5 5;
#X obj 1044 245 BS_Step 6 5;
#X obj 1163 246 BS_Step 7 5;
#X obj 451 506 BS_Step 9 5;
#X obj 570 507 BS_Step 10 5;
#X obj 688 508 BS_Step 11 5;
#X obj 807 509 BS_Step 12 5;
#X obj 925 510 BS_Step 13 5;
#X obj 1043 511 BS_Step 14 5;
#X obj 1162 512 BS_Step 15 5;
#X floatatom 693 826 5 0 0 0 - - - 0;
#X connect 1 0 2 0;
#X connect 2 0 4 0;
#X connect 2 0 5 0;
#X connect 4 0 14 0;
#X connect 6 0 1 0;
#X connect 7 0 8 0;
#X connect 7 0 9 0;
#X connect 8 0 16 0;
#X connect 10 0 11 0;
#X connect 11 0 7 0;
#X connect 12 0 15 0;
#X connect 13 0 12 0;
#X connect 13 1 12 1;
#X connect 13 2 12 2;
#X connect 17 0 44 0;
#X connect 17 1 44 1;
#X connect 19 0 45 0;
#X connect 19 1 45 1;
#X connect 19 2 45 2;
#X connect 21 0 46 0;
#X connect 21 1 46 1;
#X connect 21 2 46 2;
#X connect 23 0 47 0;
#X connect 23 1 47 1;
#X connect 23 2 47 2;
#X connect 25 0 48 0;
#X connect 25 1 48 1;
#X connect 27 0 49 0;
#X connect 27 1 49 1;
#X connect 27 2 49 2;
#X connect 29 0 50 0;
#X connect 29 1 50 1;
#X connect 31 0 51 0;
#X connect 31 1 51 1;
#X connect 31 2 51 2;
#X connect 33 0 52 0;
#X connect 33 1 52 1;
#X connect 33 2 52 2;
#X connect 35 0 53 0;
#X connect 35 1 53 1;
#X connect 37 0 54 0;
#X connect 37 1 54 1;
#X connect 37 2 54 2;
#X connect 39 0 55 0;
#X connect 39 1 55 1;
#X connect 39 2 55 2;
#X connect 41 0 56 0;
#X connect 41 1 56 1;
#X connect 41 2 56 2;
#X connect 43 0 0 0;
#X connect 43 0 57 0;
#X connect 44 0 18 0;
#X connect 45 0 20 0;
#X connect 46 0 22 0;
#X connect 47 0 24 0;
#X connect 48 0 26 0;
#X connect 49 0 28 0;
#X connect 50 0 30 0;
#X connect 51 0 32 0;
#X connect 52 0 34 0;
#X connect 53 0 36 0;
#X connect 54 0 38 0;
#X connect 55 0 40 0;
#X connect 56 0 42 0;
#X coords 0 966 1 965 250 60 0;
#X restore 345 309 pd Sequencer;
#X obj 352 388 s no;
#X floatatom 1184 683 5 0 0 0 - - - 0;
#X connect 0 6 28 0;
#X connect 0 8 27 0;
#X connect 1 0 0 1;
#X connect 2 0 26 0;
#X connect 3 0 4 0;
#X connect 3 0 4 1;
#X connect 5 0 3 1;
#X connect 6 0 10 0;
#X connect 7 0 8 0;
#X connect 7 0 11 0;
#X connect 13 0 17 0;
#X connect 14 0 13 1;
#X connect 15 0 13 2;
#X connect 16 0 13 0;
#X connect 16 0 18 0;
#X connect 17 0 20 0;
#X connect 19 0 2 1;
#X connect 19 0 2 0;
#X connect 19 0 32 0;
#X connect 21 0 13 1;
#X connect 22 0 14 0;
#X connect 22 0 24 0;
#X connect 22 1 21 0;
#X connect 22 1 25 0;
#X connect 23 0 22 0;
#X connect 26 0 3 0;
#X connect 27 0 9 0;
#X connect 27 0 12 0;
#X connect 29 0 23 0;
#X connect 30 0 31 0;
