#N canvas 1549 677 1425 1055 12;
#X obj 76 49 Multi_Clock;
#X floatatom 268 11 5 0 0 0 - - - 0;
#X obj 358 819 Basic_Voice;
#X obj 420 891 Tapeish;
#X obj 419 945 dac~;
#X obj 460 849 tgl 15 0 empty empty empty 17 7 0 10 #fcfcfc #000000
#000000 0 1;
#X obj 272 370 BS_Step 1;
#X obj 211 372 == 0;
#X obj 211 399 sel 1;
#X text 77 369 “you give me the one \, you can do all those other
things.” - James Brown >>>>>, f 18;
#X msg 211 426 0;
#X obj 244 429 bng 15 250 50 0 empty empty empty 17 7 0 10 #fcfcfc
#000000 #000000;
#X obj 440 86 bng 50 250 50 0 empty empty reshuffle 55 7 0 50 #ff0400
#000000 #000000;
#X obj 604 126 hsl 128 15 0 100 0 0 empty empty prob% -2 -8 0 10 #fcfcfc
#000000 #000000 0 1;
#X floatatom 552 122 5 0 0 0 - - - 0;
#X text 85 497 ^ thinking here that to trigger a long note always on
the one \, but the rest can be short. envelope should retrigger on
the next note, f 23;
#X text 282 130 make it funky and swing the bass line, f 17;
#X obj 272 291 r \$0-n;
#X obj 269 230 s \$0-n;
#X obj 211 460 s no;
#X obj 272 495 s no;
#X obj 323 312 r \$0-r;
#X obj 337 336 r \$0-p;
#X obj 392 292 r \$0-n;
#X obj 392 496 s no;
#X obj 443 313 r \$0-r;
#X obj 457 337 r \$0-p;
#X obj 512 294 r \$0-n;
#X obj 512 498 s no;
#X obj 563 315 r \$0-r;
#X obj 577 339 r \$0-p;
#X obj 632 295 r \$0-n;
#X obj 632 499 s no;
#X obj 683 316 r \$0-r;
#X obj 697 340 r \$0-p;
#X obj 753 296 r \$0-n;
#X obj 753 500 s no;
#X obj 804 317 r \$0-r;
#X obj 818 341 r \$0-p;
#X obj 875 295 r \$0-n;
#X obj 875 499 s no;
#X obj 926 316 r \$0-r;
#X obj 940 340 r \$0-p;
#X obj 995 295 r \$0-n;
#X obj 995 499 s no;
#X obj 1046 316 r \$0-r;
#X obj 1060 340 r \$0-p;
#X obj 392 371 BS_Step 2;
#X obj 512 373 BS_Step 3;
#X obj 632 374 BS_Step 4;
#X obj 753 375 BS_Step 5;
#X obj 875 374 BS_Step 6;
#X obj 995 374 BS_Step 7;
#X obj 441 150 s \$0-r;
#X obj 597 152 s \$0-p;
#X obj 211 336 r \$0-n;
#X floatatom 350 220 5 0 0 2 beat - - 36;
#X obj 1210 452 Scaler;
#X msg 1231 304 0 1;
#X floatatom 1299 391 5 0 0 0 - - - 0;
#X obj 1206 369 r no;
#X floatatom 1216 547 5 0 0 0 - - - 0;
#X floatatom 1164 408 5 0 0 0 - - - 0;
#X obj 358 700 r sno;
#X obj 1217 594 s sno;
#X msg 1273 306 3 0;
#X obj 1237 217 sel 0 1;
#X obj 1225 172 Counter 2;
#X obj 1212 258 bng 15 250 50 0 empty empty empty 17 7 0 10 #fcfcfc
#000000 #000000;
#X obj 1278 258 bng 15 250 50 0 empty empty empty 17 7 0 10 #fcfcfc
#000000 #000000;
#X obj 269 193 % 8;
#X obj 358 875 *~ 0.8;
#X connect 0 5 67 0;
#X connect 0 9 70 0;
#X connect 1 0 0 1;
#X connect 2 0 71 0;
#X connect 3 0 4 0;
#X connect 3 0 4 1;
#X connect 5 0 3 1;
#X connect 6 0 20 0;
#X connect 7 0 8 0;
#X connect 8 0 10 0;
#X connect 8 0 11 0;
#X connect 10 0 19 0;
#X connect 12 0 53 0;
#X connect 13 0 14 0;
#X connect 13 0 54 0;
#X connect 17 0 6 0;
#X connect 21 0 6 1;
#X connect 22 0 6 2;
#X connect 23 0 47 0;
#X connect 25 0 47 1;
#X connect 26 0 47 2;
#X connect 27 0 48 0;
#X connect 29 0 48 1;
#X connect 30 0 48 2;
#X connect 31 0 49 0;
#X connect 33 0 49 1;
#X connect 34 0 49 2;
#X connect 35 0 50 0;
#X connect 37 0 50 1;
#X connect 38 0 50 2;
#X connect 39 0 51 0;
#X connect 41 0 51 1;
#X connect 42 0 51 2;
#X connect 43 0 52 0;
#X connect 45 0 52 1;
#X connect 46 0 52 2;
#X connect 47 0 24 0;
#X connect 48 0 28 0;
#X connect 49 0 32 0;
#X connect 50 0 36 0;
#X connect 51 0 40 0;
#X connect 52 0 44 0;
#X connect 55 0 7 0;
#X connect 57 0 61 0;
#X connect 58 0 57 1;
#X connect 59 0 57 2;
#X connect 60 0 57 0;
#X connect 60 0 62 0;
#X connect 61 0 64 0;
#X connect 63 0 2 1;
#X connect 63 0 2 0;
#X connect 65 0 57 1;
#X connect 66 0 58 0;
#X connect 66 0 68 0;
#X connect 66 1 65 0;
#X connect 66 1 69 0;
#X connect 67 0 66 0;
#X connect 70 0 18 0;
#X connect 70 0 56 0;
#X connect 71 0 3 0;
