#N canvas 1582 1088 791 576 12;
#X obj 308 316 bng 15 250 50 0 empty empty empty 17 7 0 10 #fcfcfc
#000000 #000000;
#X obj 308 364 spigot;
#X obj 308 390 bng 15 250 50 0 empty empty empty 17 7 0 10 #fcfcfc
#000000 #000000;
#X floatatom 308 441 5 0 0 0 - - - 0;
#X obj 308 416 f;
#X floatatom 355 421 5 0 0 0 - - - 0;
#X obj 350 343 tgl 15 0 empty empty empty 17 7 0 10 #fcfcfc #000000
#000000 0 1;
#X obj 308 484 outlet;
#X obj 247 39 inlet;
#X obj 457 40 inlet;
#X obj 456 205 bng 15 250 50 0 empty empty empty 17 7 0 10 #fcfcfc
#000000 #000000;
#X obj 247 78 == \$1;
#X obj 247 110 sel 1;
#X text 299 35 < beat number. step triggers when beat num == arg,
f 13;
#X text 504 36 < randomly set enable and output, f 17;
#X obj 408 360 loadbang;
#X obj 491 202 loadbang;
#X floatatom 104 119 5 0 0 1 note - - 0;
#X obj 104 165 tgl 15 0 empty empty enabled 17 7 0 10 #fcfcfc #000000
#000000 0 1;
#X obj 104 185 bng 15 250 50 0 empty empty beat 17 7 0 18 #ff0400 #000000
#ff0400;
#X obj 350 252 random 100;
#X floatatom 363 277 5 0 0 0 - - - 0;
#X text 411 304 < 50% chance initially can be overridden;
#X obj 648 46 inlet;
#X text 646 69 probability;
#X floatatom 104 141 5 0 0 1 - - - 0;
#X floatatom 651 163 5 0 0 0 - - - 0;
#X obj 349 304 <;
#X obj 669 103 loadbang;
#X msg 669 130 50;
#X floatatom 161 141 5 0 0 0 %/ - - 0;
#X obj 181 120 bng 15 250 50 0 empty empty empty 17 7 0 10 #fcfcfc
#000000 #000000;
#X obj 355 398 random 5;
#X connect 0 0 1 0;
#X connect 0 0 31 0;
#X connect 1 0 2 0;
#X connect 2 0 4 0;
#X connect 3 0 7 0;
#X connect 3 0 19 0;
#X connect 4 0 3 0;
#X connect 5 0 17 0;
#X connect 6 0 1 1;
#X connect 8 0 11 0;
#X connect 9 0 10 0;
#X connect 10 0 20 0;
#X connect 10 0 32 0;
#X connect 11 0 12 0;
#X connect 12 0 0 0;
#X connect 15 0 32 0;
#X connect 16 0 10 0;
#X connect 20 0 21 0;
#X connect 20 0 27 0;
#X connect 21 0 30 0;
#X connect 23 0 26 0;
#X connect 26 0 27 1;
#X connect 26 0 25 0;
#X connect 27 0 6 0;
#X connect 27 0 18 0;
#X connect 28 0 29 0;
#X connect 29 0 26 0;
#X connect 32 0 4 1;
#X connect 32 0 5 0;
#X coords 0 -1 1 1 110 110 1 100 100;
