#N canvas 846 163 786 791 12;
#X obj 136 414 Multi_Clock, f 28;
#X floatatom 329 386 5 0 0 0 - - - 0;
#X obj 193 626 dac~;
#X obj 112 519 bng 15 250 50 0 empty empty empty 17 7 0 10 #fcfcfc
#000000 #000000;
#X obj 301 581 Basic_Voice;
#X floatatom 300 534 5 0 0 0 - - - 0;
#X obj 194 570 Basic_Voice;
#X floatatom 193 523 5 0 0 0 - - - 0;
#X obj 47 636 dac~;
#X obj 48 580 Basic_Voice;
#X floatatom 48 532 5 0 0 0 - - - 0;
#X obj 412 581 Basic_Voice;
#X floatatom 411 534 5 0 0 0 - - - 0;
#X obj 375 210 Triad_Pair_Sequencer;
#X obj 244 235 t b b;
#X floatatom 422 127 5 0 0 0 - - - 0;
#X floatatom 490 118 5 0 0 0 - - - 0;
#X obj 132 359 tgl 15 0 empty empty empty 17 7 0 10 #fcfcfc #000000
#000000 0 1;
#X floatatom 636 555 5 0 0 0 - - - 0;
#X obj 532 602 Counter_Latch;
#X obj 538 557 random 100;
#X obj 551 502 metro 100;
#X obj 552 453 tgl 15 0 empty empty empty 17 7 0 10 #fcfcfc #000000
#000000 0 1;
#X floatatom 681 628 5 0 0 0 - - - 0;
#X obj 636 586 expr ($f1 % 2)-1;
#X obj 559 711 bng 15 250 50 0 empty empty empty 17 7 0 10 #fcfcfc
#000000 #000000;
#X text 350 472 < beat number comes out here;
#X text 584 687 ^ triggers on beat 2 & 4 e.g for snares;
#X connect 0 1 3 0;
#X connect 0 2 9 1;
#X connect 0 3 6 1;
#X connect 0 4 11 1;
#X connect 0 8 14 0;
#X connect 0 9 18 0;
#X connect 1 0 0 1;
#X connect 4 0 2 1;
#X connect 5 0 4 0;
#X connect 6 0 2 0;
#X connect 7 0 6 0;
#X connect 9 0 8 0;
#X connect 10 0 9 0;
#X connect 11 0 2 0;
#X connect 12 0 11 0;
#X connect 13 0 5 0;
#X connect 14 0 4 1;
#X connect 14 1 13 0;
#X connect 15 0 13 1;
#X connect 16 0 13 2;
#X connect 17 0 0 0;
#X connect 18 0 24 0;
#X connect 19 0 25 0;
#X connect 20 0 19 0;
#X connect 21 0 20 0;
#X connect 22 0 21 0;
#X connect 24 0 19 1;
#X connect 24 0 23 0;
