#N canvas 683 25 636 906 12;
#X obj 186 37 inlet;
#X obj 182 228 outlet;
#X obj 305 40 inlet;
#X obj 147 132 f;
#X obj 196 133 + 1;
#X msg 302 81 0;
#X obj 172 83 bang;
#X obj 394 47 inlet;
#X obj 240 134 % \$1;
#X connect 0 0 6 0;
#X connect 2 0 5 0;
#X connect 3 0 1 0;
#X connect 3 0 4 0;
#X connect 4 0 8 0;
#X connect 5 0 3 1;
#X connect 6 0 3 0;
#X connect 7 0 8 1;
#X connect 8 0 3 1;
