#N canvas 680 392 450 300 12;
#X obj 347 47 inlet;
#X obj 235 44 inlet;
#X obj 239 113 f;
#X obj 347 83 sel 0;
#X obj 103 115 bng 40 250 50 0 empty empty empty 17 7 0 10 #ff0400
#202020 #000000;
#X floatatom 145 136 5 0 0 0 - - - 0;
#X floatatom 145 115 5 0 0 0 - - - 0;
#X obj 243 270 outlet;
#X text 6 8 inlet 1: number inlet 2: when 0 \, output last recv'd number
;
#X connect 0 0 3 0;
#X connect 1 0 2 1;
#X connect 1 0 6 0;
#X connect 2 0 7 0;
#X connect 2 0 5 0;
#X connect 3 0 4 0;
#X connect 4 0 2 0;
#X coords 0 -1 1 1 85 60 1 100 100;
