#N canvas 903 309 777 649 12;
#X obj 91 343 outlet;
#X obj 176 34 inlet;
#X obj 197 73 bng 15 250 50 0 empty empty empty 17 7 0 10 #fcfcfc #000000
#000000;
#X obj 176 264 bng 15 250 50 0 empty empty empty 17 7 0 10 #fcfcfc
#000000 #000000;
#X obj 176 188 Mod_Equals 2;
#X floatatom 196 159 5 0 0 0 - - - 0;
#X obj 275 189 Mod_Equals 4;
#X obj 275 263 bng 15 250 50 0 empty empty empty 17 7 0 10 #fcfcfc
#000000 #000000;
#X obj 372 264 bng 15 250 50 0 empty empty empty 17 7 0 10 #fcfcfc
#000000 #000000;
#X obj 372 190 Mod_Equals 8;
#X obj 469 264 bng 15 250 50 0 empty empty empty 17 7 0 10 #fcfcfc
#000000 #000000;
#X obj 469 190 Mod_Equals 16;
#X obj 176 345 outlet;
#X obj 275 345 outlet;
#X obj 374 345 outlet;
#X obj 473 345 outlet;
#X obj 177 128 Counter 32;
#X obj 572 264 bng 15 250 50 0 empty empty empty 17 7 0 10 #fcfcfc
#000000 #000000;
#X obj 576 345 outlet;
#X obj 572 190 Mod_Equals 32;
#X obj 274 68 inlet;
#X connect 1 0 2 0;
#X connect 1 0 16 0;
#X connect 3 0 12 0;
#X connect 4 0 3 0;
#X connect 6 0 7 0;
#X connect 7 0 13 0;
#X connect 8 0 14 0;
#X connect 9 0 8 0;
#X connect 10 0 15 0;
#X connect 11 0 10 0;
#X connect 16 0 5 0;
#X connect 16 0 6 0;
#X connect 16 0 4 0;
#X connect 16 0 9 0;
#X connect 16 0 11 0;
#X connect 16 0 19 0;
#X connect 16 0 0 0;
#X connect 17 0 18 0;
#X connect 19 0 17 0;
#X connect 20 0 16 1;
