#N canvas 1137 826 523 390 12;
#X obj 115 60 bng 15 250 50 0 empty empty empty 17 7 0 10 #fcfcfc #000000
#000000;
#X obj 113 123 * 60;
#X floatatom 113 147 5 0 0 0 - - - 0;
#X obj 113 194 f;
#X floatatom 113 218 5 0 0 0 - - - 0;
#X obj 114 245 - 1;
#X obj 114 293 sel 1;
#X obj 69 348 delay 1000;
#X obj 113 94 f 0.2;
#X obj 147 323 bng 15 250 50 0 empty empty empty 17 7 0 10 #fcfcfc
#000000 #000000;
#X obj 115 269 < 0;
#X obj 148 269 == 0;
#X obj 8 5 inlet;
#X obj 429 10 inlet~;
#X obj 167 46 t b b;
#X obj 267 185 writesf~ 1;
#X obj 268 90 symbol \$1;
#X msg 268 115 open \$1;
#X msg 216 116 start;
#X obj 187 269 sel 1;
#X msg 216 186 stop;
#X connect 0 0 8 0;
#X connect 0 0 14 0;
#X connect 1 0 2 0;
#X connect 2 0 3 0;
#X connect 3 0 4 0;
#X connect 4 0 5 0;
#X connect 5 0 3 1;
#X connect 5 0 10 0;
#X connect 5 0 11 0;
#X connect 6 1 9 0;
#X connect 7 0 3 0;
#X connect 8 0 1 0;
#X connect 9 0 7 0;
#X connect 10 0 6 0;
#X connect 11 0 19 0;
#X connect 12 0 0 0;
#X connect 13 0 15 0;
#X connect 14 0 18 0;
#X connect 14 1 16 0;
#X connect 16 0 17 0;
#X connect 17 0 15 0;
#X connect 18 0 15 0;
#X connect 19 0 20 0;
#X connect 20 0 15 0;
