#N canvas 960 18 956 1009 12;
#X obj 106 158 Multi_Clock;
#X floatatom 230 39 5 0 0 0 - - - 0;
#X obj 208 67 t b f;
#X obj 175 100 s reset;
#X obj 70 337 * 16;
#X obj 70 381 s four_bar;
#X obj 221 376 bng 15 250 50 0 empty empty empty 17 7 0 10 #fcfcfc
#000000 #000000;
#X obj 379 282 Drum_Loops;
#X obj 382 47 hradio 15 1 0 5 empty empty empty 0 -8 0 10 #fcfcfc #000000
#000000 0;
#X obj 460 173 r four_bar;
#X obj 508 200 r reset;
#X obj 261 415 s reset;
#X floatatom 53 58 5 0 0 0 - - - 0;
#X obj 209 523 random 5;
#X obj 210 561 s loop_select;
#X obj 381 9 r loop_select;
#X obj 208 490 spigot;
#X obj 248 460 tgl 15 0 empty empty empty 17 7 0 10 #fcfcfc #000000
#000000 0 1;
#X text 268 458 switch loop;
#X obj 605 203 bng 15 250 50 0 empty empty empty 17 7 0 10 #fcfcfc
#000000 #000000;
#X floatatom 18 382 5 0 0 0 - - - 0;
#X obj 450 773 dac~;
#X obj 371 534 Tapeish;
#X obj 423 456 tgl 15 0 empty empty empty 17 7 0 10 #fcfcfc #000000
#000000 0 1;
#X obj 450 615 *~;
#X obj 497 617 *~;
#X obj 506 521 expr 1 - $f1;
#X obj 380 397 catch~ out;
#X obj 598 402 throw~ out;
#X obj 194 331 s hh;
#X obj 602 344 *~ 2;
#X obj 129 294 s qn;
#X obj 798 48 r qn;
#X floatatom 824 193 5 0 0 0 - - - 0;
#X obj 818 228 sel 0;
#X obj 828 114 Random_Ring 2 16;
#X obj 380 92 Counter_Latch;
#X obj 702 283 spigot;
#X obj 747 225 tgl 15 0 empty empty empty 17 7 0 10 #fcfcfc #000000
#000000 0 1;
#X text 849 148 random kick pattern using beat grain;
#X obj 423 424 loadbang;
#X text 448 451 route audio through ghetto tape sim;
#X text 15 406 ^ Drum loop module needs to know time length of 4 bars
;
#X floatatom 296 80 5 0 0 0 - - - 0;
#X text 484 92 comment;
#X obj 378 229 Dedup;
#X obj 413 181 bng 15 250 50 0 empty empty empty 17 7 0 10 #fcfcfc
#000000 #000000;
#X obj 518 232 bng 15 250 50 0 empty empty empty 17 7 0 10 #fcfcfc
#000000 #000000;
#X obj 278 276 s hh;
#X floatatom 325 256 5 0 0 0 - - - 0;
#X obj 330 289 s nn;
#X obj 643 166 r fez-trig-0;
#X obj 644 75 r fez-trig-1;
#X obj 644 100 s reset;
#X obj 372 484 *~ 1;
#X obj 359 569 clip~ -1 1;
#X obj 641 732 Counter 16;
#X obj 644 824 s fez-led-bn;
#X obj 614 686 r nn;
#X obj 206 294 bng 15 250 50 0 empty empty empty 17 7 0 10 #fcfcfc
#000000 #000000;
#X obj 228 294 bng 15 250 50 0 empty empty empty 17 7 0 10 #fcfcfc
#000000 #000000;
#X connect 0 0 4 0;
#X connect 0 1 31 0;
#X connect 0 2 59 0;
#X connect 0 8 48 0;
#X connect 0 9 36 1;
#X connect 0 9 49 0;
#X connect 1 0 2 0;
#X connect 2 0 3 0;
#X connect 4 0 5 0;
#X connect 4 0 20 0;
#X connect 6 0 11 0;
#X connect 6 0 16 0;
#X connect 7 0 28 0;
#X connect 7 1 30 0;
#X connect 8 0 36 0;
#X connect 9 0 7 1;
#X connect 10 0 7 2;
#X connect 10 0 47 0;
#X connect 12 0 0 0;
#X connect 13 0 14 0;
#X connect 15 0 8 0;
#X connect 16 0 13 0;
#X connect 17 0 16 1;
#X connect 19 0 7 4;
#X connect 22 0 55 0;
#X connect 23 0 22 1;
#X connect 23 0 24 1;
#X connect 23 0 26 0;
#X connect 24 0 21 0;
#X connect 24 0 21 1;
#X connect 25 0 21 0;
#X connect 25 0 21 1;
#X connect 26 0 25 1;
#X connect 27 0 25 0;
#X connect 27 0 54 0;
#X connect 30 0 28 0;
#X connect 32 0 35 0;
#X connect 33 0 34 0;
#X connect 34 0 37 0;
#X connect 35 0 33 0;
#X connect 36 0 46 0;
#X connect 36 0 45 0;
#X connect 37 0 7 4;
#X connect 38 0 37 1;
#X connect 40 0 23 0;
#X connect 43 0 0 1;
#X connect 45 0 7 0;
#X connect 49 0 50 0;
#X connect 49 0 60 0;
#X connect 51 0 19 0;
#X connect 52 0 53 0;
#X connect 54 0 22 0;
#X connect 55 0 24 0;
#X connect 56 0 57 0;
#X connect 58 0 56 0;
