#N canvas 1934 177 1544 1062 12;
#X obj 525 162 phasor~;
#X obj 473 195 *~;
#X obj 475 287 tabread4~ dl-loop1;
#X floatatom 557 116 5 0 0 0 - - - 0;
#X obj 525 92 expr 1000/$f1;
#X msg 760 128 0;
#X floatatom 332 117 5 0 0 0 - - - 0;
#X obj 333 89 hradio 15 1 0 5 empty empty empty 0 -8 0 10 #fcfcfc #000000
#000000 0;
#X obj 332 150 sel 0 1 2 3 4;
#X obj 307 194 bng 15 250 50 0 empty empty empty 17 7 0 10 #fcfcfc
#000000 #000000;
#X obj 330 194 bng 15 250 50 0 empty empty empty 17 7 0 10 #fcfcfc
#000000 #000000;
#X obj 353 194 bng 15 250 50 0 empty empty empty 17 7 0 10 #fcfcfc
#000000 #000000;
#X obj 375 194 bng 15 250 50 0 empty empty empty 17 7 0 10 #fcfcfc
#000000 #000000;
#X obj 397 194 bng 15 250 50 0 empty empty empty 17 7 0 10 #fcfcfc
#000000 #000000;
#X obj 305 257 s 1/5;
#X obj 330 225 s 2/5;
#X obj 355 258 s 3/5;
#X obj 376 224 s 4/5;
#X obj 401 257 s 5/5;
#X obj 538 190 r s_len;
#X obj 886 328 soundfiler;
#X obj 887 367 f;
#X floatatom 887 401 5 0 0 0 - - - 0;
#X obj 884 531 s s_len;
#X obj 886 295 r loop_sel;
#X obj 94 548 s loop_sel;
#X obj 97 226 r 1/5;
#X obj 112 251 r 2/5;
#X obj 125 276 r 3/5;
#X obj 145 300 r 4/5;
#X obj 158 325 r 5/5;
#X obj 333 49 inlet;
#X text 389 114 select a loop;
#X obj 526 51 inlet;
#X text 377 49 1: loop select;
#X text 572 49 2: time period of 4 bars;
#X obj 758 49 inlet;
#X text 805 49 3: reset loop;
#X obj 475 325 outlet~;
#X obj 886 450 t f b;
#X msg 917 482 \; dl-loop1 normalize 1;
#X obj 884 145 random 16;
#X floatatom 884 210 5 0 0 0 - - - 0;
#X obj 884 115 bng 15 250 50 0 empty empty empty 17 7 0 10 #fcfcfc
#000000 #000000;
#X obj 917 50 inlet;
#X text 964 50 4: random 1/16 slice;
#X obj 884 178 expr $f1 * 0.0625;
#X obj 928 792 table dl-loop1;
#X msg 159 388 read -resize samples/lofi1.wav dl-loop1;
#X msg 144 412 read -resize samples/808_3.wav dl-loop1;
#X msg 126 436 read -resize samples/808_4.wav dl-loop1;
#X msg 111 460 read -resize samples/808_1.wav dl-loop1;
#X msg 93 485 read -resize samples/808_2.wav dl-loop1;
#X text 444 413 < this could suck less;
#X obj 1201 113 r s_len;
#X msg 1208 422 0 \, \$1 \$2;
#X obj 1211 479 vline~;
#X obj 1214 539 tabread4~ dl-loop1;
#X obj 1208 379 pack f f;
#X obj 1209 324 f;
#X obj 1261 323 f;
#X obj 1122 202 bng 15 250 50 0 empty empty empty 17 7 0 10 #fcfcfc
#000000 #000000;
#X obj 1122 222 t b b;
#X obj 1262 256 / 30;
#X obj 1216 626 lop~ 200;
#X obj 1217 665 outlet~;
#X obj 1122 51 inlet;
#X text 1171 52 5: trigger 1 grain;
#X obj 1200 145 / 128;
#X obj 105 133 bng 40 250 50 0 empty empty empty 17 7 0 10 #ffc7c6
#ffffff #000000;
#X obj 152 157 hradio 15 1 0 5 empty empty loop 0 -8 0 30 #fcfcfc #000000
#000000 0;
#X obj 254 134 bng 40 250 50 0 empty empty empty 17 7 0 10 #ff0400
#404040 #000000;
#X text 1253 146 < loops are 16 beats \, dividing the sample length
by 128 should isolate the first 8th note and there shouldddd be a kick
right there, f 24;
#X text 1303 256 < a rough guess at the envelope time, f 21;
#X text 970 290 < recv filespec and send sample len, f 17;
#X text 935 458 V normalize loop;
#X text 927 814 ^ loop lives in here;
#X connect 0 0 1 0;
#X connect 1 0 2 0;
#X connect 2 0 38 0;
#X connect 4 0 0 0;
#X connect 4 0 3 0;
#X connect 5 0 0 1;
#X connect 6 0 8 0;
#X connect 7 0 6 0;
#X connect 7 0 70 0;
#X connect 8 0 9 0;
#X connect 8 1 10 0;
#X connect 8 2 11 0;
#X connect 8 3 12 0;
#X connect 8 4 13 0;
#X connect 9 0 14 0;
#X connect 10 0 15 0;
#X connect 11 0 16 0;
#X connect 12 0 17 0;
#X connect 13 0 18 0;
#X connect 19 0 1 1;
#X connect 20 0 21 0;
#X connect 21 0 22 0;
#X connect 22 0 39 0;
#X connect 24 0 20 0;
#X connect 26 0 52 0;
#X connect 27 0 51 0;
#X connect 28 0 50 0;
#X connect 29 0 49 0;
#X connect 30 0 48 0;
#X connect 31 0 7 0;
#X connect 33 0 4 0;
#X connect 36 0 5 0;
#X connect 36 0 69 0;
#X connect 39 0 23 0;
#X connect 39 1 40 0;
#X connect 41 0 46 0;
#X connect 42 0 0 1;
#X connect 43 0 41 0;
#X connect 44 0 43 0;
#X connect 46 0 42 0;
#X connect 48 0 25 0;
#X connect 49 0 25 0;
#X connect 50 0 25 0;
#X connect 51 0 25 0;
#X connect 52 0 25 0;
#X connect 54 0 68 0;
#X connect 55 0 56 0;
#X connect 56 0 57 0;
#X connect 57 0 64 0;
#X connect 58 0 55 0;
#X connect 59 0 58 0;
#X connect 60 0 58 1;
#X connect 61 0 62 0;
#X connect 62 0 59 0;
#X connect 62 1 60 0;
#X connect 63 0 60 0;
#X connect 64 0 65 0;
#X connect 66 0 61 0;
#X connect 66 0 71 0;
#X connect 68 0 59 0;
#X connect 68 0 63 0;
#X coords 0 -1 1 1 200 80 1 100 100;
