#N canvas 960 18 956 1009 12;
#X obj 999 153 phasor~;
#X obj 971 222 *~;
#X obj 949 278 tabread4~ dl-loop1;
#X floatatom 1031 107 5 0 0 0 - - - 0;
#X msg 1234 119 0;
#X obj 1012 181 r s_len;
#X obj 976 610 soundfiler;
#X obj 977 649 f;
#X floatatom 977 683 5 0 0 0 - - - 0;
#X obj 974 813 s s_len;
#X obj 976 577 r loop_sel;
#X obj 549 74 inlet;
#X obj 1000 42 inlet;
#X text 593 74 1: loop select;
#X obj 1232 40 inlet;
#X text 1279 40 3: reset loop;
#X obj 949 316 outlet~;
#X obj 976 732 t f b;
#X obj 1358 136 random 16;
#X floatatom 1358 201 5 0 0 0 - - - 0;
#X obj 1358 106 bng 15 250 50 0 empty empty empty 17 7 0 10 #fcfcfc
#000000 #000000;
#X obj 1391 41 inlet;
#X text 1438 41 4: random 1/16 slice;
#X obj 1358 169 expr $f1 * 0.0625;
#X text 918 404 < this could suck less;
#X obj 1675 104 r s_len;
#X msg 1682 413 0 \, \$1 \$2;
#X obj 1685 470 vline~;
#X obj 1682 370 pack f f;
#X obj 1683 315 f;
#X obj 1735 314 f;
#X obj 1596 193 bng 15 250 50 0 empty empty empty 17 7 0 10 #fcfcfc
#000000 #000000;
#X obj 1596 213 t b b;
#X obj 1736 247 / 30;
#X obj 1712 650 lop~ 200;
#X obj 1713 689 outlet~;
#X obj 1596 42 inlet;
#X text 1645 43 5: trigger 1 grain;
#X obj 1674 136 / 128;
#X obj 105 133 bng 40 250 50 0 empty empty empty 17 7 0 10 #ffc7c6
#ffffff #000000;
#X obj 254 134 bng 40 250 50 0 empty empty empty 17 7 0 10 #ff0400
#404040 #000000;
#X text 1727 137 < loops are 16 beats \, dividing the sample length
by 128 should isolate the first 8th note and there shouldddd be a kick
right there, f 24;
#X text 1777 247 < a rough guess at the envelope time, f 21;
#X text 1060 572 < recv filespec and send sample len, f 17;
#X text 1025 740 V normalize loop;
#X text 1046 40 2: time period of 1 beat;
#X obj 999 83 expr 1000/($f1*16);
#X floatatom 191 152 5 0 0 0 loop - - 0;
#X text 584 170 <= numbers replace "%d" in string;
#X symbolatom 551 290 37 0 0 0 - - - 0;
#X obj 550 192 + 1;
#X obj 549 168 % 12;
#X floatatom 550 216 5 0 0 0 - - - 0;
#X floatatom 550 123 5 0 0 0 - - - 0;
#X obj 549 373 s loop_sel;
#X msg 551 339 read -resize \$1 dl-loop1;
#X msg 1007 765 \; dl-loop1 normalize 1;
#X obj 1685 529 tabread4~ dl-loop1;
#X obj 555 250 makefilename samples/beats/beat_%05d.wav;
#X obj 506 534 table dl-loop1;
#X obj 1462 445 bng 15 250 50 0 empty empty empty 17 7 0 10 #fcfcfc
#000000 #000000;
#X obj 1428 407 r fez-beat-num;
#X floatatom 1451 478 5 0 0 0 - - - 0;
#X obj 1428 511 % 8;
#X floatatom 1466 514 5 0 0 0 - - - 0;
#X obj 1422 553 sel 0;
#X obj 1422 600 bng 15 250 50 0 empty empty empty 17 7 0 10 #fcfcfc
#000000 #000000;
#X obj 1482 605 random 8;
#X obj 1482 630 > 5;
#X obj 1482 655 sel 1;
#X obj 1423 732 bng 15 250 50 0 empty empty empty 17 7 0 10 #fcfcfc
#000000 #000000;
#X obj 1483 685 bng 15 250 50 0 empty empty empty 17 7 0 10 #fcfcfc
#000000 #000000;
#X floatatom 1553 606 5 0 0 0 - - - 0;
#X obj 1482 577 bng 15 250 50 0 empty empty empty 17 7 0 10 #fcfcfc
#000000 #000000;
#X obj 1423 786 spigot;
#X obj 1468 725 Knob_Map fez-k-randomkick 0 10;
#X obj 1533 761 > 4;
#X floatatom 1559 804 5 0 0 0 - - - 0;
#X obj 1655 595 *~;
#X obj 1719 611 vline~;
#X msg 1719 579 0 10 \, 1 10 10 \, 0 40 20;
#X connect 0 0 1 0;
#X connect 1 0 2 0;
#X connect 2 0 16 0;
#X connect 4 0 0 1;
#X connect 5 0 1 1;
#X connect 6 0 7 0;
#X connect 7 0 8 0;
#X connect 8 0 17 0;
#X connect 10 0 6 0;
#X connect 11 0 53 0;
#X connect 12 0 46 0;
#X connect 14 0 4 0;
#X connect 14 0 39 0;
#X connect 17 0 9 0;
#X connect 17 1 56 0;
#X connect 18 0 23 0;
#X connect 19 0 0 1;
#X connect 20 0 18 0;
#X connect 21 0 20 0;
#X connect 23 0 19 0;
#X connect 25 0 38 0;
#X connect 26 0 27 0;
#X connect 27 0 57 0;
#X connect 28 0 26 0;
#X connect 29 0 28 0;
#X connect 30 0 28 1;
#X connect 31 0 32 0;
#X connect 32 0 29 0;
#X connect 32 0 80 0;
#X connect 32 1 30 0;
#X connect 33 0 30 1;
#X connect 34 0 35 0;
#X connect 36 0 31 0;
#X connect 36 0 40 0;
#X connect 38 0 33 0;
#X connect 38 0 29 1;
#X connect 46 0 0 0;
#X connect 46 0 3 0;
#X connect 49 0 55 0;
#X connect 50 0 52 0;
#X connect 51 0 50 0;
#X connect 52 0 58 0;
#X connect 53 0 51 0;
#X connect 53 0 47 0;
#X connect 55 0 54 0;
#X connect 57 0 78 0;
#X connect 58 0 49 0;
#X connect 61 0 60 0;
#X connect 61 0 62 0;
#X connect 61 0 63 0;
#X connect 63 0 64 0;
#X connect 63 0 65 0;
#X connect 65 0 66 0;
#X connect 65 1 73 0;
#X connect 66 0 70 0;
#X connect 67 0 68 0;
#X connect 67 0 72 0;
#X connect 68 0 69 0;
#X connect 69 0 71 0;
#X connect 70 0 74 0;
#X connect 71 0 70 0;
#X connect 73 0 67 0;
#X connect 74 0 31 0;
#X connect 75 0 76 0;
#X connect 76 0 74 1;
#X connect 76 0 77 0;
#X connect 78 0 34 0;
#X connect 79 0 78 1;
#X connect 80 0 79 0;
#X coords 0 -1 1 1 200 80 1 100 100;
