#N canvas 622 452 1423 1025 12;
#X obj 106 158 Multi_Clock;
#X floatatom 230 39 5 0 0 0 - - - 0;
#X obj 208 67 t b f;
#X obj 175 100 s reset;
#X obj 70 337 * 16;
#X obj 70 381 s four_bar;
#X obj 221 376 bng 15 250 50 0 empty empty empty 17 7 0 10 #fcfcfc
#000000 #000000;
#X obj 379 282 Drum_Loops;
#X obj 382 47 hradio 15 1 0 5 empty empty empty 0 -8 0 10 #fcfcfc #000000
#000000 0;
#X obj 460 173 r four_bar;
#X obj 508 200 r reset;
#X obj 261 415 s reset;
#X floatatom 53 58 5 0 0 0 - - - 0;
#X obj 209 523 random 5;
#X obj 210 561 s loop_select;
#X obj 381 9 r loop_select;
#X obj 208 490 spigot;
#X obj 248 460 tgl 15 0 empty empty empty 17 7 0 10 #fcfcfc #000000
#000000 0 1;
#X text 268 458 switch loop;
#X obj 605 203 bng 15 250 50 0 empty empty empty 17 7 0 10 #fcfcfc
#000000 #000000;
#X floatatom 18 382 5 0 0 0 - - - 0;
#X obj 450 773 dac~;
#X obj 371 534 Tapeish;
#X obj 423 456 tgl 15 0 empty empty empty 17 7 0 10 #fcfcfc #000000
#000000 0 1;
#X obj 450 615 *~;
#X obj 497 617 *~;
#X obj 506 521 expr 1 - $f1;
#X obj 764 434 noise~;
#X obj 829 499 vline~;
#X obj 713 551 *~;
#X msg 835 455 0.25 \, 0 50;
#X obj 380 397 catch~ out;
#X obj 598 402 throw~ out;
#X obj 717 699 throw~ out;
#X obj 807 375 r hh;
#X obj 194 331 s hh;
#X obj 720 632 hip~ 4000;
#X obj 807 545 random 100;
#X obj 819 596 expr 2000+($f1 * 30);
#X floatatom 841 635 5 0 0 0 - - - 0;
#X obj 602 344 *~ 2;
#X obj 129 294 s qn;
#X obj 798 48 r qn;
#X floatatom 824 193 5 0 0 0 - - - 0;
#X obj 818 228 sel 0;
#X obj 828 114 Random_Ring 2 16;
#X obj 380 92 Counter_Latch;
#X obj 702 283 spigot;
#X obj 747 225 tgl 15 0 empty empty empty 17 7 0 10 #fcfcfc #000000
#000000 0 1;
#X text 849 148 random kick pattern using beat grain;
#X text 720 333 hi-hatish triggered from swing output of multiclock
;
#X obj 423 424 loadbang;
#X text 448 451 route audio through ghetto tape sim;
#X text 15 406 ^ Drum loop module needs to know time length of 4 bars
;
#X floatatom 296 80 5 0 0 0 - - - 0;
#X text 484 92 comment;
#X obj 378 229 Dedup;
#X obj 413 181 bng 15 250 50 0 empty empty empty 17 7 0 10 #fcfcfc
#000000 #000000;
#X obj 518 232 bng 15 250 50 0 empty empty empty 17 7 0 10 #fcfcfc
#000000 #000000;
#X obj 278 276 s hh;
#X obj 1048 434 noise~;
#X obj 1113 499 vline~;
#X obj 997 551 *~;
#X obj 1001 699 throw~ out;
#X obj 1004 632 hip~ 4000;
#X obj 1091 545 random 100;
#X obj 1103 596 expr 2000+($f1 * 30);
#X floatatom 1125 635 5 0 0 0 - - - 0;
#X obj 1091 375 r oh;
#X floatatom 325 256 5 0 0 0 - - - 0;
#X obj 330 289 s nn;
#X obj 1212 273 r nn;
#X obj 1220 347 bng 15 250 50 0 empty empty empty 17 7 0 10 #fcfcfc
#000000 #000000;
#X obj 1220 367 s oh;
#X obj 1211 308 sel 6 14;
#X msg 1119 455 0.15 \, 0 500;
#X connect 0 0 4 0;
#X connect 0 1 41 0;
#X connect 0 8 59 0;
#X connect 0 9 46 1;
#X connect 0 9 69 0;
#X connect 1 0 2 0;
#X connect 2 0 3 0;
#X connect 4 0 5 0;
#X connect 4 0 20 0;
#X connect 6 0 11 0;
#X connect 6 0 16 0;
#X connect 7 0 32 0;
#X connect 7 1 40 0;
#X connect 8 0 46 0;
#X connect 9 0 7 1;
#X connect 10 0 7 2;
#X connect 10 0 58 0;
#X connect 12 0 0 0;
#X connect 13 0 14 0;
#X connect 15 0 8 0;
#X connect 16 0 13 0;
#X connect 17 0 16 1;
#X connect 19 0 7 4;
#X connect 22 0 24 0;
#X connect 23 0 22 1;
#X connect 23 0 24 1;
#X connect 23 0 26 0;
#X connect 24 0 21 0;
#X connect 24 0 21 1;
#X connect 25 0 21 0;
#X connect 25 0 21 1;
#X connect 26 0 25 1;
#X connect 27 0 29 0;
#X connect 28 0 29 1;
#X connect 29 0 36 0;
#X connect 30 0 28 0;
#X connect 31 0 22 0;
#X connect 31 0 25 0;
#X connect 34 0 30 0;
#X connect 34 0 37 0;
#X connect 36 0 33 0;
#X connect 37 0 38 0;
#X connect 38 0 36 1;
#X connect 38 0 39 0;
#X connect 40 0 32 0;
#X connect 42 0 45 0;
#X connect 43 0 44 0;
#X connect 44 0 47 0;
#X connect 45 0 43 0;
#X connect 46 0 57 0;
#X connect 46 0 56 0;
#X connect 47 0 7 4;
#X connect 48 0 47 1;
#X connect 51 0 23 0;
#X connect 54 0 0 1;
#X connect 56 0 7 0;
#X connect 60 0 62 0;
#X connect 61 0 62 1;
#X connect 62 0 64 0;
#X connect 64 0 63 0;
#X connect 65 0 66 0;
#X connect 66 0 64 1;
#X connect 66 0 67 0;
#X connect 68 0 75 0;
#X connect 68 0 65 0;
#X connect 69 0 70 0;
#X connect 71 0 74 0;
#X connect 72 0 73 0;
#X connect 74 0 72 0;
#X connect 74 1 72 0;
#X connect 75 0 61 0;
