#N canvas 1230 619 450 300 12;
#X obj 154 90 ECAC;
#X obj 173 259 ECAR 90;
#X obj 155 375 s EO0;
#X obj 173 193 r EAR, f 1;
#X obj 154 57 r EAS;
#X obj 262 90 ECAC;
#X obj 281 259 ECAR 90;
#X obj 281 193 r EAR, f 1;
#X obj 262 57 r EAS;
#X obj 372 91 ECAC;
#X obj 391 260 ECAR 90;
#X obj 391 194 r EAR, f 1;
#X obj 372 58 r EAS;
#X obj 480 91 ECAC;
#X obj 499 260 ECAR 90;
#X obj 499 194 r EAR, f 1;
#X obj 480 58 r EAS;
#X obj 585 93 ECAC;
#X obj 604 262 ECAR 90;
#X obj 604 196 r EAR, f 1;
#X obj 585 60 r EAS;
#X obj 693 93 ECAC;
#X obj 712 262 ECAR 90;
#X obj 712 196 r EAR, f 1;
#X obj 693 60 r EAS;
#X obj 803 94 ECAC;
#X obj 822 263 ECAR 90;
#X obj 822 197 r EAR, f 1;
#X obj 803 61 r EAS;
#X obj 911 94 ECAC;
#X obj 930 263 ECAR 90;
#X obj 930 197 r EAR, f 1;
#X obj 911 61 r EAS;
#X obj 263 375 s EO1;
#X obj 373 376 s EO2;
#X obj 481 376 s EO3;
#X obj 586 378 s EO4;
#X obj 694 378 s EO5;
#X obj 804 379 s EO6;
#X obj 912 379 s EO7;
#X obj 1020 94 ECAC;
#X obj 1039 263 ECAR 90;
#X obj 1039 197 r EAR, f 1;
#X obj 1020 61 r EAS;
#X obj 1021 379 s EO8;
#X obj 253 28 r EARN;
#X obj 356 28 r EARN;
#X obj 467 28 r EARN;
#X obj 575 28 r EARN;
#X obj 677 28 r EARN;
#X obj 780 28 r EARN;
#X obj 891 28 r EARN;
#X obj 999 28 r EARN;
#X obj 1115 28 r EARN;
#X floatatom 670 533 5 0 0 0 - - - 0;
#X obj 670 556 s EARN;
#X obj 444 495 t b b;
#X obj 476 526 s EAS;
#X obj 444 551 s EAR;
#X obj 670 463 r fez-r-s;
#X obj 670 487 random 128;
#X obj 670 511 + 1;
#X obj 624 6 r EAinit;
#X obj 837 471 loadbang;
#X msg 839 510 1;
#X obj 839 534 s EAinit;
#X msg 876 511 0;
#X obj 444 471 r fez-4bar;
#X connect 0 0 2 0;
#X connect 0 0 1 2;
#X connect 0 0 6 1;
#X connect 0 0 41 3;
#X connect 1 0 0 1;
#X connect 3 0 1 0;
#X connect 4 0 0 0;
#X connect 5 0 6 2;
#X connect 5 0 33 0;
#X connect 5 0 10 1;
#X connect 5 0 1 3;
#X connect 6 0 5 1;
#X connect 7 0 6 0;
#X connect 8 0 5 0;
#X connect 9 0 10 2;
#X connect 9 0 34 0;
#X connect 9 0 14 1;
#X connect 9 0 6 3;
#X connect 10 0 9 1;
#X connect 11 0 10 0;
#X connect 12 0 9 0;
#X connect 13 0 14 2;
#X connect 13 0 35 0;
#X connect 13 0 18 1;
#X connect 13 0 10 3;
#X connect 14 0 13 1;
#X connect 15 0 14 0;
#X connect 16 0 13 0;
#X connect 17 0 18 2;
#X connect 17 0 36 0;
#X connect 17 0 22 1;
#X connect 17 0 14 3;
#X connect 18 0 17 1;
#X connect 19 0 18 0;
#X connect 20 0 17 0;
#X connect 21 0 22 2;
#X connect 21 0 37 0;
#X connect 21 0 26 1;
#X connect 21 0 18 3;
#X connect 22 0 21 1;
#X connect 23 0 22 0;
#X connect 24 0 21 0;
#X connect 25 0 26 2;
#X connect 25 0 38 0;
#X connect 25 0 30 1;
#X connect 25 0 22 3;
#X connect 26 0 25 1;
#X connect 27 0 26 0;
#X connect 28 0 25 0;
#X connect 29 0 30 2;
#X connect 29 0 39 0;
#X connect 29 0 41 1;
#X connect 29 0 26 3;
#X connect 30 0 29 1;
#X connect 31 0 30 0;
#X connect 32 0 29 0;
#X connect 40 0 41 2;
#X connect 40 0 44 0;
#X connect 40 0 30 3;
#X connect 40 0 1 1;
#X connect 41 0 40 1;
#X connect 42 0 41 0;
#X connect 43 0 40 0;
#X connect 45 0 1 4;
#X connect 46 0 6 4;
#X connect 47 0 10 4;
#X connect 48 0 14 4;
#X connect 49 0 18 4;
#X connect 50 0 22 4;
#X connect 51 0 26 4;
#X connect 52 0 30 4;
#X connect 53 0 41 4;
#X connect 54 0 55 0;
#X connect 56 0 58 0;
#X connect 56 1 57 0;
#X connect 59 0 60 0;
#X connect 59 0 64 0;
#X connect 60 0 61 0;
#X connect 61 0 54 0;
#X connect 62 0 17 1;
#X connect 63 0 64 0;
#X connect 64 0 65 0;
#X connect 66 0 65 0;
#X connect 67 0 56 0;
