#N canvas 321 362 450 300 12;
#X obj 232 172 f;
#X obj 232 199 tgl 15 0 empty empty empty 17 7 0 10 #fcfcfc #000000
#000000 0 1;
#X msg 330 102 1;
#X msg 298 102 0;
#X obj 233 100 bng 15 250 50 0 empty empty empty 17 7 0 10 #fcfcfc
#000000 #000000;
#X obj 195 28 inlet;
#X obj 246 28 inlet;
#X obj 114 138 tgl 15 0 empty empty empty 17 7 0 10 #fcfcfc #000000
#000000 0 1;
#X obj 152 138 tgl 15 0 empty empty empty 17 7 0 10 #fcfcfc #000000
#000000 0 1;
#X obj 233 267 outlet;
#X obj 314 55 loadbang;
#X obj 351 259 outlet;
#X obj 350 213 f;
#X obj 399 20 inlet;
#X connect 0 0 1 0;
#X connect 0 0 8 0;
#X connect 0 0 12 1;
#X connect 1 0 9 0;
#X connect 2 0 0 1;
#X connect 3 0 0 1;
#X connect 4 0 0 0;
#X connect 5 0 4 0;
#X connect 6 0 7 0;
#X connect 6 0 0 1;
#X connect 10 0 3 0;
#X connect 12 0 11 0;
#X connect 13 0 12 0;
#X coords 0 -1 1 1 85 60 1 100 100;
