#N canvas 751 138 737 641 12;
#X obj 54 90 ECAC;
#X obj 55 253 ECAR;
#X obj 57 8 inlet;
#X obj 103 8 inlet;
#X obj 612 39 loadbang;
#X msg 612 63 0;
#X obj 612 87 s r0O;
#X obj 228 10 inlet;
#X obj 228 34 s \$0L;
#X obj 276 9 inlet;
#X obj 276 33 s \$0R;
#X obj 74 202 r \$0L;
#X obj 134 203 r \$0R;
#X obj 164 8 inlet;
#X obj 164 32 s r0O;
#X obj 225 512 outlet;
#X obj 227 482 r e0O;
#X obj 54 157 s \$0O;
#X obj 94 226 r \$0O;
#X obj 55 321 s \$0rO;
#X obj 93 64 r \$0rO;
#X obj 320 503 r \$0O;
#X obj 320 527 outlet;
#X connect 0 0 17 0;
#X connect 1 0 19 0;
#X connect 2 0 0 0;
#X connect 3 0 1 0;
#X connect 4 0 5 0;
#X connect 5 0 6 0;
#X connect 7 0 8 0;
#X connect 9 0 10 0;
#X connect 11 0 1 1;
#X connect 12 0 1 4;
#X connect 13 0 14 0;
#X connect 16 0 15 0;
#X connect 18 0 1 2;
#X connect 20 0 0 1;
#X connect 21 0 22 0;
