#N canvas 670 544 779 636 12;
#X obj 298 120 f;
#X obj 344 120 f;
#X obj 397 121 f;
#X floatatom 299 162 5 0 0 0 - - - 0;
#X floatatom 344 162 5 0 0 0 - - - 0;
#X floatatom 397 163 5 0 0 0 - - - 0;
#X obj 232 122 bng 15 250 50 0 empty empty empty 17 7 0 10 #fcfcfc
#000000 #000000;
#X obj 252 120 t b b;
#X obj 299 201 expr (4*$f1)+(2*$f2)+$f3;
#X floatatom 300 231 5 0 0 0 - - - 0;
#X floatatom 529 295 5 0 0 0 - - - 0;
#X floatatom 337 360 5 0 0 0 - - - 0;
#X obj 300 254 expr 1 << $f1;
#X floatatom 300 278 5 0 0 0 - - - 0;
#X obj 379 363 tgl 15 0 empty empty empty 17 7 0 10 #fcfcfc #000000
#000000 0 1;
#X obj 268 292 bng 15 250 50 0 empty empty empty 17 7 0 10 #fcfcfc
#000000 #000000;
#X obj 207 71 inlet;
#X obj 298 74 inlet;
#X obj 344 74 inlet;
#X obj 397 73 inlet;
#X obj 379 413 outlet;
#X obj 529 115 inlet;
#X obj 529 268 f \$1;
#X floatatom 144 138 5 0 0 0 - - - 0;
#X obj 120 139 tgl 15 0 empty empty empty 17 7 0 10 #fcfcfc #000000
#000000 0 1;
#X obj 545 239 loadbang;
#X obj 338 331 expr ($f1 & $f2) > 0;
#X connect 0 0 3 0;
#X connect 1 0 4 0;
#X connect 2 0 5 0;
#X connect 3 0 8 0;
#X connect 4 0 8 1;
#X connect 5 0 8 2;
#X connect 6 0 7 0;
#X connect 7 0 0 0;
#X connect 7 1 1 0;
#X connect 7 1 2 0;
#X connect 8 0 9 0;
#X connect 9 0 12 0;
#X connect 10 0 26 1;
#X connect 12 0 13 0;
#X connect 13 0 15 0;
#X connect 13 0 26 0;
#X connect 14 0 20 0;
#X connect 16 0 6 0;
#X connect 17 0 0 0;
#X connect 18 0 1 0;
#X connect 19 0 2 0;
#X connect 21 0 22 0;
#X connect 22 0 10 0;
#X connect 22 0 23 0;
#X connect 25 0 22 0;
#X connect 26 0 11 0;
#X connect 26 0 14 0;
#X connect 26 0 24 0;
#X coords 0 -1 1 1 85 60 1 100 100;
