#N canvas 438 168 775 697 12;
#X obj 102 64 inlet~;
#X obj 98 583 outlet~;
#X obj 232 64 inlet;
#X obj 101 341 *~;
#X obj 232 137 tgl 15 0 empty empty empty 17 7 0 10 #fcfcfc #000000
#000000 0 1;
#X obj 233 177 sel 0;
#X obj 233 227 bng 15 250 50 0 empty empty empty 17 7 0 10 #fcfcfc
#000000 #000000;
#X obj 266 229 bng 15 250 50 0 empty empty empty 17 7 0 10 #fcfcfc
#000000 #000000;
#X obj 162 342 line~;
#X obj 176 305 bng 15 250 50 0 empty empty empty 17 7 0 10 #fcfcfc
#000000 #000000;
#X obj 244 307 bng 15 250 50 0 empty empty empty 17 7 0 10 #fcfcfc
#000000 #000000;
#X msg 168 277 0 800;
#X msg 236 277 1 800;
#X connect 0 0 3 0;
#X connect 2 0 4 0;
#X connect 3 0 1 0;
#X connect 4 0 5 0;
#X connect 5 0 6 0;
#X connect 5 1 7 0;
#X connect 6 0 11 0;
#X connect 7 0 12 0;
#X connect 8 0 3 1;
#X connect 11 0 8 0;
#X connect 11 0 9 0;
#X connect 12 0 10 0;
#X connect 12 0 8 0;
