#N canvas 960 18 636 1009 12;
#X msg 39 863 devicename /dev/ttyUSB0 9600;
#X obj 863 68 s \$0-lb;
#X obj 863 15 loadbang;
#X obj 872 38 bng 15 250 50 0 empty empty empty 17 7 0 10 #fcfcfc #000000
#000000;
#X obj 269 931 comport;
#X obj 39 813 r \$0-lb;
#X obj 325 822 r fez-led-bn;
#X text 555 101 LED BOARD PROTOCOL 5 byte commands 0: 0xFA (250) -
START BYTE 1: command# 2: Arg1 3: Arg2 4: 0xFF (255) - STOP BYTE Command
1: Set beat number. arg1 = beat number arg2 = ? Command 2: Set parameter
\, arg1 = parameter \, arg2 = value;
#X obj 553 365 r \$0-lb;
#X obj 573 397 metro 20;
#X obj 558 455 s \$0-l;
#X obj 520 851 r \$0-p;
#X obj 120 56 f;
#X obj 147 58 bng 15 250 50 0 empty empty empty 17 7 0 10 #fcfcfc #000000
#000000;
#X obj 164 56 r \$0-l;
#X obj 119 109 Dedup;
#X obj 119 174 s \$0-p;
#X obj 120 28 r fez-led-p1;
#X obj 164 81 sel 1;
#X msg 119 147 1 \$1;
#X obj 219 56 f;
#X obj 246 58 bng 15 250 50 0 empty empty empty 17 7 0 10 #fcfcfc #000000
#000000;
#X obj 263 56 r \$0-l;
#X obj 218 109 Dedup;
#X obj 218 174 s \$0-p;
#X obj 318 57 f;
#X obj 345 59 bng 15 250 50 0 empty empty empty 17 7 0 10 #fcfcfc #000000
#000000;
#X obj 362 57 r \$0-l;
#X obj 317 110 Dedup;
#X obj 317 175 s \$0-p;
#X obj 219 28 r fez-led-p2;
#X obj 263 81 sel 2;
#X msg 218 147 2 \$1;
#X obj 362 82 sel 3;
#X msg 317 148 3 \$1;
#X obj 318 29 r fez-led-p3;
#X obj 18 233 f;
#X obj 45 235 bng 15 250 50 0 empty empty empty 17 7 0 10 #fcfcfc #000000
#000000;
#X obj 62 233 r \$0-l;
#X obj 17 286 Dedup;
#X obj 17 351 s \$0-p;
#X obj 117 234 f;
#X obj 144 236 bng 15 250 50 0 empty empty empty 17 7 0 10 #fcfcfc
#000000 #000000;
#X obj 161 234 r \$0-l;
#X obj 116 287 Dedup;
#X obj 116 352 s \$0-p;
#X obj 216 234 f;
#X obj 243 236 bng 15 250 50 0 empty empty empty 17 7 0 10 #fcfcfc
#000000 #000000;
#X obj 260 234 r \$0-l;
#X obj 215 287 Dedup;
#X obj 215 352 s \$0-p;
#X obj 315 235 f;
#X obj 342 237 bng 15 250 50 0 empty empty empty 17 7 0 10 #fcfcfc
#000000 #000000;
#X obj 359 235 r \$0-l;
#X obj 314 288 Dedup;
#X obj 314 353 s \$0-p;
#X obj 18 205 r fez-led-p4;
#X obj 117 206 r fez-led-p5;
#X obj 216 206 r fez-led-p6;
#X obj 315 207 r fez-led-p7;
#X obj 62 258 sel 4;
#X obj 161 259 sel 5;
#X obj 260 259 sel 6;
#X obj 359 260 sel 7;
#X msg 17 324 4 \$1;
#X msg 116 325 5 \$1;
#X msg 215 325 6 \$1;
#X msg 314 326 7 \$1;
#X obj 16 409 f;
#X obj 43 411 bng 15 250 50 0 empty empty empty 17 7 0 10 #fcfcfc #000000
#000000;
#X obj 60 409 r \$0-l;
#X obj 15 462 Dedup;
#X obj 15 527 s \$0-p;
#X obj 115 410 f;
#X obj 142 412 bng 15 250 50 0 empty empty empty 17 7 0 10 #fcfcfc
#000000 #000000;
#X obj 159 410 r \$0-l;
#X obj 114 463 Dedup;
#X obj 114 528 s \$0-p;
#X obj 214 410 f;
#X obj 241 412 bng 15 250 50 0 empty empty empty 17 7 0 10 #fcfcfc
#000000 #000000;
#X obj 258 410 r \$0-l;
#X obj 213 463 Dedup;
#X obj 213 528 s \$0-p;
#X obj 313 411 f;
#X obj 340 413 bng 15 250 50 0 empty empty empty 17 7 0 10 #fcfcfc
#000000 #000000;
#X obj 357 411 r \$0-l;
#X obj 312 464 Dedup;
#X obj 312 529 s \$0-p;
#X obj 16 381 r fez-led-p8;
#X obj 115 382 r fez-led-p9;
#X obj 214 382 r fez-led-p10;
#X obj 313 383 r fez-led-p11;
#X obj 60 434 sel 8;
#X obj 159 435 sel 9;
#X obj 258 435 sel 10;
#X obj 357 436 sel 11;
#X msg 15 500 8 \$1;
#X msg 114 501 9 \$1;
#X msg 213 501 10 \$1;
#X msg 312 502 11 \$1;
#X obj 558 427 Counter 12;
#X obj 744 744 metro 200;
#X obj 748 703 tgl 15 0 empty empty empty 17 7 0 10 #fcfcfc #000000
#000000 0 1;
#X obj 742 781 Counter 16;
#X obj 755 819 s fez-led-bn;
#X msg 381 878 250 2 \$1 0 255;
#X msg 520 887 250 1 \$1 \$2 255;
#X text 644 370 to stop overflowing LED board we scan the parameters
every 20 ms, f 17;
#X msg 271 879 250 1 0 \$1 255;
#X connect 0 0 4 0;
#X connect 2 0 1 0;
#X connect 3 0 1 0;
#X connect 5 0 0 0;
#X connect 6 0 105 0;
#X connect 6 0 108 0;
#X connect 8 0 9 0;
#X connect 9 0 100 0;
#X connect 11 0 106 0;
#X connect 12 0 15 0;
#X connect 13 0 12 0;
#X connect 14 0 18 0;
#X connect 15 0 19 0;
#X connect 17 0 12 1;
#X connect 18 0 13 0;
#X connect 19 0 16 0;
#X connect 20 0 23 0;
#X connect 21 0 20 0;
#X connect 22 0 31 0;
#X connect 23 0 32 0;
#X connect 25 0 28 0;
#X connect 26 0 25 0;
#X connect 27 0 33 0;
#X connect 28 0 34 0;
#X connect 30 0 20 1;
#X connect 31 0 21 0;
#X connect 32 0 24 0;
#X connect 33 0 26 0;
#X connect 34 0 29 0;
#X connect 35 0 25 1;
#X connect 36 0 39 0;
#X connect 37 0 36 0;
#X connect 38 0 60 0;
#X connect 39 0 64 0;
#X connect 41 0 44 0;
#X connect 42 0 41 0;
#X connect 43 0 61 0;
#X connect 44 0 65 0;
#X connect 46 0 49 0;
#X connect 47 0 46 0;
#X connect 48 0 62 0;
#X connect 49 0 66 0;
#X connect 51 0 54 0;
#X connect 52 0 51 0;
#X connect 53 0 63 0;
#X connect 54 0 67 0;
#X connect 56 0 36 1;
#X connect 57 0 41 1;
#X connect 58 0 46 1;
#X connect 59 0 51 1;
#X connect 60 0 37 0;
#X connect 61 0 42 0;
#X connect 62 0 47 0;
#X connect 63 0 52 0;
#X connect 64 0 40 0;
#X connect 65 0 45 0;
#X connect 66 0 50 0;
#X connect 67 0 55 0;
#X connect 68 0 71 0;
#X connect 69 0 68 0;
#X connect 70 0 92 0;
#X connect 71 0 96 0;
#X connect 73 0 76 0;
#X connect 74 0 73 0;
#X connect 75 0 93 0;
#X connect 76 0 97 0;
#X connect 78 0 81 0;
#X connect 79 0 78 0;
#X connect 80 0 94 0;
#X connect 81 0 98 0;
#X connect 83 0 86 0;
#X connect 84 0 83 0;
#X connect 85 0 95 0;
#X connect 86 0 99 0;
#X connect 88 0 68 1;
#X connect 89 0 73 1;
#X connect 90 0 78 1;
#X connect 91 0 83 1;
#X connect 92 0 69 0;
#X connect 93 0 74 0;
#X connect 94 0 79 0;
#X connect 95 0 84 0;
#X connect 96 0 72 0;
#X connect 97 0 77 0;
#X connect 98 0 82 0;
#X connect 99 0 87 0;
#X connect 100 0 10 0;
#X connect 101 0 103 0;
#X connect 102 0 101 0;
#X connect 103 0 104 0;
#X connect 105 0 4 0;
#X connect 106 0 4 0;
#X connect 108 0 4 0;
