#N canvas 0 18 956 1009 12;
#X obj 19 24 Fez9000_LED_Control;
#X obj 20 50 Fez9000_Joystick;
#X obj 20 77 Fez9000_Knobs;
#X text 142 49 < Hardware Control;
#N canvas 960 18 476 1009 Key_Set 0;
#X floatatom 319 262 5 0 0 0 - - - 0;
#X obj 319 230 Knob_Map fez-k-b1-2 0 23;
#X obj 261 313 / 12;
#X floatatom 261 377 5 0 0 0 maj/min - - 0;
#X obj 369 312 % 12;
#X floatatom 369 381 5 0 0 0 root - - 0;
#X obj 261 349 int;
#X obj 247 503 list append;
#X obj 243 449 f;
#X obj 352 458 t f b;
#X obj 247 577 list;
#X msg 254 250 0;
#X obj 240 211 loadbang;
#X obj 469 319 * 16;
#X obj 470 355 +;
#X floatatom 508 320 5 0 0 0 - - - 0;
#X obj 504 354 s fez-led-p1;
#X obj 85 552 spigot;
#X obj 124 524 tgl 15 0 empty empty empty 17 7 0 10 #fcfcfc #000000
#000000 0 1;
#X obj 85 593 t b b;
#X msg 176 526 1;
#X obj 176 503 bng 15 250 50 0 empty empty empty 17 7 0 10 #fcfcfc
#000000 #000000;
#X msg 44 522 0;
#X obj 44 503 bng 15 250 50 0 empty empty empty 17 7 0 10 #fcfcfc #000000
#000000;
#X text 74 339 this madness is so we only send a new key when one has
actually changed and not every bar, f 13;
#X obj 247 633 s fez-key-change;
#X obj 85 492 r fez-4bar;
#X obj 381 409 s \$0-root;
#X obj 271 410 s \$0-mode;
#X obj 357 685 r \$0-root;
#X obj 358 718 sel 0 1 2 3 4 5 6 7 8 9 10 11;
#X obj 35 6 r \$0-mode;
#X obj 35 31 sel 0;
#X symbolatom 175 139 10 0 0 0 - - - 0;
#X msg 9 74 symbol major;
#X msg 111 73 symbol minor;
#X msg 24 809 symbol c;
#X msg 95 809 symbol c#;
#X msg 173 808 symbol d;
#X msg 245 807 symbol eb;
#X msg 322 807 symbol e;
#X msg 392 807 symbol f;
#X msg 463 807 symbol f#;
#X msg 543 807 symbol g;
#X msg 615 807 symbol ab;
#X msg 692 807 symbol a;
#X msg 762 807 symbol bb;
#X msg 840 807 symbol b;
#X obj 297 871 s \$0-key-name;
#X symbolatom 131 138 5 0 0 0 - - - 0;
#X obj 217 75 r \$0-key-name;
#X listbox 188 117 8 0 0 0 - - - 0;
#X obj 224 26 r fez-key-change;
#X obj 150 119 tgl 15 0 empty empty empty 17 7 0 10 #fcfcfc #000000
#000000 0 1;
#X obj 130 119 bng 15 250 50 0 empty empty empty 17 7 0 10 #fcfcfc
#000000 #000000;
#X connect 0 0 2 0;
#X connect 0 0 4 0;
#X connect 0 0 21 0;
#X connect 1 0 0 0;
#X connect 2 0 6 0;
#X connect 3 0 8 1;
#X connect 3 0 28 0;
#X connect 4 0 5 0;
#X connect 4 0 14 0;
#X connect 5 0 9 0;
#X connect 5 0 27 0;
#X connect 6 0 3 0;
#X connect 6 0 13 0;
#X connect 7 0 10 1;
#X connect 8 0 7 1;
#X connect 9 0 7 0;
#X connect 9 1 8 0;
#X connect 10 0 25 0;
#X connect 11 0 0 0;
#X connect 12 0 11 0;
#X connect 13 0 14 1;
#X connect 14 0 15 0;
#X connect 15 0 16 0;
#X connect 17 0 19 0;
#X connect 17 0 54 0;
#X connect 18 0 17 1;
#X connect 18 0 53 0;
#X connect 19 0 23 0;
#X connect 19 1 10 0;
#X connect 20 0 18 0;
#X connect 21 0 20 0;
#X connect 22 0 18 0;
#X connect 23 0 22 0;
#X connect 26 0 17 0;
#X connect 29 0 30 0;
#X connect 30 0 36 0;
#X connect 30 1 37 0;
#X connect 30 2 38 0;
#X connect 30 3 39 0;
#X connect 30 4 40 0;
#X connect 30 5 41 0;
#X connect 30 6 42 0;
#X connect 30 7 43 0;
#X connect 30 8 44 0;
#X connect 30 9 45 0;
#X connect 30 10 46 0;
#X connect 30 11 47 0;
#X connect 31 0 32 0;
#X connect 32 0 34 0;
#X connect 32 1 35 0;
#X connect 34 0 33 0;
#X connect 35 0 33 0;
#X connect 36 0 48 0;
#X connect 37 0 48 0;
#X connect 38 0 48 0;
#X connect 39 0 48 0;
#X connect 40 0 48 0;
#X connect 41 0 48 0;
#X connect 42 0 48 0;
#X connect 43 0 48 0;
#X connect 44 0 48 0;
#X connect 45 0 48 0;
#X connect 46 0 48 0;
#X connect 47 0 48 0;
#X connect 50 0 49 0;
#X connect 52 0 51 0;
#X coords 0 -1 1 1 150 60 1 100 100;
#X restore 20 243 pd Key_Set;
#N canvas 960 18 956 1009 Main_Clock 1;
#X obj 117 137 Multi_Clock;
#X floatatom 195 114 5 0 0 0 bpm\ set\ to - - 0;
#X obj 117 31 loadbang;
#X obj 470 47 Knob_Map fez-k-b1-1 80 92;
#X text 467 9 these bpms are the sweet spot for fez, f 19;
#X obj 138 463 s fez-8th;
#X obj 159 434 s fez-4th;
#X obj 117 494 s fez-beat-time;
#X obj 181 409 s fez-half;
#X obj 202 386 s fez-1bar;
#X obj 224 360 s fez-2bar;
#X obj 245 335 s fez-4bar;
#X obj 267 310 s fez-8bar;
#X obj 288 285 s fez-8th-swing;
#X obj 310 261 s fez-beat-num;
#X obj 338 237 s fez-led-bn;
#X obj 144 242 bng 15 250 50 0 empty empty empty 17 7 0 10 #fcfcfc
#000000 #000000;
#X obj 167 242 bng 15 250 50 0 empty empty empty 17 7 0 10 #fcfcfc
#000000 #000000;
#X obj 188 242 bng 15 250 50 0 empty empty empty 17 7 0 10 #fcfcfc
#000000 #000000;
#X obj 209 242 bng 15 250 50 0 empty empty empty 17 7 0 10 #fcfcfc
#000000 #000000;
#X obj 230 242 bng 15 250 50 0 empty empty empty 17 7 0 10 #fcfcfc
#000000 #000000;
#X obj 252 242 bng 15 250 50 0 empty empty empty 17 7 0 10 #fcfcfc
#000000 #000000;
#X obj 273 242 bng 15 250 50 0 empty empty empty 17 7 0 10 #fcfcfc
#000000 #000000;
#X obj 296 241 bng 15 250 50 0 empty empty empty 17 7 0 10 #fcfcfc
#000000 #000000;
#X obj 635 96 tgl 15 0 empty empty empty 17 7 0 10 #fcfcfc #000000
#000000 0 1;
#X obj 635 73 loadbang;
#X obj 515 107 bng 15 250 50 0 empty empty empty 17 7 0 10 #fcfcfc
#000000 #000000;
#X obj 470 143 Dedup;
#X obj 471 170 bng 15 250 50 0 empty empty empty 17 7 0 10 #fcfcfc
#000000 #000000;
#X obj 635 113 metro 2000;
#X obj 470 104 f 80;
#X msg 196 61 80;
#X connect 0 0 7 0;
#X connect 0 1 5 0;
#X connect 0 1 16 0;
#X connect 0 2 6 0;
#X connect 0 2 17 0;
#X connect 0 3 8 0;
#X connect 0 3 18 0;
#X connect 0 4 9 0;
#X connect 0 4 19 0;
#X connect 0 5 10 0;
#X connect 0 5 20 0;
#X connect 0 6 11 0;
#X connect 0 6 21 0;
#X connect 0 7 12 0;
#X connect 0 7 22 0;
#X connect 0 8 13 0;
#X connect 0 8 23 0;
#X connect 0 9 14 0;
#X connect 0 9 15 0;
#X connect 1 0 30 1;
#X connect 2 0 31 0;
#X connect 3 0 1 0;
#X connect 24 0 29 0;
#X connect 25 0 24 0;
#X connect 26 0 30 0;
#X connect 27 0 0 1;
#X connect 27 0 28 0;
#X connect 29 0 26 0;
#X connect 30 0 27 0;
#X connect 31 0 0 1;
#X coords 0 -1 1 1 220 160 1 100 100;
#X restore 332 8 pd Main_Clock;
#X obj 25 405 Drum_Loops;
#X obj 73 349 r fez-beat-time;
#X obj 121 372 r fez-4bar;
#X obj 563 107 clip~ -1 1;
#X obj 563 145 dac~;
#X obj 644 107 clip~ -1 1;
#X obj 563 69 catch~ fez-main-l;
#X obj 697 70 catch~ fez-main-r;
#X obj 564 24 catch~ fez-main-mono;
#X floatatom 33 348 5 0 0 0 - - - 0;
#X obj 24 320 Knob_Map fez-k-b1-3 0 5;
#X obj 588 280 catch~ fez-main-tapeout;
#X obj 588 340 Tapeish;
#X obj 587 369 throw~ fez-main-mono;
#X obj 633 311 tgl 15 0 empty empty empty 17 7 0 10 #fcfcfc #000000
#000000 0 1;
#X obj 24 499 throw~ fez-main-tapeout;
#X connect 6 0 21 0;
#X connect 7 0 6 1;
#X connect 8 0 6 2;
#X connect 9 0 10 0;
#X connect 11 0 10 0;
#X connect 12 0 9 0;
#X connect 13 0 11 0;
#X connect 14 0 9 0;
#X connect 14 0 11 0;
#X connect 16 0 6 0;
#X connect 16 0 15 0;
#X connect 17 0 18 0;
#X connect 18 0 19 0;
#X connect 20 0 18 1;
