#N canvas 625 304 603 438 12;
#X obj 19 14 inlet~;
#X obj 23 398 outlet~;
#X obj 325 74 r fez-1bar;
#X obj 229 42 loadbang;
#X obj 325 152 random 100;
#X obj 24 303 Fez9000-Fade-InOut;
#X obj 133 139 tgl 30 0 empty empty empty 17 7 0 10 #fcfcfc #000000
#000000 0 1;
#X floatatom 360 182 5 0 0 0 - - - 0;
#X obj 345 101 bng 15 250 50 0 empty empty empty 17 7 0 10 #fcfcfc
#000000 #000000;
#X obj 325 181 > 5;
#X obj 465 18 inlet~;
#X obj 505 375 outlet~;
#X obj 457 282 Fez9000-Fade-InOut;
#X connect 0 0 5 0;
#X connect 2 0 4 0;
#X connect 3 0 6 0;
#X connect 4 0 9 0;
#X connect 5 0 1 0;
#X connect 6 0 5 1;
#X connect 6 0 12 1;
#X connect 8 0 4 0;
#X connect 9 0 6 0;
#X connect 9 0 7 0;
#X connect 10 0 12 0;
#X connect 12 0 11 0;
#X coords 0 -1 1 1 85 80 1 100 100;
