#N canvas 0 18 956 1009 12;
#X obj 21 106 Fez9000_LED_Control;
#X obj 20 50 Fez9000_Joystick;
#X obj 20 77 Fez9000_Knobs;
#X text 142 49 < Hardware Control;
#N canvas 960 25 636 1009 Key_Set 0;
#X floatatom 319 262 5 0 0 0 - - - 0;
#X obj 319 230 Knob_Map fez-k-b1-2 0 23;
#X obj 261 313 / 12;
#X floatatom 261 377 5 0 0 0 maj/min - - 0;
#X obj 369 312 % 12;
#X floatatom 369 381 5 0 0 0 root - - 0;
#X obj 261 349 int;
#X obj 247 503 list append;
#X obj 243 449 f;
#X obj 352 458 t f b;
#X obj 247 577 list;
#X msg 254 250 0;
#X obj 240 211 loadbang;
#X obj 469 319 * 16;
#X obj 470 355 +;
#X floatatom 508 320 5 0 0 0 - - - 0;
#X obj 504 354 s fez-led-p1;
#X obj 85 552 spigot;
#X obj 124 524 tgl 15 0 empty empty empty 17 7 0 10 #fcfcfc #000000
#000000 0 1;
#X obj 85 593 t b b;
#X msg 176 526 1;
#X obj 176 503 bng 15 250 50 0 empty empty empty 17 7 0 10 #fcfcfc
#000000 #000000;
#X msg 44 522 0;
#X obj 44 503 bng 15 250 50 0 empty empty empty 17 7 0 10 #fcfcfc #000000
#000000;
#X text 74 339 this madness is so we only send a new key when one has
actually changed and not every bar, f 13;
#X obj 247 633 s fez-key-change;
#X obj 85 492 r fez-4bar;
#X obj 381 409 s \$0-root;
#X obj 271 410 s \$0-mode;
#X obj 357 685 r \$0-root;
#X obj 358 718 sel 0 1 2 3 4 5 6 7 8 9 10 11;
#X obj 35 6 r \$0-mode;
#X obj 35 31 sel 0;
#X symbolatom 175 139 10 0 0 0 - - - 0;
#X msg 9 74 symbol major;
#X msg 111 73 symbol minor;
#X msg 24 809 symbol c;
#X msg 95 809 symbol c#;
#X msg 173 808 symbol d;
#X msg 245 807 symbol eb;
#X msg 322 807 symbol e;
#X msg 392 807 symbol f;
#X msg 463 807 symbol f#;
#X msg 543 807 symbol g;
#X msg 615 807 symbol ab;
#X msg 692 807 symbol a;
#X msg 762 807 symbol bb;
#X msg 840 807 symbol b;
#X obj 297 871 s \$0-key-name;
#X symbolatom 131 138 5 0 0 0 - - - 0;
#X obj 217 75 r \$0-key-name;
#X listbox 188 117 8 0 0 0 - - - 0;
#X obj 224 26 r fez-key-change;
#X obj 150 119 tgl 15 0 empty empty empty 17 7 0 10 #fcfcfc #000000
#000000 0 1;
#X obj 130 119 bng 15 250 50 0 empty empty empty 17 7 0 10 #fcfcfc
#000000 #000000;
#X obj 115 651 unpack f f;
#X obj 112 700 s fez-key-root;
#X connect 0 0 2 0;
#X connect 0 0 4 0;
#X connect 0 0 21 0;
#X connect 1 0 0 0;
#X connect 2 0 6 0;
#X connect 3 0 8 1;
#X connect 3 0 28 0;
#X connect 4 0 5 0;
#X connect 4 0 14 0;
#X connect 5 0 9 0;
#X connect 5 0 27 0;
#X connect 6 0 3 0;
#X connect 6 0 13 0;
#X connect 7 0 10 1;
#X connect 8 0 7 1;
#X connect 9 0 7 0;
#X connect 9 1 8 0;
#X connect 10 0 25 0;
#X connect 10 0 55 0;
#X connect 11 0 0 0;
#X connect 12 0 11 0;
#X connect 13 0 14 1;
#X connect 14 0 15 0;
#X connect 15 0 16 0;
#X connect 17 0 19 0;
#X connect 17 0 54 0;
#X connect 18 0 17 1;
#X connect 18 0 53 0;
#X connect 19 0 23 0;
#X connect 19 1 10 0;
#X connect 20 0 18 0;
#X connect 21 0 20 0;
#X connect 22 0 18 0;
#X connect 23 0 22 0;
#X connect 26 0 17 0;
#X connect 29 0 30 0;
#X connect 30 0 36 0;
#X connect 30 1 37 0;
#X connect 30 2 38 0;
#X connect 30 3 39 0;
#X connect 30 4 40 0;
#X connect 30 5 41 0;
#X connect 30 6 42 0;
#X connect 30 7 43 0;
#X connect 30 8 44 0;
#X connect 30 9 45 0;
#X connect 30 10 46 0;
#X connect 30 11 47 0;
#X connect 31 0 32 0;
#X connect 32 0 34 0;
#X connect 32 1 35 0;
#X connect 34 0 33 0;
#X connect 35 0 33 0;
#X connect 36 0 48 0;
#X connect 37 0 48 0;
#X connect 38 0 48 0;
#X connect 39 0 48 0;
#X connect 40 0 48 0;
#X connect 41 0 48 0;
#X connect 42 0 48 0;
#X connect 43 0 48 0;
#X connect 44 0 48 0;
#X connect 45 0 48 0;
#X connect 46 0 48 0;
#X connect 47 0 48 0;
#X connect 50 0 49 0;
#X connect 52 0 51 0;
#X connect 55 0 56 0;
#X coords 0 -1 1 1 150 60 1 100 100;
#X restore 20 243 pd Key_Set;
#N canvas 1280 18 476 1009 Main_Clock 0;
#X obj 117 137 Multi_Clock;
#X floatatom 195 114 5 0 0 0 bpm\ set\ to - - 0;
#X obj 117 31 loadbang;
#X text 467 9 these bpms are the sweet spot for fez, f 19;
#X obj 138 463 s fez-8th;
#X obj 159 434 s fez-4th;
#X obj 117 494 s fez-beat-time;
#X obj 181 409 s fez-half;
#X obj 202 386 s fez-1bar;
#X obj 224 360 s fez-2bar;
#X obj 245 335 s fez-4bar;
#X obj 267 310 s fez-8bar;
#X obj 288 285 s fez-8th-swing;
#X obj 310 261 s fez-beat-num;
#X obj 338 237 s fez-led-bn;
#X obj 144 242 bng 15 250 50 0 empty empty empty 17 7 0 10 #fcfcfc
#000000 #000000;
#X obj 167 242 bng 15 250 50 0 empty empty empty 17 7 0 10 #fcfcfc
#000000 #000000;
#X obj 188 242 bng 15 250 50 0 empty empty empty 17 7 0 10 #fcfcfc
#000000 #000000;
#X obj 209 242 bng 15 250 50 0 empty empty empty 17 7 0 10 #fcfcfc
#000000 #000000;
#X obj 230 242 bng 15 250 50 0 empty empty empty 17 7 0 10 #fcfcfc
#000000 #000000;
#X obj 252 242 bng 15 250 50 0 empty empty empty 17 7 0 10 #fcfcfc
#000000 #000000;
#X obj 273 242 bng 15 250 50 0 empty empty empty 17 7 0 10 #fcfcfc
#000000 #000000;
#X obj 296 241 bng 15 250 50 0 empty empty empty 17 7 0 10 #fcfcfc
#000000 #000000;
#X obj 635 96 tgl 15 0 empty empty empty 17 7 0 10 #fcfcfc #000000
#000000 0 1;
#X obj 635 73 loadbang;
#X obj 515 107 bng 15 250 50 0 empty empty empty 17 7 0 10 #fcfcfc
#000000 #000000;
#X obj 470 143 Dedup;
#X obj 471 170 bng 15 250 50 0 empty empty empty 17 7 0 10 #fcfcfc
#000000 #000000;
#X obj 635 113 metro 2000;
#X obj 470 104 f 80;
#X msg 196 61 80;
#X floatatom 102 239 5 0 0 0 - - - 0;
#X obj 470 47 Knob_Map fez-k-b1-1 70 92;
#X connect 0 0 6 0;
#X connect 0 1 4 0;
#X connect 0 1 15 0;
#X connect 0 2 5 0;
#X connect 0 2 16 0;
#X connect 0 3 7 0;
#X connect 0 3 17 0;
#X connect 0 4 8 0;
#X connect 0 4 18 0;
#X connect 0 5 9 0;
#X connect 0 5 19 0;
#X connect 0 6 10 0;
#X connect 0 6 20 0;
#X connect 0 7 11 0;
#X connect 0 7 21 0;
#X connect 0 8 12 0;
#X connect 0 8 22 0;
#X connect 0 9 13 0;
#X connect 0 9 14 0;
#X connect 0 9 31 0;
#X connect 1 0 29 1;
#X connect 2 0 30 0;
#X connect 23 0 28 0;
#X connect 24 0 23 0;
#X connect 25 0 29 0;
#X connect 26 0 0 1;
#X connect 26 0 27 0;
#X connect 28 0 25 0;
#X connect 29 0 26 0;
#X connect 30 0 0 1;
#X connect 32 0 1 0;
#X coords 0 -1 1 1 220 160 1 100 100;
#X restore 332 8 pd Main_Clock;
#X obj 25 405 Drum_Loops;
#X obj 73 349 r fez-beat-time;
#X obj 121 372 r fez-4bar;
#X obj 563 107 clip~ -1 1;
#X obj 563 145 dac~;
#X obj 644 107 clip~ -1 1;
#X obj 563 69 catch~ fez-main-l;
#X obj 697 70 catch~ fez-main-r;
#X obj 562 22 catch~ fez-main-mono;
#X floatatom 33 348 5 0 0 0 - - - 0;
#X obj 831 10 catch~ fez-main-tapeout;
#X obj 831 70 Tapeish;
#X obj 830 99 throw~ fez-main-mono;
#X obj 878 49 tgl 15 0 empty empty empty 17 7 0 10 #fcfcfc #000000
#000000 0 1;
#N canvas 640 18 636 1009 Fez9000_Main_Mixer 0;
#X obj 375 88 inlet~;
#X obj 406 618 outlet~;
#X obj 423 217 CC_Scale;
#X obj 405 247 *~;
#X obj 528 78 inlet~;
#X obj 547 216 CC_Scale;
#X obj 529 246 *~;
#X obj 652 79 inlet~;
#X obj 672 215 CC_Scale;
#X obj 653 247 *~;
#X obj 784 77 inlet~;
#X obj 803 215 CC_Scale;
#X obj 785 245 *~;
#X floatatom 438 245 5 0 0 0 - - - 0;
#X floatatom 566 246 5 0 0 0 - - - 0;
#X floatatom 688 243 5 0 0 0 - - - 0;
#X floatatom 824 247 5 0 0 0 - - - 0;
#X obj 425 188 r fez-k-b1-9;
#X obj 549 187 r fez-k-b1-10;
#X obj 673 188 r fez-k-b1-11;
#X obj 805 186 r fez-k-b1-12;
#X obj 522 414 * 32;
#X obj 637 414 * 32;
#X obj 753 415 * 32;
#X obj 868 415 * 32;
#X obj 521 439 s fez-led-p9;
#X obj 638 439 s fez-led-p8;
#X obj 753 440 s fez-led-p7;
#X obj 864 445 s fez-led-p6;
#X obj 376 672 lop~ 500;
#X floatatom 388 769 5 0 0 0 - - - 0;
#X floatatom 388 854 5 0 0 0 - - - 0;
#X obj 388 722 env~ 4096;
#X obj 389 890 s fez-mixer-sc;
#X obj 115 140 hsl 128 15 0 1 0 0 empty empty empty -2 -8 0 10 #fcfcfc
#000000 #000000 0 1;
#X obj 112 68 r fez-mixer-sc;
#X obj 388 809 expr if ($f1 > 80 \, ($f1/150) \, 1.0);
#X obj 505 552 r fez-mixer-sc;
#X obj 474 552 *~, f 2;
#X text 619 549 very lame side-chain compression;
#X connect 0 0 3 0;
#X connect 2 0 3 1;
#X connect 2 0 13 0;
#X connect 3 0 1 0;
#X connect 3 0 29 0;
#X connect 4 0 6 0;
#X connect 5 0 6 1;
#X connect 5 0 14 0;
#X connect 6 0 38 0;
#X connect 7 0 9 0;
#X connect 8 0 9 1;
#X connect 8 0 15 0;
#X connect 9 0 38 0;
#X connect 10 0 12 0;
#X connect 11 0 12 1;
#X connect 11 0 16 0;
#X connect 12 0 38 0;
#X connect 13 0 21 0;
#X connect 14 0 22 0;
#X connect 15 0 23 0;
#X connect 16 0 24 0;
#X connect 17 0 2 0;
#X connect 18 0 5 0;
#X connect 19 0 8 0;
#X connect 20 0 11 0;
#X connect 21 0 25 0;
#X connect 22 0 26 0;
#X connect 23 0 27 0;
#X connect 24 0 28 0;
#X connect 29 0 32 0;
#X connect 30 0 36 0;
#X connect 31 0 33 0;
#X connect 32 0 30 0;
#X connect 35 0 34 0;
#X connect 36 0 31 0;
#X connect 37 0 38 1;
#X connect 38 0 1 0;
#X coords 0 -1 1 1 160 60 1 100 100;
#X restore 69 675 pd Fez9000_Main_Mixer;
#X obj 52 790 throw~ fez-main-tapeout;
#X obj 897 45 loadbang;
#N canvas 960 18 636 1009 Fez9000_Bass_Line 0;
#X obj 306 312 Bass_Sequencer;
#X floatatom 349 349 5 0 0 0 - - - 0;
#X floatatom 431 262 5 0 0 0 - - - 0;
#X obj 431 227 Knob_Map fez-k-b1-5 0 100;
#X obj 344 281 bng 15 250 50 0 empty empty empty 17 7 0 10 #fcfcfc
#000000 #000000;
#X obj 448 380 bng 15 250 50 0 empty empty empty 17 7 0 10 #fcfcfc
#000000 #000000;
#X obj 321 562 Scaler;
#X floatatom 326 724 5 0 0 0 - - - 0;
#X text 425 754 this shit is loud;
#X obj 204 277 r fez-8th-swing;
#X obj 71 510 r fez-key-change;
#X listbox 71 537 20 0 0 0 - - - 0;
#X obj 375 815 outlet~;
#X obj 376 487 loadbang;
#X msg 387 517 3;
#X obj 115 142 bng 50 250 50 0 empty empty SLAP 55 25 0 50 #fcfcfc
#ff0400 #ff0400;
#X obj 529 336 s fez-led-p2;
#X obj 419 336 expr ($f1+1)*4;
#X obj 76 582 unpack f f;
#X floatatom 80 632 5 0 0 0 - - - 0;
#X obj 80 666 > 5;
#X obj 53 701 sel 0 1;
#X obj 68 823 s \$0-bass-octave;
#X obj 491 510 r \$0-bass-octave;
#X floatatom 497 550 5 0 0 0 - - - 0;
#X obj 375 726 Bass_Voice;
#X floatatom 485 677 5 0 0 0 - - - 0;
#X msg 102 747 2;
#X msg 53 742 3;
#X obj 439 635 Knob_Map fez-k-b1-6 20 600;
#X obj 375 754 *~ 0.4;
#X connect 0 0 1 0;
#X connect 1 0 5 0;
#X connect 1 0 6 0;
#X connect 1 0 17 0;
#X connect 2 0 0 2;
#X connect 2 0 4 0;
#X connect 3 0 2 0;
#X connect 4 0 0 1;
#X connect 5 0 15 0;
#X connect 5 0 25 1;
#X connect 6 0 7 0;
#X connect 7 0 25 0;
#X connect 9 0 0 0;
#X connect 10 0 11 0;
#X connect 11 0 6 1;
#X connect 11 0 18 0;
#X connect 13 0 14 0;
#X connect 14 0 6 2;
#X connect 17 0 16 0;
#X connect 18 0 19 0;
#X connect 19 0 20 0;
#X connect 20 0 21 0;
#X connect 21 0 28 0;
#X connect 21 1 27 0;
#X connect 23 0 6 2;
#X connect 23 0 24 0;
#X connect 25 0 30 0;
#X connect 26 0 25 2;
#X connect 27 0 22 0;
#X connect 28 0 22 0;
#X connect 29 0 26 0;
#X connect 30 0 12 0;
#X coords 0 -1 1 1 200 100 1 100 100;
#X restore 333 305 pd Fez9000_Bass_Line;
#X obj 24 513 hip~ 70;
#X obj 1024 57 bng 15 250 50 0 empty empty FEZ9000 17 7 0 100 #fcfcfc
#000000 #000000;
#X text 53 540 stop kicks clashing with bass lines, f 11;
#N canvas 960 18 956 1009 Fez9000_Melody_Line 0;
#X floatatom 349 349 5 0 0 0 - - - 0;
#X floatatom 431 262 5 0 0 0 - - - 0;
#X obj 320 108 bng 15 250 50 0 empty empty empty 17 7 0 10 #fcfcfc
#000000 #000000;
#X obj 448 380 bng 15 250 50 0 empty empty empty 17 7 0 10 #fcfcfc
#000000 #000000;
#X obj 321 562 Scaler;
#X floatatom 321 655 5 0 0 0 - - - 0;
#X text 530 1467 this shit is loud;
#X obj 71 510 r fez-key-change;
#X listbox 71 537 20 0 0 0 - - - 0;
#X obj 459 1473 outlet~;
#X obj 376 487 loadbang;
#X obj 115 142 bng 50 250 50 0 empty empty PLINK 55 25 0 50 #fcfcfc
#ff0400 #ff0400;
#X obj 529 336 s fez-led-p2;
#X obj 419 336 expr ($f1+1)*4;
#X obj 76 582 unpack f f;
#X floatatom 80 632 5 0 0 0 - - - 0;
#X obj 80 666 > 5;
#X obj 53 701 sel 0 1;
#X floatatom 497 550 5 0 0 0 - - - 0;
#X obj 430 224 Knob_Map fez-k-b1-7 0 100;
#X obj 68 823 s \$0-melody-octave;
#X obj 489 511 r \$0-melody-octave;
#X msg 387 517 4;
#X obj 207 701 Dual_Wavetable_Voice;
#X obj 456 1219 AR_LPG;
#X obj 485 1106 Knob_Map fez-k-b2-1 10 500;
#X obj 240 314 Bass_Sequencer;
#X obj 499 1137 Knob_Map fez-k-b2-2 10 700;
#X floatatom 545 1218 5 0 0 0 - - - 0;
#X obj 514 1166 Knob_Map fez-k-b2-3 1000 10000;
#X obj 263 773 Wave_Folder;
#X obj 400 770 vsl 15 128 0 1 0 0 empty empty empty 0 -9 0 10 #fcfcfc
#000000 #000000 0 1;
#X floatatom 405 913 5 0 0 0 - - - 0;
#X obj 628 736 random 100;
#X floatatom 577 811 5 0 0 0 - - - 0;
#X obj 623 677 bng 15 250 50 0 empty empty empty 17 7 0 10 #fcfcfc
#000000 #000000;
#X obj 571 774 expr 0.3+($f1/100)*0.6;
#X obj 623 644 r fez-8th;
#X obj 204 277 r fez-beat-num;
#X obj 99 276 Counter 16;
#X obj 59 239 r fez-8th;
#X floatatom 107 312 5 0 0 0 - - - 0;
#X obj 145 234 r fez-2bar;
#X obj 458 1446 *~ 0.5;
#X obj 459 1397 lop~ 5000;
#X obj 382 149 r fez-4bar;
#X msg 53 742 6;
#X msg 102 747 5;
#X connect 0 0 3 0;
#X connect 0 0 13 0;
#X connect 0 0 4 0;
#X connect 1 0 2 0;
#X connect 1 0 26 2;
#X connect 2 0 26 1;
#X connect 3 0 11 0;
#X connect 3 0 24 1;
#X connect 4 0 5 0;
#X connect 5 0 23 0;
#X connect 7 0 8 0;
#X connect 8 0 14 0;
#X connect 8 0 4 1;
#X connect 10 0 22 0;
#X connect 13 0 12 0;
#X connect 14 0 15 0;
#X connect 15 0 16 0;
#X connect 16 0 17 0;
#X connect 17 0 46 0;
#X connect 17 1 47 0;
#X connect 19 0 1 0;
#X connect 21 0 18 0;
#X connect 21 0 4 2;
#X connect 22 0 4 2;
#X connect 23 0 30 0;
#X connect 24 0 44 0;
#X connect 25 0 24 2;
#X connect 26 0 0 0;
#X connect 27 0 24 3;
#X connect 29 0 24 4;
#X connect 29 0 28 0;
#X connect 30 0 24 0;
#X connect 31 0 32 0;
#X connect 32 0 30 1;
#X connect 33 0 36 0;
#X connect 34 0 31 0;
#X connect 35 0 33 0;
#X connect 36 0 34 0;
#X connect 37 0 35 0;
#X connect 38 0 26 0;
#X connect 39 0 41 0;
#X connect 39 0 26 0;
#X connect 40 0 39 0;
#X connect 42 0 39 1;
#X connect 43 0 9 0;
#X connect 44 0 43 0;
#X connect 45 0 2 0;
#X connect 46 0 20 0;
#X connect 47 0 20 0;
#X coords 0 -1 1 1 240 100 1 100 100;
#X restore 387 420 pd Fez9000_Melody_Line;
#X obj 324 184 r fez-k-b2-7;
#X floatatom 324 220 5 0 0 0 - - - 0;
#N canvas 0 0 636 1009 Fez9000_Melody_DelayVerb 0;
#X obj 126 50 inlet~;
#X obj 176 282 Rev_Delay;
#X obj 206 137 Knob_Map fez-k-b2-4 0 127;
#X obj 214 163 Knob_Map fez-k-b2-5 0 127;
#X obj 226 190 Knob_Map fez-k-b2-6 0 127;
#X obj 235 219 Knob_Map fez-k-b2-7 0 127;
#X obj 132 393 outlet~;
#X connect 0 0 1 0;
#X connect 1 0 6 0;
#X connect 2 0 1 1;
#X connect 3 0 1 2;
#X connect 4 0 1 3;
#X connect 5 0 1 4;
#X restore 388 590 pd Fez9000_Melody_DelayVerb;
#N canvas 960 18 956 1009 Fez9000_Fez_O_Gene 1;
#X obj 289 111 bng 30 250 50 0 empty empty empty 17 7 0 10 #fcfcfc
#ff0400 #000000;
#X obj 326 111 bng 30 250 50 0 empty empty empty 17 7 0 10 #ffffff
#00ff04 #000000;
#X obj 361 111 bng 30 250 50 0 empty empty empty 17 7 0 10 #fcfcfc
#0400ff #000000;
#X obj 453 262 outlet~;
#X obj 448 95 catch~ fezogene-out;
#X obj 454 229 hip~ 800;
#X obj 84 290 r fez-key-root;
#X floatatom 84 328 5 0 0 0 - - - 0;
#X floatatom 84 379 5 0 0 0 - - - 0;
#X obj 84 410 s \$0-fezogene-root;
#X text 197 285 transpose in the right direction, f 15;
#X floatatom 451 45 5 0 0 0 - - - 0;
#X obj 453 200 lop~ 8000;
#X obj 84 353 expr if($f1 > 7 \, $f1-12 \, $f1);
#X obj 451 14 Knob_Map fez-k-b2-9 0 5;
#X obj 244 560 Fezogene;
#X obj 12 498 r sample-select;
#X obj 244 607 throw~ fezogene-out;
#X obj 451 70 s sample-select;
#X obj 131 488 r fez-1bar;
#X obj 220 487 r fez-key-root;
#X obj 344 513 r fez-4bar;
#X obj 251 728 Fezogene;
#X obj 19 666 r sample-select;
#X obj 251 775 throw~ fezogene-out;
#X obj 227 655 r fez-key-root;
#X obj 351 681 r fez-4bar;
#X obj 139 656 r fez-2bar;
#X obj 253 906 Fezogene;
#X obj 21 844 r sample-select;
#X obj 253 953 throw~ fezogene-out;
#X obj 140 834 r fez-1bar;
#X obj 229 833 r fez-key-root;
#X obj 353 859 r fez-4bar;
#X obj 123 184 bng 50 250 50 0 empty empty empty 17 7 0 10 #fcfcfc
#0400ff #000000;
#X obj 106 65 r fez-4bar;
#X obj 613 530 Fezogene;
#X obj 381 468 r sample-select;
#X obj 613 577 throw~ fezogene-out;
#X obj 589 457 r fez-key-root;
#X obj 713 483 r fez-4bar;
#X obj 500 458 r fez-half;
#X obj 254 111 bng 30 250 50 0 empty empty empty 17 7 0 10 #fcfcfc
#ff0400 #000000;
#X obj 637 785 Fezogene;
#X obj 405 723 r sample-select;
#X obj 637 832 throw~ fezogene-out;
#X obj 728 710 r fez-key-root;
#X obj 737 738 r fez-4bar;
#X floatatom 489 641 5 0 0 0 - - - 0;
#X obj 489 613 r fez-8th-swing;
#X obj 533 696 bng 15 250 50 0 empty empty empty 17 7 0 10 #fcfcfc
#000000 #000000;
#X obj 218 111 bng 30 250 50 0 empty empty empty 17 7 0 10 #ffffff
#00ff04 #000000;
#X obj 490 666 sel 1 5 13;
#X obj 450 165 clip~ -1 1;
#X obj 446 129 *~ 0.5;
#X connect 4 0 54 0;
#X connect 5 0 3 0;
#X connect 6 0 7 0;
#X connect 7 0 13 0;
#X connect 8 0 9 0;
#X connect 11 0 18 0;
#X connect 12 0 5 0;
#X connect 13 0 8 0;
#X connect 14 0 11 0;
#X connect 15 0 17 0;
#X connect 15 1 0 0;
#X connect 16 0 15 0;
#X connect 19 0 15 1;
#X connect 20 0 15 3;
#X connect 21 0 15 4;
#X connect 22 0 24 0;
#X connect 22 1 1 0;
#X connect 23 0 22 0;
#X connect 25 0 22 3;
#X connect 26 0 22 4;
#X connect 27 0 22 1;
#X connect 28 0 30 0;
#X connect 28 1 2 0;
#X connect 29 0 28 0;
#X connect 31 0 28 2;
#X connect 32 0 28 3;
#X connect 33 0 28 4;
#X connect 35 0 34 0;
#X connect 36 0 38 0;
#X connect 36 1 42 0;
#X connect 37 0 36 0;
#X connect 39 0 36 3;
#X connect 40 0 36 4;
#X connect 41 0 36 1;
#X connect 43 0 45 0;
#X connect 43 1 51 0;
#X connect 44 0 43 0;
#X connect 46 0 43 3;
#X connect 47 0 43 4;
#X connect 48 0 52 0;
#X connect 49 0 48 0;
#X connect 50 0 43 2;
#X connect 52 0 50 0;
#X connect 52 1 50 0;
#X connect 52 2 50 0;
#X connect 53 0 12 0;
#X connect 54 0 53 0;
#X coords 0 -1 1 1 300 150 1 100 100;
#X restore 262 655 pd Fez9000_Fez_O_Gene;
#X obj 262 882 Rev_Delay;
#X obj 24 320 Knob_Map fez-k-b1-3 0 12;
#N canvas 0 0 636 1009 Fez9000_Melody_Slicer 0;
#X obj 131 228 *~ 1;
#X obj 131 327 outlet~;
#X obj 130 141 inlet~;
#X connect 0 0 1 0;
#X connect 2 0 0 0;
#X restore 387 547 pd Fez9000_Melody_Slicer;
#X connect 6 0 24 0;
#X connect 7 0 6 1;
#X connect 8 0 6 2;
#X connect 9 0 10 0;
#X connect 11 0 10 1;
#X connect 12 0 9 0;
#X connect 13 0 11 0;
#X connect 14 0 9 0;
#X connect 14 0 11 0;
#X connect 16 0 17 0;
#X connect 17 0 18 0;
#X connect 19 0 17 1;
#X connect 20 0 21 0;
#X connect 22 0 19 0;
#X connect 23 0 20 1;
#X connect 24 0 20 0;
#X connect 27 0 34 0;
#X connect 28 0 29 0;
#X connect 30 0 20 2;
#X connect 31 0 32 0;
#X connect 32 0 20 3;
#X connect 33 0 6 0;
#X connect 33 0 15 0;
#X connect 34 0 30 0;
