#N canvas 619 119 1019 758 12;
#X obj 21 11 inlet;
#X obj 21 37 s \$0-f;
#X obj 77 11 inlet;
#X obj 77 37 s \$0-gain;
#X obj 153 13 inlet;
#X obj 153 37 s \$0-wave-select;
#X obj 446 306 osc~;
#X obj 411 160 r \$0-f;
#X obj 400 562 *~;
#X obj 400 593 clip~ -1 1;
#X obj 508 503 / 32;
#X obj 507 472 r \$0-gain;
#X floatatom 508 558 5 0 0 0 - - - 0;
#X floatatom 433 187 21 0 0 0 - - - 0;
#X obj 288 306 expr~ -1+($v1*2);
#X obj 288 282 phasor~;
#X obj 617 220 / 127;
#X obj 617 185 r \$0-wave-select;
#X floatatom 663 220 5 0 0 0 - - - 0;
#X obj 617 251 expr 1-$f1;
#X floatatom 618 279 5 0 0 0 - - - 0;
#X obj 288 370 *~;
#X obj 446 378 *~;
#X obj 708 219 s \$0-saw-mix;
#X obj 618 309 s \$0-sin-mix;
#X obj 465 341 r \$0-sin-mix;
#X obj 306 337 r \$0-saw-mix;
#X obj 508 531 + 1;
#X obj 277 13 inlet;
#X obj 277 37 s \$0-noise-mix;
#X obj 99 398 *~;
#X obj 118 340 r \$0-noise-mix;
#X obj 118 364 / 127;
#X obj 98 314 cyclone/pink~;
#X floatatom 159 391 5 0 0 0 - - - 0;
#X obj 460 687 outlet~;
#X msg 90 135 0;
#X obj 105 113 loadbang;
#X connect 0 0 1 0;
#X connect 2 0 3 0;
#X connect 4 0 5 0;
#X connect 6 0 22 0;
#X connect 7 0 6 0;
#X connect 7 0 13 0;
#X connect 7 0 15 0;
#X connect 8 0 9 0;
#X connect 9 0 35 0;
#X connect 10 0 27 0;
#X connect 11 0 10 0;
#X connect 14 0 21 0;
#X connect 15 0 14 0;
#X connect 16 0 18 0;
#X connect 16 0 19 0;
#X connect 17 0 16 0;
#X connect 18 0 23 0;
#X connect 19 0 20 0;
#X connect 20 0 24 0;
#X connect 21 0 8 0;
#X connect 22 0 8 0;
#X connect 25 0 22 1;
#X connect 26 0 21 1;
#X connect 27 0 12 0;
#X connect 27 0 8 1;
#X connect 28 0 29 0;
#X connect 30 0 8 0;
#X connect 31 0 32 0;
#X connect 32 0 30 1;
#X connect 32 0 34 0;
#X connect 33 0 30 0;
#X connect 36 0 3 0;
#X connect 36 0 5 0;
#X connect 36 0 29 0;
#X connect 37 0 36 0;
