#N canvas 640 18 956 1009 12;
#X msg 39 863 devicename /dev/ttyUSB0 9600;
#X obj 863 68 s \$0-lb;
#X obj 863 15 loadbang;
#X obj 872 38 bng 15 250 50 0 empty empty empty 17 7 0 10 #fcfcfc #000000
#000000;
#X obj 269 931 comport;
#X obj 39 813 r \$0-lb;
#X obj 325 822 r fez-led-bn;
#X obj 553 365 r \$0-lb;
#X obj 573 397 metro 20;
#X obj 558 455 s \$0-l;
#X obj 520 851 r \$0-p;
#X obj 115 229 f;
#X obj 142 231 bng 15 250 50 0 empty empty empty 17 7 0 10 #fcfcfc
#000000 #000000;
#X obj 159 229 r \$0-l;
#X obj 114 282 Dedup;
#X obj 114 347 s \$0-p;
#X obj 115 201 r fez-led-p1;
#X obj 159 254 sel 1;
#X msg 114 320 1 \$1;
#X obj 214 229 f;
#X obj 241 231 bng 15 250 50 0 empty empty empty 17 7 0 10 #fcfcfc
#000000 #000000;
#X obj 258 229 r \$0-l;
#X obj 213 282 Dedup;
#X obj 213 347 s \$0-p;
#X obj 313 230 f;
#X obj 340 232 bng 15 250 50 0 empty empty empty 17 7 0 10 #fcfcfc
#000000 #000000;
#X obj 357 230 r \$0-l;
#X obj 312 283 Dedup;
#X obj 312 348 s \$0-p;
#X obj 214 201 r fez-led-p2;
#X obj 258 254 sel 2;
#X msg 213 320 2 \$1;
#X obj 357 255 sel 3;
#X msg 312 321 3 \$1;
#X obj 313 202 r fez-led-p3;
#X obj 13 406 f;
#X obj 40 408 bng 15 250 50 0 empty empty empty 17 7 0 10 #fcfcfc #000000
#000000;
#X obj 57 406 r \$0-l;
#X obj 12 459 Dedup;
#X obj 12 524 s \$0-p;
#X obj 112 407 f;
#X obj 139 409 bng 15 250 50 0 empty empty empty 17 7 0 10 #fcfcfc
#000000 #000000;
#X obj 156 407 r \$0-l;
#X obj 111 460 Dedup;
#X obj 111 525 s \$0-p;
#X obj 211 407 f;
#X obj 238 409 bng 15 250 50 0 empty empty empty 17 7 0 10 #fcfcfc
#000000 #000000;
#X obj 255 407 r \$0-l;
#X obj 210 460 Dedup;
#X obj 210 525 s \$0-p;
#X obj 310 408 f;
#X obj 337 410 bng 15 250 50 0 empty empty empty 17 7 0 10 #fcfcfc
#000000 #000000;
#X obj 354 408 r \$0-l;
#X obj 309 461 Dedup;
#X obj 309 526 s \$0-p;
#X obj 13 378 r fez-led-p4;
#X obj 112 379 r fez-led-p5;
#X obj 211 379 r fez-led-p6;
#X obj 310 380 r fez-led-p7;
#X obj 57 431 sel 4;
#X obj 156 432 sel 5;
#X obj 255 432 sel 6;
#X obj 354 433 sel 7;
#X msg 12 497 4 \$1;
#X msg 111 498 5 \$1;
#X msg 210 498 6 \$1;
#X msg 309 499 7 \$1;
#X obj 11 582 f;
#X obj 38 584 bng 15 250 50 0 empty empty empty 17 7 0 10 #fcfcfc #000000
#000000;
#X obj 55 582 r \$0-l;
#X obj 10 635 Dedup;
#X obj 10 700 s \$0-p;
#X obj 110 583 f;
#X obj 137 585 bng 15 250 50 0 empty empty empty 17 7 0 10 #fcfcfc
#000000 #000000;
#X obj 154 583 r \$0-l;
#X obj 109 636 Dedup;
#X obj 109 701 s \$0-p;
#X obj 11 554 r fez-led-p8;
#X obj 110 555 r fez-led-p9;
#X obj 55 607 sel 8;
#X obj 154 608 sel 9;
#X msg 10 673 8 \$1;
#X msg 109 674 9 \$1;
#X obj 558 427 Counter 12;
#X obj 748 703 tgl 15 0 empty empty empty 17 7 0 10 #fcfcfc #000000
#000000 0 1;
#X obj 742 781 Counter 16;
#X obj 755 819 s fez-led-bn;
#X msg 381 878 250 2 \$1 0 255;
#X msg 520 887 250 1 \$1 \$2 255;
#X text 644 370 to stop overflowing LED board we scan the parameters
every 20 ms, f 17;
#X msg 271 879 250 1 0 \$1 255;
#X obj 744 744 metro 400;
#X text 555 101 LED BOARD PROTOCOL 5 byte commands 0: 0xFA (250) -
START BYTE 1: command# 2: Arg1 3: Arg2 4: 0xFF (255) - STOP BYTE Command
1: Set beat number. arg1 = beat number arg2 = ? Command 2: Set parameter
\, arg1 = parameter \, arg2 = value Command 3: Set brightness divider
0 = max brightness;
#X obj 644 857 r fez-led-brightness;
#X msg 643 885 250 3 \$1 0 255;
#X obj 119 142 hsl 200 40 0 8 0 0 empty empty led\ brightness -2 -8
0 10 #ff0400 #faff00 #000000 0 1;
#X obj 347 167 s fez-led-brightness;
#X floatatom 347 192 5 0 0 0 - - - 0;
#X obj 290 108 bng 30 250 50 0 empty empty empty 17 7 0 10 #fcfcfc
#ff0400 #000000;
#X connect 0 0 4 0;
#X connect 2 0 1 0;
#X connect 3 0 1 0;
#X connect 5 0 0 0;
#X connect 6 0 87 0;
#X connect 6 0 90 0;
#X connect 6 0 98 0;
#X connect 7 0 8 0;
#X connect 8 0 83 0;
#X connect 10 0 88 0;
#X connect 11 0 14 0;
#X connect 12 0 11 0;
#X connect 13 0 17 0;
#X connect 14 0 18 0;
#X connect 16 0 11 1;
#X connect 17 0 12 0;
#X connect 18 0 15 0;
#X connect 19 0 22 0;
#X connect 20 0 19 0;
#X connect 21 0 30 0;
#X connect 22 0 31 0;
#X connect 24 0 27 0;
#X connect 25 0 24 0;
#X connect 26 0 32 0;
#X connect 27 0 33 0;
#X connect 29 0 19 1;
#X connect 30 0 20 0;
#X connect 31 0 23 0;
#X connect 32 0 25 0;
#X connect 33 0 28 0;
#X connect 34 0 24 1;
#X connect 35 0 38 0;
#X connect 36 0 35 0;
#X connect 37 0 59 0;
#X connect 38 0 63 0;
#X connect 40 0 43 0;
#X connect 41 0 40 0;
#X connect 42 0 60 0;
#X connect 43 0 64 0;
#X connect 45 0 48 0;
#X connect 46 0 45 0;
#X connect 47 0 61 0;
#X connect 48 0 65 0;
#X connect 50 0 53 0;
#X connect 51 0 50 0;
#X connect 52 0 62 0;
#X connect 53 0 66 0;
#X connect 55 0 35 1;
#X connect 56 0 40 1;
#X connect 57 0 45 1;
#X connect 58 0 50 1;
#X connect 59 0 36 0;
#X connect 60 0 41 0;
#X connect 61 0 46 0;
#X connect 62 0 51 0;
#X connect 63 0 39 0;
#X connect 64 0 44 0;
#X connect 65 0 49 0;
#X connect 66 0 54 0;
#X connect 67 0 70 0;
#X connect 68 0 67 0;
#X connect 69 0 79 0;
#X connect 70 0 81 0;
#X connect 72 0 75 0;
#X connect 73 0 72 0;
#X connect 74 0 80 0;
#X connect 75 0 82 0;
#X connect 77 0 67 1;
#X connect 78 0 72 1;
#X connect 79 0 68 0;
#X connect 80 0 73 0;
#X connect 81 0 71 0;
#X connect 82 0 76 0;
#X connect 83 0 9 0;
#X connect 84 0 91 0;
#X connect 85 0 86 0;
#X connect 87 0 4 0;
#X connect 88 0 4 0;
#X connect 90 0 4 0;
#X connect 91 0 85 0;
#X connect 93 0 94 0;
#X connect 94 0 4 0;
#X connect 95 0 96 0;
#X coords 0 -1 1 1 240 90 1 100 100;
