#N canvas 894 325 636 417 12;
#X obj 19 14 inlet~;
#X obj 23 398 outlet~;
#X obj 229 42 loadbang;
#X obj 24 303 Fez9000-Fade-InOut;
#X obj 128 127 tgl 30 0 empty empty empty 17 7 0 10 #fcfcfc #000000
#000000 0 1;
#X obj 397 23 r \$1;
#X connect 0 0 3 0;
#X connect 2 0 4 0;
#X connect 3 0 1 0;
#X connect 4 0 3 1;
#X connect 5 0 4 0;
#X coords 0 -1 1 1 85 60 1 100 100;
