#N canvas 989 309 603 438 12;
#X obj 19 14 inlet~;
#X obj 23 398 outlet~;
#X obj 196 75 r fez-1bar;
#X obj 100 43 loadbang;
#X obj 196 153 random 100;
#X obj 24 303 Fez9000-Fade-InOut;
#X obj 98 233 tgl 15 0 empty empty empty 17 7 0 10 #fcfcfc #000000
#000000 0 1;
#X floatatom 231 183 5 0 0 0 - - - 0;
#X obj 216 102 bng 15 250 50 0 empty empty empty 17 7 0 10 #fcfcfc
#000000 #000000;
#X obj 196 182 > 10;
#X connect 0 0 5 0;
#X connect 2 0 4 0;
#X connect 3 0 6 0;
#X connect 4 0 9 0;
#X connect 5 0 1 0;
#X connect 6 0 5 1;
#X connect 8 0 4 0;
#X connect 9 0 6 0;
#X connect 9 0 7 0;
