#N canvas 1280 18 956 1009 12;
#X obj 98 106 hid;
#X msg 98 76 open 0x0079 0x0006;
#X obj 194 20 loadbang;
#X msg 254 104 poll 10;
#X obj 254 75 del 200;
#X obj 194 49 bng 15 250 50 0 empty empty empty 17 7 0 10 #fcfcfc #000000
#000000;
#X obj 99 133 route key abs;
#X obj 629 115 Counter 2;
#X obj 585 113 list;
#X obj 611 64 bng 15 250 50 0 empty empty empty 17 7 0 10 #fcfcfc #000000
#000000;
#X obj 591 156 list trim;
#X obj 591 205 route abs_y abs_x;
#X obj 645 431 s fez_trig_bank;
#X text 639 76 we get double events for some reason this thing ignore
every-other event;
#X obj 591 255 sel 0 255;
#X obj 686 256 sel 0 255;
#X msg 722 315 0;
#X msg 627 314 1;
#X msg 686 315 2;
#X msg 591 314 3;
#X text 764 209 ordering here is odd because the joystick is rotated
90 degrees. bank select is clock wise, f 19;
#X obj 143 171 s \$0-abs;
#X obj 585 17 r \$0-abs;
#X text 682 16 joystick bank selection;
#X text 15 334 button layout is 3 2 1 0 7 6 5 4 11 10 9 8, f 8;
#X obj 101 436 unpack s f;
#X obj 573 672 r fez_trig_bank;
#X obj 429 725 expr $f1 + (12 * $f2);
#X msg 322 75 0;
#X obj 322 104 s fez_trig_bank;
#X msg 247 612 0;
#X msg 281 612 1;
#X msg 317 612 2;
#X msg 354 612 3;
#X msg 388 613 4;
#X msg 426 613 5;
#X msg 462 613 6;
#X msg 499 613 7;
#X msg 533 613 8;
#X msg 571 613 9;
#X msg 607 613 10;
#X msg 644 613 11;
#X obj 247 495 list trim;
#X obj 247 543 route btn_3 btn_2 btn_1 btn_0 btn_7 btn_6 btn_5 btn_4
btn_11 btn_10 btn_9 btn_8;
#X obj 115 745 pack f f;
#X floatatom 573 699 5 0 0 0 - - - 0;
#X floatatom 429 770 5 0 0 0 - - - 0;
#X obj 1077 31 r \$0-router;
#X listbox 1117 96 20 0 0 0 - - - 0;
#X obj 308 431 print;
#X obj 703 114 sel 1;
#X obj 614 704 bng 15 250 50 0 empty empty empty 17 7 0 10 #fcfcfc
#000000 #000000;
#X obj 86 797 list;
#X obj 199 798 sel 0;
#X obj 123 798 Counter 2;
#X msg 122 876 symbol fez-trig-\$1;
#X obj 86 832 t l l;
#X msg 87 876 \$2;
#X obj 49 911 sel 1;
#X obj 87 950 send;
#X obj 166 927 bng 15 250 50 0 empty empty empty 17 7 0 10 #fcfcfc
#000000 #000000;
#X symbolatom 277 904 16 0 0 0 - - - 0;
#X connect 0 0 6 0;
#X connect 1 0 0 0;
#X connect 2 0 5 0;
#X connect 3 0 0 0;
#X connect 4 0 3 0;
#X connect 5 0 4 0;
#X connect 5 0 1 0;
#X connect 5 0 28 0;
#X connect 6 0 25 0;
#X connect 6 1 21 0;
#X connect 7 0 50 0;
#X connect 8 0 10 0;
#X connect 9 0 7 0;
#X connect 10 0 11 0;
#X connect 11 0 14 0;
#X connect 11 1 15 0;
#X connect 14 0 19 0;
#X connect 14 1 17 0;
#X connect 15 0 18 0;
#X connect 15 1 16 0;
#X connect 16 0 12 0;
#X connect 17 0 12 0;
#X connect 18 0 12 0;
#X connect 19 0 12 0;
#X connect 22 0 9 0;
#X connect 22 0 8 1;
#X connect 25 0 42 0;
#X connect 25 1 44 1;
#X connect 26 0 45 0;
#X connect 26 0 51 0;
#X connect 27 0 44 0;
#X connect 27 0 46 0;
#X connect 28 0 29 0;
#X connect 30 0 27 0;
#X connect 31 0 27 0;
#X connect 32 0 27 0;
#X connect 33 0 27 0;
#X connect 34 0 27 0;
#X connect 35 0 27 0;
#X connect 36 0 27 0;
#X connect 37 0 27 0;
#X connect 38 0 27 0;
#X connect 39 0 27 0;
#X connect 40 0 27 0;
#X connect 41 0 27 0;
#X connect 42 0 43 0;
#X connect 43 0 30 0;
#X connect 43 1 31 0;
#X connect 43 2 32 0;
#X connect 43 3 33 0;
#X connect 43 4 34 0;
#X connect 43 5 35 0;
#X connect 43 6 36 0;
#X connect 43 7 37 0;
#X connect 43 8 38 0;
#X connect 43 9 39 0;
#X connect 43 10 40 0;
#X connect 43 11 41 0;
#X connect 44 0 52 1;
#X connect 44 0 54 0;
#X connect 45 0 27 1;
#X connect 47 0 48 0;
#X connect 50 0 8 0;
#X connect 52 0 56 0;
#X connect 53 0 52 0;
#X connect 54 0 53 0;
#X connect 55 0 59 1;
#X connect 55 0 60 0;
#X connect 55 0 61 0;
#X connect 56 0 57 0;
#X connect 56 1 55 0;
#X connect 57 0 58 0;
#X connect 58 0 59 0;
