#N canvas 0 18 956 1009 12;
#X obj 98 106 hid;
#X msg 98 76 open 0x0079 0x0006;
#X obj 194 20 loadbang;
#X msg 254 104 poll 10;
#X obj 254 75 del 200;
#X obj 194 49 bng 15 250 50 0 empty empty empty 17 7 0 10 #fcfcfc #000000
#000000;
#X obj 99 133 route key abs;
#X obj 629 115 Counter 2;
#X obj 585 113 list;
#X obj 611 64 bng 15 250 50 0 empty empty empty 17 7 0 10 #fcfcfc #000000
#000000;
#X obj 703 114 sel 0;
#X obj 591 156 list trim;
#X obj 591 205 route abs_y abs_x;
#X obj 645 431 s fez_trig_bank;
#X text 639 76 we get double events for some reason this thing ignore
every-other event;
#X obj 591 255 sel 0 255;
#X obj 686 256 sel 0 255;
#X msg 722 315 0;
#X msg 627 314 1;
#X msg 686 315 2;
#X msg 591 314 3;
#X text 764 209 ordering here is odd because the joystick is rotated
90 degrees. bank select is clock wise, f 19;
#X obj 143 171 s \$0-abs;
#X obj 585 17 r \$0-abs;
#X text 682 16 joystick bank selection;
#X obj 77 171 s \$0-key;
#X obj 111 265 r \$0-key;
#X obj 154 354 Counter 2;
#X obj 110 352 list;
#X obj 136 303 bng 15 250 50 0 empty empty empty 17 7 0 10 #fcfcfc
#000000 #000000;
#X obj 228 353 sel 0;
#X text 164 315 we get double events for some reason this thing ignore
every-other event;
#X obj 110 386 list trim;
#X text 333 353 button layout is 3 2 1 0 7 6 5 4 11 10 9 8;
#X obj 143 458 unpack s f;
#X obj 354 698 r fez_trig_bank;
#X obj 210 751 expr $f1 + (12 * $f2);
#X msg 322 75 0;
#X obj 322 104 s fez_trig_bank;
#X msg 24 638 0;
#X msg 62 638 1;
#X msg 98 638 2;
#X msg 135 638 3;
#X msg 169 639 4;
#X msg 207 639 5;
#X msg 243 639 6;
#X msg 280 639 7;
#X msg 314 639 8;
#X msg 352 639 9;
#X msg 388 639 10;
#X msg 425 639 11;
#X obj 101 496 list trim;
#X obj 28 569 route btn_3 btn_2 btn_1 btn_0 btn_7 btn_6 btn_5 btn_4
btn_11 btn_10 btn_9 btn_8;
#X obj 394 803 pack f f;
#X obj 394 836 s fez_trig;
#X floatatom 354 725 5 0 0 0 - - - 0;
#X floatatom 210 796 5 0 0 0 - - - 0;
#X connect 0 0 6 0;
#X connect 1 0 0 0;
#X connect 2 0 5 0;
#X connect 3 0 0 0;
#X connect 4 0 3 0;
#X connect 5 0 4 0;
#X connect 5 0 1 0;
#X connect 5 0 37 0;
#X connect 6 0 25 0;
#X connect 6 1 22 0;
#X connect 7 0 10 0;
#X connect 8 0 11 0;
#X connect 9 0 7 0;
#X connect 10 0 8 0;
#X connect 11 0 12 0;
#X connect 12 0 15 0;
#X connect 12 1 16 0;
#X connect 15 0 20 0;
#X connect 15 1 18 0;
#X connect 16 0 19 0;
#X connect 16 1 17 0;
#X connect 17 0 13 0;
#X connect 18 0 13 0;
#X connect 19 0 13 0;
#X connect 20 0 13 0;
#X connect 23 0 9 0;
#X connect 23 0 8 0;
#X connect 26 0 29 0;
#X connect 26 0 28 1;
#X connect 27 0 30 0;
#X connect 28 0 32 0;
#X connect 29 0 27 0;
#X connect 30 0 28 0;
#X connect 32 0 34 0;
#X connect 34 0 51 0;
#X connect 34 1 53 1;
#X connect 35 0 55 0;
#X connect 36 0 53 0;
#X connect 36 0 56 0;
#X connect 37 0 38 0;
#X connect 39 0 36 0;
#X connect 40 0 36 0;
#X connect 41 0 36 0;
#X connect 42 0 36 0;
#X connect 43 0 36 0;
#X connect 44 0 36 0;
#X connect 45 0 36 0;
#X connect 46 0 36 0;
#X connect 47 0 36 0;
#X connect 48 0 36 0;
#X connect 49 0 36 0;
#X connect 50 0 36 0;
#X connect 51 0 52 0;
#X connect 52 0 39 0;
#X connect 52 1 40 0;
#X connect 52 2 41 0;
#X connect 52 3 42 0;
#X connect 52 4 43 0;
#X connect 52 5 44 0;
#X connect 52 6 45 0;
#X connect 52 7 46 0;
#X connect 52 8 47 0;
#X connect 52 9 48 0;
#X connect 52 10 49 0;
#X connect 52 11 50 0;
#X connect 53 0 54 0;
#X connect 55 0 36 1;
