#N canvas 283 27 990 901 12;
#X obj 26 64 Multi_Clock;
#X obj 228 485 Scaler;
#X floatatom 220 7 5 0 0 0 - - - 0;
#X obj 178 271 Counter 16;
#X floatatom 183 306 5 0 0 0 - - - 0;
#X obj 223 382 Bass_Sequencer;
#X floatatom 229 424 5 0 0 0 - - - 0;
#X msg 294 350 100;
#X obj 270 319 bng 15 250 50 0 empty empty empty 17 7 0 10 #fcfcfc
#000000 #000000;
#X obj 274 290 loadbang;
#X floatatom 228 577 5 0 0 0 - - - 0;
#X connect 0 1 3 0;
#X connect 0 5 3 1;
#X connect 1 0 10 0;
#X connect 2 0 0 1;
#X connect 3 0 4 0;
#X connect 4 0 5 0;
#X connect 5 0 6 0;
#X connect 6 0 1 0;
#X connect 7 0 5 2;
#X connect 8 0 7 0;
#X connect 8 0 5 1;
#X connect 9 0 8 0;
