#N canvas -26 25 1228 899 12;
#N canvas 216 25 1303 902 Key_Set 0;
#X floatatom 319 262 5 0 0 0 - - - 0;
#X obj 261 313 / 12;
#X floatatom 261 377 5 0 0 0 maj/min - - 0;
#X obj 369 312 % 12;
#X floatatom 369 381 5 0 0 0 root - - 0;
#X obj 261 349 int;
#X obj 247 503 list append;
#X obj 243 449 f;
#X obj 352 458 t f b;
#X obj 247 577 list;
#X msg 254 250 0;
#X obj 240 211 loadbang;
#X obj 469 319 * 16;
#X obj 470 355 +;
#X floatatom 508 320 5 0 0 0 - - - 0;
#X obj 504 354 s fez-led-p1;
#X obj 85 552 spigot;
#X obj 124 524 tgl 15 0 empty empty empty 17 7 0 10 #fcfcfc #000000
#000000 0 1;
#X obj 85 593 t b b;
#X msg 176 526 1;
#X obj 176 503 bng 15 250 50 0 empty empty empty 17 7 0 10 #fcfcfc
#000000 #000000;
#X msg 44 522 0;
#X obj 44 503 bng 15 250 50 0 empty empty empty 17 7 0 10 #fcfcfc #000000
#000000;
#X text 74 339 this madness is so we only send a new key when one has
actually changed and not every bar, f 13;
#X obj 247 633 s fez-key-change;
#X obj 85 492 r fez-4bar;
#X obj 381 409 s \$0-root;
#X obj 271 410 s \$0-mode;
#X obj 357 685 r \$0-root;
#X obj 358 718 sel 0 1 2 3 4 5 6 7 8 9 10 11;
#X obj 35 6 r \$0-mode;
#X obj 35 31 sel 0;
#X symbolatom 175 139 10 0 0 0 - - - 0;
#X msg 9 74 symbol major;
#X msg 111 73 symbol minor;
#X msg 24 809 symbol c;
#X msg 95 809 symbol c#;
#X msg 173 808 symbol d;
#X msg 245 807 symbol eb;
#X msg 322 807 symbol e;
#X msg 392 807 symbol f;
#X msg 463 807 symbol f#;
#X msg 543 807 symbol g;
#X msg 615 807 symbol ab;
#X msg 692 807 symbol a;
#X msg 762 807 symbol bb;
#X msg 840 807 symbol b;
#X obj 297 871 s \$0-key-name;
#X symbolatom 131 138 5 0 0 0 - - - 0;
#X obj 217 75 r \$0-key-name;
#X listbox 188 117 8 0 0 0 - - - 0;
#X obj 224 26 r fez-key-change;
#X obj 150 119 tgl 15 0 empty empty empty 17 7 0 10 #fcfcfc #000000
#000000 0 1;
#X obj 130 119 bng 15 250 50 0 empty empty empty 17 7 0 10 #fcfcfc
#000000 #000000;
#X obj 115 651 unpack f f;
#X obj 112 700 s fez-key-root;
#X obj 360 213 Knob_Map fez-k-keychange 0 23;
#X obj 387 101 inlet;
#X connect 0 0 1 0;
#X connect 0 0 3 0;
#X connect 0 0 20 0;
#X connect 1 0 5 0;
#X connect 2 0 7 1;
#X connect 2 0 27 0;
#X connect 3 0 4 0;
#X connect 3 0 13 0;
#X connect 4 0 8 0;
#X connect 4 0 26 0;
#X connect 5 0 2 0;
#X connect 5 0 12 0;
#X connect 6 0 9 1;
#X connect 7 0 6 1;
#X connect 8 0 6 0;
#X connect 8 1 7 0;
#X connect 9 0 24 0;
#X connect 9 0 54 0;
#X connect 10 0 0 0;
#X connect 11 0 10 0;
#X connect 12 0 13 1;
#X connect 13 0 14 0;
#X connect 14 0 15 0;
#X connect 16 0 18 0;
#X connect 16 0 53 0;
#X connect 17 0 16 1;
#X connect 17 0 52 0;
#X connect 18 0 22 0;
#X connect 18 1 9 0;
#X connect 19 0 17 0;
#X connect 20 0 19 0;
#X connect 21 0 17 0;
#X connect 22 0 21 0;
#X connect 25 0 16 0;
#X connect 28 0 29 0;
#X connect 29 0 35 0;
#X connect 29 1 36 0;
#X connect 29 2 37 0;
#X connect 29 3 38 0;
#X connect 29 4 39 0;
#X connect 29 5 40 0;
#X connect 29 6 41 0;
#X connect 29 7 42 0;
#X connect 29 8 43 0;
#X connect 29 9 44 0;
#X connect 29 10 45 0;
#X connect 29 11 46 0;
#X connect 30 0 31 0;
#X connect 31 0 33 0;
#X connect 31 1 34 0;
#X connect 33 0 32 0;
#X connect 34 0 32 0;
#X connect 35 0 47 0;
#X connect 36 0 47 0;
#X connect 37 0 47 0;
#X connect 38 0 47 0;
#X connect 39 0 47 0;
#X connect 40 0 47 0;
#X connect 41 0 47 0;
#X connect 42 0 47 0;
#X connect 43 0 47 0;
#X connect 44 0 47 0;
#X connect 45 0 47 0;
#X connect 46 0 47 0;
#X connect 49 0 48 0;
#X connect 51 0 50 0;
#X connect 54 0 55 0;
#X connect 56 0 0 0;
#X connect 57 0 0 0;
#X coords 0 -1 1 1 150 60 1 100 100;
#X restore 27 44 pd Key_Set;
#N canvas 549 25 636 902 Main_Clock 0;
#X obj 117 137 Multi_Clock;
#X floatatom 195 114 5 0 0 0 bpm\ set\ to - - 0;
#X text 467 9 these bpms are the sweet spot for fez, f 19;
#X obj 117 494 s fez-beat-time;
#X obj 288 285 s fez-8th-swing;
#X obj 310 261 s fez-beat-num;
#X obj 338 237 s fez-led-bn;
#X obj 144 242 bng 15 250 50 0 empty empty empty 17 7 0 10 #fcfcfc
#000000 #000000;
#X obj 167 242 bng 15 250 50 0 empty empty empty 17 7 0 10 #fcfcfc
#000000 #000000;
#X obj 188 242 bng 15 250 50 0 empty empty empty 17 7 0 10 #fcfcfc
#000000 #000000;
#X obj 209 242 bng 15 250 50 0 empty empty empty 17 7 0 10 #fcfcfc
#000000 #000000;
#X obj 230 242 bng 15 250 50 0 empty empty empty 17 7 0 10 #fcfcfc
#000000 #000000;
#X obj 252 242 bng 15 250 50 0 empty empty empty 17 7 0 10 #fcfcfc
#000000 #000000;
#X obj 273 242 bng 15 250 50 0 empty empty empty 17 7 0 10 #fcfcfc
#000000 #000000;
#X obj 296 241 bng 15 250 50 0 empty empty empty 17 7 0 10 #fcfcfc
#000000 #000000;
#X obj 635 96 tgl 15 0 empty empty empty 17 7 0 10 #fcfcfc #000000
#000000 0 1;
#X obj 635 73 loadbang;
#X obj 515 107 bng 15 250 50 0 empty empty empty 17 7 0 10 #fcfcfc
#000000 #000000;
#X obj 470 143 Dedup;
#X obj 471 170 bng 15 250 50 0 empty empty empty 17 7 0 10 #fcfcfc
#000000 #000000;
#X obj 635 113 metro 2000;
#X obj 470 104 f 80;
#X floatatom 102 239 5 0 0 0 - - - 0;
#X obj 138 463 s fez-16th;
#X obj 159 434 s fez-8th;
#X obj 181 409 s fez-4th;
#X obj 202 386 s fez-half;
#X obj 224 360 s fez-1bar;
#X obj 245 335 s fez-2bar;
#X obj 267 310 s fez-4bar;
#X obj 470 47 Knob_Map fez-k-tempo 78 90;
#X connect 0 0 3 0;
#X connect 0 1 7 0;
#X connect 0 1 23 0;
#X connect 0 2 8 0;
#X connect 0 2 24 0;
#X connect 0 3 9 0;
#X connect 0 3 25 0;
#X connect 0 4 10 0;
#X connect 0 4 26 0;
#X connect 0 5 11 0;
#X connect 0 5 27 0;
#X connect 0 6 12 0;
#X connect 0 6 28 0;
#X connect 0 7 13 0;
#X connect 0 7 29 0;
#X connect 0 8 4 0;
#X connect 0 8 14 0;
#X connect 0 9 5 0;
#X connect 0 9 6 0;
#X connect 0 9 22 0;
#X connect 1 0 21 1;
#X connect 15 0 20 0;
#X connect 16 0 15 0;
#X connect 17 0 21 0;
#X connect 18 0 0 1;
#X connect 18 0 19 0;
#X connect 20 0 17 0;
#X connect 21 0 18 0;
#X connect 30 0 1 0;
#X coords 0 -1 1 1 220 160 1 100 100;
#X restore 332 6 pd Main_Clock;
#X obj 563 107 clip~ -1 1;
#X obj 563 145 dac~;
#X obj 644 107 clip~ -1 1;
#X obj 563 69 catch~ fez-main-l;
#X obj 697 70 catch~ fez-main-r;
#X obj 562 22 catch~ fez-main-mono;
#X obj 831 10 catch~ fez-main-tapeout;
#X obj 831 70 Tapeish;
#X obj 830 99 throw~ fez-main-mono;
#X obj 878 49 tgl 15 0 empty empty empty 17 7 0 10 #fcfcfc #000000
#000000 0 1;
#X obj 37 715 throw~ fez-main-tapeout;
#X obj 897 45 loadbang;
#N canvas 724 25 956 902 Knob_Router 0;
#X obj 312 40 r fez-k-b1-3;
#X obj 312 65 s fez-k-tempo;
#X obj 447 35 r fez-k-b1-4;
#X obj 447 60 s fez-k-keychange;
#X obj 313 103 r fez-k-b1-7;
#X obj 313 128 s fez-k-drumloop;
#X obj 20 36 r fez-k-b1-1;
#X obj 20 61 s fez-k-mix-beats;
#X obj 155 37 r fez-k-b1-2;
#X obj 155 62 s fez-k-mix-hits;
#X obj 20 90 r fez-k-b1-5;
#X obj 155 91 r fez-k-b1-6;
#X obj 19 144 r fez-k-b1-9;
#X obj 154 145 r fez-k-b1-10;
#X obj 20 115 s fez-k-mix-melody;
#X obj 155 116 s fez-k-mix-grains;
#X obj 19 169 s fez-k-mix-bass;
#X obj 154 170 s fez-k-mix-foley;
#X obj 448 100 r fez-k-b1-8;
#X obj 448 125 s fez-k-randomkick;
#X obj 314 153 r fez-k-b1-11;
#X obj 314 178 s fez-k-melody-src;
#X obj 22 368 s fez-k-bass-prob;
#X obj 164 367 s fez-k-bass-cutoff;
#X obj 178 263 s fez-k-melody-cutoff;
#X obj 21 264 s fez-k-melody-prob;
#X obj 338 264 s fez-k-melody-atk;
#X obj 493 263 s fez-k-melody-rls;
#X obj 21 239 r fez-k-b2-1;
#X obj 178 240 r fez-k-b2-2;
#X obj 338 239 r fez-k-b2-3;
#X obj 492 236 r fez-k-b2-4;
#X obj 22 343 r fez-k-b2-9;
#X obj 164 344 r fez-k-b2-10;
#X obj 21 290 r fez-k-b2-5;
#X obj 178 291 r fez-k-b2-6;
#X obj 338 290 r fez-k-b2-7;
#X obj 493 292 r fez-k-b2-8;
#X obj 21 315 s fez-k-melody-reverb;
#X obj 178 313 s fez-k-delay-vol;
#X obj 338 315 s fez-k-delay-fb;
#X obj 493 314 s fez-k-delay-time;
#X floatatom 274 204 5 0 0 0 - - - 0;
#X floatatom 456 220 5 0 0 0 - - - 0;
#X obj 21 487 s fez-k-grain-reverb;
#X obj 178 485 s fez-k-grain-vol;
#X obj 338 487 s fez-k-grain-fb;
#X obj 493 486 s fez-k-grain-time;
#X obj 21 463 r fez-k-b3-5;
#X obj 179 463 r fez-k-b3-6;
#X obj 338 462 r fez-k-b3-7;
#X obj 493 464 r fez-k-b3-8;
#X obj 448 155 r fez-k-b1-12;
#X obj 448 180 s fez-k-grain-src;
#X obj 19 414 r fez-k-b3-1;
#X obj 19 438 s fez-k-grain-sample;
#X connect 0 0 1 0;
#X connect 2 0 3 0;
#X connect 4 0 5 0;
#X connect 6 0 7 0;
#X connect 8 0 9 0;
#X connect 10 0 14 0;
#X connect 11 0 15 0;
#X connect 12 0 16 0;
#X connect 13 0 17 0;
#X connect 18 0 19 0;
#X connect 20 0 21 0;
#X connect 20 0 42 0;
#X connect 28 0 25 0;
#X connect 29 0 24 0;
#X connect 30 0 26 0;
#X connect 31 0 27 0;
#X connect 31 0 43 0;
#X connect 32 0 22 0;
#X connect 33 0 23 0;
#X connect 34 0 38 0;
#X connect 35 0 39 0;
#X connect 36 0 40 0;
#X connect 37 0 41 0;
#X connect 48 0 44 0;
#X connect 49 0 45 0;
#X connect 50 0 46 0;
#X connect 51 0 47 0;
#X connect 52 0 53 0;
#X connect 54 0 55 0;
#X restore 1026 10 pd Knob_Router;
#N canvas 583 25 996 893 RagaBeats 0;
#X obj 30 321 Drum_Loops;
#X obj 78 265 r fez-beat-time;
#X obj 126 288 r fez-4bar;
#X obj 29 429 hip~ 70;
#X obj 223 277 r fez-trig-0;
#X floatatom 78 289 5 0 0 0 - - - 0;
#X obj 31 235 r \$0-fez-beat-select;
#X obj 30 494 Fez9000-Fade-InOut;
#X obj 154 458 tgl 15 0 empty empty empty 17 7 0 10 #fcfcfc #000000
#000000 0 1;
#X obj 155 424 r \$0-fez-beat-enable;
#X obj 321 133 > 0.2;
#X obj 239 188 s \$0-fez-beat-enable;
#X floatatom 337 73 5 0 0 0 - - - 0;
#X obj 98 649 *~;
#X obj 142 601 > 0.8;
#X obj 39 756 clip~ -1 1;
#X obj 41 1001 outlet~;
#X obj 203 658 > 0.9;
#X obj 203 686 sel 0;
#X msg 148 717 -1;
#X msg 188 717 1;
#X obj 226 806 bng 15 250 50 0 empty empty empty 17 7 0 10 #fcfcfc
#000000 #000000;
#X obj 275 812 bng 15 250 50 0 empty empty empty 17 7 0 10 #fcfcfc
#000000 #000000;
#X msg 235 717 -0.2;
#X msg 280 717 0.2;
#X obj 40 813 lop~ 8000;
#X obj 66 781 r \$0-fez-beat-lpf;
#X obj 452 115 > 0.5;
#X obj 404 213 s \$0-fez-beat-lpf;
#X obj 452 139 sel 0;
#X floatatom 128 815 5 0 0 0 - - - 0;
#X msg 404 189 800;
#X msg 563 189 4;
#X msg 620 189 12;
#X obj 537 249 s \$0-fez-beat-max-loop;
#X obj 766 84 random;
#X obj 805 42 r \$0-fez-beat-max-loop;
#X floatatom 826 66 5 0 0 0 - - - 0;
#X obj 766 112 s \$0-fez-beat-select;
#X obj 40 890 *~;
#X obj 58 853 r \$0-fez-beat-mute;
#X obj 519 464 r fez-beat-num;
#X floatatom 519 496 5 0 0 0 - - - 0;
#X obj 195 855 tgl 15 0 empty empty empty 17 7 0 10 #fcfcfc #000000
#000000 0 1;
#X obj 553 933 s \$0-fez-beat-mute;
#X obj 521 545 % 8;
#X obj 520 583 sel 2 4 6;
#X obj 426 796 spigot;
#X obj 487 796 spigot;
#X obj 546 796 spigot;
#X msg 649 718 1;
#X msg 489 900 0;
#X obj 427 707 random 2;
#X obj 494 707 random 3;
#X obj 558 708 random 4;
#X obj 413 875 spigot;
#X obj 98 551 lop~ 200;
#X obj 320 18 r fez-r-i;
#X obj 141 577 r fez-r-i;
#X obj 203 627 r fez-r-i;
#X obj 779 748 r fez-r-i;
#X obj 766 18 r fez-r-s;
#X obj 429 659 r fez-r-s;
#X obj 427 738 == 0;
#X obj 494 741 == 0;
#X obj 558 743 == 0;
#X floatatom 663 756 5 0 0 0 - - - 0;
#X floatatom 663 781 5 0 0 0 - - - 0;
#X floatatom 663 807 5 0 0 0 - - - 0;
#X msg 463 189 3000;
#X obj 779 794 expr $f1 > 0.5 && $f1 < 0.7;
#X floatatom 797 834 5 0 0 0 - - - 0;
#X connect 0 0 3 0;
#X connect 1 0 0 1;
#X connect 1 0 5 0;
#X connect 2 0 0 2;
#X connect 3 0 7 0;
#X connect 4 0 0 4;
#X connect 6 0 0 0;
#X connect 7 0 15 0;
#X connect 7 0 56 0;
#X connect 8 0 7 1;
#X connect 9 0 8 0;
#X connect 10 0 11 0;
#X connect 13 0 15 0;
#X connect 14 0 13 1;
#X connect 15 0 25 0;
#X connect 17 0 18 0;
#X connect 18 0 20 0;
#X connect 18 0 19 0;
#X connect 18 0 21 0;
#X connect 18 1 23 0;
#X connect 18 1 24 0;
#X connect 18 1 22 0;
#X connect 19 0 15 1;
#X connect 20 0 15 2;
#X connect 23 0 15 1;
#X connect 24 0 15 2;
#X connect 25 0 39 0;
#X connect 26 0 25 1;
#X connect 26 0 30 0;
#X connect 27 0 29 0;
#X connect 29 0 31 0;
#X connect 29 0 32 0;
#X connect 29 1 69 0;
#X connect 29 1 33 0;
#X connect 31 0 28 0;
#X connect 32 0 34 0;
#X connect 33 0 34 0;
#X connect 35 0 38 0;
#X connect 36 0 35 1;
#X connect 36 0 37 0;
#X connect 39 0 16 0;
#X connect 40 0 43 0;
#X connect 40 0 39 1;
#X connect 41 0 42 0;
#X connect 42 0 45 0;
#X connect 45 0 46 0;
#X connect 46 0 47 0;
#X connect 46 1 48 0;
#X connect 46 2 49 0;
#X connect 46 3 50 0;
#X connect 47 0 55 0;
#X connect 48 0 55 0;
#X connect 49 0 55 0;
#X connect 50 0 44 0;
#X connect 51 0 44 0;
#X connect 52 0 63 0;
#X connect 53 0 64 0;
#X connect 54 0 65 0;
#X connect 55 0 51 0;
#X connect 56 0 13 0;
#X connect 57 0 10 0;
#X connect 57 0 12 0;
#X connect 57 0 27 0;
#X connect 58 0 14 0;
#X connect 59 0 17 0;
#X connect 60 0 70 0;
#X connect 61 0 35 0;
#X connect 62 0 52 0;
#X connect 62 0 53 0;
#X connect 62 0 54 0;
#X connect 63 0 47 1;
#X connect 63 0 66 0;
#X connect 64 0 48 1;
#X connect 64 0 67 0;
#X connect 65 0 49 1;
#X connect 65 0 68 0;
#X connect 69 0 28 0;
#X connect 70 0 55 1;
#X connect 70 0 71 0;
#X restore 31 465 pd RagaBeats;
#X obj 355 187 hsl 400 40 0 1 0 0 fez-r-i empty intensity -2 -8 0 10
#00faff #ff0400 #000000 0 1;
#X floatatom 352 244 5 0 0 0 - - - 24;
#X obj 284 193 bng 40 250 50 0 fez-r-s empty shuffle 17 7 0 10 #fcfcfc
#000000 #000000;
#N canvas 341 25 1248 902 RagaArps 0;
#X obj 132 259 r fez-key-change;
#X obj 168 326 Scaler;
#X floatatom 168 410 5 0 0 0 - - - 0;
#X obj 269 275 loadbang;
#X obj 69 566 Fez9000-VCO;
#X obj 44 875 outlet~;
#X obj 163 497 hsl 128 15 0 127 0 0 empty empty gain -2 -8 0 10 #fcfcfc
#000000 #000000 0 1;
#X obj 162 530 hsl 128 15 0 127 0 0 empty empty waveform -2 -8 0 10
#fcfcfc #000000 #000000 0 1;
#X obj 161 567 hsl 128 15 0 127 0 0 empty empty noise -2 -8 0 10 #fcfcfc
#000000 #000000 0 1;
#X obj 68 519 mtof;
#X obj 48 194 Bass_Sequencer;
#X obj 98 103 Counter 16;
#X floatatom 100 137 5 0 0 0 - - - 0;
#X obj 97 60 r fez-1bar;
#X floatatom 47 222 5 0 0 0 - - - 0;
#X obj 28 331 bng 15 250 50 0 empty empty empty 17 7 0 10 #fcfcfc #000000
#000000;
#X obj 249 176 r fez-r-i;
#X floatatom 249 224 5 0 0 0 - - - 0;
#X obj 98 170 r fez-r-s;
#X obj 69 626 *~;
#X obj 191 652 Fez9000-ENV;
#X obj 324 638 hsl 127 15 0 127 0 0 empty empty atk -2 -8 0 10 #fcfcfc
#000000 #000000 0 1;
#X obj 462 638 hsl 128 15 0 5000 0 0 empty empty sustainT -2 -8 0 10
#fcfcfc #000000 #000000 0 1;
#X obj 600 638 hsl 128 15 0 1 0 0 empty empty sustainL -2 -8 0 10 #fcfcfc
#000000 #000000 0 1;
#X obj 747 638 hsl 128 15 0 5000 0 0 empty empty release -2 -8 0 10
#fcfcfc #000000 #000000 0 1;
#X obj 68 769 Fez9000-Delay;
#X obj 206 734 hsl 128 15 0 1 0 0 empty empty delay\\\ vol -2 -8 0
10 #fcfcfc #000000 #000000 0 1;
#X obj 354 773 hsl 128 15 0 5000 0 0 empty empty delay\\\ time -2 -8
0 10 #fcfcfc #000000 #000000 0 1;
#X obj 507 773 hsl 128 15 0 1 0 0 empty empty feedback -2 -8 0 10 #fcfcfc
#000000 #000000 0 1;
#X obj 350 706 r fez-beat-time;
#X floatatom 464 706 5 0 0 0 - - - 0;
#X obj 464 729 * 1.5;
#X floatatom 504 793 5 0 0 0 - - - 0;
#X floatatom 351 793 5 0 0 0 - - - 0;
#X floatatom 202 795 5 0 0 0 - - - 0;
#X msg 952 203 0.67;
#X obj 1005 89 loadbang;
#X obj 1004 146 bng 15 250 50 0 empty empty empty 17 7 0 10 #fcfcfc
#000000 #000000;
#X msg 623 587 0.5;
#X obj 590 470 loadbang;
#X obj 592 516 bng 15 250 50 0 empty empty empty 17 7 0 10 #fcfcfc
#000000 #000000;
#X floatatom 328 674 5 0 0 0 - - - 0;
#X obj 429 485 r fez-r-s;
#X obj 429 509 random 100;
#X obj 764 464 r fez-r-s;
#X obj 794 567 r fez-beat-time;
#X obj 760 593 *;
#X obj 764 512 * 0.01;
#X floatatom 726 567 5 0 0 0 - - - 0;
#X floatatom 800 593 5 0 0 0 - - - 0;
#X floatatom 904 607 5 0 0 0 - - - 0;
#X obj 277 59 r fez-4bar;
#X obj 277 85 bng 15 250 50 0 empty empty empty 17 7 0 10 #fcfcfc #000000
#000000;
#X obj 347 385 random 20;
#X obj 350 321 random 20;
#X obj 436 254 r fez-r-s;
#X obj 344 440 random 40;
#X obj 389 143 loadbang;
#X msg 389 167 0;
#X obj 28 293 spigot;
#X obj 46 260 r \$0-ra-co;
#X obj 744 284 s \$0-ra-co;
#X msg 704 283 1;
#X obj 629 285 loadbang;
#X floatatom 830 149 5 0 0 0 - - - 0;
#X obj 773 95 r fez-1bar;
#X obj 747 147 random 100;
#X obj 745 224 < 80;
#X msg 1076 199 0.33;
#X obj 70 844 rev1~;
#X msg 86 818 80;
#X obj 130 844 loadbang;
#X obj 451 347 r fez-r-i;
#X floatatom 451 422 5 0 0 0 - - - 0;
#X floatatom 368 413 5 0 0 0 - - - 0;
#X obj 67 711 lop~ 2000;
#X obj 451 389 expr 40+($f1 * 60);
#X obj 429 533 + 5;
#X obj 764 536 + 0.3;
#X obj 764 488 random 50;
#X obj 570 731 r \$0-ra-fb;
#X obj 205 693 r \$0-ra-dv;
#X obj 1077 236 s \$0-ra-fb;
#X obj 956 310 s \$0-ra-fb;
#X obj 424 95 r fez-16th;
#X obj 11 79 r \$0-ra-clk;
#X obj 487 127 spigot;
#X obj 543 127 spigot;
#X obj 487 161 s \$0-ra-clk;
#X obj 567 94 r fez-8th;
#X obj 501 9 r fez-r-i;
#X obj 479 42 > 0.39;
#X obj 580 41 < 0.4;
#X obj 67 664 *~ 0.2;
#X msg 270 299 5;
#X obj 249 200 expr ($f1*80)+20;
#X connect 0 0 1 1;
#X connect 1 0 2 0;
#X connect 2 0 9 0;
#X connect 3 0 94 0;
#X connect 4 0 19 0;
#X connect 6 0 4 1;
#X connect 7 0 4 2;
#X connect 8 0 4 3;
#X connect 9 0 4 0;
#X connect 10 0 14 0;
#X connect 11 0 12 0;
#X connect 12 0 10 0;
#X connect 13 0 11 1;
#X connect 14 0 1 0;
#X connect 14 0 59 0;
#X connect 15 0 20 0;
#X connect 16 0 95 0;
#X connect 17 0 10 2;
#X connect 18 0 10 1;
#X connect 19 0 93 0;
#X connect 20 0 19 1;
#X connect 21 0 20 1;
#X connect 21 0 41 0;
#X connect 22 0 20 2;
#X connect 23 0 20 3;
#X connect 24 0 20 4;
#X connect 25 0 69 0;
#X connect 25 0 5 0;
#X connect 26 0 25 1;
#X connect 26 0 34 0;
#X connect 27 0 25 2;
#X connect 27 0 33 0;
#X connect 28 0 25 3;
#X connect 28 0 32 0;
#X connect 29 0 30 0;
#X connect 30 0 31 0;
#X connect 31 0 27 0;
#X connect 35 0 83 0;
#X connect 36 0 37 0;
#X connect 37 0 35 0;
#X connect 37 0 68 0;
#X connect 38 0 23 0;
#X connect 39 0 40 0;
#X connect 40 0 38 0;
#X connect 42 0 43 0;
#X connect 43 0 77 0;
#X connect 44 0 79 0;
#X connect 45 0 46 1;
#X connect 45 0 49 0;
#X connect 46 0 24 0;
#X connect 46 0 50 0;
#X connect 47 0 78 0;
#X connect 51 0 10 1;
#X connect 51 0 52 0;
#X connect 53 0 7 0;
#X connect 53 0 74 0;
#X connect 54 0 6 0;
#X connect 55 0 54 0;
#X connect 55 0 53 0;
#X connect 55 0 56 0;
#X connect 56 0 8 0;
#X connect 57 0 58 0;
#X connect 58 0 95 0;
#X connect 59 0 15 0;
#X connect 60 0 59 1;
#X connect 62 0 61 0;
#X connect 63 0 62 0;
#X connect 65 0 66 0;
#X connect 66 0 64 0;
#X connect 66 0 67 0;
#X connect 67 0 61 0;
#X connect 68 0 82 0;
#X connect 69 0 5 0;
#X connect 70 0 69 1;
#X connect 71 0 70 0;
#X connect 72 0 76 0;
#X connect 75 0 25 0;
#X connect 76 0 53 1;
#X connect 76 0 73 0;
#X connect 77 0 21 0;
#X connect 78 0 46 0;
#X connect 78 0 48 0;
#X connect 79 0 47 0;
#X connect 80 0 28 0;
#X connect 81 0 26 0;
#X connect 84 0 86 0;
#X connect 85 0 11 0;
#X connect 86 0 88 0;
#X connect 87 0 88 0;
#X connect 89 0 87 0;
#X connect 90 0 91 0;
#X connect 90 0 92 0;
#X connect 91 0 86 1;
#X connect 92 0 87 1;
#X connect 93 0 75 0;
#X connect 94 0 1 2;
#X connect 95 0 17 0;
#X restore 162 465 pd RagaArps;
#X obj 30 20 hsl 128 15 0 24 0 0 empty empty empty -2 -8 0 10 #fcfcfc
#000000 #000000 0 1;
#X obj 268 162 loadbang;
#X obj 196 121 r fez-key-change;
#X obj 203 152 bng 15 250 50 0 empty empty empty 17 7 0 10 #fcfcfc
#000000 #000000;
#N canvas 5 85 1136 814 RagaPad 0;
#X floatatom 185 258 5 0 0 0 - - - 0;
#X obj 185 173 Scaler;
#X obj 186 758 outlet~;
#X obj 192 40 r fez-key-change;
#X obj 196 69 t b l;
#X obj 185 487 *~;
#X obj 228 353 bng 15 250 50 0 empty empty empty 17 7 0 10 #fcfcfc
#000000 #000000;
#X obj 229 465 Fez9000-ENV;
#X obj 1038 161 r fez-beat-time;
#X obj 1038 191 * 16;
#X floatatom 1038 217 5 0 0 0 - - - 0;
#X obj 1001 255 * 0.75;
#X floatatom 1001 286 5 0 0 0 - - - 0;
#X floatatom 1054 286 5 0 0 0 - - - 0;
#X obj 979 311 s \$0-rpa;
#X obj 1054 312 s \$0-rpr;
#X obj 228 326 r fez-4bar;
#X obj 248 370 r \$0-rpa;
#X msg 259 427 0;
#X msg 292 426 1;
#X obj 258 393 loadbang;
#X obj 185 536 throw~ \$0-pd-o;
#X obj 183 566 catch~ \$0-pd-o;
#X obj 185 294 Dual_Wavetable_Voice;
#X floatatom 399 249 5 0 0 0 - - - 0;
#X obj 399 164 Scaler;
#X obj 406 31 r fez-key-change;
#X obj 410 60 t b l;
#X obj 399 478 *~;
#X obj 442 344 bng 15 250 50 0 empty empty empty 17 7 0 10 #fcfcfc
#000000 #000000;
#X obj 443 456 Fez9000-ENV;
#X obj 588 303 r fez-4bar;
#X obj 462 361 r \$0-rpa;
#X msg 473 418 0;
#X msg 506 417 1;
#X obj 472 384 loadbang;
#X obj 398 536 throw~ \$0-pd-o;
#X obj 399 285 Dual_Wavetable_Voice;
#X msg 186 114 0;
#X obj 538 416 r \$0-rpr;
#X obj 326 427 r \$0-rpr;
#X obj 588 333 delay;
#X obj 680 309 r fez-beat-time;
#X obj 680 333 * 4;
#X obj 1054 255 * 0.3;
#X obj 183 597 *~ 0.1;
#X obj 300 95 loadbang;
#X obj 228 703 rev1~;
#X msg 299 665 80;
#X obj 323 625 loadbang;
#X msg 263 145 3;
#X msg 477 136 4;
#X msg 400 105 1;
#X msg 253 606 500;
#X obj 183 641 lop~ 500;
#X connect 0 0 23 0;
#X connect 1 0 0 0;
#X connect 3 0 4 0;
#X connect 4 0 38 0;
#X connect 4 1 1 1;
#X connect 5 0 21 0;
#X connect 6 0 7 0;
#X connect 7 0 5 1;
#X connect 8 0 9 0;
#X connect 9 0 10 0;
#X connect 10 0 11 0;
#X connect 10 0 44 0;
#X connect 11 0 12 0;
#X connect 12 0 14 0;
#X connect 13 0 15 0;
#X connect 16 0 6 0;
#X connect 17 0 7 1;
#X connect 18 0 7 2;
#X connect 19 0 7 3;
#X connect 20 0 18 0;
#X connect 20 0 19 0;
#X connect 22 0 45 0;
#X connect 23 0 5 0;
#X connect 24 0 37 0;
#X connect 25 0 24 0;
#X connect 26 0 27 0;
#X connect 27 0 52 0;
#X connect 27 1 25 1;
#X connect 28 0 36 0;
#X connect 29 0 30 0;
#X connect 30 0 28 1;
#X connect 31 0 41 0;
#X connect 32 0 30 1;
#X connect 33 0 30 2;
#X connect 34 0 30 3;
#X connect 35 0 33 0;
#X connect 35 0 34 0;
#X connect 37 0 28 0;
#X connect 38 0 1 0;
#X connect 39 0 30 4;
#X connect 40 0 7 4;
#X connect 41 0 29 0;
#X connect 42 0 43 0;
#X connect 43 0 41 1;
#X connect 44 0 13 0;
#X connect 45 0 54 0;
#X connect 46 0 50 0;
#X connect 46 0 51 0;
#X connect 47 0 2 0;
#X connect 48 0 47 1;
#X connect 49 0 48 0;
#X connect 50 0 1 2;
#X connect 51 0 25 2;
#X connect 52 0 25 0;
#X connect 53 0 54 1;
#X connect 54 0 47 0;
#X connect 54 0 2 0;
#X restore 294 465 pd RagaPad;
#X obj 31 494 Fez9000-Blocker;
#X obj 294 496 Fez9000-Blocker;
#X obj 162 495 Fez9000-Blocker;
#N canvas 811 142 657 546 CPULoad 0;
#X floatatom 256 137 0 0 0 1 % - - 0;
#X obj 360 342 cputime;
#X obj 360 286 metro 1000;
#X obj 360 314 t b b;
#X obj 360 402 * 0.1;
#X obj 360 371 int;
#X obj 361 250 r fez-8th;
#X obj 111 158 hsl 180 15 0 100 0 0 empty empty CPU\ LOAD -2 -8 0 30
#ff0400 #ffffff #000000 0 1;
#X connect 0 0 7 0;
#X connect 1 0 5 0;
#X connect 2 0 3 0;
#X connect 3 0 1 0;
#X connect 3 1 1 1;
#X connect 4 0 0 0;
#X connect 5 0 4 0;
#X connect 6 0 2 0;
#X coords 0 -1 1 1 200 80 1 100 100;
#X restore 828 151 pd CPULoad;
#N canvas 1011 195 665 686 RagaBass 0;
#X obj 84 120 Bass_Sequencer;
#X obj 85 214 Scaler;
#X obj 87 350 Bass_Voice2;
#X obj 88 636 outlet~;
#X floatatom 85 169 5 0 0 0 - - - 0;
#X obj 131 168 r fez-key-change;
#X obj 282 147 loadbang;
#X obj 164 26 bng 15 250 50 0 empty empty empty 17 7 0 10 #fcfcfc #000000
#000000;
#X obj 28 23 r fez-8th-swing;
#X floatatom 186 284 5 0 0 0 - - - 0;
#X obj 191 413 Fez9000-ENV;
#X obj 88 522 *~;
#X obj 188 315 bng 15 250 50 0 empty empty empty 17 7 0 10 #fcfcfc
#000000 #000000;
#X msg 287 219 0.8;
#X obj 402 273 r fez-beat-time;
#X obj 82 416 lop~ 100;
#X msg 230 81 25;
#X obj 224 42 r fez-r-s;
#X obj 131 93 bng 15 250 50 0 empty empty empty 17 7 0 10 #fcfcfc #000000
#000000;
#X msg 233 203 3;
#X obj 402 297 * 2;
#X msg 328 219 80;
#X obj 90 596 Fez9000-Fade-InOut;
#X obj 214 560 tgl 15 0 empty empty empty 17 7 0 10 #fcfcfc #000000
#000000 0 1;
#X obj 213 492 r fez-r-i;
#X obj 214 532 > 0.15;
#X obj 89 559 *~ 0.3;
#X connect 0 0 4 0;
#X connect 1 0 2 0;
#X connect 1 0 9 0;
#X connect 2 0 15 0;
#X connect 4 0 1 0;
#X connect 5 0 1 1;
#X connect 6 0 19 0;
#X connect 6 0 13 0;
#X connect 6 0 21 0;
#X connect 6 0 16 0;
#X connect 8 0 0 0;
#X connect 8 0 7 0;
#X connect 9 0 12 0;
#X connect 10 0 11 1;
#X connect 11 0 26 0;
#X connect 12 0 10 0;
#X connect 13 0 10 3;
#X connect 14 0 20 0;
#X connect 15 0 11 0;
#X connect 16 0 0 2;
#X connect 17 0 18 0;
#X connect 18 0 0 1;
#X connect 19 0 1 2;
#X connect 20 0 10 4;
#X connect 21 0 10 1;
#X connect 22 0 3 0;
#X connect 23 0 22 1;
#X connect 24 0 25 0;
#X connect 25 0 23 0;
#X connect 26 0 22 0;
#X restore 427 465 pd RagaBass;
#X obj 427 496 Fez9000-Blocker;
#X connect 2 0 3 0;
#X connect 4 0 3 1;
#X connect 5 0 2 0;
#X connect 6 0 4 0;
#X connect 7 0 2 0;
#X connect 7 0 4 0;
#X connect 8 0 9 0;
#X connect 9 0 10 0;
#X connect 11 0 9 1;
#X connect 13 0 11 0;
#X connect 15 0 25 0;
#X connect 16 0 17 0;
#X connect 19 0 27 0;
#X connect 20 0 0 0;
#X connect 21 0 18 0;
#X connect 22 0 23 0;
#X connect 23 0 18 0;
#X connect 24 0 26 0;
#X connect 25 0 12 0;
#X connect 26 0 12 0;
#X connect 27 0 12 0;
#X connect 29 0 30 0;
#X connect 30 0 12 0;
