#N canvas 0 18 956 1009 12;
#X obj 20 103 Fez9000_LED_Control;
#X obj 20 50 Fez9000_Joystick;
#X obj 20 77 Fez9000_Knobs;
#X text 142 49 < Hardware Control;
#N canvas 960 25 476 1009 Key_Set 0;
#X floatatom 319 262 5 0 0 0 - - - 0;
#X obj 261 313 / 12;
#X floatatom 261 377 5 0 0 0 maj/min - - 0;
#X obj 369 312 % 12;
#X floatatom 369 381 5 0 0 0 root - - 0;
#X obj 261 349 int;
#X obj 247 503 list append;
#X obj 243 449 f;
#X obj 352 458 t f b;
#X obj 247 577 list;
#X msg 254 250 0;
#X obj 240 211 loadbang;
#X obj 469 319 * 16;
#X obj 470 355 +;
#X floatatom 508 320 5 0 0 0 - - - 0;
#X obj 504 354 s fez-led-p1;
#X obj 85 552 spigot;
#X obj 124 524 tgl 15 0 empty empty empty 17 7 0 10 #fcfcfc #000000
#000000 0 1;
#X obj 85 593 t b b;
#X msg 176 526 1;
#X obj 176 503 bng 15 250 50 0 empty empty empty 17 7 0 10 #fcfcfc
#000000 #000000;
#X msg 44 522 0;
#X obj 44 503 bng 15 250 50 0 empty empty empty 17 7 0 10 #fcfcfc #000000
#000000;
#X text 74 339 this madness is so we only send a new key when one has
actually changed and not every bar, f 13;
#X obj 247 633 s fez-key-change;
#X obj 85 492 r fez-4bar;
#X obj 381 409 s \$0-root;
#X obj 271 410 s \$0-mode;
#X obj 357 685 r \$0-root;
#X obj 358 718 sel 0 1 2 3 4 5 6 7 8 9 10 11;
#X obj 35 6 r \$0-mode;
#X obj 35 31 sel 0;
#X symbolatom 175 139 10 0 0 0 - - - 0;
#X msg 9 74 symbol major;
#X msg 111 73 symbol minor;
#X msg 24 809 symbol c;
#X msg 95 809 symbol c#;
#X msg 173 808 symbol d;
#X msg 245 807 symbol eb;
#X msg 322 807 symbol e;
#X msg 392 807 symbol f;
#X msg 463 807 symbol f#;
#X msg 543 807 symbol g;
#X msg 615 807 symbol ab;
#X msg 692 807 symbol a;
#X msg 762 807 symbol bb;
#X msg 840 807 symbol b;
#X obj 297 871 s \$0-key-name;
#X symbolatom 131 138 5 0 0 0 - - - 0;
#X obj 217 75 r \$0-key-name;
#X listbox 188 117 8 0 0 0 - - - 0;
#X obj 224 26 r fez-key-change;
#X obj 150 119 tgl 15 0 empty empty empty 17 7 0 10 #fcfcfc #000000
#000000 0 1;
#X obj 130 119 bng 15 250 50 0 empty empty empty 17 7 0 10 #fcfcfc
#000000 #000000;
#X obj 115 651 unpack f f;
#X obj 112 700 s fez-key-root;
#X obj 319 230 Knob_Map fez-k-keychange 0 23;
#X connect 0 0 1 0;
#X connect 0 0 3 0;
#X connect 0 0 20 0;
#X connect 1 0 5 0;
#X connect 2 0 7 1;
#X connect 2 0 27 0;
#X connect 3 0 4 0;
#X connect 3 0 13 0;
#X connect 4 0 8 0;
#X connect 4 0 26 0;
#X connect 5 0 2 0;
#X connect 5 0 12 0;
#X connect 6 0 9 1;
#X connect 7 0 6 1;
#X connect 8 0 6 0;
#X connect 8 1 7 0;
#X connect 9 0 24 0;
#X connect 9 0 54 0;
#X connect 10 0 0 0;
#X connect 11 0 10 0;
#X connect 12 0 13 1;
#X connect 13 0 14 0;
#X connect 14 0 15 0;
#X connect 16 0 18 0;
#X connect 16 0 53 0;
#X connect 17 0 16 1;
#X connect 17 0 52 0;
#X connect 18 0 22 0;
#X connect 18 1 9 0;
#X connect 19 0 17 0;
#X connect 20 0 19 0;
#X connect 21 0 17 0;
#X connect 22 0 21 0;
#X connect 25 0 16 0;
#X connect 28 0 29 0;
#X connect 29 0 35 0;
#X connect 29 1 36 0;
#X connect 29 2 37 0;
#X connect 29 3 38 0;
#X connect 29 4 39 0;
#X connect 29 5 40 0;
#X connect 29 6 41 0;
#X connect 29 7 42 0;
#X connect 29 8 43 0;
#X connect 29 9 44 0;
#X connect 29 10 45 0;
#X connect 29 11 46 0;
#X connect 30 0 31 0;
#X connect 31 0 33 0;
#X connect 31 1 34 0;
#X connect 33 0 32 0;
#X connect 34 0 32 0;
#X connect 35 0 47 0;
#X connect 36 0 47 0;
#X connect 37 0 47 0;
#X connect 38 0 47 0;
#X connect 39 0 47 0;
#X connect 40 0 47 0;
#X connect 41 0 47 0;
#X connect 42 0 47 0;
#X connect 43 0 47 0;
#X connect 44 0 47 0;
#X connect 45 0 47 0;
#X connect 46 0 47 0;
#X connect 49 0 48 0;
#X connect 51 0 50 0;
#X connect 54 0 55 0;
#X connect 56 0 0 0;
#X coords 0 -1 1 1 150 60 1 100 100;
#X restore 20 243 pd Key_Set;
#N canvas 1440 18 636 1009 Main_Clock 0;
#X obj 117 137 Multi_Clock;
#X floatatom 195 114 5 0 0 0 bpm\ set\ to - - 0;
#X obj 117 31 loadbang;
#X text 467 9 these bpms are the sweet spot for fez, f 19;
#X obj 138 463 s fez-8th;
#X obj 159 434 s fez-4th;
#X obj 117 494 s fez-beat-time;
#X obj 181 409 s fez-half;
#X obj 202 386 s fez-1bar;
#X obj 224 360 s fez-2bar;
#X obj 245 335 s fez-4bar;
#X obj 267 310 s fez-8bar;
#X obj 288 285 s fez-8th-swing;
#X obj 310 261 s fez-beat-num;
#X obj 338 237 s fez-led-bn;
#X obj 144 242 bng 15 250 50 0 empty empty empty 17 7 0 10 #fcfcfc
#000000 #000000;
#X obj 167 242 bng 15 250 50 0 empty empty empty 17 7 0 10 #fcfcfc
#000000 #000000;
#X obj 188 242 bng 15 250 50 0 empty empty empty 17 7 0 10 #fcfcfc
#000000 #000000;
#X obj 209 242 bng 15 250 50 0 empty empty empty 17 7 0 10 #fcfcfc
#000000 #000000;
#X obj 230 242 bng 15 250 50 0 empty empty empty 17 7 0 10 #fcfcfc
#000000 #000000;
#X obj 252 242 bng 15 250 50 0 empty empty empty 17 7 0 10 #fcfcfc
#000000 #000000;
#X obj 273 242 bng 15 250 50 0 empty empty empty 17 7 0 10 #fcfcfc
#000000 #000000;
#X obj 296 241 bng 15 250 50 0 empty empty empty 17 7 0 10 #fcfcfc
#000000 #000000;
#X obj 635 96 tgl 15 0 empty empty empty 17 7 0 10 #fcfcfc #000000
#000000 0 1;
#X obj 635 73 loadbang;
#X obj 515 107 bng 15 250 50 0 empty empty empty 17 7 0 10 #fcfcfc
#000000 #000000;
#X obj 470 143 Dedup;
#X obj 471 170 bng 15 250 50 0 empty empty empty 17 7 0 10 #fcfcfc
#000000 #000000;
#X obj 635 113 metro 2000;
#X obj 470 104 f 80;
#X msg 196 61 80;
#X floatatom 102 239 5 0 0 0 - - - 0;
#X obj 470 47 Knob_Map fez-k-tempo 70 92;
#X connect 0 0 6 0;
#X connect 0 1 4 0;
#X connect 0 1 15 0;
#X connect 0 2 5 0;
#X connect 0 2 16 0;
#X connect 0 3 7 0;
#X connect 0 3 17 0;
#X connect 0 4 8 0;
#X connect 0 4 18 0;
#X connect 0 5 9 0;
#X connect 0 5 19 0;
#X connect 0 6 10 0;
#X connect 0 6 20 0;
#X connect 0 7 11 0;
#X connect 0 7 21 0;
#X connect 0 8 12 0;
#X connect 0 8 22 0;
#X connect 0 9 13 0;
#X connect 0 9 14 0;
#X connect 0 9 31 0;
#X connect 1 0 29 1;
#X connect 2 0 30 0;
#X connect 23 0 28 0;
#X connect 24 0 23 0;
#X connect 25 0 29 0;
#X connect 26 0 0 1;
#X connect 26 0 27 0;
#X connect 28 0 25 0;
#X connect 29 0 26 0;
#X connect 30 0 0 1;
#X connect 32 0 1 0;
#X coords 0 -1 1 1 220 160 1 100 100;
#X restore 332 8 pd Main_Clock;
#X obj 25 405 Drum_Loops;
#X obj 73 349 r fez-beat-time;
#X obj 121 372 r fez-4bar;
#X obj 563 107 clip~ -1 1;
#X obj 563 145 dac~;
#X obj 644 107 clip~ -1 1;
#X obj 563 69 catch~ fez-main-l;
#X obj 697 70 catch~ fez-main-r;
#X obj 562 22 catch~ fez-main-mono;
#X floatatom 33 348 5 0 0 0 - - - 0;
#X obj 831 10 catch~ fez-main-tapeout;
#X obj 831 70 Tapeish;
#X obj 830 99 throw~ fez-main-mono;
#X obj 878 49 tgl 15 0 empty empty empty 17 7 0 10 #fcfcfc #000000
#000000 0 1;
#N canvas 1280 18 636 1009 Fez9000_Main_Mixer 0;
#X obj 375 88 inlet~;
#X obj 406 618 outlet~;
#X obj 423 217 CC_Scale;
#X obj 405 247 *~;
#X obj 756 89 inlet~;
#X obj 775 227 CC_Scale;
#X obj 757 257 *~;
#X obj 903 90 inlet~;
#X obj 923 226 CC_Scale;
#X obj 905 259 *~;
#X obj 1058 88 inlet~;
#X obj 1077 226 CC_Scale;
#X obj 1059 256 *~;
#X floatatom 438 245 5 0 0 0 - - - 0;
#X floatatom 794 257 5 0 0 0 - - - 0;
#X floatatom 939 254 5 0 0 0 - - - 0;
#X floatatom 1098 258 5 0 0 0 - - - 0;
#X obj 750 425 * 32;
#X obj 865 425 * 32;
#X obj 981 426 * 32;
#X obj 1096 426 * 32;
#X obj 749 450 s fez-led-p9;
#X obj 866 450 s fez-led-p8;
#X obj 981 451 s fez-led-p7;
#X obj 1092 456 s fez-led-p6;
#X obj 352 644 lop~ 500;
#X floatatom 390 778 5 0 0 0 - - - 0;
#X obj 388 722 env~ 4096;
#X obj 115 163 hsl 128 15 0 100 0 0 empty empty empty -2 -8 0 10 #fcfcfc
#000000 #000000 0 1;
#X obj 112 68 r fez-mixer-sc;
#X obj 505 552 r fez-mixer-sc;
#X obj 474 552 *~, f 2;
#X text 619 549 very lame side-chain compression;
#X obj 582 897 sel 0;
#X obj 610 941 bng 15 250 50 0 empty empty empty 17 7 0 10 #fcfcfc
#000000 #000000;
#X obj 743 783 vline~;
#X obj 214 131 bng 30 250 50 0 empty empty sidechain -34 20 0 10 #faff00
#00faff #000000;
#X obj 423 185 r fez-k-mix-beats;
#X obj 543 96 inlet~;
#X obj 591 225 CC_Scale;
#X obj 573 255 *~;
#X floatatom 606 253 5 0 0 0 - - - 0;
#X obj 591 193 r fez-k-mix-hits;
#X obj 779 200 r fez-k-mix-bass;
#X obj 924 199 r fez-k-mix-melody;
#X obj 1079 197 r fez-k-mix-grains;
#X obj 1215 93 inlet~;
#X obj 1234 231 CC_Scale;
#X obj 1216 261 *~;
#X floatatom 1255 263 5 0 0 0 - - - 0;
#X obj 1236 202 r fez-k-mix-foley;
#X msg 741 753 1 0 10 \, 0.5 80 10 \, 1 100 300;
#X obj 581 874 > 60;
#X connect 0 0 3 0;
#X connect 2 0 3 1;
#X connect 2 0 13 0;
#X connect 3 0 1 0;
#X connect 3 0 25 0;
#X connect 4 0 6 0;
#X connect 5 0 6 1;
#X connect 5 0 14 0;
#X connect 6 0 31 0;
#X connect 7 0 9 0;
#X connect 8 0 9 1;
#X connect 8 0 15 0;
#X connect 9 0 31 0;
#X connect 10 0 12 0;
#X connect 11 0 12 1;
#X connect 11 0 16 0;
#X connect 12 0 31 0;
#X connect 13 0 17 0;
#X connect 14 0 18 0;
#X connect 15 0 19 0;
#X connect 16 0 20 0;
#X connect 17 0 21 0;
#X connect 18 0 22 0;
#X connect 19 0 23 0;
#X connect 20 0 24 0;
#X connect 25 0 27 0;
#X connect 26 0 28 0;
#X connect 26 0 52 0;
#X connect 27 0 26 0;
#X connect 29 0 28 0;
#X connect 31 0 1 0;
#X connect 33 1 34 0;
#X connect 34 0 51 0;
#X connect 34 0 36 0;
#X connect 35 0 31 1;
#X connect 37 0 2 0;
#X connect 38 0 40 0;
#X connect 39 0 40 1;
#X connect 39 0 41 0;
#X connect 40 0 1 0;
#X connect 40 0 25 0;
#X connect 42 0 39 0;
#X connect 43 0 5 0;
#X connect 44 0 8 0;
#X connect 45 0 11 0;
#X connect 46 0 48 0;
#X connect 47 0 48 1;
#X connect 47 0 49 0;
#X connect 48 0 31 0;
#X connect 50 0 47 0;
#X connect 51 0 35 0;
#X connect 52 0 33 0;
#X coords 0 -1 1 1 160 80 1 100 100;
#X restore 118 820 pd Fez9000_Main_Mixer;
#X obj 101 935 throw~ fez-main-tapeout;
#X obj 897 45 loadbang;
#N canvas 960 18 956 1009 Fez9000_Bass_Line 0;
#X obj 306 312 Bass_Sequencer;
#X floatatom 349 349 5 0 0 0 - - - 0;
#X floatatom 431 262 5 0 0 0 - - - 0;
#X obj 344 281 bng 15 250 50 0 empty empty empty 17 7 0 10 #fcfcfc
#000000 #000000;
#X obj 448 380 bng 15 250 50 0 empty empty empty 17 7 0 10 #fcfcfc
#000000 #000000;
#X obj 321 562 Scaler;
#X floatatom 326 724 5 0 0 0 - - - 0;
#X text 425 754 this shit is loud;
#X obj 204 277 r fez-8th-swing;
#X obj 71 510 r fez-key-change;
#X listbox 71 537 20 0 0 0 - - - 0;
#X obj 375 815 outlet~;
#X obj 376 487 loadbang;
#X msg 387 517 3;
#X obj 115 142 bng 50 250 50 0 empty empty SLAP 55 25 0 50 #fcfcfc
#ff0400 #ff0400;
#X obj 529 336 s fez-led-p2;
#X obj 419 336 expr ($f1+1)*4;
#X obj 76 582 unpack f f;
#X floatatom 80 632 5 0 0 0 - - - 0;
#X obj 80 666 > 5;
#X obj 53 701 sel 0 1;
#X obj 68 823 s \$0-bass-octave;
#X obj 491 510 r \$0-bass-octave;
#X floatatom 497 550 5 0 0 0 - - - 0;
#X obj 375 726 Bass_Voice;
#X floatatom 485 677 5 0 0 0 - - - 0;
#X msg 102 747 2;
#X msg 53 742 3;
#X obj 375 754 *~ 0.4;
#X obj 170 394 s fez-led-p5;
#X obj 177 363 + 1;
#X obj 439 635 Knob_Map fez-k-bass-cutoff 20 600;
#X obj 431 227 Knob_Map fez-k-bass-prob 0 100;
#X connect 0 0 1 0;
#X connect 0 0 30 0;
#X connect 1 0 4 0;
#X connect 1 0 5 0;
#X connect 1 0 16 0;
#X connect 2 0 0 2;
#X connect 2 0 3 0;
#X connect 3 0 0 1;
#X connect 4 0 14 0;
#X connect 4 0 24 1;
#X connect 5 0 6 0;
#X connect 6 0 24 0;
#X connect 8 0 0 0;
#X connect 9 0 10 0;
#X connect 10 0 5 1;
#X connect 10 0 17 0;
#X connect 12 0 13 0;
#X connect 13 0 5 2;
#X connect 16 0 15 0;
#X connect 17 0 18 0;
#X connect 18 0 19 0;
#X connect 19 0 20 0;
#X connect 20 0 27 0;
#X connect 20 1 26 0;
#X connect 22 0 5 2;
#X connect 22 0 23 0;
#X connect 24 0 28 0;
#X connect 25 0 24 2;
#X connect 26 0 21 0;
#X connect 27 0 21 0;
#X connect 28 0 11 0;
#X connect 30 0 29 0;
#X connect 31 0 25 0;
#X connect 32 0 2 0;
#X coords 0 -1 1 1 200 100 1 100 100;
#X restore 333 305 pd Fez9000_Bass_Line;
#X obj 24 513 hip~ 70;
#X obj 1024 57 bng 15 250 50 0 empty empty FEZ9000 17 7 0 100 #fcfcfc
#000000 #000000;
#X text 53 540 stop kicks clashing with bass lines, f 11;
#N canvas 960 18 956 1009 Fez9000_Melody_Line 0;
#X floatatom 304 356 5 0 0 0 - - - 0;
#X floatatom 431 262 5 0 0 0 - - - 0;
#X obj 320 108 bng 15 250 50 0 empty empty empty 17 7 0 10 #fcfcfc
#000000 #000000;
#X obj 453 434 bng 15 250 50 0 empty empty empty 17 7 0 10 #fcfcfc
#000000 #000000;
#X obj 321 562 Scaler;
#X floatatom 321 655 5 0 0 0 - - - 0;
#X text 530 1467 this shit is loud;
#X obj 71 510 r fez-key-change;
#X listbox 71 537 20 0 0 0 - - - 0;
#X obj 459 1473 outlet~;
#X obj 376 487 loadbang;
#X obj 115 142 bng 50 250 50 0 empty empty PLINK 55 25 0 50 #fcfcfc
#ff0400 #ff0400;
#X obj 529 336 s fez-led-p2;
#X obj 419 336 expr ($f1+1)*4;
#X obj 76 582 unpack f f;
#X floatatom 80 632 5 0 0 0 - - - 0;
#X obj 80 666 > 5;
#X obj 53 701 sel 0 1;
#X floatatom 497 550 5 0 0 0 - - - 0;
#X obj 68 823 s \$0-melody-octave;
#X obj 489 511 r \$0-melody-octave;
#X msg 387 517 4;
#X obj 207 701 Dual_Wavetable_Voice;
#X obj 456 1219 AR_LPG;
#X obj 240 314 Bass_Sequencer;
#X floatatom 545 1218 5 0 0 0 - - - 0;
#X obj 263 773 Wave_Folder;
#X obj 400 770 vsl 15 128 0 1 0 0 empty empty empty 0 -9 0 10 #fcfcfc
#000000 #000000 0 1;
#X floatatom 405 913 5 0 0 0 - - - 0;
#X obj 628 736 random 100;
#X floatatom 577 811 5 0 0 0 - - - 0;
#X obj 623 677 bng 15 250 50 0 empty empty empty 17 7 0 10 #fcfcfc
#000000 #000000;
#X obj 571 774 expr 0.3+($f1/100)*0.6;
#X obj 204 277 r fez-beat-num;
#X obj 99 276 Counter 16;
#X obj 59 239 r fez-8th;
#X floatatom 107 312 5 0 0 0 - - - 0;
#X obj 145 234 r fez-2bar;
#X obj 458 1446 *~ 0.5;
#X obj 459 1397 lop~ 5000;
#X obj 382 149 r fez-4bar;
#X msg 53 742 4;
#X msg 102 747 5;
#X obj 623 644 r fez-4th;
#X obj 131 408 + 1;
#X obj 124 439 s fez-led-p4;
#X floatatom 319 521 5 0 0 0 - - - 0;
#X obj 241 440 spigot;
#X floatatom 485 410 5 0 0 0 - - - 0;
#X obj 485 385 Knob_Map fez-k-melody-src 0 10;
#X obj 668 448 > 4;
#X obj 620 451 < 5;
#X obj 435 73 r fez-trig-4;
#X msg 437 97 0;
#X obj 330 412 spigot;
#X obj 555 177 s \$0-mt;
#X obj 314 385 r \$0-mt;
#X obj 527 75 r fez-trig-5;
#X msg 529 99 1;
#X obj 623 73 r fez-trig-6;
#X msg 624 98 2;
#X obj 721 74 r fez-trig-7;
#X msg 722 99 3;
#X obj 819 71 r fez-trig-3;
#X obj 820 97 random 8;
#X obj 430 224 Knob_Map fez-k-melody-prob 0 100;
#X obj 514 1166 Knob_Map fez-k-melody-cutoff 1000 10000;
#X floatatom 627 486 5 0 0 0 - - - 0;
#X obj 485 1106 Knob_Map fez-k-melody-atk 50 500;
#X obj 499 1137 Knob_Map fez-k-melody-rls 50 700;
#X connect 0 0 13 0;
#X connect 0 0 47 0;
#X connect 1 0 2 0;
#X connect 1 0 24 2;
#X connect 2 0 24 1;
#X connect 3 0 11 0;
#X connect 3 0 23 1;
#X connect 4 0 5 0;
#X connect 5 0 22 0;
#X connect 7 0 8 0;
#X connect 8 0 14 0;
#X connect 8 0 4 1;
#X connect 10 0 21 0;
#X connect 13 0 12 0;
#X connect 14 0 15 0;
#X connect 15 0 16 0;
#X connect 16 0 17 0;
#X connect 17 0 41 0;
#X connect 17 1 42 0;
#X connect 20 0 18 0;
#X connect 20 0 4 2;
#X connect 21 0 4 2;
#X connect 22 0 26 0;
#X connect 23 0 39 0;
#X connect 24 0 0 0;
#X connect 26 0 23 0;
#X connect 27 0 28 0;
#X connect 28 0 26 1;
#X connect 29 0 32 0;
#X connect 30 0 27 0;
#X connect 31 0 29 0;
#X connect 32 0 30 0;
#X connect 33 0 24 0;
#X connect 34 0 36 0;
#X connect 34 0 24 0;
#X connect 35 0 34 0;
#X connect 37 0 34 1;
#X connect 38 0 9 0;
#X connect 39 0 38 0;
#X connect 40 0 2 0;
#X connect 41 0 19 0;
#X connect 42 0 19 0;
#X connect 43 0 31 0;
#X connect 44 0 45 0;
#X connect 46 0 44 0;
#X connect 46 0 4 0;
#X connect 47 0 3 0;
#X connect 47 0 46 0;
#X connect 48 0 51 0;
#X connect 48 0 50 0;
#X connect 49 0 48 0;
#X connect 50 0 54 1;
#X connect 51 0 47 1;
#X connect 51 0 67 0;
#X connect 52 0 53 0;
#X connect 53 0 55 0;
#X connect 54 0 3 0;
#X connect 54 0 46 0;
#X connect 56 0 54 0;
#X connect 57 0 58 0;
#X connect 58 0 55 0;
#X connect 59 0 60 0;
#X connect 60 0 55 0;
#X connect 61 0 62 0;
#X connect 62 0 55 0;
#X connect 63 0 64 0;
#X connect 64 0 55 0;
#X connect 65 0 1 0;
#X connect 66 0 23 4;
#X connect 66 0 25 0;
#X connect 68 0 23 2;
#X connect 69 0 23 3;
#X coords 0 -1 1 1 240 100 1 100 100;
#X restore 335 416 pd Fez9000_Melody_Line;
#X obj 324 184 r fez-k-b2-7;
#X floatatom 324 220 5 0 0 0 - - - 0;
#N canvas 960 18 956 1009 Fez9000_Melody_DelayVerb 0;
#X obj 126 50 inlet~;
#X obj 176 282 Rev_Delay;
#X obj 132 393 outlet~;
#X obj 206 137 Knob_Map fez-k-melody-reverb 0 127;
#X obj 214 163 Knob_Map fez-k-delay-vol 0 127;
#X obj 226 190 Knob_Map fez-k-delay-fb 0 127;
#X obj 235 219 Knob_Map fez-k-delay-time 0 127;
#X connect 0 0 1 0;
#X connect 1 0 2 0;
#X connect 3 0 1 1;
#X connect 4 0 1 2;
#X connect 5 0 1 3;
#X connect 6 0 1 4;
#X restore 334 524 pd Fez9000_Melody_DelayVerb;
#N canvas 960 18 956 1009 Fez9000_Fez_O_Gene 0;
#X obj 229 166 bng 30 250 50 0 empty empty empty 17 7 0 10 #fcfcfc
#ff0400 #000000;
#X obj 262 166 bng 30 250 50 0 empty empty empty 17 7 0 10 #ffffff
#00ff04 #000000;
#X obj 295 166 bng 30 250 50 0 empty empty empty 17 7 0 10 #fcfcfc
#0400ff #000000;
#X obj 456 329 outlet~;
#X obj 448 95 catch~ fezogene-out;
#X obj 457 296 hip~ 800;
#X obj 84 290 r fez-key-root;
#X floatatom 84 328 5 0 0 0 - - - 0;
#X floatatom 84 379 5 0 0 0 - - - 0;
#X obj 83 442 s \$0-fezogene-root;
#X text 197 285 transpose in the right direction, f 15;
#X floatatom 451 45 5 0 0 0 - - - 0;
#X obj 84 353 expr if($f1 > 7 \, $f1-12 \, $f1);
#X obj 244 560 Fezogene;
#X obj 12 498 r sample-select;
#X obj 244 607 throw~ fezogene-out;
#X obj 451 70 s sample-select;
#X obj 131 488 r fez-1bar;
#X obj 220 487 r fez-key-root;
#X obj 344 513 r fez-4bar;
#X obj 251 728 Fezogene;
#X obj 19 666 r sample-select;
#X obj 251 775 throw~ fezogene-out;
#X obj 227 655 r fez-key-root;
#X obj 351 681 r fez-4bar;
#X obj 139 656 r fez-2bar;
#X obj 253 906 Fezogene;
#X obj 21 844 r sample-select;
#X obj 254 941 throw~ fezogene-out;
#X obj 140 834 r fez-1bar;
#X obj 229 833 r fez-key-root;
#X obj 353 859 r fez-4bar;
#X obj 107 146 bng 50 250 50 0 empty empty empty 17 7 0 10 #fcfcfc
#0400ff #000000;
#X obj 106 65 r fez-4bar;
#X obj 613 530 Fezogene;
#X obj 381 468 r sample-select;
#X obj 613 577 throw~ fezogene-out;
#X obj 589 457 r fez-key-root;
#X obj 713 483 r fez-4bar;
#X obj 500 458 r fez-half;
#X obj 196 166 bng 30 250 50 0 empty empty empty 17 7 0 10 #fcfcfc
#ff0400 #000000;
#X obj 689 777 Fezogene;
#X obj 457 715 r sample-select;
#X obj 689 824 throw~ fezogene-out;
#X obj 780 702 r fez-key-root;
#X obj 789 730 r fez-4bar;
#X floatatom 541 633 5 0 0 0 - - - 0;
#X obj 541 605 r fez-8th-swing;
#X obj 585 688 bng 15 250 50 0 empty empty empty 17 7 0 10 #fcfcfc
#000000 #000000;
#X obj 163 166 bng 30 250 50 0 empty empty empty 17 7 0 10 #ffffff
#00ff04 #000000;
#X obj 542 658 sel 1 5 13;
#X obj 453 232 clip~ -1 1;
#X obj 695 985 Fezogene;
#X obj 463 923 r sample-select;
#X obj 695 1032 throw~ fezogene-out;
#X obj 786 910 r fez-key-root;
#X obj 795 938 r fez-4bar;
#X floatatom 547 841 5 0 0 0 - - - 0;
#X obj 547 813 r fez-8th-swing;
#X obj 591 896 bng 15 250 50 0 empty empty empty 17 7 0 10 #fcfcfc
#000000 #000000;
#X obj 548 866 sel 3 9 11;
#X obj 328 166 bng 30 250 50 0 empty empty empty 17 7 0 10 #ffffff
#00ff04 #000000;
#X text 165 145 grains;
#X obj 84 410 - 12;
#X obj 456 267 lop~ 5000;
#X obj 449 196 *~ 0.3;
#X floatatom 717 181 5 0 0 0 - - - 0;
#X obj 900 219 > 4;
#X obj 852 222 < 5;
#X obj 717 156 Knob_Map fez-k-grain-src 0 10;
#X obj 595 97 catch~ fezogene-trig-out;
#X obj 444 142 *~;
#X obj 515 145 *~;
#X floatatom 824 258 5 0 0 0 - - - 0;
#X floatatom 882 258 5 0 0 0 - - - 0;
#X obj 294 1149 Fezogene;
#X obj 22 1106 r sample-select;
#X obj 385 1074 r fez-key-root;
#X obj 315 980 r fez-trig-2;
#X obj 315 1009 t b b;
#X obj 294 1196 throw~ fezogene-trig-out;
#X obj 222 1042 random 2;
#X obj 256 1081 sel 0;
#X floatatom 177 1074 5 0 0 0 - - - 0;
#X obj 451 14 Knob_Map fez-k-grain-sample 0 5;
#X obj 518 177 *~ 0.8;
#X obj 362 166 bng 30 250 50 0 empty empty empty 17 7 0 10 #ffffff
#00ff04 #000000;
#X connect 4 0 71 0;
#X connect 5 0 3 0;
#X connect 6 0 7 0;
#X connect 7 0 12 0;
#X connect 8 0 63 0;
#X connect 11 0 16 0;
#X connect 12 0 8 0;
#X connect 13 0 15 0;
#X connect 13 1 0 0;
#X connect 14 0 13 0;
#X connect 17 0 13 1;
#X connect 18 0 13 3;
#X connect 19 0 13 4;
#X connect 20 0 22 0;
#X connect 20 1 1 0;
#X connect 21 0 20 0;
#X connect 23 0 20 3;
#X connect 24 0 20 4;
#X connect 25 0 20 1;
#X connect 26 0 28 0;
#X connect 26 1 2 0;
#X connect 27 0 26 0;
#X connect 29 0 26 2;
#X connect 30 0 26 3;
#X connect 31 0 26 4;
#X connect 33 0 32 0;
#X connect 34 0 36 0;
#X connect 34 1 40 0;
#X connect 35 0 34 0;
#X connect 37 0 34 3;
#X connect 38 0 34 4;
#X connect 39 0 34 1;
#X connect 41 0 43 0;
#X connect 41 1 49 0;
#X connect 42 0 41 0;
#X connect 44 0 41 3;
#X connect 45 0 41 4;
#X connect 46 0 50 0;
#X connect 47 0 46 0;
#X connect 48 0 41 2;
#X connect 50 0 48 0;
#X connect 50 1 48 0;
#X connect 50 2 48 0;
#X connect 51 0 64 0;
#X connect 52 0 54 0;
#X connect 53 0 52 0;
#X connect 55 0 52 3;
#X connect 56 0 52 4;
#X connect 57 0 60 0;
#X connect 58 0 57 0;
#X connect 59 0 61 0;
#X connect 59 0 52 2;
#X connect 60 0 59 0;
#X connect 60 1 59 0;
#X connect 60 2 59 0;
#X connect 63 0 9 0;
#X connect 64 0 5 0;
#X connect 65 0 51 0;
#X connect 66 0 68 0;
#X connect 66 0 67 0;
#X connect 67 0 72 1;
#X connect 67 0 74 0;
#X connect 68 0 71 1;
#X connect 68 0 73 0;
#X connect 69 0 66 0;
#X connect 70 0 72 0;
#X connect 71 0 65 0;
#X connect 72 0 85 0;
#X connect 75 0 80 0;
#X connect 76 0 75 0;
#X connect 77 0 75 3;
#X connect 78 0 79 0;
#X connect 78 0 86 0;
#X connect 79 0 81 0;
#X connect 79 1 75 4;
#X connect 81 0 82 0;
#X connect 81 0 83 0;
#X connect 82 0 75 2;
#X connect 82 1 75 1;
#X connect 84 0 11 0;
#X connect 85 0 51 0;
#X coords 0 -1 1 1 300 100 1 100 100;
#X restore 336 560 pd Fez9000_Fez_O_Gene;
#N canvas 960 18 956 1009 Knob_Router 1;
#X obj 312 40 r fez-k-b1-3;
#X obj 312 65 s fez-k-tempo;
#X obj 447 35 r fez-k-b1-4;
#X obj 447 60 s fez-k-keychange;
#X obj 313 103 r fez-k-b1-7;
#X obj 313 128 s fez-k-drumloop;
#X obj 20 36 r fez-k-b1-1;
#X obj 20 61 s fez-k-mix-beats;
#X obj 155 37 r fez-k-b1-2;
#X obj 155 62 s fez-k-mix-hits;
#X obj 20 90 r fez-k-b1-5;
#X obj 155 91 r fez-k-b1-6;
#X obj 19 144 r fez-k-b1-9;
#X obj 154 145 r fez-k-b1-10;
#X obj 20 115 s fez-k-mix-melody;
#X obj 155 116 s fez-k-mix-grains;
#X obj 19 169 s fez-k-mix-bass;
#X obj 154 170 s fez-k-mix-foley;
#X obj 448 100 r fez-k-b1-8;
#X obj 448 125 s fez-k-randomkick;
#X obj 314 153 r fez-k-b1-11;
#X obj 314 178 s fez-k-melody-src;
#X obj 22 368 s fez-k-bass-prob;
#X obj 164 367 s fez-k-bass-cutoff;
#X obj 178 263 s fez-k-melody-cutoff;
#X obj 21 264 s fez-k-melody-prob;
#X obj 338 264 s fez-k-melody-atk;
#X obj 493 263 s fez-k-melody-rls;
#X obj 21 239 r fez-k-b2-1;
#X obj 178 240 r fez-k-b2-2;
#X obj 338 239 r fez-k-b2-3;
#X obj 492 236 r fez-k-b2-4;
#X obj 22 343 r fez-k-b2-9;
#X obj 164 344 r fez-k-b2-10;
#X obj 21 290 r fez-k-b2-5;
#X obj 178 291 r fez-k-b2-6;
#X obj 338 290 r fez-k-b2-7;
#X obj 493 292 r fez-k-b2-8;
#X obj 21 315 s fez-k-melody-reverb;
#X obj 178 313 s fez-k-delay-vol;
#X obj 338 315 s fez-k-delay-fb;
#X obj 493 314 s fez-k-delay-time;
#X floatatom 274 204 5 0 0 0 - - - 0;
#X floatatom 456 220 5 0 0 0 - - - 0;
#X obj 21 487 s fez-k-grain-reverb;
#X obj 178 485 s fez-k-grain-vol;
#X obj 338 487 s fez-k-grain-fb;
#X obj 493 486 s fez-k-grain-time;
#X obj 21 463 r fez-k-b3-5;
#X obj 179 463 r fez-k-b3-6;
#X obj 338 462 r fez-k-b3-7;
#X obj 493 464 r fez-k-b3-8;
#X obj 448 155 r fez-k-b1-12;
#X obj 448 180 s fez-k-grain-src;
#X obj 19 414 r fez-k-b3-1;
#X obj 19 438 s fez-k-grain-sample;
#X connect 0 0 1 0;
#X connect 2 0 3 0;
#X connect 4 0 5 0;
#X connect 6 0 7 0;
#X connect 8 0 9 0;
#X connect 10 0 14 0;
#X connect 11 0 15 0;
#X connect 12 0 16 0;
#X connect 13 0 17 0;
#X connect 18 0 19 0;
#X connect 20 0 21 0;
#X connect 20 0 42 0;
#X connect 28 0 25 0;
#X connect 29 0 24 0;
#X connect 30 0 26 0;
#X connect 31 0 27 0;
#X connect 31 0 43 0;
#X connect 32 0 22 0;
#X connect 33 0 23 0;
#X connect 34 0 38 0;
#X connect 35 0 39 0;
#X connect 36 0 40 0;
#X connect 37 0 41 0;
#X connect 48 0 44 0;
#X connect 49 0 45 0;
#X connect 50 0 46 0;
#X connect 51 0 47 0;
#X connect 52 0 53 0;
#X connect 54 0 55 0;
#X restore 720 326 pd Knob_Router;
#X obj 24 320 Knob_Map fez-k-drumloop 0 12;
#X obj 210 361 r fez-trig-0;
#X obj 235 390 r fez-trig-1;
#N canvas 960 18 956 1009 Fez9000_Grain_DelayVerb 0;
#X obj 126 50 inlet~;
#X obj 176 282 Rev_Delay;
#X obj 132 393 outlet~;
#X obj 206 137 Knob_Map fez-k-grain-reverb 0 127;
#X obj 212 166 Knob_Map fez-k-grain-vol 0 127;
#X obj 226 191 Knob_Map fez-k-grain-fb 0 127;
#X obj 235 219 Knob_Map fez-k-grain-time 0 127;
#X connect 0 0 1 0;
#X connect 1 0 2 0;
#X connect 3 0 1 1;
#X connect 4 0 1 2;
#X connect 5 0 1 3;
#X connect 6 0 1 4;
#X restore 337 703 pd Fez9000_Grain_DelayVerb;
#X connect 6 0 24 0;
#X connect 6 1 20 1;
#X connect 7 0 6 1;
#X connect 8 0 6 2;
#X connect 9 0 10 0;
#X connect 11 0 10 1;
#X connect 12 0 9 0;
#X connect 13 0 11 0;
#X connect 14 0 9 0;
#X connect 14 0 11 0;
#X connect 16 0 17 0;
#X connect 17 0 18 0;
#X connect 19 0 17 1;
#X connect 20 0 21 0;
#X connect 22 0 19 0;
#X connect 23 0 20 2;
#X connect 24 0 20 0;
#X connect 27 0 30 0;
#X connect 28 0 29 0;
#X connect 30 0 20 3;
#X connect 31 0 36 0;
#X connect 33 0 6 0;
#X connect 33 0 15 0;
#X connect 34 0 6 4;
#X connect 36 0 20 4;
