#N canvas 787 273 893 561 12;
#X obj 18 19 inlet;
#X obj 65 483 outlet~;
#X text 17 0 trigger/bang;
#X obj 129 19 inlet;
#X text 128 0 attack time;
#X obj 453 21 inlet;
#X text 452 2 release time;
#X obj 332 19 inlet;
#X text 331 0 sustain level;
#X obj 215 19 inlet;
#X text 214 0 sustain time;
#X obj 138 137 f;
#X floatatom 129 43 5 0 0 0 - - - 0;
#X floatatom 215 43 5 0 0 0 - - - 0;
#X floatatom 332 43 5 0 0 0 - - - 0;
#X floatatom 453 45 5 0 0 0 - - - 0;
#X obj 22 56 bng 15 250 50 0 empty empty empty 17 7 0 10 #fcfcfc #000000
#000000;
#X obj 140 183 pack f f;
#X obj 219 184 delay;
#X obj 349 145 f;
#X obj 217 146 f;
#X msg 314 242 0 \$1;
#X obj 177 351 pow~ 2;
#X obj 147 284 vline~;
#X msg 142 244 0 10 \, \$1 \$2;
#X obj 232 110 +;
#X connect 0 0 11 0;
#X connect 0 0 16 0;
#X connect 3 0 12 0;
#X connect 5 0 15 0;
#X connect 7 0 14 0;
#X connect 9 0 13 0;
#X connect 11 0 17 0;
#X connect 12 0 17 1;
#X connect 12 0 25 0;
#X connect 13 0 25 1;
#X connect 14 0 11 1;
#X connect 15 0 19 1;
#X connect 16 0 20 0;
#X connect 17 0 24 0;
#X connect 18 0 19 0;
#X connect 19 0 21 0;
#X connect 20 0 18 0;
#X connect 21 0 23 0;
#X connect 22 0 1 0;
#X connect 23 0 22 0;
#X connect 24 0 23 0;
#X connect 25 0 20 1;
