#N canvas 0 115 623 604 12;
#X obj 40 30 inlet~;
#X obj 36 544 outlet~;
#X obj 311 81 inlet;
#X obj 372 83 inlet;
#X obj 86 99 delwrite~ \$0-d 4000;
#X obj 297 55 s \$0-dt;
#X obj 358 55 s \$0-dl;
#X obj 124 432 delread~ \$0-d 500;
#X obj 246 79 inlet;
#X obj 233 55 s \$0-dv;
#X obj 124 510 *~;
#X obj 142 474 r \$0-dv;
#X msg 233 27 0.2;
#X msg 297 26 250;
#X msg 358 28 0.5;
#X obj 233 4 bng 15 250 50 0 empty empty empty 17 7 0 10 #fcfcfc #000000
#000000;
#X obj 164 5 loadbang;
#X floatatom 156 509 5 0 0 0 - - - 0;
#X obj 124 395 r \$0-dt;
#X obj 258 434 *~;
#X obj 259 409 r \$0-dl;
#X floatatom 289 434 5 0 0 0 - - - 0;
#X connect 0 0 4 0;
#X connect 0 0 1 0;
#X connect 2 0 5 0;
#X connect 3 0 6 0;
#X connect 7 0 10 0;
#X connect 7 0 19 0;
#X connect 8 0 9 0;
#X connect 10 0 1 0;
#X connect 11 0 10 1;
#X connect 11 0 17 0;
#X connect 12 0 9 0;
#X connect 13 0 5 0;
#X connect 14 0 6 0;
#X connect 15 0 12 0;
#X connect 15 0 13 0;
#X connect 15 0 14 0;
#X connect 16 0 15 0;
#X connect 18 0 7 0;
#X connect 19 0 4 0;
#X connect 20 0 19 1;
#X connect 20 0 21 0;
