#N canvas 0 25 1363 899 12;
#N canvas 216 25 1303 899 Key_Set 0;
#X floatatom 319 262 5 0 0 0 - - - 0;
#X obj 261 313 / 12;
#X floatatom 261 377 5 0 0 0 maj/min - - 0;
#X obj 369 312 % 12;
#X floatatom 369 381 5 0 0 0 root - - 0;
#X obj 261 349 int;
#X obj 247 503 list append;
#X obj 243 449 f;
#X obj 352 458 t f b;
#X obj 247 577 list;
#X msg 285 195 0;
#X obj 271 156 loadbang;
#X obj 469 319 * 16;
#X obj 470 355 +;
#X floatatom 508 320 5 0 0 0 - - - 0;
#X obj 504 354 s fez-led-p1;
#X obj 85 552 spigot;
#X obj 124 524 tgl 15 0 empty empty empty 17 7 0 10 #fcfcfc #000000
#000000 0 1;
#X obj 85 593 t b b;
#X msg 176 526 1;
#X obj 176 503 bng 15 250 50 0 empty empty empty 17 7 0 10 #fcfcfc
#000000 #000000;
#X msg 44 522 0;
#X obj 44 503 bng 15 250 50 0 empty empty empty 17 7 0 10 #fcfcfc #000000
#000000;
#X text 74 339 this madness is so we only send a new key when one has
actually changed and not every bar, f 13;
#X obj 247 633 s fez-key-change;
#X obj 85 492 r fez-4bar;
#X obj 381 409 s \$0-root;
#X obj 271 410 s \$0-mode;
#X obj 357 685 r \$0-root;
#X obj 358 718 sel 0 1 2 3 4 5 6 7 8 9 10 11;
#X obj 35 6 r \$0-mode;
#X obj 35 31 sel 0;
#X symbolatom 175 139 10 0 0 0 - - - 0;
#X msg 9 74 symbol major;
#X msg 111 73 symbol minor;
#X msg 24 809 symbol c;
#X msg 95 809 symbol c#;
#X msg 173 808 symbol d;
#X msg 245 807 symbol eb;
#X msg 322 807 symbol e;
#X msg 392 807 symbol f;
#X msg 463 807 symbol f#;
#X msg 543 807 symbol g;
#X msg 615 807 symbol ab;
#X msg 692 807 symbol a;
#X msg 762 807 symbol bb;
#X msg 840 807 symbol b;
#X obj 297 871 s \$0-key-name;
#X symbolatom 131 138 5 0 0 0 - - - 0;
#X obj 217 75 r \$0-key-name;
#X listbox 188 117 8 0 0 0 - - - 0;
#X obj 224 26 r fez-key-change;
#X obj 150 119 tgl 15 0 empty empty empty 17 7 0 10 #fcfcfc #000000
#000000 0 1;
#X obj 130 119 bng 15 250 50 0 empty empty empty 17 7 0 10 #fcfcfc
#000000 #000000;
#X obj 115 651 unpack f f;
#X obj 112 700 s fez-key-root;
#X obj 360 213 Knob_Map fez-k-keychange 0 23;
#X obj 387 101 inlet;
#X obj 223 191 t b b;
#X connect 0 0 1 0;
#X connect 0 0 3 0;
#X connect 0 0 20 0;
#X connect 1 0 5 0;
#X connect 2 0 7 1;
#X connect 2 0 27 0;
#X connect 3 0 4 0;
#X connect 3 0 13 0;
#X connect 4 0 8 0;
#X connect 4 0 26 0;
#X connect 5 0 2 0;
#X connect 5 0 12 0;
#X connect 6 0 9 1;
#X connect 7 0 6 1;
#X connect 8 0 6 0;
#X connect 8 1 7 0;
#X connect 9 0 24 0;
#X connect 9 0 54 0;
#X connect 10 0 0 0;
#X connect 11 0 58 0;
#X connect 12 0 13 1;
#X connect 13 0 14 0;
#X connect 14 0 15 0;
#X connect 16 0 18 0;
#X connect 16 0 53 0;
#X connect 17 0 16 1;
#X connect 17 0 52 0;
#X connect 18 0 22 0;
#X connect 18 1 9 0;
#X connect 19 0 17 0;
#X connect 20 0 19 0;
#X connect 21 0 17 0;
#X connect 22 0 21 0;
#X connect 25 0 16 0;
#X connect 28 0 29 0;
#X connect 29 0 35 0;
#X connect 29 1 36 0;
#X connect 29 2 37 0;
#X connect 29 3 38 0;
#X connect 29 4 39 0;
#X connect 29 5 40 0;
#X connect 29 6 41 0;
#X connect 29 7 42 0;
#X connect 29 8 43 0;
#X connect 29 9 44 0;
#X connect 29 10 45 0;
#X connect 29 11 46 0;
#X connect 30 0 31 0;
#X connect 31 0 33 0;
#X connect 31 1 34 0;
#X connect 33 0 32 0;
#X connect 34 0 32 0;
#X connect 35 0 47 0;
#X connect 36 0 47 0;
#X connect 37 0 47 0;
#X connect 38 0 47 0;
#X connect 39 0 47 0;
#X connect 40 0 47 0;
#X connect 41 0 47 0;
#X connect 42 0 47 0;
#X connect 43 0 47 0;
#X connect 44 0 47 0;
#X connect 45 0 47 0;
#X connect 46 0 47 0;
#X connect 49 0 48 0;
#X connect 51 0 50 0;
#X connect 54 0 55 0;
#X connect 56 0 0 0;
#X connect 57 0 0 0;
#X connect 58 0 9 0;
#X connect 58 1 10 0;
#X coords 0 -1 1 1 150 60 1 100 100;
#X restore 27 47 pd Key_Set;
#N canvas 549 25 636 899 Main_Clock 0;
#X obj 117 137 Multi_Clock;
#X floatatom 195 114 5 0 0 0 bpm\ set\ to - - 0;
#X text 467 9 these bpms are the sweet spot for fez, f 19;
#X obj 117 494 s fez-beat-time;
#X obj 288 285 s fez-8th-swing;
#X obj 310 261 s fez-beat-num;
#X obj 338 237 s fez-led-bn;
#X obj 144 242 bng 15 250 50 0 empty empty empty 17 7 0 10 #fcfcfc
#000000 #000000;
#X obj 167 242 bng 15 250 50 0 empty empty empty 17 7 0 10 #fcfcfc
#000000 #000000;
#X obj 188 242 bng 15 250 50 0 empty empty empty 17 7 0 10 #fcfcfc
#000000 #000000;
#X obj 209 242 bng 15 250 50 0 empty empty empty 17 7 0 10 #fcfcfc
#000000 #000000;
#X obj 230 242 bng 15 250 50 0 empty empty empty 17 7 0 10 #fcfcfc
#000000 #000000;
#X obj 252 242 bng 15 250 50 0 empty empty empty 17 7 0 10 #fcfcfc
#000000 #000000;
#X obj 273 242 bng 15 250 50 0 empty empty empty 17 7 0 10 #fcfcfc
#000000 #000000;
#X obj 296 241 bng 15 250 50 0 empty empty empty 17 7 0 10 #fcfcfc
#000000 #000000;
#X obj 635 96 tgl 15 0 empty empty empty 17 7 0 10 #fcfcfc #000000
#000000 0 1;
#X obj 635 73 loadbang;
#X obj 515 107 bng 15 250 50 0 empty empty empty 17 7 0 10 #fcfcfc
#000000 #000000;
#X obj 470 143 Dedup;
#X obj 471 170 bng 15 250 50 0 empty empty empty 17 7 0 10 #fcfcfc
#000000 #000000;
#X obj 635 113 metro 2000;
#X obj 470 104 f 80;
#X floatatom 102 239 5 0 0 0 - - - 0;
#X obj 138 463 s fez-16th;
#X obj 159 434 s fez-8th;
#X obj 181 409 s fez-4th;
#X obj 202 386 s fez-half;
#X obj 224 360 s fez-1bar;
#X obj 245 335 s fez-2bar;
#X obj 267 310 s fez-4bar;
#X obj 470 47 Knob_Map fez-k-tempo 78 90;
#X obj 354 465 r fez-4bar;
#X obj 354 489 Counter 4;
#X floatatom 354 513 5 0 0 0 - - - 0;
#X obj 355 542 == 0;
#X floatatom 355 566 5 0 0 0 - - - 0;
#X obj 355 595 sel 1;
#X obj 355 628 s fez-16bar;
#X connect 0 0 3 0;
#X connect 0 1 7 0;
#X connect 0 1 23 0;
#X connect 0 2 8 0;
#X connect 0 2 24 0;
#X connect 0 3 9 0;
#X connect 0 3 25 0;
#X connect 0 4 10 0;
#X connect 0 4 26 0;
#X connect 0 5 11 0;
#X connect 0 5 27 0;
#X connect 0 6 12 0;
#X connect 0 6 28 0;
#X connect 0 7 13 0;
#X connect 0 7 29 0;
#X connect 0 8 4 0;
#X connect 0 8 14 0;
#X connect 0 9 5 0;
#X connect 0 9 6 0;
#X connect 0 9 22 0;
#X connect 1 0 21 1;
#X connect 15 0 20 0;
#X connect 16 0 15 0;
#X connect 17 0 21 0;
#X connect 18 0 0 1;
#X connect 18 0 19 0;
#X connect 20 0 17 0;
#X connect 21 0 18 0;
#X connect 30 0 1 0;
#X connect 31 0 32 0;
#X connect 32 0 33 0;
#X connect 33 0 34 0;
#X connect 34 0 35 0;
#X connect 35 0 36 0;
#X connect 36 0 37 0;
#X coords 0 -1 1 1 220 160 1 100 100;
#X restore 332 6 pd Main_Clock;
#X obj 563 107 clip~ -1 1;
#X obj 563 145 dac~;
#X obj 644 107 clip~ -1 1;
#X obj 563 69 catch~ fez-main-l;
#X obj 697 70 catch~ fez-main-r;
#X obj 562 22 catch~ fez-main-mono;
#X obj 831 10 catch~ fez-main-tapeout;
#X obj 832 205 Tapeish;
#X obj 831 245 throw~ fez-main-mono;
#X obj 879 184 tgl 15 0 empty empty empty 17 7 0 10 #fcfcfc #000000
#000000 0 1;
#X obj 155 805 throw~ fez-main-tapeout;
#X obj 898 180 loadbang;
#N canvas 724 25 956 902 Knob_Router 0;
#X obj 312 40 r fez-k-b1-3;
#X obj 312 65 s fez-k-tempo;
#X obj 447 35 r fez-k-b1-4;
#X obj 447 60 s fez-k-keychange;
#X obj 313 103 r fez-k-b1-7;
#X obj 313 128 s fez-k-drumloop;
#X obj 20 36 r fez-k-b1-1;
#X obj 20 61 s fez-k-mix-beats;
#X obj 155 37 r fez-k-b1-2;
#X obj 155 62 s fez-k-mix-hits;
#X obj 20 90 r fez-k-b1-5;
#X obj 155 91 r fez-k-b1-6;
#X obj 19 144 r fez-k-b1-9;
#X obj 154 145 r fez-k-b1-10;
#X obj 20 115 s fez-k-mix-melody;
#X obj 155 116 s fez-k-mix-grains;
#X obj 19 169 s fez-k-mix-bass;
#X obj 154 170 s fez-k-mix-foley;
#X obj 448 100 r fez-k-b1-8;
#X obj 448 125 s fez-k-randomkick;
#X obj 314 153 r fez-k-b1-11;
#X obj 314 178 s fez-k-melody-src;
#X obj 22 368 s fez-k-bass-prob;
#X obj 164 367 s fez-k-bass-cutoff;
#X obj 178 263 s fez-k-melody-cutoff;
#X obj 21 264 s fez-k-melody-prob;
#X obj 338 264 s fez-k-melody-atk;
#X obj 493 263 s fez-k-melody-rls;
#X obj 21 239 r fez-k-b2-1;
#X obj 178 240 r fez-k-b2-2;
#X obj 338 239 r fez-k-b2-3;
#X obj 492 236 r fez-k-b2-4;
#X obj 22 343 r fez-k-b2-9;
#X obj 164 344 r fez-k-b2-10;
#X obj 21 290 r fez-k-b2-5;
#X obj 178 291 r fez-k-b2-6;
#X obj 338 290 r fez-k-b2-7;
#X obj 493 292 r fez-k-b2-8;
#X obj 21 315 s fez-k-melody-reverb;
#X obj 178 313 s fez-k-delay-vol;
#X obj 338 315 s fez-k-delay-fb;
#X obj 493 314 s fez-k-delay-time;
#X floatatom 274 204 5 0 0 0 - - - 0;
#X floatatom 456 220 5 0 0 0 - - - 0;
#X obj 21 487 s fez-k-grain-reverb;
#X obj 178 485 s fez-k-grain-vol;
#X obj 338 487 s fez-k-grain-fb;
#X obj 493 486 s fez-k-grain-time;
#X obj 21 463 r fez-k-b3-5;
#X obj 179 463 r fez-k-b3-6;
#X obj 338 462 r fez-k-b3-7;
#X obj 493 464 r fez-k-b3-8;
#X obj 448 155 r fez-k-b1-12;
#X obj 448 180 s fez-k-grain-src;
#X obj 19 414 r fez-k-b3-1;
#X obj 19 438 s fez-k-grain-sample;
#X connect 0 0 1 0;
#X connect 2 0 3 0;
#X connect 4 0 5 0;
#X connect 6 0 7 0;
#X connect 8 0 9 0;
#X connect 10 0 14 0;
#X connect 11 0 15 0;
#X connect 12 0 16 0;
#X connect 13 0 17 0;
#X connect 18 0 19 0;
#X connect 20 0 21 0;
#X connect 20 0 42 0;
#X connect 28 0 25 0;
#X connect 29 0 24 0;
#X connect 30 0 26 0;
#X connect 31 0 27 0;
#X connect 31 0 43 0;
#X connect 32 0 22 0;
#X connect 33 0 23 0;
#X connect 34 0 38 0;
#X connect 35 0 39 0;
#X connect 36 0 40 0;
#X connect 37 0 41 0;
#X connect 48 0 44 0;
#X connect 49 0 45 0;
#X connect 50 0 46 0;
#X connect 51 0 47 0;
#X connect 52 0 53 0;
#X connect 54 0 55 0;
#X restore 1026 10 pd Knob_Router;
#X obj 355 191 hsl 400 40 0 1 0 0 fez-r-i empty intensity -2 -8 0 10
#00faff #ff0400 #000000 0 1;
#X floatatom 352 244 5 0 0 0 - - - 24;
#X obj 284 193 bng 40 250 50 0 fez-r-s empty shuffle 17 7 0 10 #fcfcfc
#000000 #000000;
#N canvas 432 25 1248 899 RagaArps 0;
#X obj 132 259 r fez-key-change;
#X obj 168 326 Scaler;
#X floatatom 168 410 5 0 0 0 - - - 0;
#X obj 269 275 loadbang;
#X obj 69 566 Fez9000-VCO;
#X obj 11 955 outlet~;
#X obj 163 497 hsl 128 15 0 127 0 0 empty empty gain -2 -8 0 10 #fcfcfc
#000000 #000000 0 1;
#X obj 162 530 hsl 128 15 0 127 0 0 empty empty waveform -2 -8 0 10
#fcfcfc #000000 #000000 0 1;
#X obj 161 567 hsl 128 15 0 127 0 0 empty empty noise -2 -8 0 10 #fcfcfc
#000000 #000000 0 1;
#X obj 68 519 mtof;
#X obj 48 194 Bass_Sequencer;
#X obj 98 103 Counter 16;
#X floatatom 100 137 5 0 0 0 - - - 0;
#X obj 97 60 r fez-1bar;
#X floatatom 47 222 5 0 0 0 - - - 0;
#X obj 28 331 bng 15 250 50 0 empty empty empty 17 7 0 10 #fcfcfc #000000
#000000;
#X obj 248 132 r fez-r-i;
#X floatatom 249 224 5 0 0 0 - - - 0;
#X obj 98 170 r fez-r-s;
#X obj 69 626 *~;
#X obj 191 652 Fez9000-ENV;
#X obj 324 638 hsl 127 15 0 127 0 0 empty empty atk -2 -8 0 10 #fcfcfc
#000000 #000000 0 1;
#X obj 462 638 hsl 128 15 0 5000 0 0 empty empty sustainT -2 -8 0 10
#fcfcfc #000000 #000000 0 1;
#X obj 600 638 hsl 128 15 0 1 0 0 empty empty sustainL -2 -8 0 10 #fcfcfc
#000000 #000000 0 1;
#X obj 747 638 hsl 128 15 0 5000 0 0 empty empty release -2 -8 0 10
#fcfcfc #000000 #000000 0 1;
#X obj 68 769 Fez9000-Delay;
#X obj 206 734 hsl 128 15 0 1 0 0 empty empty delay\\\ vol -2 -8 0
10 #fcfcfc #000000 #000000 0 1;
#X obj 354 773 hsl 128 15 0 5000 0 0 empty empty delay\\\ time -2 -8
0 10 #fcfcfc #000000 #000000 0 1;
#X obj 507 773 hsl 128 15 0 1 0 0 empty empty feedback -2 -8 0 10 #fcfcfc
#000000 #000000 0 1;
#X obj 350 706 r fez-beat-time;
#X floatatom 464 706 5 0 0 0 - - - 0;
#X obj 464 729 * 1.5;
#X floatatom 504 793 5 0 0 0 - - - 0;
#X floatatom 351 793 5 0 0 0 - - - 0;
#X floatatom 202 795 5 0 0 0 - - - 0;
#X obj 1005 89 loadbang;
#X obj 1004 146 bng 15 250 50 0 empty empty empty 17 7 0 10 #fcfcfc
#000000 #000000;
#X msg 623 587 0.5;
#X obj 590 470 loadbang;
#X obj 592 516 bng 15 250 50 0 empty empty empty 17 7 0 10 #fcfcfc
#000000 #000000;
#X floatatom 328 674 5 0 0 0 - - - 0;
#X obj 434 474 r fez-r-s;
#X obj 764 464 r fez-r-s;
#X obj 794 567 r fez-beat-time;
#X obj 760 593 *;
#X obj 764 512 * 0.01;
#X floatatom 726 567 5 0 0 0 - - - 0;
#X floatatom 800 593 5 0 0 0 - - - 0;
#X floatatom 904 607 5 0 0 0 - - - 0;
#X obj 277 85 bng 15 250 50 0 empty empty empty 17 7 0 10 #fcfcfc #000000
#000000;
#X obj 347 385 random 20;
#X obj 350 321 random 20;
#X obj 436 254 r fez-r-s;
#X obj 344 440 random 40;
#X obj 389 143 loadbang;
#X msg 389 167 0;
#X obj 28 293 spigot;
#X obj 46 260 r \$0-ra-co;
#X obj 744 284 s \$0-ra-co;
#X msg 704 283 1;
#X obj 629 285 loadbang;
#X floatatom 830 149 5 0 0 0 - - - 0;
#X obj 773 95 r fez-1bar;
#X obj 747 147 random 100;
#X obj 745 224 < 80;
#X msg 1076 199 0.33;
#X obj 70 844 rev1~;
#X obj 130 844 loadbang;
#X obj 451 347 r fez-r-i;
#X floatatom 451 422 5 0 0 0 - - - 0;
#X floatatom 368 413 5 0 0 0 - - - 0;
#X obj 67 711 lop~ 2000;
#X obj 451 389 expr 40+($f1 * 60);
#X obj 429 533 + 5;
#X obj 764 488 random 50;
#X obj 570 731 r \$0-ra-fb;
#X obj 202 694 r \$0-ra-dv;
#X obj 1077 236 s \$0-ra-fb;
#X obj 424 95 r fez-16th;
#X obj 11 79 r \$0-ra-clk;
#X obj 487 127 spigot;
#X obj 543 127 spigot;
#X obj 487 161 s \$0-ra-clk;
#X obj 567 94 r fez-8th;
#X obj 501 9 r fez-r-i;
#X obj 479 42 > 0.39;
#X obj 580 41 < 0.4;
#X msg 270 299 5;
#X obj 412 254 bng 15 250 50 0 empty empty empty 17 7 0 10 #fcfcfc
#000000 #000000;
#X obj 414 477 bng 15 250 50 0 empty empty empty 17 7 0 10 #fcfcfc
#000000 #000000;
#X obj 1020 427 Counter 4;
#X obj 1020 460 == 3;
#X obj 1020 398 r fez-4bar;
#X obj 1020 489 sel 1;
#X obj 1020 520 s \$0-ra-cu;
#X obj 507 474 r \$0-ra-cu;
#X obj 438 228 r \$0-ra-cu;
#X obj 1065 490 bng 15 250 50 0 empty empty empty 17 7 0 10 #fcfcfc
#000000 #000000;
#X obj 277 59 r fez-16bar;
#X obj 67 664 *~ 0.3;
#X obj 956 310 s \$0-ra-dv;
#X msg 952 203 0.2;
#X obj 13 924 Fez9000-Fade-InOut;
#X obj 170 925 tgl 15 0 empty empty empty 17 7 0 10 #fcfcfc #000000
#000000 0 1;
#X obj 270 924 r fez-r-i;
#X msg 86 818 20;
#X obj 429 509 random 20;
#X obj 764 536 + 0.2;
#X obj 252 163 pow 2;
#X obj 249 200 expr ($f1*90)+10;
#X obj 218 925 > 0.15;
#X connect 0 0 1 1;
#X connect 1 0 2 0;
#X connect 2 0 9 0;
#X connect 3 0 87 0;
#X connect 4 0 19 0;
#X connect 6 0 4 1;
#X connect 7 0 4 2;
#X connect 8 0 4 3;
#X connect 9 0 4 0;
#X connect 10 0 14 0;
#X connect 11 0 12 0;
#X connect 12 0 10 0;
#X connect 13 0 11 1;
#X connect 14 0 1 0;
#X connect 14 0 56 0;
#X connect 15 0 20 0;
#X connect 16 0 108 0;
#X connect 17 0 10 2;
#X connect 18 0 10 1;
#X connect 19 0 99 0;
#X connect 20 0 19 1;
#X connect 21 0 20 1;
#X connect 21 0 40 0;
#X connect 22 0 20 2;
#X connect 23 0 20 3;
#X connect 24 0 20 4;
#X connect 25 0 66 0;
#X connect 26 0 25 1;
#X connect 26 0 34 0;
#X connect 27 0 25 2;
#X connect 27 0 33 0;
#X connect 28 0 25 3;
#X connect 28 0 32 0;
#X connect 29 0 30 0;
#X connect 30 0 31 0;
#X connect 31 0 27 0;
#X connect 35 0 36 0;
#X connect 36 0 101 0;
#X connect 36 0 65 0;
#X connect 37 0 23 0;
#X connect 38 0 39 0;
#X connect 39 0 37 0;
#X connect 41 0 89 0;
#X connect 42 0 74 0;
#X connect 43 0 44 1;
#X connect 43 0 47 0;
#X connect 44 0 24 0;
#X connect 44 0 48 0;
#X connect 45 0 107 0;
#X connect 50 0 7 0;
#X connect 50 0 70 0;
#X connect 51 0 6 0;
#X connect 52 0 88 0;
#X connect 53 0 8 0;
#X connect 54 0 55 0;
#X connect 55 0 109 0;
#X connect 56 0 15 0;
#X connect 57 0 56 1;
#X connect 59 0 58 0;
#X connect 60 0 59 0;
#X connect 62 0 63 0;
#X connect 63 0 61 0;
#X connect 63 0 64 0;
#X connect 64 0 58 0;
#X connect 65 0 77 0;
#X connect 66 0 102 0;
#X connect 67 0 105 0;
#X connect 68 0 72 0;
#X connect 71 0 25 0;
#X connect 72 0 50 1;
#X connect 72 0 69 0;
#X connect 73 0 21 0;
#X connect 74 0 45 0;
#X connect 75 0 28 0;
#X connect 76 0 26 0;
#X connect 78 0 80 0;
#X connect 79 0 11 0;
#X connect 80 0 82 0;
#X connect 81 0 82 0;
#X connect 83 0 81 0;
#X connect 84 0 85 0;
#X connect 84 0 86 0;
#X connect 85 0 80 1;
#X connect 86 0 81 1;
#X connect 87 0 1 2;
#X connect 88 0 51 0;
#X connect 88 0 50 0;
#X connect 88 0 53 0;
#X connect 89 0 106 0;
#X connect 90 0 91 0;
#X connect 91 0 93 0;
#X connect 92 0 90 0;
#X connect 93 0 97 0;
#X connect 95 0 89 0;
#X connect 96 0 88 0;
#X connect 97 0 94 0;
#X connect 98 0 10 1;
#X connect 98 0 49 0;
#X connect 99 0 71 0;
#X connect 101 0 100 0;
#X connect 102 0 5 0;
#X connect 103 0 102 1;
#X connect 104 0 110 0;
#X connect 105 0 66 1;
#X connect 106 0 73 0;
#X connect 107 0 44 0;
#X connect 107 0 46 0;
#X connect 108 0 109 0;
#X connect 109 0 17 0;
#X connect 110 0 103 0;
#X restore 163 466 pd RagaArps;
#X obj 32 22 hsl 128 15 0 24 0 0 empty empty empty -2 -8 0 10 #fcfcfc
#000000 #000000 0 1;
#X obj 268 162 loadbang;
#X obj 196 121 r fez-key-change;
#X obj 203 152 bng 15 250 50 0 empty empty empty 17 7 0 10 #fcfcfc
#000000 #000000;
#N canvas 447 76 1136 814 RagaPad 0;
#X floatatom 185 258 5 0 0 0 - - - 0;
#X obj 185 173 Scaler;
#X obj 186 783 outlet~;
#X obj 192 40 r fez-key-change;
#X obj 196 69 t b l;
#X obj 185 487 *~;
#X obj 228 353 bng 15 250 50 0 empty empty empty 17 7 0 10 #fcfcfc
#000000 #000000;
#X obj 229 465 Fez9000-ENV;
#X obj 694 38 r fez-beat-time;
#X obj 694 68 * 16;
#X floatatom 694 94 5 0 0 0 - - - 0;
#X obj 657 132 * 0.75;
#X floatatom 657 163 5 0 0 0 - - - 0;
#X floatatom 710 163 5 0 0 0 - - - 0;
#X obj 635 188 s \$0-rpa;
#X obj 710 189 s \$0-rpr;
#X obj 228 326 r fez-4bar;
#X obj 248 370 r \$0-rpa;
#X msg 259 427 0;
#X msg 292 426 1;
#X obj 258 393 loadbang;
#X obj 185 536 throw~ \$0-pd-o;
#X obj 183 566 catch~ \$0-pd-o;
#X obj 185 294 Dual_Wavetable_Voice;
#X floatatom 399 249 5 0 0 0 - - - 0;
#X obj 399 164 Scaler;
#X obj 406 31 r fez-key-change;
#X obj 410 60 t b l;
#X obj 399 478 *~;
#X obj 442 344 bng 15 250 50 0 empty empty empty 17 7 0 10 #fcfcfc
#000000 #000000;
#X obj 443 456 Fez9000-ENV;
#X obj 588 303 r fez-4bar;
#X obj 462 361 r \$0-rpa;
#X msg 473 418 0;
#X msg 506 417 1;
#X obj 472 384 loadbang;
#X obj 398 536 throw~ \$0-pd-o;
#X obj 399 285 Dual_Wavetable_Voice;
#X msg 186 114 0;
#X obj 538 416 r \$0-rpr;
#X obj 326 427 r \$0-rpr;
#X obj 588 333 delay;
#X obj 680 309 r fez-beat-time;
#X obj 680 333 * 4;
#X obj 710 132 * 0.3;
#X obj 228 703 rev1~;
#X msg 299 665 80;
#X obj 323 625 loadbang;
#X msg 400 105 1;
#X msg 253 606 500;
#X obj 183 641 lop~ 500;
#X obj 302 254 r fez-r-s;
#X obj 533 245 r fez-r-s;
#X obj 263 111 FezOctave 3;
#X obj 183 597 *~ 0.05;
#X obj 491 114 FezOctave 3;
#X obj 187 748 Fez9000-Fade-InOut;
#X obj 343 747 tgl 15 0 empty empty empty 17 7 0 10 #fcfcfc #000000
#000000 0 1;
#X obj 436 748 random 8;
#X obj 392 747 > 4;
#X floatatom 393 781 5 0 0 0 - - - 0;
#X obj 436 719 r fez-4bar;
#X connect 0 0 23 0;
#X connect 1 0 0 0;
#X connect 3 0 4 0;
#X connect 4 0 38 0;
#X connect 4 1 1 1;
#X connect 5 0 21 0;
#X connect 6 0 7 0;
#X connect 7 0 5 1;
#X connect 8 0 9 0;
#X connect 9 0 10 0;
#X connect 10 0 11 0;
#X connect 10 0 44 0;
#X connect 11 0 12 0;
#X connect 12 0 14 0;
#X connect 13 0 15 0;
#X connect 16 0 6 0;
#X connect 17 0 7 1;
#X connect 18 0 7 2;
#X connect 19 0 7 3;
#X connect 20 0 18 0;
#X connect 20 0 19 0;
#X connect 22 0 54 0;
#X connect 23 0 5 0;
#X connect 24 0 37 0;
#X connect 25 0 24 0;
#X connect 26 0 27 0;
#X connect 27 0 48 0;
#X connect 27 1 25 1;
#X connect 28 0 36 0;
#X connect 29 0 30 0;
#X connect 30 0 28 1;
#X connect 31 0 41 0;
#X connect 32 0 30 1;
#X connect 33 0 30 2;
#X connect 34 0 30 3;
#X connect 35 0 33 0;
#X connect 35 0 34 0;
#X connect 37 0 28 0;
#X connect 38 0 1 0;
#X connect 39 0 30 4;
#X connect 40 0 7 4;
#X connect 41 0 29 0;
#X connect 42 0 43 0;
#X connect 43 0 41 1;
#X connect 44 0 13 0;
#X connect 45 0 56 0;
#X connect 46 0 45 1;
#X connect 47 0 46 0;
#X connect 48 0 25 0;
#X connect 49 0 50 1;
#X connect 50 0 45 0;
#X connect 50 0 56 0;
#X connect 51 0 23 1;
#X connect 52 0 37 1;
#X connect 53 0 1 2;
#X connect 54 0 50 0;
#X connect 55 0 25 2;
#X connect 56 0 2 0;
#X connect 57 0 56 1;
#X connect 58 0 59 0;
#X connect 59 0 57 0;
#X connect 59 0 60 0;
#X connect 61 0 58 0;
#X restore 295 466 pd RagaPad;
#X obj 294 496 Fez9000-Blocker;
#X obj 162 495 Fez9000-Blocker;
#N canvas 811 142 657 546 CPULoad 0;
#X floatatom 256 137 0 0 0 1 % - - 0;
#X obj 360 342 cputime;
#X obj 360 286 metro 1000;
#X obj 360 314 t b b;
#X obj 360 402 * 0.1;
#X obj 360 371 int;
#X obj 361 250 r fez-8th;
#X obj 111 158 hsl 180 15 0 100 0 0 empty empty CPU\\\ LOAD -2 -8 0
30 #ff0400 #ffffff #000000 0 1;
#X connect 0 0 7 0;
#X connect 1 0 5 0;
#X connect 2 0 3 0;
#X connect 3 0 1 0;
#X connect 3 1 1 1;
#X connect 4 0 0 0;
#X connect 5 0 4 0;
#X connect 6 0 2 0;
#X coords 0 -1 1 1 200 80 1 100 100;
#X restore 830 284 pd CPULoad;
#N canvas 720 152 879 686 RagaBass 0;
#X obj 84 120 Bass_Sequencer;
#X obj 85 214 Scaler;
#X obj 14 348 Bass_Voice2;
#X obj 88 636 outlet~;
#X floatatom 85 169 5 0 0 0 - - - 0;
#X obj 131 168 r fez-key-change;
#X obj 295 105 loadbang;
#X obj 164 26 bng 15 250 50 0 empty empty empty 17 7 0 10 #fcfcfc #000000
#000000;
#X obj 28 23 r fez-8th-swing;
#X floatatom 186 284 5 0 0 0 - - - 0;
#X obj 191 413 Fez9000-ENV;
#X obj 88 522 *~;
#X obj 188 315 bng 15 250 50 0 empty empty empty 17 7 0 10 #fcfcfc
#000000 #000000;
#X msg 287 219 0.8;
#X obj 402 273 r fez-beat-time;
#X obj 224 42 r fez-r-s;
#X obj 131 93 bng 15 250 50 0 empty empty empty 17 7 0 10 #fcfcfc #000000
#000000;
#X obj 402 297 * 2;
#X msg 328 219 80;
#X obj 90 596 Fez9000-Fade-InOut;
#X obj 214 560 tgl 15 0 empty empty empty 17 7 0 10 #fcfcfc #000000
#000000 0 1;
#X obj 213 492 r fez-r-i;
#X obj 214 532 > 0.15;
#X obj 391 157 FezOctave 2;
#X obj 520 33 r fez-r-i;
#X obj 207 78 r fez-rb-prob;
#X obj 520 223 s fez-rb-prob;
#X msg 518 193 25;
#X obj 518 164 loadbang;
#X obj 350 35 r fez-4bar;
#X obj 89 559 *~ 0.2;
#X obj 15 416 lop~ 200;
#X connect 0 0 4 0;
#X connect 1 0 2 0;
#X connect 1 0 9 0;
#X connect 2 0 31 0;
#X connect 4 0 1 0;
#X connect 5 0 1 1;
#X connect 6 0 13 0;
#X connect 6 0 18 0;
#X connect 8 0 0 0;
#X connect 8 0 7 0;
#X connect 9 0 12 0;
#X connect 10 0 11 1;
#X connect 11 0 30 0;
#X connect 12 0 10 0;
#X connect 13 0 10 3;
#X connect 14 0 17 0;
#X connect 15 0 16 0;
#X connect 16 0 0 1;
#X connect 17 0 10 4;
#X connect 18 0 10 1;
#X connect 19 0 3 0;
#X connect 20 0 19 1;
#X connect 21 0 22 0;
#X connect 22 0 20 0;
#X connect 23 0 1 2;
#X connect 25 0 0 2;
#X connect 27 0 26 0;
#X connect 28 0 27 0;
#X connect 30 0 19 0;
#X connect 31 0 11 0;
#X restore 428 466 pd RagaBass;
#X obj 427 496 Fez9000-Blocker;
#N canvas 215 27 1465 897 RagaGenbeats 0;
#N canvas 123 83 1550 841 KickSequencer 0;
#X obj 28 546 outlet;
#X msg 185 225 100;
#X obj 133 180 bng 15 250 50 0 empty empty empty 17 7 0 10 #fcfcfc
#000000 #000000;
#X obj 130 58 Counter 16;
#X obj 129 15 r fez-1bar;
#X obj 43 34 r fez-16th;
#X floatatom 131 87 5 0 0 0 - - - 0;
#X obj 131 112 s \$0-ksb;
#X obj 81 206 r \$0-ksb;
#X obj 28 468 r \$0-ksh;
#X obj 82 375 s \$0-ksh;
#X text 198 254 always on the one;
#X obj 450 184 bng 15 250 50 0 empty empty empty 17 7 0 10 #fcfcfc
#000000 #000000;
#X obj 398 210 r \$0-ksb;
#X obj 399 379 s \$0-ksh;
#X text 515 258 the 3 aint so important;
#X obj 133 150 r \$0-kss;
#X obj 450 153 r \$0-kss;
#X obj 397 44 s \$0-kss;
#X obj 396 15 bng 15 250 50 0 empty empty empty 17 7 0 10 #fcfcfc #000000
#000000;
#X obj 154 202 loadbang;
#X obj 470 194 loadbang;
#X msg 502 216 50;
#X obj 262 475 bng 15 250 50 0 empty empty empty 17 7 0 10 #fcfcfc
#000000 #000000;
#X obj 210 501 r \$0-ksb;
#X obj 262 444 r \$0-kss;
#X obj 282 485 loadbang;
#X msg 314 507 50;
#X obj 211 550 BS_Step 15 1;
#X text 327 549 pick up;
#X obj 519 468 bng 15 250 50 0 empty empty empty 17 7 0 10 #fcfcfc
#000000 #000000;
#X obj 467 494 r \$0-ksb;
#X obj 519 437 r \$0-kss;
#X obj 539 478 loadbang;
#X msg 571 500 50;
#X text 584 542 pick up;
#X obj 425 14 r fez-r-s;
#X obj 468 543 BS_Step 5 1;
#X obj 733 464 bng 15 250 50 0 empty empty empty 17 7 0 10 #fcfcfc
#000000 #000000;
#X obj 681 490 r \$0-ksb;
#X obj 733 433 r \$0-kss;
#X obj 753 474 loadbang;
#X text 798 538 pick up;
#X obj 682 539 BS_Step 10 1;
#X msg 785 496 30;
#X msg 215 676 1;
#X obj 82 255 BS_Step 0 0;
#X obj 399 259 BS_Step 7 0;
#X msg 469 668 0;
#X msg 687 664 0;
#X obj 938 472 bng 15 250 50 0 empty empty empty 17 7 0 10 #fcfcfc
#000000 #000000;
#X obj 886 498 r \$0-ksb;
#X obj 938 441 r \$0-kss;
#X obj 958 482 loadbang;
#X text 1003 546 pick up;
#X msg 990 504 30;
#X msg 892 672 0;
#X obj 887 547 BS_Step 2 1;
#X obj 1130 457 bng 15 250 50 0 empty empty empty 17 7 0 10 #fcfcfc
#000000 #000000;
#X obj 1078 483 r \$0-ksb;
#X obj 1130 426 r \$0-kss;
#X obj 1150 467 loadbang;
#X text 1195 531 pick up;
#X msg 1182 489 30;
#X msg 1084 657 0;
#X obj 1079 532 BS_Step 9 1;
#X obj 661 785 r fez-r-i;
#X obj 660 807 > 0.5;
#X obj 596 786 spigot;
#X obj 582 818 s \$0-ksh;
#X connect 1 0 46 2;
#X connect 2 0 46 1;
#X connect 3 0 6 0;
#X connect 4 0 3 1;
#X connect 5 0 3 0;
#X connect 6 0 7 0;
#X connect 8 0 46 0;
#X connect 9 0 0 0;
#X connect 12 0 47 1;
#X connect 13 0 47 0;
#X connect 16 0 2 0;
#X connect 17 0 12 0;
#X connect 19 0 18 0;
#X connect 20 0 1 0;
#X connect 21 0 22 0;
#X connect 22 0 47 2;
#X connect 23 0 28 1;
#X connect 24 0 28 0;
#X connect 25 0 23 0;
#X connect 26 0 27 0;
#X connect 27 0 28 2;
#X connect 28 0 45 0;
#X connect 30 0 37 1;
#X connect 31 0 37 0;
#X connect 32 0 30 0;
#X connect 33 0 34 0;
#X connect 34 0 37 2;
#X connect 36 0 18 0;
#X connect 37 0 48 0;
#X connect 38 0 43 1;
#X connect 39 0 43 0;
#X connect 40 0 38 0;
#X connect 41 0 44 0;
#X connect 43 0 49 0;
#X connect 44 0 43 2;
#X connect 45 0 68 0;
#X connect 46 0 10 0;
#X connect 47 0 14 0;
#X connect 48 0 68 0;
#X connect 49 0 68 0;
#X connect 50 0 57 1;
#X connect 51 0 57 0;
#X connect 52 0 50 0;
#X connect 53 0 55 0;
#X connect 55 0 57 2;
#X connect 56 0 68 0;
#X connect 57 0 56 0;
#X connect 58 0 65 1;
#X connect 59 0 65 0;
#X connect 60 0 58 0;
#X connect 61 0 63 0;
#X connect 63 0 65 2;
#X connect 64 0 68 0;
#X connect 65 0 64 0;
#X connect 66 0 67 0;
#X connect 67 0 68 1;
#X connect 68 0 69 0;
#X restore 27 178 pd KickSequencer;
#X obj 28 356 FezDrumHit kick;
#X obj 130 324 r fez-r-s;
#N canvas 123 83 1550 841 SnareSequencer 0;
#X obj 28 546 outlet;
#X msg 185 225 100;
#X obj 133 180 bng 15 250 50 0 empty empty empty 17 7 0 10 #fcfcfc
#000000 #000000;
#X obj 130 58 Counter 16;
#X obj 129 15 r fez-1bar;
#X obj 43 34 r fez-16th;
#X floatatom 131 87 5 0 0 0 - - - 0;
#X obj 450 184 bng 15 250 50 0 empty empty empty 17 7 0 10 #fcfcfc
#000000 #000000;
#X obj 396 15 bng 15 250 50 0 empty empty empty 17 7 0 10 #fcfcfc #000000
#000000;
#X obj 154 202 loadbang;
#X obj 470 194 loadbang;
#X obj 425 14 r fez-r-s;
#X obj 82 255 BS_Step 4 0;
#X obj 131 112 s \$0-ssb;
#X obj 133 150 r \$0-sss;
#X obj 28 468 r \$0-ssh;
#X obj 82 375 s \$0-ssh;
#X obj 399 376 s \$0-ssh;
#X obj 450 153 r \$0-sss;
#X obj 81 206 r \$0-ssb;
#X obj 398 210 r \$0-ssb;
#X obj 399 259 BS_Step 12 0;
#X obj 297 468 bng 15 250 50 0 empty empty empty 17 7 0 10 #fcfcfc
#000000 #000000;
#X obj 317 478 loadbang;
#X obj 243 704 s \$0-ssh;
#X obj 297 437 r \$0-sss;
#X obj 245 494 r \$0-ssb;
#X msg 349 500 20;
#X obj 246 543 BS_Step 15 0;
#X msg 502 216 90;
#X text 198 254 always on the two;
#X text 515 258 most of the time on the 4;
#X text 380 573 sneaky pickup;
#X msg 246 666 1;
#X obj 397 44 s \$0-sss;
#X connect 1 0 12 2;
#X connect 2 0 12 1;
#X connect 3 0 6 0;
#X connect 4 0 3 1;
#X connect 5 0 3 0;
#X connect 6 0 13 0;
#X connect 7 0 21 1;
#X connect 8 0 34 0;
#X connect 9 0 1 0;
#X connect 9 0 2 0;
#X connect 10 0 29 0;
#X connect 10 0 7 0;
#X connect 11 0 34 0;
#X connect 12 0 16 0;
#X connect 14 0 2 0;
#X connect 15 0 0 0;
#X connect 18 0 7 0;
#X connect 19 0 12 0;
#X connect 20 0 21 0;
#X connect 21 0 17 0;
#X connect 22 0 28 1;
#X connect 23 0 27 0;
#X connect 25 0 22 0;
#X connect 26 0 28 0;
#X connect 27 0 28 2;
#X connect 28 0 33 0;
#X connect 29 0 21 2;
#X connect 33 0 24 0;
#X restore 308 172 pd SnareSequencer;
#X obj 313 354 FezDrumHit snare;
#X obj 422 323 r fez-r-s;
#X obj 611 352 FezDrumHit hat;
#X obj 698 301 r fez-r-s;
#X obj 612 286 bng 15 250 50 0 empty empty empty 17 7 0 10 #fcfcfc
#000000 #000000;
#X obj 50 759 *~;
#X obj 988 622 r fez-r-i;
#X obj 47 857 outlet~;
#X obj 28 469 throw~ fez-gen-beats;
#X obj 48 549 catch~ fez-gen-beats;
#X floatatom 948 645 5 0 0 0 - - - 0;
#X obj 310 626 throw~ fez-gen-beats;
#X obj 609 460 throw~ fez-gen-beats;
#X obj 999 79 r fez-beat-num;
#X floatatom 999 111 5 0 0 0 - - - 0;
#X obj 1001 160 % 8;
#X obj 1000 198 sel 2 4 6;
#X obj 906 411 spigot;
#X obj 967 411 spigot;
#X obj 1026 411 spigot;
#X msg 1129 333 1;
#X obj 907 322 random 2;
#X obj 974 322 random 3;
#X obj 1038 323 random 4;
#X obj 896 517 spigot;
#X obj 1259 363 r fez-r-i;
#X obj 909 274 r fez-r-s;
#X obj 907 353 == 0;
#X obj 974 356 == 0;
#X obj 1038 358 == 0;
#X floatatom 1143 371 5 0 0 0 - - - 0;
#X floatatom 1143 396 5 0 0 0 - - - 0;
#X floatatom 1143 422 5 0 0 0 - - - 0;
#X floatatom 1277 449 5 0 0 0 - - - 0;
#X obj 50 712 lop~ 800;
#X obj 326 792 random 2000;
#X obj 326 816 + 800;
#X obj 327 765 bng 15 250 50 0 empty empty empty 17 7 0 10 #fcfcfc
#000000 #000000;
#X floatatom 371 816 5 0 0 0 - - - 0;
#X floatatom 97 768 5 0 0 0 - - - 0;
#X obj 1033 548 s \$0-fez-genbeat-mute;
#X obj 949 672 s \$0-fez-genbeat-mute;
#X obj 82 742 r \$0-fez-genbeat-mute;
#X obj 1098 222 bng 15 250 50 0 empty empty empty 17 7 0 10 #fcfcfc
#000000 #000000;
#X msg 910 466 0;
#X obj 122 681 *~;
#X obj 166 633 > 0.8;
#X obj 165 609 r fez-r-i;
#X obj 122 583 lop~ 400;
#X floatatom 172 663 5 0 0 0 - - - 0;
#X obj 933 623 > 0.25;
#X obj 27 417 *~;
#X obj 63 392 r fez-r-i;
#X obj 311 413 *~;
#X obj 347 388 r fez-r-i;
#X obj 347 414 > 0.4;
#X obj 608 401 hip~ 8000;
#X obj 350 687 r fez-4bar;
#X obj 1259 409 expr $f1 > 0.6 && $f1 < 0.7;
#X obj 628 133 r fez-4th;
#X obj 629 255 spigot;
#X obj 668 192 r fez-r-i;
#X obj 668 227 < 0.4;
#X obj 511 259 spigot;
#X obj 550 196 r fez-r-i;
#X obj 510 137 r fez-8th;
#X obj 550 231 > 0.39;
#X obj 47 793 clip~ -1 1;
#X obj 340 548 Fez9000-Delay;
#X obj 610 432 *~ 0.7;
#X obj 429 416 r fez-r-s;
#X obj 429 440 random 10;
#X obj 429 464 > 6;
#X obj 429 488 sel 1;
#X msg 429 514 0.2;
#X msg 464 514 0;
#X floatatom 467 463 5 0 0 0 - - - 0;
#X obj 311 454 *~ 0.3;
#X obj 63 418 > 0.45;
#X obj 332 207 bng 15 250 50 0 empty empty empty 17 7 0 10 #fcfcfc
#000000 #000000;
#X obj 48 824 *~ 0.4;
#X obj 29 447 *~ 0.7;
#X connect 0 0 1 0;
#X connect 1 0 55 0;
#X connect 2 0 1 1;
#X connect 3 0 4 0;
#X connect 3 0 83 0;
#X connect 4 0 57 0;
#X connect 5 0 4 1;
#X connect 6 0 60 0;
#X connect 7 0 6 1;
#X connect 8 0 6 0;
#X connect 9 0 71 0;
#X connect 10 0 54 0;
#X connect 13 0 38 0;
#X connect 13 0 52 0;
#X connect 14 0 45 0;
#X connect 17 0 18 0;
#X connect 18 0 19 0;
#X connect 19 0 20 0;
#X connect 20 0 21 0;
#X connect 20 1 22 0;
#X connect 20 2 23 0;
#X connect 20 3 24 0;
#X connect 20 3 47 0;
#X connect 21 0 48 0;
#X connect 22 0 48 0;
#X connect 23 0 48 0;
#X connect 24 0 28 0;
#X connect 25 0 31 0;
#X connect 26 0 32 0;
#X connect 27 0 33 0;
#X connect 28 0 44 0;
#X connect 29 0 62 0;
#X connect 30 0 25 0;
#X connect 30 0 26 0;
#X connect 30 0 27 0;
#X connect 31 0 21 1;
#X connect 31 0 34 0;
#X connect 32 0 22 1;
#X connect 32 0 35 0;
#X connect 33 0 23 1;
#X connect 33 0 36 0;
#X connect 38 0 9 0;
#X connect 39 0 40 0;
#X connect 40 0 38 1;
#X connect 40 0 42 0;
#X connect 41 0 39 0;
#X connect 46 0 9 1;
#X connect 46 0 43 0;
#X connect 48 0 28 0;
#X connect 49 0 38 0;
#X connect 50 0 49 1;
#X connect 50 0 53 0;
#X connect 51 0 50 0;
#X connect 52 0 49 0;
#X connect 54 0 14 0;
#X connect 55 0 85 0;
#X connect 56 0 82 0;
#X connect 57 0 81 0;
#X connect 58 0 59 0;
#X connect 59 0 57 1;
#X connect 60 0 73 0;
#X connect 61 0 41 0;
#X connect 62 0 28 1;
#X connect 62 0 37 0;
#X connect 63 0 64 0;
#X connect 64 0 8 0;
#X connect 65 0 66 0;
#X connect 66 0 64 1;
#X connect 67 0 8 0;
#X connect 68 0 70 0;
#X connect 69 0 67 0;
#X connect 70 0 67 1;
#X connect 71 0 84 0;
#X connect 72 0 15 0;
#X connect 73 0 16 0;
#X connect 74 0 75 0;
#X connect 75 0 76 0;
#X connect 76 0 77 0;
#X connect 76 0 80 0;
#X connect 77 0 78 0;
#X connect 77 1 79 0;
#X connect 78 0 72 1;
#X connect 79 0 72 1;
#X connect 81 0 15 0;
#X connect 81 0 72 0;
#X connect 82 0 55 1;
#X connect 84 0 11 0;
#X connect 85 0 12 0;
#X restore 429 581 pd RagaGenbeats;
#N canvas 771 25 818 864 RagaFoley 0;
#X obj 481 571 outlet~;
#X text 79 129 <= numbers replace "%d" in string;
#X symbolatom 46 249 37 0 0 0 - - - 0;
#X obj 45 151 + 1;
#X floatatom 45 175 5 0 0 0 - - - 0;
#X floatatom 45 82 5 0 0 0 - - - 0;
#X obj 225 75 loadbang;
#X obj 44 127 % 6;
#X msg 188 75 0;
#X msg 46 298 read -resize \$1 fez-raga-foley1;
#X obj 45 368 soundfiler;
#X obj 45 415 s fez-raga-foley-len;
#X obj 50 209 makefilename samples/hits/foley_%d.wav;
#X obj 480 429 tabread4~ fez-raga-foley1;
#X obj 480 398 *~;
#X obj 513 398 r fez-raga-foley-len;
#X obj 480 366 phasor~ 0.4;
#X obj 487 242 r fez-raga-foley-len;
#X floatatom 487 337 5 0 0 0 - - - 0;
#X obj 45 51 random 6;
#X obj 45 21 r fez-r-s;
#X obj 487 313 expr 44100/$f1;
#X obj 582 68 table fez-raga-foley1;
#X obj 481 463 hip~ 800;
#X obj 481 487 *~ 0.1;
#X connect 2 0 9 0;
#X connect 3 0 4 0;
#X connect 4 0 12 0;
#X connect 5 0 7 0;
#X connect 6 0 8 0;
#X connect 7 0 3 0;
#X connect 8 0 5 0;
#X connect 9 0 10 0;
#X connect 10 0 11 0;
#X connect 12 0 2 0;
#X connect 13 0 23 0;
#X connect 14 0 13 0;
#X connect 15 0 14 1;
#X connect 16 0 14 0;
#X connect 17 0 21 0;
#X connect 18 0 16 1;
#X connect 19 0 5 0;
#X connect 20 0 19 0;
#X connect 21 0 18 0;
#X connect 23 0 24 0;
#X connect 24 0 0 0;
#X restore 428 698 pd RagaFoley;
#X obj 427 722 Fez9000-Blocker;
#X obj 831 47 FezCompressor;
#X obj 852 607 writesf~ 1;
#X msg 685 547 open /tmp/fezfi.wav;
#X msg 839 546 start;
#X msg 1024 548 stop;
#X obj 429 608 Fez9000-Blocker;
#N canvas 1204 265 450 300 FezFilter 0;
#X obj 8 7 inlet~;
#X obj 14 268 outlet~;
#X obj 10 160 lop~ 40000;
#X obj 113 69 random 100;
#X obj 116 129 sel 1;
#X msg 165 160 40000;
#X floatatom 203 73 5 0 0 0 - - - 0;
#X obj 190 33 bng 15 250 50 0 empty empty empty 17 7 0 10 #fcfcfc #000000
#000000;
#X msg 116 160 400;
#X obj 110 31 r fez-2bar;
#X obj 116 100 > 92;
#X connect 0 0 2 0;
#X connect 2 0 1 0;
#X connect 3 0 6 0;
#X connect 3 0 10 0;
#X connect 4 0 8 0;
#X connect 4 1 5 0;
#X connect 5 0 2 1;
#X connect 7 0 3 0;
#X connect 8 0 2 1;
#X connect 9 0 3 0;
#X connect 10 0 4 0;
#X restore 831 122 pd FezFilter;
#X obj 46 495 Fez9000-Blocker;
#N canvas 605 25 1040 895 RagaChords 0;
#X obj 12 689 outlet~;
#X obj 16 294 FezChord, f 49;
#X obj 127 215 r fez-key-change;
#X obj 242 248 r fez-beat-time;
#X obj 17 239 bng 15 250 50 0 empty empty empty 17 7 0 10 #fcfcfc #000000
#000000;
#X obj 86 490 rev1~;
#X msg 99 441 80;
#X obj 99 415 loadbang;
#X obj 357 249 r fez-4bar;
#X obj 16 110 r fez-2bar;
#X obj 390 275 bng 15 250 50 0 empty empty empty 17 7 0 10 #fcfcfc
#000000 #000000;
#X obj 15 444 *~ 0.05;
#X obj 18 144 random 2;
#X obj 18 168 == 0;
#X obj 18 192 sel 0;
#X floatatom 59 169 5 0 0 0 - - - 0;
#X obj 506 261 r fez-4th;
#X obj 506 285 random 10;
#X obj 506 333 sel 1;
#X obj 506 357 bng 15 250 50 0 empty empty empty 17 7 0 10 #fcfcfc
#000000 #000000;
#X obj 506 309 > 5;
#X connect 1 0 11 0;
#X connect 2 0 1 1;
#X connect 3 0 1 2;
#X connect 4 0 1 0;
#X connect 6 0 5 1;
#X connect 7 0 6 0;
#X connect 8 0 1 3;
#X connect 9 0 12 0;
#X connect 10 0 1 3;
#X connect 11 0 5 0;
#X connect 11 0 0 0;
#X connect 12 0 13 0;
#X connect 12 0 15 0;
#X connect 13 0 14 0;
#X connect 14 0 4 0;
#X connect 14 1 4 0;
#X connect 16 0 17 0;
#X connect 17 0 20 0;
#X connect 18 0 19 0;
#X connect 19 0 1 4;
#X connect 20 0 18 0;
#X restore 46 466 pd RagaChords;
#X obj 852 475 bng 15 250 50 0 empty empty record\\\ 10\\\ minutes
17 7 0 10 #fcfcfc #000000 #000000;
#X obj 852 495 t b b;
#X obj 911 549 delay 600000;
#X msg 286 253 0;
#X connect 2 0 3 0;
#X connect 4 0 3 1;
#X connect 5 0 2 0;
#X connect 6 0 4 0;
#X connect 7 0 2 0;
#X connect 7 0 4 0;
#X connect 8 0 32 0;
#X connect 9 0 10 0;
#X connect 11 0 9 1;
#X connect 13 0 11 0;
#X connect 15 0 16 0;
#X connect 18 0 25 0;
#X connect 19 0 0 0;
#X connect 20 0 17 0;
#X connect 21 0 22 0;
#X connect 22 0 17 0;
#X connect 22 0 44 0;
#X connect 23 0 24 0;
#X connect 24 0 12 0;
#X connect 25 0 12 0;
#X connect 27 0 28 0;
#X connect 28 0 12 0;
#X connect 29 0 37 0;
#X connect 30 0 31 0;
#X connect 31 0 12 0;
#X connect 32 0 38 0;
#X connect 34 0 33 0;
#X connect 35 0 33 0;
#X connect 35 0 43 0;
#X connect 36 0 33 0;
#X connect 37 0 12 0;
#X connect 38 0 9 0;
#X connect 39 0 12 0;
#X connect 40 0 39 0;
#X connect 41 0 42 0;
#X connect 42 0 35 0;
#X connect 42 1 34 0;
#X connect 43 0 36 0;
#X connect 44 0 15 0;
