#N canvas 0 18 1916 1009 12;
#X obj 22 106 Fez9000_LED_Control;
#X obj 20 50 Fez9000_Joystick;
#X obj 20 77 Fez9000_Knobs;
#X text 142 49 < Hardware Control;
#N canvas 960 25 636 1009 Key_Set 0;
#X floatatom 319 262 5 0 0 0 - - - 0;
#X obj 319 230 Knob_Map fez-k-b1-2 0 23;
#X obj 261 313 / 12;
#X floatatom 261 377 5 0 0 0 maj/min - - 0;
#X obj 369 312 % 12;
#X floatatom 369 381 5 0 0 0 root - - 0;
#X obj 261 349 int;
#X obj 247 503 list append;
#X obj 243 449 f;
#X obj 352 458 t f b;
#X obj 247 577 list;
#X msg 254 250 0;
#X obj 240 211 loadbang;
#X obj 469 319 * 16;
#X obj 470 355 +;
#X floatatom 508 320 5 0 0 0 - - - 0;
#X obj 504 354 s fez-led-p1;
#X obj 85 552 spigot;
#X obj 124 524 tgl 15 0 empty empty empty 17 7 0 10 #fcfcfc #000000
#000000 0 1;
#X obj 85 593 t b b;
#X msg 176 526 1;
#X obj 176 503 bng 15 250 50 0 empty empty empty 17 7 0 10 #fcfcfc
#000000 #000000;
#X msg 44 522 0;
#X obj 44 503 bng 15 250 50 0 empty empty empty 17 7 0 10 #fcfcfc #000000
#000000;
#X text 74 339 this madness is so we only send a new key when one has
actually changed and not every bar, f 13;
#X obj 247 633 s fez-key-change;
#X obj 85 492 r fez-4bar;
#X obj 381 409 s \$0-root;
#X obj 271 410 s \$0-mode;
#X obj 357 685 r \$0-root;
#X obj 358 718 sel 0 1 2 3 4 5 6 7 8 9 10 11;
#X obj 35 6 r \$0-mode;
#X obj 35 31 sel 0;
#X symbolatom 175 139 10 0 0 0 - - - 0;
#X msg 9 74 symbol major;
#X msg 111 73 symbol minor;
#X msg 24 809 symbol c;
#X msg 95 809 symbol c#;
#X msg 173 808 symbol d;
#X msg 245 807 symbol eb;
#X msg 322 807 symbol e;
#X msg 392 807 symbol f;
#X msg 463 807 symbol f#;
#X msg 543 807 symbol g;
#X msg 615 807 symbol ab;
#X msg 692 807 symbol a;
#X msg 762 807 symbol bb;
#X msg 840 807 symbol b;
#X obj 297 871 s \$0-key-name;
#X symbolatom 131 138 5 0 0 0 - - - 0;
#X obj 217 75 r \$0-key-name;
#X listbox 188 117 8 0 0 0 - - - 0;
#X obj 224 26 r fez-key-change;
#X obj 150 119 tgl 15 0 empty empty empty 17 7 0 10 #fcfcfc #000000
#000000 0 1;
#X obj 130 119 bng 15 250 50 0 empty empty empty 17 7 0 10 #fcfcfc
#000000 #000000;
#X obj 115 651 unpack f f;
#X obj 112 700 s fez-key-root;
#X connect 0 0 2 0;
#X connect 0 0 4 0;
#X connect 0 0 21 0;
#X connect 1 0 0 0;
#X connect 2 0 6 0;
#X connect 3 0 8 1;
#X connect 3 0 28 0;
#X connect 4 0 5 0;
#X connect 4 0 14 0;
#X connect 5 0 9 0;
#X connect 5 0 27 0;
#X connect 6 0 3 0;
#X connect 6 0 13 0;
#X connect 7 0 10 1;
#X connect 8 0 7 1;
#X connect 9 0 7 0;
#X connect 9 1 8 0;
#X connect 10 0 25 0;
#X connect 10 0 55 0;
#X connect 11 0 0 0;
#X connect 12 0 11 0;
#X connect 13 0 14 1;
#X connect 14 0 15 0;
#X connect 15 0 16 0;
#X connect 17 0 19 0;
#X connect 17 0 54 0;
#X connect 18 0 17 1;
#X connect 18 0 53 0;
#X connect 19 0 23 0;
#X connect 19 1 10 0;
#X connect 20 0 18 0;
#X connect 21 0 20 0;
#X connect 22 0 18 0;
#X connect 23 0 22 0;
#X connect 26 0 17 0;
#X connect 29 0 30 0;
#X connect 30 0 36 0;
#X connect 30 1 37 0;
#X connect 30 2 38 0;
#X connect 30 3 39 0;
#X connect 30 4 40 0;
#X connect 30 5 41 0;
#X connect 30 6 42 0;
#X connect 30 7 43 0;
#X connect 30 8 44 0;
#X connect 30 9 45 0;
#X connect 30 10 46 0;
#X connect 30 11 47 0;
#X connect 31 0 32 0;
#X connect 32 0 34 0;
#X connect 32 1 35 0;
#X connect 34 0 33 0;
#X connect 35 0 33 0;
#X connect 36 0 48 0;
#X connect 37 0 48 0;
#X connect 38 0 48 0;
#X connect 39 0 48 0;
#X connect 40 0 48 0;
#X connect 41 0 48 0;
#X connect 42 0 48 0;
#X connect 43 0 48 0;
#X connect 44 0 48 0;
#X connect 45 0 48 0;
#X connect 46 0 48 0;
#X connect 47 0 48 0;
#X connect 50 0 49 0;
#X connect 52 0 51 0;
#X connect 55 0 56 0;
#X coords 0 -1 1 1 150 60 1 100 100;
#X restore 20 243 pd Key_Set;
#N canvas 960 18 956 1009 Main_Clock 0;
#X obj 117 137 Multi_Clock;
#X floatatom 195 114 5 0 0 0 bpm\ set\ to - - 0;
#X obj 117 31 loadbang;
#X obj 470 47 Knob_Map fez-k-b1-1 80 92;
#X text 467 9 these bpms are the sweet spot for fez, f 19;
#X obj 138 463 s fez-8th;
#X obj 159 434 s fez-4th;
#X obj 117 494 s fez-beat-time;
#X obj 181 409 s fez-half;
#X obj 202 386 s fez-1bar;
#X obj 224 360 s fez-2bar;
#X obj 245 335 s fez-4bar;
#X obj 267 310 s fez-8bar;
#X obj 288 285 s fez-8th-swing;
#X obj 310 261 s fez-beat-num;
#X obj 338 237 s fez-led-bn;
#X obj 144 242 bng 15 250 50 0 empty empty empty 17 7 0 10 #fcfcfc
#000000 #000000;
#X obj 167 242 bng 15 250 50 0 empty empty empty 17 7 0 10 #fcfcfc
#000000 #000000;
#X obj 188 242 bng 15 250 50 0 empty empty empty 17 7 0 10 #fcfcfc
#000000 #000000;
#X obj 209 242 bng 15 250 50 0 empty empty empty 17 7 0 10 #fcfcfc
#000000 #000000;
#X obj 230 242 bng 15 250 50 0 empty empty empty 17 7 0 10 #fcfcfc
#000000 #000000;
#X obj 252 242 bng 15 250 50 0 empty empty empty 17 7 0 10 #fcfcfc
#000000 #000000;
#X obj 273 242 bng 15 250 50 0 empty empty empty 17 7 0 10 #fcfcfc
#000000 #000000;
#X obj 296 241 bng 15 250 50 0 empty empty empty 17 7 0 10 #fcfcfc
#000000 #000000;
#X obj 635 96 tgl 15 0 empty empty empty 17 7 0 10 #fcfcfc #000000
#000000 0 1;
#X obj 635 73 loadbang;
#X obj 515 107 bng 15 250 50 0 empty empty empty 17 7 0 10 #fcfcfc
#000000 #000000;
#X obj 470 143 Dedup;
#X obj 471 170 bng 15 250 50 0 empty empty empty 17 7 0 10 #fcfcfc
#000000 #000000;
#X obj 635 113 metro 2000;
#X obj 470 104 f 80;
#X msg 196 61 80;
#X floatatom 102 239 5 0 0 0 - - - 0;
#X connect 0 0 7 0;
#X connect 0 1 5 0;
#X connect 0 1 16 0;
#X connect 0 2 6 0;
#X connect 0 2 17 0;
#X connect 0 3 8 0;
#X connect 0 3 18 0;
#X connect 0 4 9 0;
#X connect 0 4 19 0;
#X connect 0 5 10 0;
#X connect 0 5 20 0;
#X connect 0 6 11 0;
#X connect 0 6 21 0;
#X connect 0 7 12 0;
#X connect 0 7 22 0;
#X connect 0 8 13 0;
#X connect 0 8 23 0;
#X connect 0 9 14 0;
#X connect 0 9 15 0;
#X connect 0 9 32 0;
#X connect 1 0 30 1;
#X connect 2 0 31 0;
#X connect 3 0 1 0;
#X connect 24 0 29 0;
#X connect 25 0 24 0;
#X connect 26 0 30 0;
#X connect 27 0 0 1;
#X connect 27 0 28 0;
#X connect 29 0 26 0;
#X connect 30 0 27 0;
#X connect 31 0 0 1;
#X coords 0 -1 1 1 220 160 1 100 100;
#X restore 332 8 pd Main_Clock;
#X obj 25 405 Drum_Loops;
#X obj 73 349 r fez-beat-time;
#X obj 121 372 r fez-4bar;
#X obj 563 107 clip~ -1 1;
#X obj 563 145 dac~;
#X obj 644 107 clip~ -1 1;
#X obj 563 69 catch~ fez-main-l;
#X obj 697 70 catch~ fez-main-r;
#X obj 562 22 catch~ fez-main-mono;
#X floatatom 33 348 5 0 0 0 - - - 0;
#X obj 831 10 catch~ fez-main-tapeout;
#X obj 831 70 Tapeish;
#X obj 830 99 throw~ fez-main-mono;
#X obj 878 49 tgl 15 0 empty empty empty 17 7 0 10 #fcfcfc #000000
#000000 0 1;
#N canvas 960 18 956 1009 Fez9000_Main_Mixer 0;
#X obj 59 100 inlet~;
#X obj 63 383 outlet~;
#X obj 78 238 CC_Scale;
#X obj 60 268 *~;
#X obj 183 99 inlet~;
#X obj 202 237 CC_Scale;
#X obj 184 267 *~;
#X obj 307 100 inlet~;
#X obj 327 236 CC_Scale;
#X obj 308 268 *~;
#X obj 439 98 inlet~;
#X obj 458 236 CC_Scale;
#X obj 440 266 *~;
#X floatatom 93 266 5 0 0 0 - - - 0;
#X floatatom 221 267 5 0 0 0 - - - 0;
#X floatatom 343 264 5 0 0 0 - - - 0;
#X floatatom 479 268 5 0 0 0 - - - 0;
#X obj 80 209 r fez-k-b1-9;
#X obj 204 208 r fez-k-b1-10;
#X obj 328 209 r fez-k-b1-11;
#X obj 460 207 r fez-k-b1-12;
#X obj 82 476 * 32;
#X obj 197 476 * 32;
#X obj 313 477 * 32;
#X obj 428 477 * 32;
#X obj 81 501 s fez-led-p9;
#X obj 198 501 s fez-led-p8;
#X obj 313 502 s fez-led-p7;
#X obj 424 507 s fez-led-p6;
#X connect 0 0 3 0;
#X connect 2 0 3 1;
#X connect 2 0 13 0;
#X connect 3 0 1 0;
#X connect 4 0 6 0;
#X connect 5 0 6 1;
#X connect 5 0 14 0;
#X connect 6 0 1 0;
#X connect 7 0 9 0;
#X connect 8 0 9 1;
#X connect 8 0 15 0;
#X connect 9 0 1 0;
#X connect 10 0 12 0;
#X connect 11 0 12 1;
#X connect 11 0 16 0;
#X connect 12 0 1 0;
#X connect 13 0 21 0;
#X connect 14 0 22 0;
#X connect 15 0 23 0;
#X connect 16 0 24 0;
#X connect 17 0 2 0;
#X connect 18 0 5 0;
#X connect 19 0 8 0;
#X connect 20 0 11 0;
#X connect 21 0 25 0;
#X connect 22 0 26 0;
#X connect 23 0 27 0;
#X connect 24 0 28 0;
#X restore 69 675 pd Fez9000_Main_Mixer;
#X obj 69 713 throw~ fez-main-tapeout;
#X obj 897 45 loadbang;
#N canvas 960 18 636 1009 Fez9000_Bass_Line 0;
#X obj 306 312 Bass_Sequencer;
#X floatatom 349 349 5 0 0 0 - - - 0;
#X floatatom 431 262 5 0 0 0 - - - 0;
#X obj 431 227 Knob_Map fez-k-b1-5 0 100;
#X obj 344 281 bng 15 250 50 0 empty empty empty 17 7 0 10 #fcfcfc
#000000 #000000;
#X obj 448 380 bng 15 250 50 0 empty empty empty 17 7 0 10 #fcfcfc
#000000 #000000;
#X obj 321 562 Scaler;
#X floatatom 326 724 5 0 0 0 - - - 0;
#X text 425 754 this shit is loud;
#X obj 204 277 r fez-8th-swing;
#X obj 71 510 r fez-key-change;
#X listbox 71 537 20 0 0 0 - - - 0;
#X obj 375 815 outlet~;
#X obj 376 487 loadbang;
#X msg 387 517 3;
#X obj 115 142 bng 50 250 50 0 empty empty SLAP 55 25 0 50 #fcfcfc
#ff0400 #ff0400;
#X obj 529 336 s fez-led-p2;
#X obj 419 336 expr ($f1+1)*4;
#X obj 76 582 unpack f f;
#X floatatom 80 632 5 0 0 0 - - - 0;
#X obj 80 666 > 5;
#X obj 53 701 sel 0 1;
#X obj 68 823 s \$0-bass-octave;
#X obj 491 510 r \$0-bass-octave;
#X floatatom 497 550 5 0 0 0 - - - 0;
#X obj 375 726 Bass_Voice;
#X floatatom 485 677 5 0 0 0 - - - 0;
#X msg 102 747 2;
#X msg 53 742 3;
#X obj 439 635 Knob_Map fez-k-b1-6 20 600;
#X obj 375 754 *~ 0.4;
#X connect 0 0 1 0;
#X connect 1 0 5 0;
#X connect 1 0 6 0;
#X connect 1 0 17 0;
#X connect 2 0 0 2;
#X connect 2 0 4 0;
#X connect 3 0 2 0;
#X connect 4 0 0 1;
#X connect 5 0 15 0;
#X connect 5 0 25 1;
#X connect 6 0 7 0;
#X connect 7 0 25 0;
#X connect 9 0 0 0;
#X connect 10 0 11 0;
#X connect 11 0 6 1;
#X connect 11 0 18 0;
#X connect 13 0 14 0;
#X connect 14 0 6 2;
#X connect 17 0 16 0;
#X connect 18 0 19 0;
#X connect 19 0 20 0;
#X connect 20 0 21 0;
#X connect 21 0 28 0;
#X connect 21 1 27 0;
#X connect 23 0 6 2;
#X connect 23 0 24 0;
#X connect 25 0 30 0;
#X connect 26 0 25 2;
#X connect 27 0 22 0;
#X connect 28 0 22 0;
#X connect 29 0 26 0;
#X connect 30 0 12 0;
#X coords 0 -1 1 1 200 100 1 100 100;
#X restore 250 392 pd Fez9000_Bass_Line;
#X obj 24 513 hip~ 70;
#X obj 1024 57 bng 15 250 50 0 empty empty FEZ9000 17 7 0 100 #fcfcfc
#000000 #000000;
#X text 53 540 stop kicks clashing with bass lines, f 11;
#N canvas 640 18 657 1009 Fez9000_Melody_Line 0;
#X floatatom 349 349 5 0 0 0 - - - 0;
#X floatatom 431 262 5 0 0 0 - - - 0;
#X obj 320 108 bng 15 250 50 0 empty empty empty 17 7 0 10 #fcfcfc
#000000 #000000;
#X obj 448 380 bng 15 250 50 0 empty empty empty 17 7 0 10 #fcfcfc
#000000 #000000;
#X obj 321 562 Scaler;
#X floatatom 321 655 5 0 0 0 - - - 0;
#X text 530 1467 this shit is loud;
#X obj 71 510 r fez-key-change;
#X listbox 71 537 20 0 0 0 - - - 0;
#X obj 459 1473 outlet~;
#X obj 376 487 loadbang;
#X obj 115 142 bng 50 250 50 0 empty empty PLINK 55 25 0 50 #fcfcfc
#ff0400 #ff0400;
#X obj 529 336 s fez-led-p2;
#X obj 419 336 expr ($f1+1)*4;
#X obj 76 582 unpack f f;
#X floatatom 80 632 5 0 0 0 - - - 0;
#X obj 80 666 > 5;
#X obj 53 701 sel 0 1;
#X floatatom 497 550 5 0 0 0 - - - 0;
#X obj 430 224 Knob_Map fez-k-b1-7 0 100;
#X obj 68 823 s \$0-melody-octave;
#X obj 489 511 r \$0-melody-octave;
#X msg 387 517 4;
#X obj 207 701 Dual_Wavetable_Voice;
#X obj 456 1219 AR_LPG;
#X obj 485 1106 Knob_Map fez-k-b2-1 10 500;
#X obj 240 314 Bass_Sequencer;
#X obj 499 1137 Knob_Map fez-k-b2-2 10 700;
#X floatatom 545 1218 5 0 0 0 - - - 0;
#X obj 514 1166 Knob_Map fez-k-b2-3 1000 10000;
#X obj 263 773 Wave_Folder;
#X obj 400 770 vsl 15 128 0 1 0 0 empty empty empty 0 -9 0 10 #fcfcfc
#000000 #000000 0 1;
#X floatatom 405 913 5 0 0 0 - - - 0;
#X obj 628 736 random 100;
#X floatatom 577 811 5 0 0 0 - - - 0;
#X obj 623 677 bng 15 250 50 0 empty empty empty 17 7 0 10 #fcfcfc
#000000 #000000;
#X obj 571 774 expr 0.3+($f1/100)*0.6;
#X obj 623 644 r fez-8th;
#X obj 204 277 r fez-beat-num;
#X obj 99 276 Counter 16;
#X obj 59 239 r fez-8th;
#X floatatom 107 312 5 0 0 0 - - - 0;
#X obj 145 234 r fez-2bar;
#X obj 458 1446 *~ 0.5;
#X obj 459 1397 lop~ 5000;
#X obj 382 149 r fez-4bar;
#X msg 53 742 6;
#X msg 102 747 5;
#X connect 0 0 3 0;
#X connect 0 0 13 0;
#X connect 0 0 4 0;
#X connect 1 0 2 0;
#X connect 1 0 26 2;
#X connect 2 0 26 1;
#X connect 3 0 11 0;
#X connect 3 0 24 1;
#X connect 4 0 5 0;
#X connect 5 0 23 0;
#X connect 7 0 8 0;
#X connect 8 0 14 0;
#X connect 8 0 4 1;
#X connect 10 0 22 0;
#X connect 13 0 12 0;
#X connect 14 0 15 0;
#X connect 15 0 16 0;
#X connect 16 0 17 0;
#X connect 17 0 46 0;
#X connect 17 1 47 0;
#X connect 19 0 1 0;
#X connect 21 0 18 0;
#X connect 21 0 4 2;
#X connect 22 0 4 2;
#X connect 23 0 30 0;
#X connect 24 0 44 0;
#X connect 25 0 24 2;
#X connect 26 0 0 0;
#X connect 27 0 24 3;
#X connect 29 0 24 4;
#X connect 29 0 28 0;
#X connect 30 0 24 0;
#X connect 31 0 32 0;
#X connect 32 0 30 1;
#X connect 33 0 36 0;
#X connect 34 0 31 0;
#X connect 35 0 33 0;
#X connect 36 0 34 0;
#X connect 37 0 35 0;
#X connect 38 0 26 0;
#X connect 39 0 41 0;
#X connect 39 0 26 0;
#X connect 40 0 39 0;
#X connect 42 0 39 1;
#X connect 43 0 9 0;
#X connect 44 0 43 0;
#X connect 45 0 2 0;
#X connect 46 0 20 0;
#X connect 47 0 20 0;
#X coords 0 -1 1 1 240 100 1 100 100;
#X restore 258 504 pd Fez9000_Melody_Line;
#X obj 324 184 r fez-k-b2-7;
#X floatatom 324 220 5 0 0 0 - - - 0;
#N canvas 0 0 636 1009 Fez9000_Melody_DelayVerb 0;
#X obj 126 50 inlet~;
#X obj 176 282 Rev_Delay;
#X obj 206 137 Knob_Map fez-k-b2-4 0 127;
#X obj 214 163 Knob_Map fez-k-b2-5 0 127;
#X obj 226 190 Knob_Map fez-k-b2-6 0 127;
#X obj 235 219 Knob_Map fez-k-b2-7 0 127;
#X obj 132 393 outlet~;
#X connect 0 0 1 0;
#X connect 1 0 6 0;
#X connect 2 0 1 1;
#X connect 3 0 1 2;
#X connect 4 0 1 3;
#X connect 5 0 1 4;
#X restore 258 627 pd Fez9000_Melody_DelayVerb;
#N canvas 640 18 636 1009 Fez9000_Fez_O_Gene 0;
#X obj 453 293 soundfiler;
#X floatatom 464 353 14 0 0 0 - - - 0;
#X obj 464 378 f;
#X obj 585 373 bng 15 250 50 0 empty empty empty 17 7 0 10 #fcfcfc
#000000 #000000;
#X obj 100 710 bng 15 250 50 0 empty empty empty 17 7 0 10 #fcfcfc
#000000 #000000;
#N canvas 0 0 636 1009 (subpatch) 0;
#X array fezogene-sample 731803 float 2;
#X coords 0 1 731803 -1 280 100 1 0 0;
#X restore 113 144 graph;
#X msg 626 305 \; fezogene-sample normalize;
#X obj 477 447 s \$0-sample_size;
#X obj 265 622 r \$0-sample_size;
#X floatatom 270 656 5 0 0 0 - - - 0;
#X obj 115 869 Long_Grain fezogene-sample;
#X floatatom 247 814 5 0 0 0 - - - 0;
#X obj 169 637 bng 15 250 50 0 empty empty empty 17 7 0 10 #fcfcfc
#000000 #000000;
#X floatatom 331 839 5 0 0 0 - - - 0;
#X obj 289 111 bng 30 250 50 0 empty empty empty 17 7 0 10 #fcfcfc
#ff0400 #000000;
#X obj 326 111 bng 30 250 50 0 empty empty empty 17 7 0 10 #ffffff
#00ff04 #000000;
#X obj 361 111 bng 30 250 50 0 empty empty empty 17 7 0 10 #fcfcfc
#0400ff #000000;
#X obj 176 1161 outlet~;
#X obj 114 918 throw~ fezogene-out;
#X obj 183 978 catch~ fezogene-out;
#X obj 197 1100 hip~ 800;
#X obj 200 351 r fez-key-root;
#X floatatom 200 389 5 0 0 0 - - - 0;
#X floatatom 200 440 5 0 0 0 - - - 0;
#X obj 200 471 s \$0-fezogene-root;
#X obj 247 786 r \$0-fezogene-root;
#X text 313 346 transpose in the right direction, f 15;
#X obj 472 710 bng 15 250 50 0 empty empty empty 17 7 0 10 #fcfcfc
#000000 #000000;
#X obj 637 622 r \$0-sample_size;
#X floatatom 642 656 5 0 0 0 - - - 0;
#X obj 487 869 Long_Grain fezogene-sample;
#X floatatom 619 814 5 0 0 0 - - - 0;
#X obj 541 637 bng 15 250 50 0 empty empty empty 17 7 0 10 #fcfcfc
#000000 #000000;
#X obj 407 700 spigot;
#X floatatom 446 670 5 0 0 0 - - - 0;
#X obj 417 582 random 10, f 11;
#X obj 384 549 t b b;
#X obj 541 526 r fez-4bar;
#X obj 486 918 throw~ fezogene-out;
#X floatatom 579 586 5 0 0 0 - - - 0;
#X floatatom 445 607 5 0 0 0 - - - 0;
#X obj 619 786 r \$0-fezogene-root;
#X obj 562 1174 bng 15 250 50 0 empty empty empty 17 7 0 10 #fcfcfc
#000000 #000000;
#X obj 697 1084 r \$0-sample_size;
#X floatatom 702 1118 5 0 0 0 - - - 0;
#X obj 547 1331 Long_Grain fezogene-sample;
#X floatatom 679 1276 5 0 0 0 - - - 0;
#X obj 601 1099 bng 15 250 50 0 empty empty empty 17 7 0 10 #fcfcfc
#000000 #000000;
#X obj 467 1162 spigot;
#X floatatom 506 1132 5 0 0 0 - - - 0;
#X obj 477 1044 random 10, f 11;
#X obj 444 1011 t b b;
#X obj 601 988 r fez-4bar;
#X floatatom 763 1301 5 0 0 0 - - - 0;
#X obj 445 975 r fez-4th;
#X obj 546 1380 throw~ fezogene-out;
#X floatatom 639 1048 5 0 0 0 - - - 0;
#X floatatom 505 1069 5 0 0 0 - - - 0;
#X obj 679 1248 r \$0-fezogene-root;
#X msg 458 141 read -resize samples/ep.wav fezogene-sample;
#X msg 486 169 read -resize samples/mtron_choir.wav fezogene-sample
;
#X msg 502 194 read -resize samples/mtron_strings.wav fezogene-sample
;
#X floatatom 451 45 5 0 0 0 - - - 0;
#X obj 385 513 r fez-half;
#X obj 199 1063 lop~ 8000;
#X obj 13 513 r fez-1bar;
#X obj 169 526 r fez-4bar;
#X obj 579 561 random 4;
#X obj 639 1023 random 3;
#X msg 513 219 read -resize samples/cep1.wav fezogene-sample;
#X msg 528 243 read -resize samples/cep2.wav fezogene-sample;
#X obj 452 71 sel 0 1 2 3;
#X obj 451 14 Knob_Map fez-k-b2-9 0 4;
#X obj 506 1104 < 6;
#X obj 446 642 < 6;
#X msg 718 856 1;
#X obj 716 832 loadbang;
#X obj 204 1026 *~ 0.5;
#X obj 200 414 expr if($f1 > 7 \, $f1-12 \, $f1);
#X connect 0 0 1 0;
#X connect 1 0 2 0;
#X connect 2 0 7 0;
#X connect 3 0 2 0;
#X connect 4 0 10 0;
#X connect 4 0 14 0;
#X connect 8 0 9 0;
#X connect 8 0 10 1;
#X connect 10 0 18 0;
#X connect 11 0 10 2;
#X connect 12 0 10 1;
#X connect 13 0 10 3;
#X connect 19 0 77 0;
#X connect 20 0 17 0;
#X connect 21 0 22 0;
#X connect 22 0 78 0;
#X connect 23 0 24 0;
#X connect 25 0 11 0;
#X connect 27 0 15 0;
#X connect 27 0 30 0;
#X connect 28 0 29 0;
#X connect 28 0 30 1;
#X connect 30 0 38 0;
#X connect 31 0 30 2;
#X connect 32 0 30 1;
#X connect 33 0 27 0;
#X connect 34 0 33 1;
#X connect 35 0 40 0;
#X connect 35 0 74 0;
#X connect 36 0 33 0;
#X connect 36 1 35 0;
#X connect 37 0 32 0;
#X connect 37 0 67 0;
#X connect 39 0 74 1;
#X connect 41 0 31 0;
#X connect 42 0 16 0;
#X connect 42 0 45 0;
#X connect 43 0 44 0;
#X connect 43 0 45 1;
#X connect 45 0 55 0;
#X connect 46 0 45 2;
#X connect 47 0 45 1;
#X connect 48 0 42 0;
#X connect 49 0 48 1;
#X connect 50 0 57 0;
#X connect 50 0 73 0;
#X connect 51 0 48 0;
#X connect 51 1 50 0;
#X connect 52 0 47 0;
#X connect 52 0 68 0;
#X connect 53 0 45 3;
#X connect 54 0 51 0;
#X connect 56 0 73 1;
#X connect 58 0 46 0;
#X connect 59 0 0 0;
#X connect 60 0 0 0;
#X connect 61 0 0 0;
#X connect 62 0 71 0;
#X connect 63 0 36 0;
#X connect 64 0 20 0;
#X connect 65 0 4 0;
#X connect 66 0 12 0;
#X connect 67 0 39 0;
#X connect 68 0 56 0;
#X connect 69 0 0 0;
#X connect 70 0 0 0;
#X connect 71 0 59 0;
#X connect 71 1 60 0;
#X connect 71 2 61 0;
#X connect 71 3 69 0;
#X connect 71 4 70 0;
#X connect 72 0 62 0;
#X connect 73 0 49 0;
#X connect 74 0 34 0;
#X connect 75 0 30 3;
#X connect 76 0 75 0;
#X connect 77 0 64 0;
#X connect 78 0 23 0;
#X coords 0 -1 1 1 300 150 1 100 100;
#X restore 565 604 pd Fez9000_Fez_O_Gene;
#X obj 502 859 Rev_Delay;
#X obj 24 320 Knob_Map fez-k-b1-3 0 12;
#X connect 6 0 24 0;
#X connect 7 0 6 1;
#X connect 8 0 6 2;
#X connect 9 0 10 0;
#X connect 11 0 10 1;
#X connect 12 0 9 0;
#X connect 13 0 11 0;
#X connect 14 0 9 0;
#X connect 14 0 11 0;
#X connect 16 0 17 0;
#X connect 17 0 18 0;
#X connect 19 0 17 1;
#X connect 20 0 21 0;
#X connect 22 0 19 0;
#X connect 23 0 20 1;
#X connect 24 0 20 0;
#X connect 27 0 30 0;
#X connect 28 0 29 0;
#X connect 30 0 20 2;
#X connect 31 0 32 0;
#X connect 32 0 20 3;
#X connect 33 0 6 0;
#X connect 33 0 15 0;
