#N canvas 8 194 1066 598 12;
#X obj 337 21 inlet~;
#X obj 341 519 outlet~;
#X obj 337 59 delwrite~ \$0-fez-raga-comp 400;
#X obj 343 149 delread4~ \$0-fez-raga-comp 25;
#X obj 569 58 env~ 1024;
#X obj 565 183 moses;
#X obj 565 223 bng 15 250 50 0 empty empty empty 17 7 0 10 #fcfcfc
#000000 #000000;
#X obj 597 119 loadbang;
#X floatatom 596 221 5 0 0 0 - - - 0;
#X floatatom 596 284 5 0 0 0 - - - 0;
#X obj 596 314 expr 100 + $f1;
#X floatatom 596 338 5 0 0 0 - - - 0;
#X obj 596 361 dbtorms;
#X floatatom 596 385 5 0 0 0 - - - 0;
#X obj 342 455 *~;
#X obj 401 439 line~;
#X msg 546 273 1;
#X msg 401 407 \$1 23;
#X obj 108 137 hsl 128 15 0 5 0 0 empty empty comp -2 -8 0 10 #fcfcfc
#000000 #000000 0 1;
#X obj 207 245 snapshot~;
#X obj 206 221 metro 23;
#X obj 205 192 loadbang;
#X obj 273 192 bng 15 250 50 0 empty empty empty 17 7 0 10 #fcfcfc
#000000 #000000;
#X floatatom 604 90 5 0 0 0 - - - 0;
#X msg 597 152 65;
#X msg 424 352 \$1 23;
#X obj 594 259 expr (65-$f1)/2;
#X connect 0 0 2 0;
#X connect 0 0 4 0;
#X connect 3 0 14 0;
#X connect 4 0 23 0;
#X connect 4 0 5 0;
#X connect 5 0 6 0;
#X connect 5 1 8 0;
#X connect 6 0 16 0;
#X connect 7 0 24 0;
#X connect 8 0 26 0;
#X connect 9 0 10 0;
#X connect 10 0 11 0;
#X connect 11 0 12 0;
#X connect 12 0 13 0;
#X connect 13 0 17 0;
#X connect 14 0 1 0;
#X connect 15 0 14 1;
#X connect 15 0 19 0;
#X connect 16 0 25 0;
#X connect 17 0 15 0;
#X connect 19 0 18 0;
#X connect 20 0 19 0;
#X connect 21 0 20 0;
#X connect 22 0 20 0;
#X connect 24 0 5 1;
#X connect 25 0 15 0;
#X connect 26 0 9 0;
#X coords 0 -1 1 1 160 60 1 100 100;
