#N canvas 321 25 1210 829 12;
#X obj 119 57 inlet;
#X obj 119 118 s \$0-key;
#X text 19 20 inversion 1: 0/3 3/4 4/4 2/5;
#X obj 33 629 FezChord-V, f 21;
#X obj 91 526 r \$0-key;
#X obj 148 574 r \$0-rel;
#X obj 177 597 r \$0-fms;
#X obj 33 656 throw~ \$0-vout;
#X obj 152 718 catch~ \$0-vout;
#X obj 42 53 inlet;
#X obj 43 79 bng 15 250 50 0 empty empty empty 17 7 0 10 #fcfcfc #000000
#000000;
#X obj 43 99 s \$0-trig;
#X obj 35 427 FezChord-V, f 21;
#X obj 93 324 r \$0-key;
#X obj 150 372 r \$0-rel;
#X obj 179 395 r \$0-fms;
#X obj 121 348 r \$0-v1_oct;
#X obj 62 302 r \$0-v1_n;
#X obj 35 454 throw~ \$0-vout;
#X obj 250 639 FezChord-V, f 21;
#X obj 308 536 r \$0-key;
#X obj 365 584 r \$0-rel;
#X obj 394 607 r \$0-fms;
#X obj 250 666 throw~ \$0-vout;
#X obj 252 437 FezChord-V, f 21;
#X obj 310 334 r \$0-key;
#X obj 367 382 r \$0-rel;
#X obj 396 405 r \$0-fms;
#X obj 252 464 throw~ \$0-vout;
#X obj 464 443 FezChord-V, f 21;
#X obj 522 340 r \$0-key;
#X obj 579 388 r \$0-rel;
#X obj 608 411 r \$0-fms;
#X obj 464 470 throw~ \$0-vout;
#X obj 254 290 r \$0-v2_t;
#X obj 466 296 r \$0-v3_t;
#X obj 35 482 r \$0-v4_t;
#X obj 252 492 r \$0-v5_t;
#X obj 119 550 r \$0-v4_oct;
#X obj 60 504 r \$0-v4_n;
#X obj 336 560 r \$0-v5_oct;
#X obj 277 514 r \$0-v5_n;
#X obj 37 280 r \$0-v1_t;
#X obj 279 312 r \$0-v2_n;
#X obj 338 358 r \$0-v2_oct;
#X obj 550 364 r \$0-v3_oct;
#X obj 491 318 r \$0-v3_n;
#X obj 474 37 r \$0-trig;
#X obj 632 38 s \$0-v1_t;
#X obj 629 261 s \$0-v2_t;
#X obj 628 198 s \$0-v3_t;
#X obj 628 142 s \$0-v4_t;
#X obj 628 89 s \$0-v5_t;
#X msg 807 342 0;
#X obj 807 366 s \$0-v1_n;
#X obj 807 318 r \$0-iv;
#X obj 911 313 r \$0-iv;
#X obj 1011 296 r \$0-iv;
#X obj 806 396 r \$0-iv;
#X obj 910 396 r \$0-iv;
#X obj 911 366 s \$0-v2_n;
#X obj 1011 366 s \$0-v3_n;
#X obj 806 444 s \$0-v4_n;
#X obj 910 444 s \$0-v5_n;
#X msg 911 342 3;
#X msg 1011 342 4;
#X msg 910 420 3;
#X msg 806 420 1;
#X obj 785 707 bng 15 250 50 0 empty empty empty 17 7 0 10 #fcfcfc
#000000 #000000;
#X obj 785 727 s \$0-iv;
#X obj 718 728 s \$0-key;
#X obj 912 478 r \$0-iv;
#X obj 1012 478 r \$0-iv;
#X obj 807 556 r \$0-iv;
#X obj 911 556 r \$0-iv;
#X msg 912 502 4;
#X msg 1012 502 4;
#X msg 807 580 5;
#X msg 911 580 5;
#X obj 808 478 r \$0-iv;
#X msg 864 706 800;
#X obj 864 730 s \$0-rel;
#X obj 952 705 bng 15 250 50 0 empty empty empty 17 7 0 10 #fcfcfc
#000000 #000000;
#X obj 952 725 s \$0-fms;
#X obj 808 526 s \$0-v1_oct;
#X obj 912 526 s \$0-v2_oct;
#X obj 1012 526 s \$0-v3_oct;
#X obj 807 604 s \$0-v4_oct;
#X obj 911 604 s \$0-v5_oct;
#X obj 270 54 inlet;
#X obj 270 99 s \$0-bl;
#X obj 641 701 r \$0-bl;
#X obj 641 725 * 5;
#X obj 641 749 s \$0-rel;
#X obj 785 681 loadbang;
#X obj 119 85 t b l;
#X obj 184 118 s \$0-iv;
#X obj 152 749 *~ 0.25;
#X floatatom 342 51 5 0 0 0 - - - 0;
#X obj 609 40 bng 15 250 50 0 empty empty empty 17 7 0 10 #fcfcfc #000000
#000000;
#X obj 605 92 bng 15 250 50 0 empty empty empty 17 7 0 10 #fcfcfc #000000
#000000;
#X obj 607 142 bng 15 250 50 0 empty empty empty 17 7 0 10 #fcfcfc
#000000 #000000;
#X obj 606 197 bng 15 250 50 0 empty empty empty 17 7 0 10 #fcfcfc
#000000 #000000;
#X obj 606 263 bng 15 250 50 0 empty empty empty 17 7 0 10 #fcfcfc
#000000 #000000;
#X obj 632 64 delay 100;
#X obj 563 116 delay 100;
#X obj 643 168 delay 100;
#X obj 628 229 delay 75;
#X obj 930 21 inlet;
#X obj 929 47 bng 15 250 50 0 empty empty empty 17 7 0 10 #fcfcfc #000000
#000000;
#X msg 808 502 4;
#X obj 152 775 lop~ 1000;
#X msg 718 704 4 0;
#X obj 152 805 outlet~;
#X obj 930 125 + 80;
#X obj 1004 23 s \$0-fms;
#X obj 474 115 random 2;
#X obj 474 139 == 0;
#X obj 474 163 sel 0;
#X obj 521 166 bng 15 250 50 0 empty empty empty 17 7 0 10 #fcfcfc
#000000 #000000;
#X obj 474 206 random 2;
#X obj 474 230 == 0;
#X obj 474 254 sel 0;
#X obj 521 257 bng 15 250 50 0 empty empty empty 17 7 0 10 #fcfcfc
#000000 #000000;
#X obj 1125 31 inlet;
#X obj 1125 55 s \$0-rn;
#X obj 583 508 r \$0-rn;
#X obj 583 532 random 5;
#X obj 583 556 sel 0 1 2 3 4;
#X obj 514 595 s \$0-v1_t;
#X obj 514 624 s \$0-v2_t;
#X obj 513 651 s \$0-v3_t;
#X obj 515 678 s \$0-v4_t;
#X obj 515 704 s \$0-v5_t;
#X obj 1092 16 bng 15 250 50 0 empty empty empty 17 7 0 10 #fcfcfc
#000000 #000000;
#X floatatom 657 532 5 0 0 0 - - - 0;
#X obj 930 101 random 400;
#X connect 0 0 95 0;
#X connect 3 0 7 0;
#X connect 4 0 3 2;
#X connect 5 0 3 4;
#X connect 6 0 3 5;
#X connect 8 0 97 0;
#X connect 9 0 10 0;
#X connect 10 0 11 0;
#X connect 12 0 18 0;
#X connect 13 0 12 2;
#X connect 14 0 12 4;
#X connect 15 0 12 5;
#X connect 16 0 12 3;
#X connect 17 0 12 1;
#X connect 19 0 23 0;
#X connect 20 0 19 2;
#X connect 21 0 19 4;
#X connect 22 0 19 5;
#X connect 24 0 28 0;
#X connect 25 0 24 2;
#X connect 26 0 24 4;
#X connect 27 0 24 5;
#X connect 29 0 33 0;
#X connect 30 0 29 2;
#X connect 31 0 29 4;
#X connect 32 0 29 5;
#X connect 34 0 24 0;
#X connect 35 0 29 0;
#X connect 36 0 3 0;
#X connect 37 0 19 0;
#X connect 38 0 3 3;
#X connect 39 0 3 1;
#X connect 40 0 19 3;
#X connect 41 0 19 1;
#X connect 42 0 12 0;
#X connect 43 0 24 1;
#X connect 44 0 24 3;
#X connect 45 0 29 3;
#X connect 46 0 29 1;
#X connect 47 0 99 0;
#X connect 53 0 54 0;
#X connect 55 0 53 0;
#X connect 56 0 64 0;
#X connect 57 0 65 0;
#X connect 58 0 67 0;
#X connect 59 0 66 0;
#X connect 64 0 60 0;
#X connect 65 0 61 0;
#X connect 66 0 63 0;
#X connect 67 0 62 0;
#X connect 68 0 69 0;
#X connect 71 0 75 0;
#X connect 72 0 76 0;
#X connect 73 0 77 0;
#X connect 74 0 78 0;
#X connect 75 0 85 0;
#X connect 76 0 86 0;
#X connect 77 0 87 0;
#X connect 78 0 88 0;
#X connect 79 0 110 0;
#X connect 80 0 81 0;
#X connect 82 0 83 0;
#X connect 89 0 90 0;
#X connect 91 0 92 0;
#X connect 92 0 93 0;
#X connect 94 0 68 0;
#X connect 95 0 96 0;
#X connect 95 1 1 0;
#X connect 97 0 111 0;
#X connect 98 0 90 0;
#X connect 99 0 48 0;
#X connect 99 0 104 0;
#X connect 100 0 52 0;
#X connect 100 0 105 0;
#X connect 101 0 106 0;
#X connect 101 0 116 0;
#X connect 102 0 50 0;
#X connect 102 0 107 0;
#X connect 103 0 120 0;
#X connect 104 0 100 0;
#X connect 105 0 101 0;
#X connect 106 0 102 0;
#X connect 107 0 103 0;
#X connect 108 0 109 0;
#X connect 109 0 115 0;
#X connect 109 0 136 0;
#X connect 110 0 84 0;
#X connect 111 0 113 0;
#X connect 112 0 70 0;
#X connect 114 0 104 1;
#X connect 114 0 105 1;
#X connect 114 0 106 1;
#X connect 114 0 107 1;
#X connect 116 0 117 0;
#X connect 117 0 118 0;
#X connect 118 0 119 0;
#X connect 119 0 51 0;
#X connect 120 0 121 0;
#X connect 121 0 122 0;
#X connect 122 0 123 0;
#X connect 123 0 49 0;
#X connect 124 0 125 0;
#X connect 126 0 127 0;
#X connect 127 0 128 0;
#X connect 127 0 135 0;
#X connect 128 0 129 0;
#X connect 128 1 130 0;
#X connect 128 2 131 0;
#X connect 128 3 132 0;
#X connect 128 4 133 0;
#X connect 134 0 125 0;
#X connect 136 0 114 0;
