#N canvas 469 494 450 300 12;
#X obj 29 6 inlet;
#X obj 27 259 outlet;
#X obj 29 38 random 2;
#X obj 29 85 sel 0;
#X obj 29 124 f \$1;
#X obj 68 124 f \$2;
#X connect 0 0 2 0;
#X connect 2 0 3 0;
#X connect 3 0 4 0;
#X connect 3 1 5 0;
#X connect 4 0 1 0;
#X connect 5 0 1 0;
