#N canvas 2401 274 509 605 12;
#X obj 171 261 Scaler;
#X floatatom 172 342 5 0 0 0 - - - 0;
#X obj 171 392 FezFM;
#X obj 140 521 Fez9000-ENV;
#X obj 212 363 r \$0-fms;
#X obj 151 435 *~;
#X obj 169 57 inlet;
#X obj 249 58 inlet;
#X obj 210 27 inlet;
#X obj 56 253 inlet;
#X obj 322 52 inlet;
#X obj 322 76 s \$0-r;
#X obj 299 441 r \$0-r;
#X obj 301 374 loadbang;
#X obj 300 398 bng 15 250 50 0 empty empty empty 17 7 0 10 #fcfcfc
#000000 #000000;
#X obj 406 37 inlet;
#X obj 399 75 s \$0-fms;
#X obj 294 512 outlet~;
#X msg 299 418 1;
#X msg 339 416 80;
#X connect 0 0 1 0;
#X connect 1 0 2 0;
#X connect 2 0 5 0;
#X connect 3 0 5 1;
#X connect 4 0 2 1;
#X connect 5 0 17 0;
#X connect 6 0 0 0;
#X connect 7 0 0 2;
#X connect 8 0 0 1;
#X connect 9 0 3 0;
#X connect 10 0 11 0;
#X connect 12 0 3 4;
#X connect 13 0 14 0;
#X connect 14 0 18 0;
#X connect 14 0 19 0;
#X connect 15 0 16 0;
#X connect 18 0 3 3;
#X connect 19 0 3 1;
