#N canvas 752 223 928 685 12;
#X obj 668 427 MoarScaler;
#X obj 45 162 random 3;
#X obj 50 209 sel 0 1 2;
#X msg 52 273 8;
#X msg 95 275 7;
#X msg 137 277 5;
#X obj 50 343 s \$0-sn;
#X obj 469 240 Counter;
#X obj 45 133 r \$0-shuf;
#X obj 474 80 r \$0-shuf;
#X obj 145 136 loadbang;
#X obj 145 163 bng 15 250 50 0 empty empty empty 17 7 0 10 #fcfcfc
#000000 #000000;
#X obj 145 192 s \$0-shuf;
#X obj 470 311 expr $f2-$f1;
#X obj 550 239 r \$0-sn;
#X floatatom 471 349 5 0 0 0 - - - 0;
#X obj 376 150 bng 15 250 50 0 empty empty empty 17 7 0 10 #fcfcfc
#000000 #000000;
#X obj 471 411 spigot;
#X obj 366 277 == 0;
#X floatatom 367 315 5 0 0 0 - - - 0;
#X obj 367 339 sel 1;
#X obj 368 375 bng 15 250 50 0 empty empty empty 17 7 0 10 #fcfcfc
#000000 #000000;
#X msg 705 151 1;
#X obj 705 127 bng 15 250 50 0 empty empty empty 17 7 0 10 #fcfcfc
#000000 #000000;
#X obj 705 97 r \$0-reset;
#X obj 517 184 r \$0-reset;
#X obj 510 382 r \$0-open;
#X obj 705 183 s \$0-open;
#X msg 368 400 0;
#X obj 368 424 s \$0-open;
#X floatatom 473 442 5 0 0 0 - - - 0;
#X floatatom 488 273 5 0 0 0 - - - 0;
#X obj 369 241 - 1;
#X obj 48 9 inlet;
#X obj 151 9 inlet;
#X obj 48 36 s \$0-clk;
#X obj 151 33 s \$0-shuf;
#X obj 251 6 inlet;
#X obj 251 30 s \$0-reset;
#X obj 376 115 r \$0-clk;
#X obj 452 531 outlet;
#X obj 473 138 expr 4+$f1;
#X obj 474 110 random 3;
#X connect 1 0 2 0;
#X connect 2 0 3 0;
#X connect 2 1 4 0;
#X connect 2 2 5 0;
#X connect 3 0 6 0;
#X connect 4 0 6 0;
#X connect 5 0 6 0;
#X connect 7 0 13 0;
#X connect 7 0 18 0;
#X connect 7 0 31 0;
#X connect 8 0 1 0;
#X connect 9 0 42 0;
#X connect 10 0 11 0;
#X connect 11 0 12 0;
#X connect 13 0 15 0;
#X connect 14 0 13 1;
#X connect 15 0 17 0;
#X connect 16 0 7 0;
#X connect 17 0 30 0;
#X connect 18 0 19 0;
#X connect 19 0 20 0;
#X connect 20 0 21 0;
#X connect 21 0 28 0;
#X connect 22 0 27 0;
#X connect 23 0 22 0;
#X connect 24 0 23 0;
#X connect 25 0 7 1;
#X connect 26 0 17 1;
#X connect 28 0 29 0;
#X connect 30 0 40 0;
#X connect 32 0 18 1;
#X connect 33 0 35 0;
#X connect 34 0 36 0;
#X connect 37 0 38 0;
#X connect 39 0 16 0;
#X connect 41 0 7 2;
#X connect 41 0 32 0;
#X connect 42 0 41 0;
