#N canvas 620 111 1060 813 12;
#X obj 94 153 inlet;
#X obj 259 52 inlet;
#X symbolatom 258 339 37 0 0 0 - - - 0;
#X obj 258 257 + 1;
#X floatatom 258 282 5 0 0 0 - - - 0;
#X obj 257 233 % 6;
#X obj 258 308 makefilename samples/hits/\$1_%d.wav;
#X obj 257 203 random 6;
#X obj 483 757 outlet~;
#X obj 105 454 soundfiler;
#X obj 481 606 *~;
#N canvas 0 22 450 278 (subpatch) 0;
#X array \$0-fezdrumhit 10863 float 0;
#X coords 0 1 10862 -1 200 140 1;
#X restore 85 624 graph;
#X obj 173 340 f \$0;
#X obj 106 340 pack s f;
#X obj 175 306 bng 15 250 50 0 empty empty empty 17 7 0 10 #fcfcfc
#000000 #000000;
#X obj 175 276 loadbang;
#X msg 106 384 read -resize \$1 \$2-fezdrumhit;
#X obj 91 243 s \$0-hit;
#X obj 105 480 s \$0-len;
#X obj 514 606 r \$0-len;
#X obj 482 555 vline~;
#X msg 482 512 0 0 \, 1 \$1;
#X obj 482 457 f;
#X obj 515 407 r \$0-len;
#X obj 479 405 bng 15 250 50 0 empty empty empty 17 7 0 10 #fcfcfc
#000000 #000000;
#X obj 479 379 r \$0-hit;
#X floatatom 382 484 10 0 0 0 - - - 0;
#X obj 515 431 / 44.1;
#X obj 481 654 tabread4~ \$0-fezdrumhit;
#X obj 479 486 *;
#X obj 370 164 s \$0-shuf;
#X obj 409 70 loadbang;
#X obj 257 174 r \$0-shuf;
#X obj 719 448 random 100;
#X floatatom 719 496 5 0 0 0 - - - 0;
#X obj 370 102 bng 15 250 50 0 empty empty empty 17 7 0 10 #fcfcfc
#000000 #000000;
#X obj 719 418 r \$0-shuf;
#X obj 670 413 bng 15 250 50 0 empty empty empty 17 7 0 10 #fcfcfc
#000000 #000000;
#X obj 719 472 expr 0.9 + ($f1/200);
#X obj 55 190 t b f;
#X obj 112 189 s \$0-int;
#X obj 639 700 r \$0-int;
#X obj 482 705 *~;
#X msg 535 711 1;
#X msg 583 763 0.25;
#X obj 650 756 bng 15 250 50 0 empty empty empty 17 7 0 10 #fcfcfc
#000000 #000000;
#X obj 639 723 sel 1;
#X obj 130 566 array;
#X msg 181 513 \; \$1-fezdrumhit normalize;
#X obj 214 479 f \$0;
#X obj 221 454 bng 15 250 50 0 empty empty empty 17 7 0 10 #fcfcfc
#000000 #000000;
#X obj 307 82 bng 15 250 50 0 empty empty empty 17 7 0 10 #fcfcfc #000000
#000000;
#X connect 0 0 39 0;
#X connect 1 0 30 0;
#X connect 1 0 51 0;
#X connect 2 0 13 0;
#X connect 3 0 4 0;
#X connect 4 0 6 0;
#X connect 5 0 3 0;
#X connect 6 0 2 0;
#X connect 7 0 5 0;
#X connect 9 0 18 0;
#X connect 9 0 50 0;
#X connect 10 0 28 0;
#X connect 12 0 13 1;
#X connect 13 0 16 0;
#X connect 14 0 12 0;
#X connect 15 0 14 0;
#X connect 16 0 9 0;
#X connect 19 0 10 1;
#X connect 20 0 10 0;
#X connect 21 0 20 0;
#X connect 22 0 26 0;
#X connect 22 0 29 0;
#X connect 23 0 27 0;
#X connect 24 0 22 0;
#X connect 25 0 24 0;
#X connect 27 0 22 1;
#X connect 28 0 42 0;
#X connect 29 0 21 0;
#X connect 31 0 30 0;
#X connect 32 0 7 0;
#X connect 33 0 38 0;
#X connect 34 0 29 1;
#X connect 35 0 30 0;
#X connect 36 0 33 0;
#X connect 37 0 33 0;
#X connect 38 0 34 0;
#X connect 39 0 17 0;
#X connect 39 1 40 0;
#X connect 41 0 46 0;
#X connect 42 0 8 0;
#X connect 43 0 42 1;
#X connect 44 0 42 1;
#X connect 46 0 44 0;
#X connect 46 0 45 0;
#X connect 46 1 43 0;
#X connect 49 0 48 0;
#X connect 50 0 49 0;
#X coords 0 813 1 812 120 120 0;
