#N canvas 68 146 960 716 12;
#X obj 365 480 osc~;
#X obj 278 370 mtof;
#X obj 374 420 +~;
#X floatatom 451 145 5 0 0 0 - - - 0;
#X obj 451 172 osc~;
#X obj 452 198 *~;
#X obj 267 217 hsl 128 15 0 40 0 0 empty empty empty -2 -8 0 10 #fcfcfc
#000000 #000000 0 1;
#X obj 303 284 *;
#X floatatom 303 240 5 0 0 0 - - - 0;
#X obj 321 173 + 4;
#X obj 329 91 bng 15 250 50 0 empty empty empty 17 7 0 10 #fcfcfc #000000
#000000;
#X obj 512 138 loadbang;
#X obj 331 59 inlet;
#X obj 70 51 inlet;
#X obj 305 666 outlet~;
#X obj 380 59 loadbang;
#X obj 321 149 random 100;
#X msg 512 168 120;
#X connect 0 0 14 0;
#X connect 1 0 2 0;
#X connect 1 0 7 0;
#X connect 2 0 0 0;
#X connect 3 0 4 0;
#X connect 4 0 5 0;
#X connect 5 0 2 1;
#X connect 6 0 7 1;
#X connect 6 0 8 0;
#X connect 7 0 3 0;
#X connect 9 0 6 0;
#X connect 10 0 16 0;
#X connect 11 0 17 0;
#X connect 12 0 10 0;
#X connect 13 0 1 0;
#X connect 15 0 10 0;
#X connect 16 0 9 0;
#X connect 17 0 5 1;
