#N canvas 932 80 748 502 12;
#X obj 273 393 outlet;
#X obj 270 235 f \$1;
#X obj 366 234 + 1;
#X obj 365 303 spigot;
#X obj 270 303 spigot;
#X obj 283 180 > 6;
#X floatatom 432 240 5 0 0 0 - - - 0;
#X obj 325 180 < 7;
#X floatatom 379 155 5 0 0 0 - - - 0;
#X floatatom 434 155 5 0 0 0 - - - 0;
#X obj 286 84 t b f;
#X obj 287 54 r fez-key-root;
#X floatatom 105 117 5 0 0 0 - - - 0;
#X connect 1 0 2 0;
#X connect 1 0 4 0;
#X connect 2 0 3 0;
#X connect 2 0 6 0;
#X connect 3 0 0 0;
#X connect 3 0 12 0;
#X connect 4 0 0 0;
#X connect 4 0 12 0;
#X connect 5 0 4 1;
#X connect 5 0 8 0;
#X connect 7 0 3 1;
#X connect 7 0 9 0;
#X connect 10 0 1 0;
#X connect 10 1 7 0;
#X connect 10 1 5 0;
#X connect 11 0 10 0;
#X coords 0 -1 1 1 85 40 1 100 100;
