#N canvas 201 25 1454 906 12;
#N canvas 0 50 450 250 (subpatch) 0;
#X array \$0-sample 731803 float 2;
#X coords 0 1 731803 -1 200 140 1;
#X restore 25 828 graph;
#X obj 710 82 r \$0-sample-size;
#X text 706 25 step 1 \, get sample size \, split into 16 pieces. 16
is arbitrary, f 28;
#X obj 18 479 r \$0-record;
#X obj 110 479 catch~ \$0-sample-in;
#X obj 110 521 tabwrite~ \$0-sample;
#X obj 18 576 array size \$0-sample;
#X obj 18 602 s \$0-sample-size;
#X obj 170 602 delay;
#X obj 170 576 / 44.1;
#X text 19 627 when record is done \, normalize sample, f 16;
#X obj 710 170 int;
#X obj 710 201 s \$0-slice-size;
#X obj 911 66 r \$0-slice-size;
#X text 1030 67 step 2 start position;
#X obj 911 95 t f b;
#X obj 911 146 *;
#X msg 170 661 \; \$1-sample normalize;
#X obj 170 631 f \$0;
#X obj 911 171 s \$0-start-pos;
#X obj 909 205 r \$0-slice-size;
#X text 1026 205 step 3 playback speed;
#X obj 909 230 / 44.1;
#X text 958 232 todo: transpose here;
#X obj 25 720 catch~ \$0-out;
#X obj 25 762 outlet~;
#X obj 438 896 tabread4~ \$0-sample;
#X obj 438 819 vline~;
#X obj 438 859 +~;
#X obj 470 858 r \$0-start-pos;
#X msg 435 727 0 0 \, \$1 \$2 0;
#X obj 435 696 pack f f;
#X obj 435 656 f;
#X obj 490 655 f;
#X obj 490 626 r \$0-playback-speed;
#X obj 453 603 r \$0-slice-size;
#X obj 909 421 *;
#X obj 909 298 t f b;
#X obj 969 324 sel 0 1, f 12;
#X msg 969 352 1;
#X msg 1009 373 0.5;
#X msg 1050 401 2;
#X obj 909 263 f;
#X obj 435 576 r \$0-trig;
#X obj 1035 299 r \$0-speed-select;
#X obj 437 967 throw~ \$0-out;
#X text 295 953 envelope;
#X obj 501 932 *~;
#X obj 422 929 vline~;
#X obj 905 454 s \$0-base-speed;
#X obj 1232 105 r \$0-base-speed;
#X text 1225 69 step 4 transpose;
#X text 1431 108 < transpose up/down;
#X floatatom 1386 170 5 0 0 0 - - - 0;
#X obj 1386 196 * 0.05776;
#X floatatom 1386 221 5 0 0 0 - - - 0;
#X obj 1386 253 exp;
#X floatatom 1386 278 5 0 0 0 - - - 0;
#X obj 1363 70 loadbang;
#X msg 1363 94 0;
#X obj 1386 312 expr 1/$f1;
#X floatatom 1386 337 5 0 0 0 - - - 0;
#X obj 1397 93 r \$0-trans;
#X obj 1232 159 *;
#X obj 1232 303 s \$0-playback-speed;
#X obj 1232 134 f;
#X obj 1302 225 t b f;
#X obj 269 29 inlet;
#X obj 269 54 s \$0-trig;
#X obj 459 30 inlet;
#X obj 459 55 s \$0-trans;
#X obj 543 30 inlet;
#X obj 543 55 s \$0-shuffle;
#X obj 32 22 inlet;
#X symbolatom 36 231 37 0 0 0 - - - 0;
#X obj 33 140 + 1;
#X floatatom 33 164 5 0 0 0 - - - 0;
#X floatatom 33 71 5 0 0 0 - - - 0;
#X obj 32 116 % 5;
#X obj 38 199 makefilename samples/fezogene/fez%04d.wav;
#X obj 36 296 pack s f;
#X obj 89 263 f \$0;
#X msg 35 340 read -resize \$1 \$2-sample;
#X obj 35 375 soundfiler;
#X obj 32 440 s \$0-sample-size;
#X obj 138 298 bng 15 250 50 0 empty empty empty 17 7 0 10 #fcfcfc
#000000 #000000;
#X obj 136 269 loadbang;
#X obj 32 407 t f b;
#X obj 258 404 f \$0;
#X obj 259 348 bng 15 250 50 0 empty empty empty 17 7 0 10 #fcfcfc
#000000 #000000;
#X msg 258 428 \; \$1-sample normalize 1;
#X obj 710 115 f;
#X obj 617 115 r \$0-shuffle;
#X msg 297 929 0 30 0 \, 1 100 30;
#X obj 358 23 inlet;
#X obj 358 54 s \$0-rev-trig;
#X obj 751 878 tabread4~ \$0-sample;
#X obj 751 801 vline~;
#X obj 751 841 +~;
#X obj 783 840 r \$0-start-pos;
#X obj 748 678 pack f f;
#X obj 748 638 f;
#X obj 803 637 f;
#X obj 803 608 r \$0-playback-speed;
#X obj 766 585 r \$0-slice-size;
#X obj 750 949 throw~ \$0-out;
#X text 608 935 envelope;
#X obj 814 914 *~;
#X obj 735 911 vline~;
#X msg 610 911 0 30 0 \, 1 100 30;
#X obj 748 558 r \$0-rev-trig;
#X msg 748 718 \$1 0 \, 0 \$2 0;
#X obj 970 96 random 12;
#X obj 597 599 outlet;
#X obj 710 145 / 8;
#X obj 969 299 random 2;
#X connect 1 0 91 0;
#X connect 3 0 5 0;
#X connect 3 0 6 0;
#X connect 4 0 5 0;
#X connect 6 0 7 0;
#X connect 6 0 9 0;
#X connect 8 0 18 0;
#X connect 9 0 8 0;
#X connect 11 0 12 0;
#X connect 13 0 15 0;
#X connect 15 0 16 0;
#X connect 15 1 112 0;
#X connect 16 0 19 0;
#X connect 18 0 17 0;
#X connect 20 0 22 0;
#X connect 22 0 42 0;
#X connect 24 0 25 0;
#X connect 26 0 47 0;
#X connect 27 0 28 0;
#X connect 28 0 26 0;
#X connect 29 0 28 1;
#X connect 30 0 27 0;
#X connect 31 0 30 0;
#X connect 32 0 31 0;
#X connect 33 0 31 1;
#X connect 34 0 33 0;
#X connect 35 0 32 1;
#X connect 36 0 49 0;
#X connect 37 0 36 0;
#X connect 37 1 115 0;
#X connect 38 0 39 0;
#X connect 38 1 40 0;
#X connect 38 2 41 0;
#X connect 39 0 36 1;
#X connect 40 0 36 1;
#X connect 41 0 36 1;
#X connect 42 0 37 0;
#X connect 43 0 32 0;
#X connect 43 0 93 0;
#X connect 43 0 113 0;
#X connect 44 0 38 0;
#X connect 47 0 45 0;
#X connect 48 0 47 1;
#X connect 50 0 65 0;
#X connect 53 0 54 0;
#X connect 54 0 55 0;
#X connect 55 0 56 0;
#X connect 56 0 57 0;
#X connect 57 0 60 0;
#X connect 58 0 59 0;
#X connect 59 0 53 0;
#X connect 60 0 61 0;
#X connect 61 0 66 0;
#X connect 62 0 53 0;
#X connect 63 0 64 0;
#X connect 65 0 63 0;
#X connect 66 0 65 0;
#X connect 66 1 63 1;
#X connect 67 0 68 0;
#X connect 69 0 70 0;
#X connect 71 0 72 0;
#X connect 73 0 77 0;
#X connect 74 0 80 0;
#X connect 75 0 76 0;
#X connect 76 0 79 0;
#X connect 77 0 78 0;
#X connect 78 0 75 0;
#X connect 79 0 74 0;
#X connect 80 0 82 0;
#X connect 81 0 80 1;
#X connect 82 0 83 0;
#X connect 83 0 87 0;
#X connect 85 0 81 0;
#X connect 86 0 85 0;
#X connect 87 0 84 0;
#X connect 87 1 88 0;
#X connect 88 0 90 0;
#X connect 89 0 88 0;
#X connect 91 0 114 0;
#X connect 92 0 91 0;
#X connect 93 0 48 0;
#X connect 94 0 95 0;
#X connect 96 0 107 0;
#X connect 97 0 98 0;
#X connect 98 0 96 0;
#X connect 99 0 98 1;
#X connect 100 0 111 0;
#X connect 101 0 100 0;
#X connect 102 0 100 1;
#X connect 103 0 102 0;
#X connect 104 0 101 1;
#X connect 107 0 105 0;
#X connect 108 0 107 1;
#X connect 109 0 108 0;
#X connect 110 0 101 0;
#X connect 110 0 109 0;
#X connect 110 0 113 0;
#X connect 111 0 97 0;
#X connect 112 0 16 1;
#X connect 114 0 11 0;
#X connect 115 0 38 0;
