#N canvas 1048 352 583 483 12;
#X obj 41 15 inlet~;
#X obj 48 443 outlet~;
#X obj 102 344 cyclone/lores~;
#X obj 188 18 inlet;
#X obj 297 54 loadbang;
#X floatatom 152 136 5 0 0 0 - - - 0;
#X obj 145 247 line~;
#X obj 167 82 random 200;
#X msg 147 196 \$1 5;
#X obj 153 106 + 300;
#X msg 260 103 0.9;
#X connect 0 0 2 0;
#X connect 2 0 1 0;
#X connect 3 0 7 0;
#X connect 4 0 10 0;
#X connect 4 0 7 0;
#X connect 5 0 8 0;
#X connect 6 0 2 1;
#X connect 7 0 9 0;
#X connect 8 0 6 0;
#X connect 9 0 5 0;
#X connect 10 0 2 2;
