#N canvas 960 18 956 1009 12;
#N canvas 0 22 450 278 (subpatch) 0;
#X array sample 185569 float 4;
#X coords 0 1 185568 -1 200 140 1;
#X restore 1643 1001 graph;
#X obj 1137 850 soundfiler;
#X floatatom 1146 946 14 0 0 0 - - - 0;
#X obj 1146 971 f;
#X obj 1159 1040 s sample_size;
#X obj 1114 968 bng 15 250 50 0 empty empty empty 17 7 0 10 #fcfcfc
#000000 #000000;
#X obj 154 853 Long_Grain sample;
#X obj 151 740 r sample_size;
#X obj 866 706 dac~;
#X obj 154 879 throw~ gout;
#X obj 1405 19 catch~ gout;
#X obj 899 660 Tapeish;
#X obj 946 614 tgl 15 0 empty empty empty 17 7 0 10 #fcfcfc #000000
#000000 0 1;
#X obj 45 818 r t;
#X obj 1457 266 *~;
#X obj 1515 266 hsl 128 15 0 1 0 0 empty empty empty -2 -8 0 10 #fcfcfc
#000000 #000000 0 1;
#X obj 265 722 random 2;
#X obj 265 753 sel 0;
#X obj 265 696 r r;
#X obj 291 147 tgl 15 0 empty empty empty 17 7 0 10 #fcfcfc #000000
#000000 0 1;
#X obj 295 696 bng 15 250 50 0 empty empty empty 17 7 0 10 #fcfcfc
#000000 #000000;
#X obj 281 815 bng 15 250 50 0 empty empty empty 17 7 0 10 #fcfcfc
#000000 #000000;
#X obj 893 616 rev1~;
#X obj 915 563 hsl 128 15 0 127 0 0 empty empty empty -2 -8 0 10 #fcfcfc
#000000 #000000 0 1;
#X obj 290 203 Multi_Clock;
#X floatatom 486 137 5 0 0 0 - - - 0;
#X floatatom 258 358 15 0 0 0 - - - 0;
#X msg 1137 824 read -resize samples/poultry.wav sample;
#X obj 798 488 delread4~ d 800;
#X obj 1457 314 delwrite~ d 2000;
#X obj 946 525 *~ 0.4;
#X obj 440 350 bng 15 250 50 0 empty empty empty 17 7 0 10 #fcfcfc
#000000 #000000;
#X obj 416 388 s t;
#X obj 404 357 bng 15 250 50 0 empty empty empty 17 7 0 10 #fcfcfc
#000000 #000000;
#X floatatom 850 433 5 0 0 0 - - - 0;
#X obj 489 330 s r;
#X msg 760 820 read -resize samples/lost_world_piano.wav sample;
#X msg 903 886 \; sample normalize;
#X obj 380 559 Drum_Loops;
#X obj 275 516 hradio 15 1 0 8 empty empty empty 0 -8 0 10 #fcfcfc
#000000 #000000 0;
#X obj 556 320 s BN;
#X obj 548 37 ctlin 8 1;
#X floatatom 577 75 5 0 0 0 - - - 0;
#X floatatom 216 535 5 0 0 0 - - - 0;
#X obj 216 559 expr $f1/(127/5);
#X floatatom 216 584 5 0 0 0 - - - 0;
#X obj 206 499 ctlin 8 9;
#X obj 216 608 int;
#X floatatom 216 633 5 0 0 0 - - - 0;
#X floatatom 760 845 5 0 0 0 - - - 0;
#X obj 494 307 bng 15 250 50 0 empty empty empty 17 7 0 10 #fcfcfc
#000000 #000000;
#X obj 198 782 r trans;
#X floatatom 794 255 5 0 0 0 - - - 0;
#X obj 804 293 s trans;
#X obj 811 216 random 12;
#X obj 74 1036 Long_Grain sample;
#X obj 74 1010 r sample_size;
#X obj 79 1086 throw~ gout;
#X obj 183 945 random 2;
#X obj 183 976 sel 0;
#X obj 183 919 r r;
#X obj 213 919 bng 15 250 50 0 empty empty empty 17 7 0 10 #fcfcfc
#000000 #000000;
#X obj 201 998 bng 15 250 50 0 empty empty empty 17 7 0 10 #fcfcfc
#000000 #000000;
#X obj 241 990 r trans;
#X obj 599 449 Fez9000_LED_Control;
#X obj 619 378 s fez-led-bn;
#X obj 990 99 Fez9000_LED_Control;
#X obj 990 127 Fez9000_Joystick;
#X obj 296 319 * 1;
#X obj 989 308 random 500;
#X obj 989 333 + 500;
#X obj 817 192 bng 15 250 50 0 empty empty empty 17 7 0 10 #fcfcfc
#000000 #000000;
#X floatatom 200 389 5 0 0 0 - - - 0;
#X obj 195 418 s one_bar;
#X obj 29 947 del;
#X obj 26 1000 bng 15 250 50 0 empty empty empty 17 7 0 10 #fcfcfc
#000000 #000000;
#X obj 200 358 * 2;
#X obj 11 852 bng 15 250 50 0 empty empty empty 17 7 0 10 #fcfcfc #000000
#000000;
#X obj 1587 750 tabwrite~ sample;
#X obj 1518 727 bng 15 250 50 0 empty empty empty 17 7 0 10 #fcfcfc
#000000 #000000;
#X obj 391 845 Long_Grain sample;
#X obj 388 732 r sample_size;
#X obj 393 886 throw~ gout;
#X obj 502 714 random 2;
#X obj 502 745 sel 0;
#X obj 502 688 r r;
#X obj 532 688 bng 15 250 50 0 empty empty empty 17 7 0 10 #fcfcfc
#000000 #000000;
#X obj 518 807 bng 15 250 50 0 empty empty empty 17 7 0 10 #fcfcfc
#000000 #000000;
#X obj 558 799 r trans;
#X obj 423 1039 Long_Grain sample;
#X obj 420 926 r sample_size;
#X obj 435 1086 throw~ gout;
#X obj 534 908 random 2;
#X obj 534 939 sel 0;
#X obj 534 882 r r;
#X obj 564 882 bng 15 250 50 0 empty empty empty 17 7 0 10 #fcfcfc
#000000 #000000;
#X obj 550 1001 bng 15 250 50 0 empty empty empty 17 7 0 10 #fcfcfc
#000000 #000000;
#X obj 590 993 r trans;
#X obj 1442 473 phasor~ 440;
#X obj 1550 498 phasor~ 440.1;
#X obj 1524 549 *~ 0.5;
#X obj 1539 650 lop~;
#X floatatom 1584 608 5 0 0 0 - - - 0;
#X obj 1555 694 hip~ 100;
#X obj 391 807 r t;
#X obj 416 1000 r t;
#X obj 64 880 random 400;
#X obj 64 904 + 400;
#X floatatom 89 937 5 0 0 0 - - - 0;
#X obj 1070 718 Counter 3;
#X obj 1056 773 sel 0 1;
#X obj 333 821 tgl 15 0 empty empty empty 17 7 0 10 #fcfcfc #000000
#000000 0 1;
#X obj 614 949 tgl 15 0 empty empty empty 17 7 0 10 #fcfcfc #000000
#000000 0 1;
#X obj 1502 377 random 30;
#X obj 1502 427 mtof;
#X obj 1555 463 * 0.1;
#X obj 1380 385 t b b;
#X obj 1380 360 r r;
#X obj 1502 402 + 60;
#X obj 637 653 lop~;
#X obj 636 614 hsl 128 15 0 1000 0 0 empty empty empty -2 -8 0 10 #fcfcfc
#000000 #000000 0 1;
#X obj 692 653 clip~ -0.3 0.3;
#X obj 806 652 *~ 1.6;
#X obj 106 789 bng 15 250 50 0 empty empty empty 17 7 0 10 #fcfcfc
#000000 #000000;
#X connect 1 0 2 0;
#X connect 2 0 3 0;
#X connect 3 0 4 0;
#X connect 5 0 3 0;
#X connect 6 0 9 0;
#X connect 7 0 6 1;
#X connect 10 0 14 0;
#X connect 11 0 8 0;
#X connect 11 0 8 1;
#X connect 12 0 11 1;
#X connect 13 0 6 0;
#X connect 13 0 74 0;
#X connect 13 0 77 0;
#X connect 13 0 106 0;
#X connect 14 0 29 0;
#X connect 15 0 14 1;
#X connect 16 0 17 0;
#X connect 17 0 21 0;
#X connect 18 0 16 0;
#X connect 18 0 20 0;
#X connect 19 0 24 0;
#X connect 21 0 6 1;
#X connect 22 0 11 0;
#X connect 23 0 22 1;
#X connect 24 0 68 0;
#X connect 24 3 69 0;
#X connect 24 5 35 0;
#X connect 24 6 38 2;
#X connect 24 6 33 0;
#X connect 24 7 35 0;
#X connect 24 7 31 0;
#X connect 24 7 109 0;
#X connect 24 9 40 0;
#X connect 24 9 65 0;
#X connect 25 0 24 1;
#X connect 26 0 38 1;
#X connect 26 0 76 0;
#X connect 27 0 1 0;
#X connect 28 0 22 0;
#X connect 28 0 30 0;
#X connect 30 0 29 0;
#X connect 33 0 32 0;
#X connect 34 0 28 0;
#X connect 36 0 1 0;
#X connect 36 0 49 0;
#X connect 38 0 119 0;
#X connect 39 0 38 0;
#X connect 41 0 42 0;
#X connect 42 0 25 0;
#X connect 43 0 44 0;
#X connect 44 0 45 0;
#X connect 45 0 47 0;
#X connect 46 0 43 0;
#X connect 47 0 48 0;
#X connect 48 0 39 0;
#X connect 50 0 35 0;
#X connect 51 0 6 2;
#X connect 52 0 53 0;
#X connect 54 0 52 0;
#X connect 55 0 57 0;
#X connect 56 0 55 1;
#X connect 58 0 59 0;
#X connect 59 0 62 0;
#X connect 59 0 55 1;
#X connect 60 0 58 0;
#X connect 60 0 61 0;
#X connect 63 0 55 2;
#X connect 68 0 26 0;
#X connect 69 0 70 0;
#X connect 70 0 34 0;
#X connect 71 0 54 0;
#X connect 72 0 73 0;
#X connect 74 0 75 0;
#X connect 74 0 89 0;
#X connect 75 0 55 0;
#X connect 76 0 72 0;
#X connect 79 0 78 0;
#X connect 80 0 82 0;
#X connect 81 0 80 1;
#X connect 83 0 84 0;
#X connect 84 0 87 0;
#X connect 84 0 80 1;
#X connect 85 0 83 0;
#X connect 85 0 86 0;
#X connect 88 0 80 2;
#X connect 89 0 91 0;
#X connect 90 0 89 1;
#X connect 92 0 93 0;
#X connect 93 0 96 0;
#X connect 93 0 89 1;
#X connect 94 0 92 0;
#X connect 94 0 95 0;
#X connect 97 0 89 2;
#X connect 98 0 100 0;
#X connect 99 0 100 0;
#X connect 100 0 101 0;
#X connect 101 0 103 0;
#X connect 102 0 101 1;
#X connect 103 0 78 0;
#X connect 104 0 80 0;
#X connect 105 0 89 0;
#X connect 106 0 107 0;
#X connect 107 0 74 1;
#X connect 107 0 108 0;
#X connect 109 0 110 0;
#X connect 111 0 6 3;
#X connect 111 0 55 3;
#X connect 112 0 89 3;
#X connect 112 0 80 3;
#X connect 113 0 118 0;
#X connect 114 0 115 0;
#X connect 114 0 98 0;
#X connect 115 0 99 0;
#X connect 116 0 79 0;
#X connect 116 1 113 0;
#X connect 117 0 116 0;
#X connect 118 0 114 0;
#X connect 119 0 121 0;
#X connect 120 0 119 1;
#X connect 121 0 122 0;
#X connect 122 0 11 0;
#X connect 123 0 6 0;
