#N canvas 1478 651 1918 1247 12;
#N canvas 0 22 450 278 (subpatch) 0;
#X array sample 133632 float 2;
#X coords 0 1 133632 -1 200 140 1;
#X restore 863 403 graph;
#X obj 732 213 soundfiler;
#X floatatom 741 309 14 0 0 0 - - - 0;
#X obj 741 334 f;
#X obj 754 403 s sample_size;
#X obj 709 331 bng 15 250 50 0 empty empty empty 17 7 0 10 #fcfcfc
#000000 #000000;
#X msg 679 263 10;
#X obj 107 322 Long_Grain sample;
#X obj 107 296 r sample_size;
#X obj 399 532 dac~;
#X obj 107 348 throw~ gout;
#X obj 371 187 catch~ gout;
#X obj 432 486 Tapeish;
#X obj 479 440 tgl 15 0 empty empty empty 17 7 0 10 #fcfcfc #000000
#000000 0 1;
#X obj 107 270 r t;
#X obj 698 94 bng 15 250 50 0 empty empty empty 17 7 0 10 #fcfcfc #000000
#000000;
#X obj 698 116 s t;
#X obj 679 94 metro 800;
#X obj 679 41 tgl 15 0 empty empty empty 17 7 0 10 #fcfcfc #000000
#000000 0 1;
#X obj 410 238 *~;
#X obj 468 238 hsl 128 15 0.1 1 0 0 empty empty empty -2 -8 0 10 #fcfcfc
#000000 #000000 0 1;
#X obj 216 231 random 2;
#X obj 216 257 sel 0;
#X obj 216 205 r r;
#X obj 539 50 metro 1600;
#X obj 539 76 s r;
#X obj 543 10 tgl 15 0 empty empty empty 17 7 0 10 #fcfcfc #000000
#000000 0 1;
#X obj 246 205 bng 15 250 50 0 empty empty empty 17 7 0 10 #fcfcfc
#000000 #000000;
#X obj 234 284 bng 15 250 50 0 empty empty empty 17 7 0 10 #fcfcfc
#000000 #000000;
#X msg 732 187 read -resize /Users/jon.philpott/test2.wav sample;
#X obj 423 371 rev1~;
#X obj 456 316 hsl 128 15 0 127 0 0 empty empty empty -2 -8 0 10 #fcfcfc
#000000 #000000 0 1;
#X connect 1 0 2 0;
#X connect 2 0 3 0;
#X connect 3 0 4 0;
#X connect 5 0 3 0;
#X connect 6 0 2 0;
#X connect 7 0 10 0;
#X connect 8 0 7 1;
#X connect 11 0 19 0;
#X connect 12 0 9 0;
#X connect 12 0 9 1;
#X connect 13 0 12 1;
#X connect 14 0 7 0;
#X connect 15 0 16 0;
#X connect 17 0 15 0;
#X connect 18 0 17 0;
#X connect 19 0 30 0;
#X connect 20 0 19 1;
#X connect 21 0 22 0;
#X connect 22 0 7 2;
#X connect 22 0 28 0;
#X connect 23 0 21 0;
#X connect 23 0 27 0;
#X connect 24 0 25 0;
#X connect 26 0 24 0;
#X connect 29 0 1 0;
#X connect 30 0 12 0;
#X connect 31 0 30 1;
