#N canvas 0 0 636 1009 12;
#X obj 77 248 outlet;
#X obj 78 15 r \$1;
#X obj 78 140 + \$2;
#X floatatom 89 55 5 0 0 0 - - - 0;
#X floatatom 29 104 5 0 0 0 - - - 0;
#X floatatom 119 141 5 0 0 0 - - - 0;
#X obj 78 104 expr (\$3 - \$2) * ($f1 / 127);
#X obj 77 173 int;
#X obj 77 211 Dedup;
#X text 125 213 we want whole numbers and no duplicated messages;
#X msg 161 46 0;
#X obj 162 19 loadbang;
#X connect 1 0 3 0;
#X connect 1 0 6 0;
#X connect 2 0 5 0;
#X connect 2 0 7 0;
#X connect 6 0 2 0;
#X connect 6 0 4 0;
#X connect 7 0 8 0;
#X connect 8 0 0 0;
#X connect 10 0 6 0;
#X connect 11 0 10 0;
