#N canvas 960 18 956 1009 12;
#X obj 991 249 random;
#X floatatom 991 273 7 0 0 0 - - - 0;
#X floatatom 1004 379 9 0 0 0 - - - 0;
#X obj 903 189 t b f b f;
#X floatatom 904 585 8 0 0 0 len\ in\ samples - - 0;
#X text 1048 274 < start pt;
#X obj 904 540 +;
#X obj 925 343 expr ($f1-$f2);
#X obj 971 456 / 8;
#X obj 903 496 *;
#X obj 901 435 random 8;
#X obj 1640 437 sel 0 1 2 3;
#X msg 1613 481 1;
#X obj 1004 411 t f f b;
#X obj 1029 483 / 8;
#X floatatom 1659 532 5 0 0 0 - - - 0;
#X obj 1640 408 random 5;
#X text 1739 402 silghtly higher chance grain plays at normal speed
, f 14;
#X floatatom 1643 137 5 0 0 0 len\ in\ milliseconds - - 0;
#X obj 1642 251 *;
#X floatatom 1642 279 5 0 0 0 speed\ modifed\ len - - 0;
#X obj 323 573 +~;
#X msg 1705 481 2;
#X msg 1659 481 1.25;
#X obj 322 341 f;
#X obj 363 341 f;
#X obj 268 131 t b b;
#X obj 322 501 vline~;
#X obj 322 418 pack f f;
#X msg 322 459 0 0 \, \$1 \$2 0;
#X floatatom 278 341 5 0 0 0 - - - 0;
#X floatatom 398 340 5 0 0 0 - - - 0;
#X obj 903 35 inlet;
#X obj 267 26 inlet;
#X obj 323 634 tabread4~ \$1;
#X obj 323 749 outlet~;
#X obj 482 623 vline~;
#X obj 233 58 bng 15 250 50 0 empty empty empty 17 7 0 10 #fcfcfc #000000
#000000;
#X obj 1643 107 / 44.1;
#X obj 323 687 *~;
#X msg 482 576 0 10 \, 1 100 10 \, 0 100 \$1;
#X obj 902 118 f;
#X obj 482 537 - 140;
#X obj 660 905 outlet;
#X text 1073 211 dont start past 80%;
#X obj 991 305 send \$0-start-point;
#X obj 344 534 r \$0-start-point;
#X obj 1071 465 s \$0-trig-speed;
#X obj 1639 365 r \$0-trig-speed;
#X obj 1693 250 r \$0-speed;
#X obj 1661 610 s \$0-speed;
#X obj 936 640 s \$0-grain-length;
#X obj 1643 73 r \$0-grain-length;
#X obj 660 843 r \$0-modified-length;
#X obj 322 132 r \$0-grain-length;
#X obj 1642 340 s \$0-modified-speed;
#X obj 381 160 r \$0-modified-speed;
#X text 315 26 < trigger grain playback;
#X text 528 537 envelope to lessen clicks;
#X text 667 873 this might be useful;
#X obj 1029 210 * 0.5;
#X text 1031 330 whats remaining after picking a start point?, f 19
;
#X text 784 434 split the remaining time into 8 pieces and make the
grain one of these 8 pieces, f 15;
#X floatatom 420 199 5 0 0 0 - - - 0;
#X msg 1753 482 0.5;
#X obj 1323 45 inlet;
#X text 1368 48 < transpose up/down;
#X floatatom 1323 110 5 0 0 0 - - - 0;
#X obj 1323 136 * 0.05776;
#X floatatom 1323 161 5 0 0 0 - - - 0;
#X obj 1323 193 exp;
#X floatatom 1323 218 5 0 0 0 - - - 0;
#X obj 1252 85 loadbang;
#X msg 1252 109 0;
#X obj 1323 252 expr 1/$f1;
#X floatatom 1323 277 5 0 0 0 - - - 0;
#X floatatom 1580 359 5 0 0 0 - - - 0;
#X obj 1643 197 *;
#X floatatom 1601 224 5 0 0 0 - - - 0;
#X obj 1643 167 f;
#X obj 1455 212 t b f;
#X text 953 37 2: the size of the sample or a bang to update the sample
playback time, f 17;
#X connect 0 0 1 0;
#X connect 1 0 45 0;
#X connect 2 0 13 0;
#X connect 3 0 10 0;
#X connect 3 1 7 0;
#X connect 3 2 0 0;
#X connect 3 3 60 0;
#X connect 4 0 51 0;
#X connect 6 0 4 0;
#X connect 7 0 2 0;
#X connect 8 0 9 1;
#X connect 9 0 6 0;
#X connect 10 0 9 0;
#X connect 11 0 12 0;
#X connect 11 1 23 0;
#X connect 11 2 22 0;
#X connect 11 3 64 0;
#X connect 11 4 12 0;
#X connect 12 0 15 0;
#X connect 13 0 8 0;
#X connect 13 1 14 0;
#X connect 13 2 47 0;
#X connect 14 0 6 1;
#X connect 15 0 50 0;
#X connect 16 0 11 0;
#X connect 18 0 79 0;
#X connect 19 0 20 0;
#X connect 20 0 55 0;
#X connect 21 0 34 0;
#X connect 22 0 15 0;
#X connect 23 0 15 0;
#X connect 24 0 28 0;
#X connect 24 0 30 0;
#X connect 25 0 28 1;
#X connect 25 0 31 0;
#X connect 25 0 42 0;
#X connect 26 0 24 0;
#X connect 26 1 25 0;
#X connect 27 0 21 0;
#X connect 28 0 29 0;
#X connect 29 0 27 0;
#X connect 32 0 41 0;
#X connect 33 0 26 0;
#X connect 34 0 39 0;
#X connect 36 0 39 1;
#X connect 37 0 26 0;
#X connect 38 0 18 0;
#X connect 39 0 35 0;
#X connect 40 0 36 0;
#X connect 41 0 3 0;
#X connect 42 0 40 0;
#X connect 46 0 21 1;
#X connect 48 0 16 0;
#X connect 49 0 19 1;
#X connect 52 0 38 0;
#X connect 53 0 43 0;
#X connect 54 0 24 0;
#X connect 56 0 25 1;
#X connect 56 0 63 0;
#X connect 60 0 0 1;
#X connect 64 0 15 0;
#X connect 65 0 67 0;
#X connect 67 0 68 0;
#X connect 68 0 69 0;
#X connect 69 0 70 0;
#X connect 70 0 71 0;
#X connect 71 0 74 0;
#X connect 72 0 73 0;
#X connect 73 0 67 0;
#X connect 74 0 75 0;
#X connect 75 0 80 0;
#X connect 77 0 19 0;
#X connect 77 0 78 0;
#X connect 79 0 77 0;
#X connect 80 0 79 0;
#X connect 80 1 77 1;
