#N canvas 552 89 2259 1584 12;
#X obj 659 271 random;
#X floatatom 659 295 7 0 0 0 - - - 0;
#X floatatom 577 366 9 0 0 0 - - - 0;
#X obj 465 177 t b f b f;
#X floatatom 466 573 8 0 0 0 len\ in\ samples - - 0;
#X text 716 296 < start pt;
#X obj 466 528 +;
#X text 411 373 < make sure the grain has a minimum length, f 13;
#X obj 577 333 expr ($f1-$f2);
#X obj 533 444 / 8;
#X obj 468 488 *;
#X obj 463 449 random 8;
#X obj 695 460 sel 0 1 2 3;
#X msg 668 504 1;
#X obj 566 399 t f f b;
#X obj 554 508 / 8;
#X obj 712 233 * 0.5;
#X floatatom 714 555 5 0 0 0 - - - 0;
#X obj 695 431 random 5;
#X text 794 425 silghtly higher chance grain plays at normal speed
, f 14;
#X floatatom 422 643 5 0 0 0 len\ in\ milliseconds - - 0;
#X obj 466 679 *;
#X floatatom 466 703 5 0 0 0 speed\ modifed\ len - - 0;
#X obj 547 990 +~;
#X msg 760 504 2;
#X msg 714 504 1.25;
#X obj 463 762 f;
#X obj 504 762 f;
#X obj 326 722 t b b;
#X obj 473 955 vline~;
#X obj 464 830 pack f f;
#X msg 469 880 0 0 \, \$1 \$2 0;
#X floatatom 415 791 5 0 0 0 - - - 0;
#X floatatom 532 793 5 0 0 0 - - - 0;
#X obj 465 23 inlet;
#X obj 207 628 inlet;
#X obj 547 1038 tabread4~ \$1;
#X obj 547 1280 outlet~;
#X obj 404 1000 vline~;
#X obj 201 667 bng 15 250 50 0 empty empty empty 17 7 0 10 #fcfcfc
#000000 #000000;
#X obj 275 965 bng 15 250 50 0 empty empty empty 17 7 0 10 #fcfcfc
#000000 #000000;
#X obj 489 608 / 44.1;
#X obj 547 1090 *~;
#X msg 287 930 0 10 \, 1 100 10 \, 0 100 \$1;
#X obj 464 106 f;
#X floatatom 403 160 5 0 0 0 - - - 0;
#X obj 591 21 inlet;
#X text 646 23 < trigger a reshuffle;
#X msg 808 505 0.5;
#X obj 361 878 - 140;
#X obj 789 1063 outlet;
#X connect 0 0 1 0;
#X connect 1 0 8 1;
#X connect 1 0 23 1;
#X connect 2 0 14 0;
#X connect 3 0 11 0;
#X connect 3 1 8 0;
#X connect 3 2 0 0;
#X connect 3 3 16 0;
#X connect 4 0 26 1;
#X connect 4 0 41 0;
#X connect 6 0 4 0;
#X connect 8 0 2 0;
#X connect 9 0 10 1;
#X connect 10 0 6 0;
#X connect 11 0 10 0;
#X connect 12 0 13 0;
#X connect 12 1 25 0;
#X connect 12 2 24 0;
#X connect 12 3 48 0;
#X connect 12 4 13 0;
#X connect 13 0 17 0;
#X connect 14 0 9 0;
#X connect 14 1 15 0;
#X connect 14 2 18 0;
#X connect 15 0 6 1;
#X connect 16 0 0 1;
#X connect 17 0 21 1;
#X connect 18 0 12 0;
#X connect 20 0 21 0;
#X connect 21 0 22 0;
#X connect 22 0 27 1;
#X connect 22 0 50 0;
#X connect 23 0 36 0;
#X connect 24 0 17 0;
#X connect 25 0 17 0;
#X connect 26 0 30 0;
#X connect 26 0 32 0;
#X connect 27 0 30 1;
#X connect 27 0 33 0;
#X connect 27 0 49 0;
#X connect 28 0 26 0;
#X connect 28 1 27 0;
#X connect 29 0 23 0;
#X connect 30 0 31 0;
#X connect 31 0 29 0;
#X connect 34 0 44 0;
#X connect 35 0 28 0;
#X connect 35 0 39 0;
#X connect 36 0 42 0;
#X connect 38 0 42 1;
#X connect 41 0 20 0;
#X connect 42 0 37 0;
#X connect 43 0 38 0;
#X connect 43 0 40 0;
#X connect 44 0 45 0;
#X connect 44 0 3 0;
#X connect 46 0 44 0;
#X connect 48 0 17 0;
#X connect 49 0 43 0;
