#N canvas 0 25 636 1009 12;
#X obj 949 249 random;
#X floatatom 949 273 7 0 0 0 - - - 0;
#X floatatom 962 379 9 0 0 0 - - - 0;
#X obj 861 189 t b f b f;
#X floatatom 862 585 8 0 0 0 len\ in\ samples - - 0;
#X text 1006 274 < start pt;
#X obj 862 540 +;
#X obj 883 343 expr ($f1-$f2);
#X obj 929 456 / 8;
#X obj 861 496 *;
#X obj 859 435 random 8;
#X obj 1542 460 sel 0 1 2 3;
#X msg 1515 504 1;
#X obj 962 411 t f f b;
#X obj 987 483 / 8;
#X floatatom 1561 555 5 0 0 0 - - - 0;
#X obj 1542 431 random 5;
#X text 1641 425 silghtly higher chance grain plays at normal speed
, f 14;
#X floatatom 1544 110 5 0 0 0 len\ in\ milliseconds - - 0;
#X obj 1543 224 *;
#X floatatom 1543 252 5 0 0 0 speed\ modifed\ len - - 0;
#X obj 323 666 +~;
#X msg 1607 504 2;
#X msg 1561 504 1.25;
#X obj 322 341 f;
#X obj 363 341 f;
#X obj 268 131 t b b;
#X obj 322 594 vline~;
#X obj 322 418 pack f f;
#X msg 322 552 0 0 \, \$1 \$2 0;
#X floatatom 278 341 5 0 0 0 - - - 0;
#X floatatom 398 340 5 0 0 0 - - - 0;
#X obj 861 35 inlet;
#X obj 267 26 inlet;
#X obj 323 727 tabread4~ \$1;
#X obj 323 842 outlet~;
#X obj 482 716 vline~;
#X obj 233 58 bng 15 250 50 0 empty empty empty 17 7 0 10 #fcfcfc #000000
#000000;
#X obj 1544 80 / 44.1;
#X obj 323 780 *~;
#X msg 481 668 0 10 \, 1 100 10 \, 0 100 \$1;
#X obj 860 118 f;
#X obj 482 630 - 140;
#X obj 660 905 outlet;
#X obj 949 305 send \$0-start-point;
#X obj 344 627 r \$0-start-point;
#X obj 1029 465 s \$0-trig-speed;
#X obj 1541 388 r \$0-trig-speed;
#X obj 1594 223 r \$0-speed;
#X obj 1563 633 s \$0-speed;
#X obj 894 640 s \$0-grain-length;
#X obj 1544 46 r \$0-grain-length;
#X obj 660 843 r \$0-modified-length;
#X obj 322 132 r \$0-grain-length;
#X obj 1543 313 s \$0-modified-speed;
#X obj 381 160 r \$0-modified-speed;
#X text 315 26 < trigger grain playback;
#X text 528 630 envelope to lessen clicks;
#X text 667 873 this might be useful;
#X text 989 330 whats remaining after picking a start point?, f 19
;
#X text 742 434 split the remaining time into 8 pieces and make the
grain one of these 8 pieces, f 15;
#X floatatom 420 199 5 0 0 0 - - - 0;
#X msg 1655 505 0.5;
#X obj 1281 45 inlet;
#X text 1326 48 < transpose up/down;
#X floatatom 1281 110 5 0 0 0 - - - 0;
#X obj 1281 136 * 0.05776;
#X floatatom 1281 161 5 0 0 0 - - - 0;
#X obj 1281 193 exp;
#X floatatom 1281 218 5 0 0 0 - - - 0;
#X obj 1210 85 loadbang;
#X msg 1210 109 0;
#X obj 1281 252 expr 1/$f1;
#X floatatom 1281 277 5 0 0 0 - - - 0;
#X obj 1544 170 *;
#X floatatom 1502 197 5 0 0 0 - - - 0;
#X obj 1544 140 f;
#X obj 1383 160 t b f;
#X text 1692 501 playback speeds tied to harmonic series (like hammond
organ draw bars), f 23;
#X text 189 728 table/array name comes in as first argument, f 18
;
#X text 391 242 < speed is not really the rate \, it's the length of
time to play the sample at, f 21;
#X text 189 534 ramp from 0 to length in time 0-modified-speed, f
18;
#X text 216 658 start from start point, f 14;
#X text 911 37 2: the size of the sample or a bang to re-shuffle the
playback speed, f 17;
#X obj 987 210 * 0.8;
#X text 1033 179 limit the grain start time to no more than 80% of
the total sample length, f 19;
#X obj 1738 48 inlet;
#X obj 1738 72 s \$0-reverse;
#X obj 261 486 spigot;
#X msg 461 549 \$1 0 \, 0 \$2 0;
#X text 562 582 reverse;
#X obj 457 493 spigot;
#X obj 501 361 r \$0-reverse;
#X obj 501 391 == 0;
#X obj 545 390 == 1;
#X obj 506 432 tgl 15 0 empty empty empty 17 7 0 10 #fcfcfc #000000
#000000 0 1;
#X obj 550 434 tgl 15 0 empty empty empty 17 7 0 10 #fcfcfc #000000
#000000 0 1;
#X obj 436 428 loadbang;
#X connect 0 0 1 0;
#X connect 1 0 44 0;
#X connect 2 0 13 0;
#X connect 3 0 10 0;
#X connect 3 1 7 0;
#X connect 3 2 0 0;
#X connect 3 3 84 0;
#X connect 4 0 50 0;
#X connect 6 0 4 0;
#X connect 7 0 2 0;
#X connect 8 0 9 1;
#X connect 9 0 6 0;
#X connect 10 0 9 0;
#X connect 11 0 12 0;
#X connect 11 1 23 0;
#X connect 11 2 22 0;
#X connect 11 3 62 0;
#X connect 11 4 12 0;
#X connect 12 0 15 0;
#X connect 13 0 8 0;
#X connect 13 1 14 0;
#X connect 13 2 46 0;
#X connect 14 0 6 1;
#X connect 15 0 49 0;
#X connect 16 0 11 0;
#X connect 18 0 76 0;
#X connect 19 0 20 0;
#X connect 20 0 54 0;
#X connect 21 0 34 0;
#X connect 22 0 15 0;
#X connect 23 0 15 0;
#X connect 24 0 28 0;
#X connect 24 0 30 0;
#X connect 25 0 28 1;
#X connect 25 0 31 0;
#X connect 25 0 42 0;
#X connect 26 0 24 0;
#X connect 26 1 25 0;
#X connect 27 0 21 0;
#X connect 28 0 88 0;
#X connect 28 0 91 0;
#X connect 29 0 27 0;
#X connect 32 0 41 0;
#X connect 33 0 26 0;
#X connect 34 0 39 0;
#X connect 36 0 39 1;
#X connect 37 0 26 0;
#X connect 38 0 18 0;
#X connect 39 0 35 0;
#X connect 40 0 36 0;
#X connect 41 0 3 0;
#X connect 42 0 40 0;
#X connect 45 0 21 1;
#X connect 47 0 16 0;
#X connect 48 0 19 1;
#X connect 51 0 38 0;
#X connect 52 0 43 0;
#X connect 53 0 24 0;
#X connect 55 0 25 1;
#X connect 55 0 61 0;
#X connect 62 0 15 0;
#X connect 63 0 65 0;
#X connect 65 0 66 0;
#X connect 66 0 67 0;
#X connect 67 0 68 0;
#X connect 68 0 69 0;
#X connect 69 0 72 0;
#X connect 70 0 71 0;
#X connect 71 0 65 0;
#X connect 72 0 73 0;
#X connect 73 0 77 0;
#X connect 74 0 19 0;
#X connect 74 0 75 0;
#X connect 76 0 74 0;
#X connect 77 0 76 0;
#X connect 77 1 74 1;
#X connect 84 0 0 1;
#X connect 86 0 87 0;
#X connect 88 0 29 0;
#X connect 89 0 27 0;
#X connect 91 0 89 0;
#X connect 92 0 93 0;
#X connect 92 0 94 0;
#X connect 93 0 95 0;
#X connect 94 0 96 0;
#X connect 95 0 88 1;
#X connect 96 0 91 1;
#X connect 97 0 95 0;
