#N canvas -21 25 1595 835 12;
#X obj 625 61 inlet;
#X obj 791 60 inlet;
#X obj 1034 62 inlet;
#X text 1078 62 < octave num;
#X obj 791 134 unpack f f, f 12;
#X text 839 55 < chord select list root 0/1 (maj \, min) could add
more modes later, f 24;
#X obj 610 519 f;
#X obj 1034 122 s \$0-o;
#X obj 628 492 r \$0-r;
#X obj 882 436 f;
#X obj 1265 92 r \$0-m;
#X obj 1265 128 sel 0 1;
#X msg 1247 168 0;
#X msg 1298 168 -1;
#X obj 1273 207 s \$0-x;
#X obj 899 386 r \$0-r;
#X text 902 364 5th;
#X obj 755 401 r \$0-r;
#X text 747 361 3rd;
#X obj 755 499 +;
#X obj 737 527 f;
#X obj 773 474 r \$0-x;
#X obj 755 451 + 4;
#X obj 1039 403 r \$0-r;
#X obj 1039 501 +;
#X obj 1021 529 f;
#X obj 1057 476 r \$0-x;
#X text 1037 385 7th;
#X obj 1215 569 f;
#X obj 1232 519 r \$0-r;
#X text 1266 359 9th;
#X floatatom 840 630 5 0 0 0 - - - 0;
#X obj 872 161 s \$0-m;
#X obj 791 161 s \$0-r;
#X obj 721 97 r \$0-test;
#X obj 645 224 r \$0-sel;
#X obj 840 662 expr $f1+($f2*12);
#X floatatom 840 686 5 0 0 0 - - - 0;
#X obj 956 631 r \$0-o;
#X text 1330 130 offsets for b3 and b7, f 11;
#X obj 1430 474 loadbang;
#X msg 1364 534 0;
#X obj 1364 558 s \$0-o;
#X obj 840 728 outlet;
#X msg 1430 526 0 0;
#X obj 1430 559 s \$0-test;
#X floatatom 104 147 5 0 0 0 - - - 0;
#X floatatom 145 147 5 0 0 0 - - - 0;
#X floatatom 104 126 5 0 0 0 - - - 0;
#X obj 41 108 r \$0-r;
#X obj 199 109 r \$0-m;
#X obj 116 70 r \$0-o;
#X text 911 177 comment, f 21;
#X obj 900 410 + 7;
#X obj 1039 453 + 11;
#X obj 1233 543 + 14;
#X obj 607 320 sel 0 1 2 3 4 5 6 7 8, f 89;
#X obj 677 530 f;
#X obj 694 480 r \$0-r;
#X obj 695 504 + 2;
#X obj 810 530 f;
#X obj 828 475 r \$0-r;
#X obj 829 499 + 5;
#X obj 948 513 f;
#X obj 965 463 r \$0-r;
#X obj 966 487 + 9;
#X obj 1120 522 f;
#X obj 1137 472 r \$0-r;
#X obj 1138 496 + 12;
#X text 673 61 < scale tone#;
#X floatatom 531 340 5 0 0 0 - - - 0;
#X obj 627 283 % 9;
#X connect 0 0 71 0;
#X connect 1 0 4 0;
#X connect 2 0 7 0;
#X connect 4 0 33 0;
#X connect 4 1 32 0;
#X connect 6 0 31 0;
#X connect 8 0 6 1;
#X connect 9 0 31 0;
#X connect 10 0 11 0;
#X connect 11 0 12 0;
#X connect 11 1 13 0;
#X connect 12 0 14 0;
#X connect 13 0 14 0;
#X connect 15 0 53 0;
#X connect 17 0 22 0;
#X connect 19 0 20 1;
#X connect 20 0 31 0;
#X connect 21 0 19 1;
#X connect 22 0 19 0;
#X connect 23 0 54 0;
#X connect 24 0 25 1;
#X connect 25 0 31 0;
#X connect 26 0 24 1;
#X connect 28 0 31 0;
#X connect 29 0 55 0;
#X connect 31 0 36 0;
#X connect 34 0 4 0;
#X connect 35 0 71 0;
#X connect 36 0 37 0;
#X connect 37 0 43 0;
#X connect 38 0 36 1;
#X connect 40 0 41 0;
#X connect 40 0 44 0;
#X connect 41 0 42 0;
#X connect 44 0 45 0;
#X connect 49 0 46 0;
#X connect 50 0 47 0;
#X connect 51 0 48 0;
#X connect 53 0 9 1;
#X connect 54 0 24 0;
#X connect 55 0 28 1;
#X connect 56 0 6 0;
#X connect 56 1 57 0;
#X connect 56 2 20 0;
#X connect 56 3 60 0;
#X connect 56 4 9 0;
#X connect 56 5 63 0;
#X connect 56 6 25 0;
#X connect 56 7 66 0;
#X connect 56 8 28 0;
#X connect 57 0 31 0;
#X connect 58 0 59 0;
#X connect 59 0 57 1;
#X connect 60 0 31 0;
#X connect 61 0 62 0;
#X connect 62 0 60 1;
#X connect 63 0 31 0;
#X connect 64 0 65 0;
#X connect 65 0 63 1;
#X connect 66 0 31 0;
#X connect 67 0 68 0;
#X connect 68 0 66 1;
#X connect 71 0 56 0;
#X connect 71 0 70 0;
