#N canvas 2422 1062 450 300 12;
#X obj 287 62 inlet;
#X obj 291 204 outlet;
#X obj 287 95 % \$1;
#X obj 288 128 == 0;
#X obj 289 164 sel 0;
#X floatatom 145 136 5 0 0 0 - - - 0;
#X floatatom 103 136 5 0 0 0 - - - 0;
#X connect 0 0 2 0;
#X connect 2 0 3 0;
#X connect 2 0 6 0;
#X connect 3 0 4 0;
#X connect 3 0 5 0;
#X connect 4 1 1 0;
#X coords 0 -1 1 1 85 60 1 100 100;
