#N canvas 2119 423 832 668 12;
#X obj 193 15 inlet;
#X obj 131 166 tgl 15 0 empty empty empty 17 7 0 10 #fcfcfc #000000
#000000 0 1;
#X obj 193 74 expr 60000/$f1;
#X floatatom 193 98 5 0 0 0 - - - 0;
#X obj 193 163 / 2;
#X obj 131 239 metro;
#X obj 129 16 inlet;
#X obj 116 612 outlet;
#X obj 172 612 outlet;
#X obj 228 612 outlet;
#X obj 283 612 outlet;
#X obj 338 611 outlet;
#X obj 394 611 outlet;
#X obj 449 611 outlet;
#X floatatom 259 32 5 0 0 0 - - - 0;
#X obj 131 296 Bang_Divider;
#X obj 119 577 bng 15 250 50 0 empty empty empty 17 7 0 10 #fcfcfc
#000000 #000000;
#X obj 174 576 bng 15 250 50 0 empty empty empty 17 7 0 10 #fcfcfc
#000000 #000000;
#X obj 229 578 bng 15 250 50 0 empty empty empty 17 7 0 10 #fcfcfc
#000000 #000000;
#X obj 284 578 bng 15 250 50 0 empty empty empty 17 7 0 10 #fcfcfc
#000000 #000000;
#X obj 338 578 bng 15 250 50 0 empty empty empty 17 7 0 10 #fcfcfc
#000000 #000000;
#X obj 397 579 bng 15 250 50 0 empty empty empty 17 7 0 10 #fcfcfc
#000000 #000000;
#X obj 452 578 bng 15 250 50 0 empty empty empty 17 7 0 10 #fcfcfc
#000000 #000000;
#X obj 213 343 Bang_Divider;
#X obj 295 384 Bang_Divider;
#X obj 56 168 outlet;
#X connect 0 0 2 0;
#X connect 1 0 5 0;
#X connect 2 0 3 0;
#X connect 3 0 4 0;
#X connect 3 0 25 0;
#X connect 4 0 5 1;
#X connect 5 0 15 0;
#X connect 6 0 1 0;
#X connect 14 0 2 0;
#X connect 15 0 16 0;
#X connect 15 1 17 0;
#X connect 15 2 23 0;
#X connect 16 0 7 0;
#X connect 17 0 8 0;
#X connect 18 0 9 0;
#X connect 19 0 10 0;
#X connect 20 0 11 0;
#X connect 21 0 12 0;
#X connect 22 0 13 0;
#X connect 23 0 18 0;
#X connect 23 1 19 0;
#X connect 23 2 24 0;
#X connect 24 0 20 0;
#X connect 24 1 21 0;
#X connect 24 2 22 0;
