#N canvas 514 216 832 668 12;
#X obj 193 15 inlet;
#X obj 308 505 outlet;
#X obj 97 505 outlet;
#X obj 152 505 outlet;
#X obj 205 505 outlet;
#X obj 257 505 outlet;
#X obj 42 505 outlet;
#X obj 83 413 bng 15 250 50 0 empty empty empty 17 7 0 10 #fcfcfc #000000
#000000;
#X obj 83 315 tgl 15 0 empty empty empty 17 7 0 10 #fcfcfc #000000
#000000 0 1;
#X obj 217 184 expr 60000/$f1;
#X floatatom 217 208 5 0 0 0 - - - 0;
#X obj 175 288 / 2;
#X obj 222 288 * 2;
#X obj 267 289 * 4;
#X obj 311 289 * 8;
#X obj 220 412 bng 15 250 50 0 empty empty empty 17 7 0 10 #fcfcfc
#000000 #000000;
#X obj 221 366 metro;
#X obj 286 412 bng 15 250 50 0 empty empty empty 17 7 0 10 #fcfcfc
#000000 #000000;
#X obj 287 366 metro;
#X obj 355 411 bng 15 250 50 0 empty empty empty 17 7 0 10 #fcfcfc
#000000 #000000;
#X obj 356 365 metro;
#X obj 424 410 bng 15 250 50 0 empty empty empty 17 7 0 10 #fcfcfc
#000000 #000000;
#X obj 425 364 metro;
#X obj 153 413 bng 15 250 50 0 empty empty empty 17 7 0 10 #fcfcfc
#000000 #000000;
#X obj 154 367 metro;
#X obj 351 290 * 16;
#X obj 83 368 metro;
#X obj 27 13 inlet;
#X obj 362 505 outlet;
#X connect 0 0 9 0;
#X connect 7 0 2 0;
#X connect 8 0 16 0;
#X connect 8 0 18 0;
#X connect 8 0 20 0;
#X connect 8 0 22 0;
#X connect 8 0 24 0;
#X connect 8 0 26 0;
#X connect 9 0 10 0;
#X connect 10 0 11 0;
#X connect 10 0 12 0;
#X connect 10 0 13 0;
#X connect 10 0 14 0;
#X connect 10 0 24 1;
#X connect 10 0 25 0;
#X connect 10 0 6 0;
#X connect 11 0 26 1;
#X connect 12 0 16 1;
#X connect 13 0 18 1;
#X connect 14 0 20 1;
#X connect 15 0 4 0;
#X connect 16 0 15 0;
#X connect 17 0 5 0;
#X connect 18 0 17 0;
#X connect 19 0 1 0;
#X connect 20 0 19 0;
#X connect 21 0 28 0;
#X connect 22 0 21 0;
#X connect 23 0 3 0;
#X connect 24 0 23 0;
#X connect 25 0 22 1;
#X connect 26 0 7 0;
#X connect 27 0 8 0;
