#N canvas 6 53 1609 902 12;
#X obj 448 16 inlet;
#X obj 389 180 tgl 15 0 empty empty empty 17 7 0 10 #fcfcfc #000000
#000000 0 1;
#X obj 451 88 expr 60000/$f1;
#X floatatom 451 112 5 0 0 0 - - - 0;
#X obj 389 253 metro;
#X obj 388 12 inlet;
#X obj 374 626 outlet;
#X obj 430 626 outlet;
#X obj 554 626 outlet;
#X obj 602 649 outlet;
#X obj 651 626 outlet;
#X obj 699 648 outlet;
#X obj 748 625 outlet;
#X obj 372 295 Bang_Divider;
#X obj 374 592 bng 15 250 50 0 empty empty empty 17 7 0 10 #fcfcfc
#000000 #000000;
#X obj 419 590 bng 15 250 50 0 empty empty empty 17 7 0 10 #fcfcfc
#000000 #000000;
#X obj 554 592 bng 15 250 50 0 empty empty empty 17 7 0 10 #fcfcfc
#000000 #000000;
#X obj 602 592 bng 15 250 50 0 empty empty empty 17 7 0 10 #fcfcfc
#000000 #000000;
#X obj 651 593 bng 15 250 50 0 empty empty empty 17 7 0 10 #fcfcfc
#000000 #000000;
#X obj 699 594 bng 15 250 50 0 empty empty empty 17 7 0 10 #fcfcfc
#000000 #000000;
#X obj 748 592 bng 15 250 50 0 empty empty empty 17 7 0 10 #fcfcfc
#000000 #000000;
#X obj 86 654 outlet;
#X obj 828 408 bng 15 250 50 0 empty empty empty 17 7 0 10 #fcfcfc
#000000 #000000;
#X obj 870 437 del;
#X obj 828 485 bng 15 250 50 0 empty empty empty 17 7 0 10 #fcfcfc
#000000 #000000;
#X floatatom 470 225 5 0 0 0 - - - 0;
#X floatatom 896 370 5 0 0 0 - - - 0;
#X obj 828 624 outlet;
#X msg 401 100 1;
#X obj 402 64 t b f;
#X obj 858 334 * 1.33;
#X obj 849 197 / 100;
#X floatatom 848 256 14 0 0 0 - - - 0;
#X obj 855 286 t b f;
#X obj 848 232 + 1.3;
#X obj 849 170 random 20;
#X text 761 107 this madness below changes the swing time \, to make
very \, very sloppy;
#X obj 108 130 bng 40 250 50 0 empty empty empty 17 7 0 10 #ffc7c6
#ffffff #000000;
#X floatatom 180 153 5 0 0 0 BPM - - 12;
#X obj 183 133 hsl 80 15 1.33 1.6 0 0 empty empty swing -2 -8 0 10
#fcfcfc #000000 #000000 0 1;
#X obj 925 644 outlet;
#X obj 104 180 hradio 12 1 0 16 empty empty empty 0 -8 0 10 #fcfcfc
#000000 #000000 0;
#X obj 32 144 r \$0-ctr;
#X obj 422 659 s \$0-qn;
#X obj 107 55 r \$0-qn;
#X obj 455 43 s \$0-bpm;
#X obj 127 80 r \$0-bpm;
#X obj 518 143 s \$0-beattime;
#X obj 86 605 r \$0-beattime;
#X obj 906 284 s \$0-swing-time;
#X obj 199 77 r \$0-swing-time;
#X obj 925 611 r \$0-ctr;
#X obj 506 408 Counter_Divider, f 35;
#X obj 439 452 s \$0-ctr;
#X text 981 643 outputs beats 0-31;
#X obj 749 347 bng 15 250 50 0 empty empty empty 17 7 0 10 #fcfcfc
#000000 #000000;
#X obj 898 529 Counter 16;
#X obj 749 318 r \$0-reset;
#X obj 310 135 s \$0-reset;
#X obj 38 171 % 16;
#X obj 451 177 / 4;
#X text 369 692 beat time \, 1/16th \, 1/8 note \, 1/4 note \, 1/2
note \, 1 bar \, 2 bar \, 4 bar \, swing 1/8th beat number \, beat
number, f 95;
#X obj 523 181 / 2;
#X connect 0 0 29 0;
#X connect 0 0 45 0;
#X connect 1 0 4 0;
#X connect 2 0 3 0;
#X connect 3 0 47 0;
#X connect 3 0 60 0;
#X connect 3 0 62 0;
#X connect 4 0 13 0;
#X connect 5 0 1 0;
#X connect 13 0 14 0;
#X connect 13 1 15 0;
#X connect 13 1 22 0;
#X connect 13 1 52 0;
#X connect 14 0 6 0;
#X connect 15 0 7 0;
#X connect 15 0 43 0;
#X connect 16 0 8 0;
#X connect 17 0 9 0;
#X connect 18 0 10 0;
#X connect 19 0 11 0;
#X connect 20 0 12 0;
#X connect 22 0 23 0;
#X connect 22 0 24 0;
#X connect 22 0 35 0;
#X connect 23 0 24 0;
#X connect 24 0 56 0;
#X connect 28 0 1 0;
#X connect 28 0 58 0;
#X connect 29 0 28 0;
#X connect 29 1 2 0;
#X connect 30 0 23 1;
#X connect 30 0 26 0;
#X connect 31 0 34 0;
#X connect 32 0 33 0;
#X connect 32 0 49 0;
#X connect 33 0 30 0;
#X connect 33 1 30 1;
#X connect 34 0 32 0;
#X connect 35 0 31 0;
#X connect 42 0 59 0;
#X connect 44 0 37 0;
#X connect 46 0 38 0;
#X connect 48 0 21 0;
#X connect 50 0 39 0;
#X connect 51 0 40 0;
#X connect 52 0 53 0;
#X connect 52 1 16 0;
#X connect 52 2 17 0;
#X connect 52 3 18 0;
#X connect 52 4 19 0;
#X connect 52 5 20 0;
#X connect 55 0 52 1;
#X connect 55 0 56 1;
#X connect 56 0 27 0;
#X connect 57 0 55 0;
#X connect 59 0 41 0;
#X connect 60 0 4 1;
#X connect 60 0 25 0;
#X connect 62 0 30 0;
#X coords 0 -1 1 1 200 100 1 100 100;
