#N canvas 757 567 669 461 12;
#X floatatom 113 83 5 0 0 0 - - - 0;
#X floatatom 211 82 5 0 0 0 - - - 0;
#X obj 213 126 * 12;
#X floatatom 213 150 5 0 0 0 - - - 0;
#X obj 120 224 +;
#X floatatom 120 248 5 0 0 0 - - - 0;
#X obj 53 4 inlet;
#X obj 253 4 inlet;
#X text 98 5 < note number;
#X text 297 4 < octave;
#X obj 120 300 outlet;
#X text 262 135 < deliberately does not trigger an output when octave
changes as to not.. trigger an output when the octave changes;
#X connect 0 0 4 0;
#X connect 1 0 2 0;
#X connect 2 0 3 0;
#X connect 3 0 4 1;
#X connect 4 0 5 0;
#X connect 5 0 10 0;
#X connect 6 0 0 0;
#X connect 7 0 1 0;
