#N canvas 365 25 1315 924 12;
#X obj 368 724 line~;
#X obj 369 775 tabread4~ \$1;
#X obj 18 14 inlet;
#X obj 430 885 outlet~;
#X obj 521 786 vline~;
#X obj 449 138 expr $f1/10;
#X floatatom 449 191 5 0 0 0 - - - 0;
#X floatatom 547 196 5 0 0 0 - - - 0;
#X obj 547 271 random;
#X floatatom 545 326 5 0 0 0 - - - 0;
#X obj 547 232 t b f;
#X obj 547 172 expr (0.8-$f1)*10;
#X text 600 205 pick a random duration with a minimum of 0.2 to a maximum
of the remaining, f 21;
#X text 313 103 random start point;
#X floatatom 104 385 5 0 0 0 - - - 0;
#X obj 423 515 pack f f f;
#X obj 453 40 t b b b;
#X obj 117 51 bng 15 250 50 0 empty empty empty 17 7 0 10 #fcfcfc #000000
#000000;
#X obj 451 229 f;
#X text 338 151 this madness so the other parameters arrive at the
pack and this number arrives in the left inlet last as the duration
is derived, f 14;
#X obj 452 360 * 44100;
#X obj 546 360 * 44100;
#X obj 545 302 expr 0.2+($f1/10)+$f2;
#X obj 454 96 random 9;
#X obj 271 426 expr (($f3-$f2)/44.1)/$f1;
#X text 281 354 calculate duration based off of start and end point
, f 15;
#X msg 368 690 \$2 \, \$3 \$1;
#X text 193 682 start at a random position play for a certain amount
of time play at speed that is power of two (1/2 \, 1x \, 2x \, 4x \,
etc) is it better to do everything 0-1 and scale to 44 \, 100?, f
22;
#X obj 431 837 *~;
#X msg 522 735 1 \$1 \, 0 \$2 100;
#X obj 522 692 pack f f;
#X obj 523 655 * 0.1;
#X obj 570 656 * 0.8;
#X obj 522 609 t f f;
#X text 627 652 envelope is 10% rise time and then 80% release, f
18;
#X msg 8 229 0.5;
#X msg 44 229 1.5;
#X msg 80 229 1;
#X msg 116 229 2;
#X msg 154 229 3;
#X msg 193 229 4;
#X msg 231 229 5;
#X obj 77 172 sel 0 1 2 3 4 5 6;
#X obj 121 107 random 7;
#X text 213 135 this dividers are based on the harmonics from the hammond
organ, f 14;
#X obj 165 407 f;
#X obj 405 391 f;
#X obj 494 402 f;
#X connect 0 0 1 0;
#X connect 1 0 28 0;
#X connect 2 0 17 0;
#X connect 4 0 28 1;
#X connect 5 0 6 0;
#X connect 5 0 11 0;
#X connect 6 0 18 1;
#X connect 6 0 22 1;
#X connect 7 0 10 0;
#X connect 8 0 22 0;
#X connect 9 0 21 0;
#X connect 10 0 8 0;
#X connect 10 1 8 1;
#X connect 11 0 7 0;
#X connect 14 0 45 0;
#X connect 15 0 26 0;
#X connect 16 0 43 0;
#X connect 16 1 18 0;
#X connect 16 2 23 0;
#X connect 17 0 16 0;
#X connect 18 0 20 0;
#X connect 20 0 15 1;
#X connect 20 0 46 0;
#X connect 21 0 15 2;
#X connect 21 0 47 0;
#X connect 22 0 9 0;
#X connect 23 0 5 0;
#X connect 24 0 15 0;
#X connect 24 0 33 0;
#X connect 26 0 0 0;
#X connect 28 0 3 0;
#X connect 29 0 4 0;
#X connect 30 0 29 0;
#X connect 31 0 30 0;
#X connect 32 0 30 1;
#X connect 33 0 31 0;
#X connect 33 1 32 0;
#X connect 35 0 14 0;
#X connect 36 0 14 0;
#X connect 37 0 14 0;
#X connect 38 0 14 0;
#X connect 39 0 14 0;
#X connect 40 0 14 0;
#X connect 41 0 14 0;
#X connect 42 0 35 0;
#X connect 42 1 36 0;
#X connect 42 2 37 0;
#X connect 42 3 38 0;
#X connect 42 4 39 0;
#X connect 42 5 40 0;
#X connect 42 6 41 0;
#X connect 43 0 42 0;
#X connect 45 0 24 0;
#X connect 46 0 24 1;
#X connect 47 0 24 2;
