#N canvas 489 33 1119 924 12;
#X obj 239 740 line~;
#X obj 240 791 tabread4~ \$1;
#X obj 18 14 inlet;
#X obj 301 901 outlet~;
#X obj 392 802 vline~;
#X obj 320 154 expr $f1/10;
#X floatatom 320 207 5 0 0 0 - - - 0;
#X floatatom 418 212 5 0 0 0 - - - 0;
#X obj 418 287 random;
#X floatatom 416 342 5 0 0 0 - - - 0;
#X obj 418 248 t b f;
#X obj 418 188 expr (0.8-$f1)*10;
#X text 471 221 pick a random duration with a minimum of 0.2 to a maximum
of the remaining, f 21;
#X text 184 119 random start point;
#X obj 121 141 expr pow(2 \, -2 + $f1);
#X floatatom 120 286 5 0 0 0 - - - 0;
#X obj 121 107 random 4;
#X obj 294 531 pack f f f;
#X obj 324 56 t b b b;
#X obj 117 51 bng 15 250 50 0 empty empty empty 17 7 0 10 #fcfcfc #000000
#000000;
#X obj 322 245 f;
#X text 209 167 this madness so the other parameters arrive at the
pack and this number arrives in the left inlet last as the duration
is derived, f 14;
#X obj 323 376 * 44100;
#X obj 417 376 * 44100;
#X obj 416 318 expr 0.2+($f1/10)+$f2;
#X obj 325 112 random 9;
#X text 548 58 pick a random play 2^N playback speed TODO: tweak so
5ths can also be produced, f 20;
#X obj 142 442 expr (($f3-$f2)/44.1)/$f1;
#X text 152 370 calculate duration based off of start and end point
, f 15;
#X msg 239 706 \$2 \, \$3 \$1;
#X text 64 698 start at a random position play for a certain amount
of time play at speed that is power of two (1/2 \, 1x \, 2x \, 4x \,
etc) is it better to do everything 0-1 and scale to 44 \, 100?, f
22;
#X obj 302 853 *~;
#X msg 393 751 1 \$1 \, 0 \$2 100;
#X obj 393 708 pack f f;
#X obj 394 671 * 0.1;
#X obj 441 672 * 0.8;
#X obj 393 625 t f f;
#X text 498 668 envelope is 10% rise time and then 80% release, f
18;
#X connect 0 0 1 0;
#X connect 1 0 31 0;
#X connect 2 0 19 0;
#X connect 4 0 31 1;
#X connect 5 0 6 0;
#X connect 5 0 11 0;
#X connect 6 0 20 1;
#X connect 6 0 24 1;
#X connect 7 0 10 0;
#X connect 8 0 24 0;
#X connect 9 0 23 0;
#X connect 10 0 8 0;
#X connect 10 1 8 1;
#X connect 11 0 7 0;
#X connect 14 0 15 0;
#X connect 15 0 27 0;
#X connect 16 0 14 0;
#X connect 17 0 29 0;
#X connect 18 0 16 0;
#X connect 18 1 20 0;
#X connect 18 2 25 0;
#X connect 19 0 18 0;
#X connect 20 0 22 0;
#X connect 22 0 17 1;
#X connect 22 0 27 1;
#X connect 23 0 17 2;
#X connect 23 0 27 2;
#X connect 24 0 9 0;
#X connect 25 0 5 0;
#X connect 27 0 17 0;
#X connect 27 0 36 0;
#X connect 29 0 0 0;
#X connect 31 0 3 0;
#X connect 32 0 4 0;
#X connect 33 0 32 0;
#X connect 34 0 33 0;
#X connect 35 0 33 1;
#X connect 36 0 34 0;
#X connect 36 1 35 0;
