#N canvas 751 88 904 594 12;
#X obj 142 46 loadbang;
#X obj 369 20 inlet;
#X obj 325 113 t b f;
#X obj 401 547 outlet;
#X obj 429 21 bng 15 250 50 0 empty empty empty 17 7 0 10 #fcfcfc #000000
#000000;
#X obj 561 136 f 0;
#X obj 601 136 + 1;
#X floatatom 564 187 5 0 0 0 - - - 0;
#X obj 562 226 == 0;
#X obj 562 261 sel 1;
#X obj 563 306 bng 15 250 50 0 empty empty empty 17 7 0 10 #fcfcfc
#000000 #000000;
#X obj 595 307 bng 15 250 50 0 empty empty empty 17 7 0 10 #fcfcfc
#000000 #000000;
#X obj 527 343 t b b;
#X obj 643 135 % \$2;
#X obj 496 468 random \$1;
#X obj 182 219 f 808;
#X obj 181 170 bng 15 250 50 0 empty empty empty 17 7 0 10 #fcfcfc
#000000 #000000;
#X msg 185 291 seed \$1;
#X text 260 193 ^ reseed RNG;
#X obj 369 67 route seed range reset;
#X obj 416 250 f \$1;
#X obj 409 170 t b f;
#X obj 768 411 r lol;
#X obj 768 435 print inside;
#X obj 198 110 r \$0-reset;
#X obj 470 110 s \$0-reset;
#X obj 560 380 s \$0-reset;
#X connect 0 0 16 0;
#X connect 1 0 19 0;
#X connect 2 0 15 0;
#X connect 2 1 15 1;
#X connect 4 0 19 0;
#X connect 5 0 6 0;
#X connect 5 0 7 0;
#X connect 6 0 13 0;
#X connect 7 0 8 0;
#X connect 8 0 9 0;
#X connect 9 0 10 0;
#X connect 9 1 11 0;
#X connect 10 0 12 0;
#X connect 11 0 14 0;
#X connect 12 0 14 0;
#X connect 12 1 26 0;
#X connect 13 0 5 1;
#X connect 14 0 3 0;
#X connect 15 0 17 0;
#X connect 16 0 15 0;
#X connect 17 0 14 0;
#X connect 19 0 2 0;
#X connect 19 1 21 0;
#X connect 19 2 25 0;
#X connect 19 3 5 0;
#X connect 20 0 14 1;
#X connect 21 0 20 0;
#X connect 21 1 20 1;
#X connect 22 0 23 0;
#X connect 24 0 16 0;
