#N canvas 1280 18 956 1009 12;
#X obj 193 169 inlet~;
#X obj 204 664 outlet~;
#X obj 198 422 rev1~;
#X obj 336 321 loadbang;
#X msg 335 370 10;
#X obj 7 221 delread4~ \$0-dl 1000;
#X obj 233 208 delwrite~ \$0-dl 4000;
#X obj 20 134 loadbang;
#X msg 20 159 600;
#X obj 37 347 *~ 0.4;
#X obj 502 42 inlet;
#X obj 503 121 s \$0-rev;
#X obj 505 274 r \$0-rev;
#X obj 505 300 expr 1+($f1 * 80);
#X obj 502 86 CC_Scale;
#X floatatom 513 338 5 0 0 0 - - - 0;
#X obj 586 42 inlet;
#X obj 586 86 CC_Scale;
#X obj 587 121 s \$0-dl-vol;
#X obj 76 257 r \$0-dl-vol;
#X obj 76 282 * 2;
#X obj 50 443 *~ 0.2;
#X obj 681 42 inlet;
#X obj 681 86 CC_Scale;
#X obj 682 121 s \$0-dl-fb-vol, f 15;
#X obj 69 504 r \$0-dl-fb-vol;
#X obj 81 550 / 2;
#X floatatom 98 587 5 0 0 0 - - - 0;
#X floatatom 94 326 5 0 0 0 - - - 0;
#X obj 805 40 inlet;
#X obj 805 84 CC_Scale;
#X obj 806 119 s \$0-dl-time, f 15;
#X obj 207 25 r \$0-dl-time;
#X floatatom 218 57 5 0 0 0 - - - 0;
#X obj 127 96 expr ($f1*1200);
#X floatatom 142 128 5 0 0 0 - - - 0;
#X connect 0 0 6 0;
#X connect 0 0 2 0;
#X connect 2 0 1 0;
#X connect 3 0 4 0;
#X connect 4 0 2 1;
#X connect 5 0 9 0;
#X connect 7 0 8 0;
#X connect 8 0 5 0;
#X connect 9 0 2 0;
#X connect 9 0 21 0;
#X connect 10 0 14 0;
#X connect 12 0 13 0;
#X connect 13 0 2 1;
#X connect 13 0 15 0;
#X connect 14 0 11 0;
#X connect 16 0 17 0;
#X connect 17 0 18 0;
#X connect 19 0 20 0;
#X connect 20 0 9 1;
#X connect 20 0 28 0;
#X connect 21 0 6 0;
#X connect 22 0 23 0;
#X connect 23 0 24 0;
#X connect 25 0 26 0;
#X connect 26 0 21 1;
#X connect 26 0 27 0;
#X connect 29 0 30 0;
#X connect 30 0 31 0;
#X connect 32 0 33 0;
#X connect 33 0 34 0;
#X connect 34 0 5 0;
#X connect 34 0 35 0;
