#N canvas 722 99 696 420 12;
#X obj 186 41 inlet~;
#X obj 368 44 inlet;
#X obj 186 222 clip~;
#X floatatom 271 131 5 0 0 0 - - - 0;
#X obj 201 108 * -1;
#X obj 268 220 expr 1/$f1;
#X floatatom 272 78 5 0 0 0 - - - 0;
#X msg 272 48 1;
#X obj 273 18 loadbang;
#X floatatom 201 133 5 0 0 0 - - - 0;
#X floatatom 268 249 5 0 0 0 - - - 0;
#X obj 186 278 *~;
#X obj 186 326 outlet~;
#X connect 0 0 2 0;
#X connect 1 0 6 0;
#X connect 2 0 11 0;
#X connect 3 0 2 2;
#X connect 3 0 5 0;
#X connect 4 0 9 0;
#X connect 5 0 10 0;
#X connect 6 0 3 0;
#X connect 6 0 4 0;
#X connect 7 0 6 0;
#X connect 8 0 7 0;
#X connect 9 0 2 1;
#X connect 10 0 11 1;
#X connect 11 0 12 0;
