#N canvas 488 719 1461 994 12;
#X obj 625 61 inlet;
#X text 673 61 < chord tone#;
#X obj 791 60 inlet;
#X obj 1034 62 inlet;
#X text 1078 62 < octave num;
#X obj 791 134 unpack f f, f 12;
#X text 1166 341 < root \, 3rd \, 5th \, 7th \, 9th;
#X text 839 55 < chord select list root 0/1 (maj \, min) could add
more modes later, f 24;
#X obj 627 339 sel 0 1 2 3 4, f 75;
#X obj 627 479 f;
#X obj 1034 122 s \$0-o;
#X obj 645 452 r \$0-r;
#X obj 837 477 f;
#X obj 1265 92 r \$0-m;
#X obj 1265 128 sel 0 1;
#X msg 1247 168 0;
#X msg 1298 168 -1;
#X obj 1273 207 s \$0-x;
#X obj 854 427 r \$0-r;
#X obj 855 451 + 6;
#X text 852 363 5th;
#X obj 747 401 r \$0-r;
#X text 747 361 3rd;
#X obj 747 499 +;
#X obj 729 527 f;
#X obj 765 474 r \$0-x;
#X obj 747 451 + 4;
#X obj 958 407 r \$0-r;
#X obj 958 505 +;
#X obj 940 533 f;
#X obj 976 480 r \$0-x;
#X text 952 367 7th;
#X obj 958 457 + 10;
#X obj 1044 480 f;
#X obj 1061 430 r \$0-r;
#X text 1059 366 9th;
#X obj 1062 454 + 13;
#X floatatom 840 630 5 0 0 0 - - - 0;
#X obj 872 161 s \$0-m;
#X obj 791 161 s \$0-r;
#X obj 721 97 r \$0-test;
#X obj 645 224 r \$0-sel;
#X obj 627 283 % 5;
#X obj 840 662 expr $f1+($f2*12);
#X floatatom 840 686 5 0 0 0 - - - 0;
#X obj 956 631 r \$0-o;
#X text 1330 130 offsets for b3 and b7, f 11;
#X obj 1270 381 loadbang;
#X msg 1204 441 0;
#X obj 1204 465 s \$0-o;
#X obj 840 728 outlet;
#X msg 1270 433 0 0;
#X obj 1270 466 s \$0-test;
#X text 1108 572 A thing for generating chord tones. Protocol is a
message: |r m< r is a number 0-12 to specify root note (C=0 \, C#=1)
etc \, and m = 0 MAJOR \, 1 = MINOR third inlet selects the octave
, f 37;
#X floatatom 104 147 5 0 0 0 - - - 0;
#X floatatom 145 147 5 0 0 0 - - - 0;
#X floatatom 104 126 5 0 0 0 - - - 0;
#X obj 41 108 r \$0-r;
#X obj 199 109 r \$0-m;
#X obj 116 70 r \$0-o;
#X text 911 177, f 21;
#X connect 0 0 42 0;
#X connect 2 0 5 0;
#X connect 3 0 10 0;
#X connect 5 0 39 0;
#X connect 5 1 38 0;
#X connect 8 0 9 0;
#X connect 8 1 24 0;
#X connect 8 2 12 0;
#X connect 8 3 29 0;
#X connect 8 4 33 0;
#X connect 9 0 37 0;
#X connect 11 0 9 1;
#X connect 12 0 37 0;
#X connect 13 0 14 0;
#X connect 14 0 15 0;
#X connect 14 1 16 0;
#X connect 15 0 17 0;
#X connect 16 0 17 0;
#X connect 18 0 19 0;
#X connect 19 0 12 1;
#X connect 21 0 26 0;
#X connect 23 0 24 1;
#X connect 24 0 37 0;
#X connect 25 0 23 1;
#X connect 26 0 23 0;
#X connect 27 0 32 0;
#X connect 28 0 29 1;
#X connect 29 0 37 0;
#X connect 30 0 28 1;
#X connect 32 0 28 0;
#X connect 33 0 37 0;
#X connect 34 0 36 0;
#X connect 36 0 33 1;
#X connect 37 0 43 0;
#X connect 40 0 5 0;
#X connect 41 0 42 0;
#X connect 42 0 8 0;
#X connect 43 0 44 0;
#X connect 44 0 50 0;
#X connect 45 0 43 1;
#X connect 47 0 48 0;
#X connect 47 0 51 0;
#X connect 48 0 49 0;
#X connect 51 0 52 0;
#X connect 57 0 54 0;
#X connect 58 0 55 0;
#X connect 59 0 56 0;
#X coords 0 -1 1 1 85 70 1 100 100;
