#N canvas 2538 509 1189 836 12;
#X obj 69 22 inlet~;
#X obj 302 693 outlet~;
#X obj 285 279 osc~;
#X obj 284 218 random 10;
#X obj 292 155 tgl 15 0 empty empty empty 17 7 0 10 #fcfcfc #000000
#000000 0 1;
#X obj 735 398 noise~;
#X obj 409 183 sel 1;
#X obj 415 226 bng 15 250 50 0 empty empty empty 17 7 0 10 #fcfcfc
#000000 #000000;
#X obj 452 230 bng 15 250 50 0 empty empty empty 17 7 0 10 #fcfcfc
#000000 #000000;
#X msg 459 276 0;
#X obj 284 246 / 5;
#X obj 74 125 delwrite~ \$0-tape 50;
#X obj 263 20 inlet;
#X text 121 20 audio in;
#X text 306 20 enable;
#X obj 288 422 delread4~ \$0-tape;
#X obj 131 223 switch~;
#X obj 290 503 lop~ 2500;
#X text 475 252 < parameters for warble LFO;
#X obj 340 113 loadbang;
#X obj 283 190 metro 800;
#X obj 782 458 lop~ 650;
#X obj 378 523 * -1;
#X floatatom 378 547 4 0 0 0 - - - 0;
#X floatatom 415 546 5 0 0 0 - - - 0;
#X obj 297 604 clip~ -0.6 0.6;
#X floatatom 477 452 5 0 0 0 - - - 0;
#X obj 446 423 random 10;
#X floatatom 479 501 5 0 0 0 - - - 0;
#X text 783 422 brown? noise;
#X text 520 455 vary the saturation/clip;
#X obj 305 647 *~;
#X floatatom 428 635 5 0 0 0 - - - 0;
#X obj 428 611 expr 1/$f1;
#X obj 478 477 expr 0.6+(0.03*$f1);
#X obj 286 333 *~ 2;
#X obj 285 369 +~ 2;
#X msg 372 248 1.5;
#X msg 373 279 1.5;
#X text 509 592 compensate for the volume loss in clipping by amplifying
by the volume loss \, this should give the saturation effect, f 26
;
#X obj 777 653 *~ 0.06;
#X msg 414 274 0.06;
#X connect 0 0 11 0;
#X connect 2 0 35 0;
#X connect 3 0 10 0;
#X connect 4 0 6 0;
#X connect 4 0 16 0;
#X connect 4 0 20 0;
#X connect 5 0 21 0;
#X connect 6 0 7 0;
#X connect 6 1 8 0;
#X connect 7 0 37 0;
#X connect 7 0 38 0;
#X connect 7 0 41 0;
#X connect 8 0 9 0;
#X connect 9 0 35 1;
#X connect 9 0 36 1;
#X connect 9 0 40 1;
#X connect 10 0 2 0;
#X connect 12 0 4 0;
#X connect 15 0 17 0;
#X connect 17 0 25 0;
#X connect 19 0 4 0;
#X connect 20 0 3 0;
#X connect 20 0 27 0;
#X connect 21 0 40 0;
#X connect 22 0 23 0;
#X connect 23 0 25 1;
#X connect 24 0 25 2;
#X connect 24 0 33 0;
#X connect 25 0 31 0;
#X connect 26 0 34 0;
#X connect 27 0 26 0;
#X connect 28 0 22 0;
#X connect 28 0 24 0;
#X connect 31 0 1 0;
#X connect 32 0 31 1;
#X connect 33 0 32 0;
#X connect 34 0 28 0;
#X connect 35 0 36 0;
#X connect 36 0 15 0;
#X connect 37 0 35 1;
#X connect 38 0 36 1;
#X connect 40 0 1 0;
#X connect 41 0 40 1;
