#N canvas 1108 979 1009 836 12;
#X obj 68 21 inlet~;
#X obj 302 693 outlet~;
#X obj 285 279 osc~;
#X obj 284 218 random 10;
#X obj 283 190 metro 100;
#X obj 292 155 tgl 15 0 empty empty empty 17 7 0 10 #fcfcfc #000000
#000000 0 1;
#X obj 608 393 noise~;
#X obj 285 369 +~ 10;
#X obj 286 333 *~ 5;
#X obj 409 183 sel 1;
#X obj 415 226 bng 15 250 50 0 empty empty empty 17 7 0 10 #fcfcfc
#000000 #000000;
#X obj 452 230 bng 15 250 50 0 empty empty empty 17 7 0 10 #fcfcfc
#000000 #000000;
#X msg 459 276 0;
#X msg 373 279 10;
#X obj 284 246 / 5;
#X obj 69 58 delwrite~ \$0-tape 50;
#X obj 263 20 inlet;
#X text 121 20 audio in;
#X text 306 20 enable;
#X obj 288 422 delread4~ \$0-tape;
#X msg 414 274 0.5;
#X obj 131 223 switch~;
#X obj 290 503 lop~ 2500;
#X msg 372 248 3;
#X text 475 252 < parameters for warble LFO;
#X obj 655 453 lop~ 10;
#X obj 614 510 *~ 0.2;
#X connect 0 0 15 0;
#X connect 2 0 8 0;
#X connect 3 0 14 0;
#X connect 4 0 3 0;
#X connect 5 0 4 0;
#X connect 5 0 9 0;
#X connect 5 0 21 0;
#X connect 6 0 25 0;
#X connect 7 0 19 0;
#X connect 8 0 7 0;
#X connect 9 0 10 0;
#X connect 9 1 11 0;
#X connect 10 0 23 0;
#X connect 10 0 13 0;
#X connect 10 0 20 0;
#X connect 11 0 12 0;
#X connect 12 0 8 1;
#X connect 12 0 7 1;
#X connect 12 0 26 1;
#X connect 13 0 7 1;
#X connect 14 0 2 0;
#X connect 16 0 5 0;
#X connect 19 0 22 0;
#X connect 20 0 26 1;
#X connect 22 0 1 0;
#X connect 23 0 8 1;
#X connect 25 0 26 0;
#X connect 26 0 1 0;
