#N canvas 0 122 956 1009 12;
#X obj 69 22 inlet~;
#X obj 307 776 outlet~;
#X obj 285 279 osc~;
#X obj 284 218 random 10;
#X obj 292 155 tgl 15 0 empty empty empty 17 7 0 10 #fcfcfc #000000
#000000 0 1;
#X obj 669 425 noise~;
#X obj 409 183 sel 1;
#X obj 415 226 bng 15 250 50 0 empty empty empty 17 7 0 10 #fcfcfc
#000000 #000000;
#X obj 452 230 bng 15 250 50 0 empty empty empty 17 7 0 10 #fcfcfc
#000000 #000000;
#X msg 459 276 0;
#X obj 284 246 / 5;
#X obj 263 20 inlet;
#X text 121 20 audio in;
#X text 306 20 enable;
#X obj 288 422 delread4~ \$0-tape;
#X obj 131 223 switch~;
#X text 499 275 < parameters for warble LFO, f 15;
#X obj 340 113 loadbang;
#X obj 283 190 metro 800;
#X obj 716 485 lop~ 650;
#X obj 378 523 * -1;
#X floatatom 378 547 4 0 0 0 - - - 0;
#X floatatom 415 546 5 0 0 0 - - - 0;
#X obj 297 604 clip~ -0.6 0.6;
#X floatatom 477 452 5 0 0 0 - - - 0;
#X obj 446 423 random 10;
#X floatatom 479 501 5 0 0 0 - - - 0;
#X text 717 449 brown? noise;
#X text 520 455 vary the saturation/clip;
#X obj 305 647 *~;
#X floatatom 428 635 5 0 0 0 - - - 0;
#X obj 428 611 expr 1/$f1;
#X obj 478 477 expr 0.6+(0.03*$f1);
#X obj 286 333 *~ 2;
#X obj 285 369 +~ 2;
#X text 509 592 compensate for the volume loss in clipping by amplifying
by the volume loss \, this should give the saturation effect, f 26
;
#X obj 74 125 delwrite~ \$0-tape 2000;
#X text 91 398 a tiny bit of feedback for ghosting, f 12;
#X obj 84 475 *~ 0.2;
#X obj 829 446 + 650;
#X obj 830 422 random 200;
#X msg 372 248 1.8;
#X msg 373 279 1.8;
#X msg 414 274 0.002;
#X obj 711 681 *~ 0.002;
#X obj 294 546 hip~ 100;
#X obj 291 503 lop~ 3000;
#X connect 0 0 36 0;
#X connect 2 0 33 0;
#X connect 3 0 10 0;
#X connect 4 0 6 0;
#X connect 4 0 15 0;
#X connect 4 0 18 0;
#X connect 5 0 19 0;
#X connect 6 0 7 0;
#X connect 6 1 8 0;
#X connect 7 0 41 0;
#X connect 7 0 42 0;
#X connect 7 0 43 0;
#X connect 8 0 9 0;
#X connect 9 0 33 1;
#X connect 9 0 34 1;
#X connect 9 0 44 1;
#X connect 10 0 2 0;
#X connect 11 0 4 0;
#X connect 14 0 38 0;
#X connect 14 0 46 0;
#X connect 17 0 4 0;
#X connect 18 0 3 0;
#X connect 18 0 25 0;
#X connect 18 0 40 0;
#X connect 19 0 44 0;
#X connect 20 0 21 0;
#X connect 21 0 23 1;
#X connect 22 0 23 2;
#X connect 22 0 31 0;
#X connect 23 0 29 0;
#X connect 24 0 32 0;
#X connect 25 0 24 0;
#X connect 26 0 20 0;
#X connect 26 0 22 0;
#X connect 29 0 1 0;
#X connect 30 0 29 1;
#X connect 31 0 30 0;
#X connect 32 0 26 0;
#X connect 33 0 34 0;
#X connect 34 0 14 0;
#X connect 38 0 36 0;
#X connect 39 0 19 1;
#X connect 40 0 39 0;
#X connect 41 0 33 1;
#X connect 42 0 34 1;
#X connect 43 0 44 1;
#X connect 44 0 1 0;
#X connect 45 0 23 0;
#X connect 46 0 45 0;
