#N canvas 626 215 1054 716 12;
#X obj 574 32 inlet~;
#X obj 571 257 outlet~;
#X obj 764 33 inlet;
#X obj 572 154 *~;
#X obj 864 35 inlet;
#X obj 694 66 osc~;
#X obj 697 156 *~;
#X floatatom 762 154 5 0 0 0 - - - 0;
#X floatatom 762 109 5 0 0 0 - - - 0;
#X obj 845 171 hsl 128 15 0 4 0 0 empty empty empty -2 -8 0 10 #fcfcfc
#000000 #000000 0 1;
#X obj 648 195 +~;
#X obj 845 136 hsl 128 15 0 1 0 0 empty empty empty -2 -8 0 10 #fcfcfc
#000000 #000000 0 1;
#X obj 814 222 expr 1-$f1;
#X floatatom 814 246 5 0 0 0 - - - 0;
#X obj 686 302 snapshot~;
#X floatatom 686 326 5 0 0 0 - - - 0;
#X obj 701 276 metro 10;
#X obj 710 252 tgl 15 0 empty empty empty 17 7 0 10 #fcfcfc #000000
#000000 0 1;
#X obj 705 122 abs~;
#X obj 737 96 / 2;
#X obj 968 44 loadbang;
#X msg 968 75 0.4;
#X msg 1021 80 0.1;
#X obj 106 131 hsl 80 10 0 2 0 0 empty empty freq -2 -8 0 10 #fcfcfc
#000000 #000000 0 1;
#X obj 105 156 hsl 80 10 0 1 0 0 empty empty amp -2 -8 0 10 #fcfcfc
#000000 #000000 0 1;
#X connect 0 0 3 0;
#X connect 2 0 8 0;
#X connect 3 0 1 0;
#X connect 4 0 7 0;
#X connect 5 0 18 0;
#X connect 6 0 10 0;
#X connect 7 0 6 1;
#X connect 7 0 24 0;
#X connect 8 0 19 0;
#X connect 8 0 23 0;
#X connect 9 0 8 0;
#X connect 10 0 14 0;
#X connect 10 0 3 1;
#X connect 11 0 12 0;
#X connect 11 0 7 0;
#X connect 12 0 13 0;
#X connect 13 0 10 1;
#X connect 14 0 15 0;
#X connect 16 0 14 0;
#X connect 17 0 16 0;
#X connect 18 0 6 0;
#X connect 19 0 5 0;
#X connect 20 0 21 0;
#X connect 20 0 22 0;
#X connect 21 0 11 0;
#X connect 22 0 9 0;
#X coords 0 -1 1 1 90 70 1 100 100;
