#N canvas 2241 414 1599 990 12;
#X symbolatom 584 379 10 0 0 0 - - - 0;
#X symbolatom 678 379 10 0 0 0 - - - 0;
#X obj 582 513 list append;
#X obj 606 557 unpack f f f f f f;
#X obj 590 619 vradio 15 1 0 12 empty empty empty 0 -8 0 10 #fcfcfc
#000000 #000000 0;
#X obj 618 619 vradio 15 1 0 12 empty empty empty 0 -8 0 10 #fcfcfc
#000000 #000000 0;
#X obj 700 619 vradio 15 1 0 12 empty empty empty 0 -8 0 10 #fcfcfc
#000000 #000000 0;
#X obj 645 619 vradio 15 1 0 12 empty empty empty 0 -8 0 10 #fcfcfc
#000000 #000000 0;
#X obj 727 619 vradio 15 1 0 12 empty empty empty 0 -8 0 10 #fcfcfc
#000000 #000000 0;
#X obj 673 619 vradio 15 1 0 12 empty empty empty 0 -8 0 10 #fcfcfc
#000000 #000000 0;
#X obj 43 618 f;
#X obj 43 531 bng 15 250 50 0 empty empty empty 17 7 0 10 #fcfcfc #000000
#000000;
#X obj 130 618 f;
#X obj 130 531 bng 15 250 50 0 empty empty empty 17 7 0 10 #fcfcfc
#000000 #000000;
#X obj 218 618 f;
#X obj 218 531 bng 15 250 50 0 empty empty empty 17 7 0 10 #fcfcfc
#000000 #000000;
#X obj 301 618 f;
#X obj 301 531 bng 15 250 50 0 empty empty empty 17 7 0 10 #fcfcfc
#000000 #000000;
#X obj 384 618 f;
#X obj 384 531 bng 15 250 50 0 empty empty empty 17 7 0 10 #fcfcfc
#000000 #000000;
#X obj 475 618 f;
#X obj 474 531 bng 15 250 50 0 empty empty empty 17 7 0 10 #fcfcfc
#000000 #000000;
#X obj 43 459 sel 0 1 2 3 4 5;
#X floatatom 44 660 5 0 0 0 - - - 0;
#X floatatom 47 754 5 0 0 0 - - - 0;
#X obj 116 423 Random_Ring 6 16;
#X obj 117 383 bng 15 250 50 0 empty empty empty 17 7 0 10 #fcfcfc
#000000 #000000;
#X obj 43 306 inlet;
#X obj 584 296 inlet;
#X obj 974 295 inlet;
#X obj 48 803 outlet;
#X obj 582 466 Triads;
#X obj 672 465 Triads;
#X obj 61 531 r \$0-1/6;
#X obj 149 531 r \$0-2/6;
#X obj 236 531 r \$0-3/6;
#X obj 318 531 r \$0-4/6;
#X obj 404 531 r \$0-5/6;
#X obj 493 531 r \$0-6/6;
#X obj 96 693 r \$0-root;
#X obj 974 326 s \$0-root;
#X obj 590 825 s \$0-1/6;
#X obj 618 852 s \$0-2/6;
#X obj 644 880 s \$0-3/6;
#X obj 672 907 s \$0-4/6;
#X obj 701 935 s \$0-5/6;
#X obj 727 962 s \$0-6/6;
#X obj 47 730 + 0;
#X floatatom 81 559 5 0 0 0 - - - 0;
#X floatatom 169 559 5 0 0 0 - - - 0;
#X floatatom 258 559 5 0 0 0 - - - 0;
#X floatatom 339 559 5 0 0 0 - - - 0;
#X floatatom 425 559 5 0 0 0 - - - 0;
#X floatatom 516 559 5 0 0 0 - - - 0;
#N canvas 0 281 823 502 TriadSelect 0;
#X obj 348 136 sel 0 1 2 3 4 5 6 7 8 9 10 11 12;
#X obj 285 272 unpack s s;
#X symbolatom 246 315 10 0 0 0 - - - 0;
#X symbolatom 332 315 10 0 0 0 - - - 0;
#X msg 18 219 cm eb;
#X msg 146 219 cm bb;
#X msg 214 219 cm dm;
#X msg 278 219 cm db;
#X msg 337 219 eb f;
#X msg 394 219 eb dm;
#X msg 458 219 f g;
#X msg 504 219 fm gm;
#X msg 562 219 fm g;
#X msg 617 219 db g;
#X msg 669 219 ab g;
#X msg 727 219 cm d;
#X obj 348 113 hradio 15 1 0 12 empty empty empty 0 -8 0 10 #fcfcfc
#000000 #000000 0;
#X msg 85 219 cm bdim;
#X msg 276 85 0;
#X obj 182 66 loadbang;
#X obj 350 19 inlet;
#X obj 246 353 outlet;
#X obj 333 352 outlet;
#X connect 0 0 4 0;
#X connect 0 1 17 0;
#X connect 0 2 5 0;
#X connect 0 3 6 0;
#X connect 0 4 7 0;
#X connect 0 5 8 0;
#X connect 0 6 9 0;
#X connect 0 7 10 0;
#X connect 0 8 11 0;
#X connect 0 9 12 0;
#X connect 0 10 13 0;
#X connect 0 11 14 0;
#X connect 0 12 15 0;
#X connect 1 0 2 0;
#X connect 1 1 3 0;
#X connect 2 0 21 0;
#X connect 3 0 22 0;
#X connect 4 0 1 0;
#X connect 5 0 1 0;
#X connect 6 0 1 0;
#X connect 7 0 1 0;
#X connect 8 0 1 0;
#X connect 9 0 1 0;
#X connect 10 0 1 0;
#X connect 11 0 1 0;
#X connect 12 0 1 0;
#X connect 13 0 1 0;
#X connect 14 0 1 0;
#X connect 15 0 1 0;
#X connect 16 0 0 0;
#X connect 17 0 1 0;
#X connect 18 0 16 0;
#X connect 19 0 18 0;
#X connect 20 0 16 0;
#X restore 583 332 pd TriadSelect;
#X text 635 295 < inlet \, f 0-12 \, select one of 13 triad pairs;
#X obj 43 341 route float;
#X obj 43 377 % 6;
#X text 90 304 < bang: random note from 16 note ring \, f: note# \,
mod 6;
#X obj 154 343 r \$0-reset-ring;
#X msg 154 376 reset;
#X text 1022 293 < inlet \, change root note;
#X obj 1215 295 inlet;
#X text 1263 293 < inlet \, reset random ring;
#X obj 1215 326 s \$0-reset-ring;
#X symbolatom 108 132 5 0 0 0 - - - 0;
#X symbolatom 161 132 5 0 0 0 - - - 0;
#X connect 0 0 31 0;
#X connect 0 0 65 0;
#X connect 1 0 32 0;
#X connect 1 0 66 0;
#X connect 2 0 3 0;
#X connect 3 0 4 0;
#X connect 3 1 5 0;
#X connect 3 2 7 0;
#X connect 3 3 9 0;
#X connect 3 4 6 0;
#X connect 3 5 8 0;
#X connect 4 0 41 0;
#X connect 5 0 42 0;
#X connect 6 0 45 0;
#X connect 7 0 43 0;
#X connect 8 0 46 0;
#X connect 9 0 44 0;
#X connect 10 0 23 0;
#X connect 11 0 10 0;
#X connect 12 0 23 0;
#X connect 13 0 12 0;
#X connect 14 0 23 0;
#X connect 15 0 14 0;
#X connect 16 0 23 0;
#X connect 17 0 16 0;
#X connect 18 0 23 0;
#X connect 19 0 18 0;
#X connect 20 0 23 0;
#X connect 21 0 20 0;
#X connect 22 0 11 0;
#X connect 22 1 13 0;
#X connect 22 2 15 0;
#X connect 22 3 17 0;
#X connect 22 4 19 0;
#X connect 22 5 21 0;
#X connect 23 0 47 0;
#X connect 24 0 30 0;
#X connect 25 0 22 0;
#X connect 26 0 25 0;
#X connect 27 0 56 0;
#X connect 28 0 54 0;
#X connect 29 0 40 0;
#X connect 31 0 2 0;
#X connect 32 0 2 1;
#X connect 33 0 10 1;
#X connect 33 0 48 0;
#X connect 34 0 12 1;
#X connect 34 0 49 0;
#X connect 35 0 14 1;
#X connect 35 0 50 0;
#X connect 36 0 16 1;
#X connect 36 0 51 0;
#X connect 37 0 18 1;
#X connect 37 0 52 0;
#X connect 38 0 20 1;
#X connect 38 0 53 0;
#X connect 39 0 47 1;
#X connect 47 0 24 0;
#X connect 54 0 0 0;
#X connect 54 1 1 0;
#X connect 56 0 57 0;
#X connect 56 1 26 0;
#X connect 57 0 22 0;
#X connect 59 0 60 0;
#X connect 60 0 25 0;
#X connect 62 0 64 0;
#X coords 0 -1 1 1 150 60 1 100 100;
